%TF.GenerationSoftware,KiCad,Pcbnew,8.0.4*%
%TF.CreationDate,2024-12-04T19:54:40+09:00*%
%TF.ProjectId,gradmc,67726164-6d63-42e6-9b69-6361645f7063,rev?*%
%TF.SameCoordinates,Original*%
%TF.FileFunction,Legend,Top*%
%TF.FilePolarity,Positive*%
%FSLAX46Y46*%
G04 Gerber Fmt 4.6, Leading zero omitted, Abs format (unit mm)*
G04 Created by KiCad (PCBNEW 8.0.4) date 2024-12-04 19:54:40*
%MOMM*%
%LPD*%
G01*
G04 APERTURE LIST*
%ADD10C,0.300000*%
%ADD11C,0.200000*%
%ADD12C,0.150000*%
%ADD13C,0.120000*%
G04 APERTURE END LIST*
D10*
X296411653Y-208885912D02*
X297411653Y-208885912D01*
X297411653Y-208885912D02*
X296411653Y-210385912D01*
X296411653Y-210385912D02*
X297411653Y-210385912D01*
X297983081Y-210385912D02*
X297983081Y-209385912D01*
X297983081Y-208885912D02*
X297911653Y-208957341D01*
X297911653Y-208957341D02*
X297983081Y-209028769D01*
X297983081Y-209028769D02*
X298054510Y-208957341D01*
X298054510Y-208957341D02*
X297983081Y-208885912D01*
X297983081Y-208885912D02*
X297983081Y-209028769D01*
X298697367Y-210385912D02*
X298697367Y-208885912D01*
X299340225Y-210385912D02*
X299340225Y-209600198D01*
X299340225Y-209600198D02*
X299268796Y-209457341D01*
X299268796Y-209457341D02*
X299125939Y-209385912D01*
X299125939Y-209385912D02*
X298911653Y-209385912D01*
X298911653Y-209385912D02*
X298768796Y-209457341D01*
X298768796Y-209457341D02*
X298697367Y-209528769D01*
X300268796Y-210385912D02*
X300125939Y-210314484D01*
X300125939Y-210314484D02*
X300054510Y-210243055D01*
X300054510Y-210243055D02*
X299983082Y-210100198D01*
X299983082Y-210100198D02*
X299983082Y-209671626D01*
X299983082Y-209671626D02*
X300054510Y-209528769D01*
X300054510Y-209528769D02*
X300125939Y-209457341D01*
X300125939Y-209457341D02*
X300268796Y-209385912D01*
X300268796Y-209385912D02*
X300483082Y-209385912D01*
X300483082Y-209385912D02*
X300625939Y-209457341D01*
X300625939Y-209457341D02*
X300697368Y-209528769D01*
X300697368Y-209528769D02*
X300768796Y-209671626D01*
X300768796Y-209671626D02*
X300768796Y-210100198D01*
X300768796Y-210100198D02*
X300697368Y-210243055D01*
X300697368Y-210243055D02*
X300625939Y-210314484D01*
X300625939Y-210314484D02*
X300483082Y-210385912D01*
X300483082Y-210385912D02*
X300268796Y-210385912D01*
X302054511Y-210385912D02*
X302054511Y-208885912D01*
X302054511Y-210314484D02*
X301911653Y-210385912D01*
X301911653Y-210385912D02*
X301625939Y-210385912D01*
X301625939Y-210385912D02*
X301483082Y-210314484D01*
X301483082Y-210314484D02*
X301411653Y-210243055D01*
X301411653Y-210243055D02*
X301340225Y-210100198D01*
X301340225Y-210100198D02*
X301340225Y-209671626D01*
X301340225Y-209671626D02*
X301411653Y-209528769D01*
X301411653Y-209528769D02*
X301483082Y-209457341D01*
X301483082Y-209457341D02*
X301625939Y-209385912D01*
X301625939Y-209385912D02*
X301911653Y-209385912D01*
X301911653Y-209385912D02*
X302054511Y-209457341D01*
X302625939Y-209385912D02*
X302983082Y-210385912D01*
X303340225Y-209385912D02*
X302983082Y-210385912D01*
X302983082Y-210385912D02*
X302840225Y-210743055D01*
X302840225Y-210743055D02*
X302768796Y-210814484D01*
X302768796Y-210814484D02*
X302625939Y-210885912D01*
X304911653Y-209385912D02*
X305268796Y-210385912D01*
X305268796Y-210385912D02*
X305625939Y-209385912D01*
X306983082Y-210385912D02*
X306125939Y-210385912D01*
X306554510Y-210385912D02*
X306554510Y-208885912D01*
X306554510Y-208885912D02*
X306411653Y-209100198D01*
X306411653Y-209100198D02*
X306268796Y-209243055D01*
X306268796Y-209243055D02*
X306125939Y-209314484D01*
X307625938Y-210243055D02*
X307697367Y-210314484D01*
X307697367Y-210314484D02*
X307625938Y-210385912D01*
X307625938Y-210385912D02*
X307554510Y-210314484D01*
X307554510Y-210314484D02*
X307625938Y-210243055D01*
X307625938Y-210243055D02*
X307625938Y-210385912D01*
X308625939Y-208885912D02*
X308768796Y-208885912D01*
X308768796Y-208885912D02*
X308911653Y-208957341D01*
X308911653Y-208957341D02*
X308983082Y-209028769D01*
X308983082Y-209028769D02*
X309054510Y-209171626D01*
X309054510Y-209171626D02*
X309125939Y-209457341D01*
X309125939Y-209457341D02*
X309125939Y-209814484D01*
X309125939Y-209814484D02*
X309054510Y-210100198D01*
X309054510Y-210100198D02*
X308983082Y-210243055D01*
X308983082Y-210243055D02*
X308911653Y-210314484D01*
X308911653Y-210314484D02*
X308768796Y-210385912D01*
X308768796Y-210385912D02*
X308625939Y-210385912D01*
X308625939Y-210385912D02*
X308483082Y-210314484D01*
X308483082Y-210314484D02*
X308411653Y-210243055D01*
X308411653Y-210243055D02*
X308340224Y-210100198D01*
X308340224Y-210100198D02*
X308268796Y-209814484D01*
X308268796Y-209814484D02*
X308268796Y-209457341D01*
X308268796Y-209457341D02*
X308340224Y-209171626D01*
X308340224Y-209171626D02*
X308411653Y-209028769D01*
X308411653Y-209028769D02*
X308483082Y-208957341D01*
X308483082Y-208957341D02*
X308625939Y-208885912D01*
X297483082Y-212086542D02*
X297411653Y-212015114D01*
X297411653Y-212015114D02*
X297268796Y-211943685D01*
X297268796Y-211943685D02*
X297125939Y-211943685D01*
X297125939Y-211943685D02*
X296983082Y-212015114D01*
X296983082Y-212015114D02*
X296911653Y-212086542D01*
X296911653Y-212086542D02*
X296840225Y-212229400D01*
X296840225Y-212229400D02*
X296840225Y-212372257D01*
X296840225Y-212372257D02*
X296911653Y-212515114D01*
X296911653Y-212515114D02*
X296983082Y-212586542D01*
X296983082Y-212586542D02*
X297125939Y-212657971D01*
X297125939Y-212657971D02*
X297268796Y-212657971D01*
X297268796Y-212657971D02*
X297411653Y-212586542D01*
X297411653Y-212586542D02*
X297483082Y-212515114D01*
X297483082Y-211943685D02*
X297483082Y-212515114D01*
X297483082Y-212515114D02*
X297554510Y-212586542D01*
X297554510Y-212586542D02*
X297625939Y-212586542D01*
X297625939Y-212586542D02*
X297768796Y-212515114D01*
X297768796Y-212515114D02*
X297840225Y-212372257D01*
X297840225Y-212372257D02*
X297840225Y-212015114D01*
X297840225Y-212015114D02*
X297697368Y-211800828D01*
X297697368Y-211800828D02*
X297483082Y-211657971D01*
X297483082Y-211657971D02*
X297197368Y-211586542D01*
X297197368Y-211586542D02*
X296911653Y-211657971D01*
X296911653Y-211657971D02*
X296697368Y-211800828D01*
X296697368Y-211800828D02*
X296554510Y-212015114D01*
X296554510Y-212015114D02*
X296483082Y-212300828D01*
X296483082Y-212300828D02*
X296554510Y-212586542D01*
X296554510Y-212586542D02*
X296697368Y-212800828D01*
X296697368Y-212800828D02*
X296911653Y-212943685D01*
X296911653Y-212943685D02*
X297197368Y-213015114D01*
X297197368Y-213015114D02*
X297483082Y-212943685D01*
X297483082Y-212943685D02*
X297697368Y-212800828D01*
X298340224Y-211800828D02*
X299125939Y-211800828D01*
X299125939Y-211800828D02*
X298340224Y-212800828D01*
X298340224Y-212800828D02*
X299125939Y-212800828D01*
X299697367Y-212800828D02*
X299697367Y-211800828D01*
X299697367Y-211300828D02*
X299625939Y-211372257D01*
X299625939Y-211372257D02*
X299697367Y-211443685D01*
X299697367Y-211443685D02*
X299768796Y-211372257D01*
X299768796Y-211372257D02*
X299697367Y-211300828D01*
X299697367Y-211300828D02*
X299697367Y-211443685D01*
X300411653Y-212800828D02*
X300411653Y-211300828D01*
X301054511Y-212800828D02*
X301054511Y-212015114D01*
X301054511Y-212015114D02*
X300983082Y-211872257D01*
X300983082Y-211872257D02*
X300840225Y-211800828D01*
X300840225Y-211800828D02*
X300625939Y-211800828D01*
X300625939Y-211800828D02*
X300483082Y-211872257D01*
X300483082Y-211872257D02*
X300411653Y-211943685D01*
X301983082Y-212800828D02*
X301840225Y-212729400D01*
X301840225Y-212729400D02*
X301768796Y-212657971D01*
X301768796Y-212657971D02*
X301697368Y-212515114D01*
X301697368Y-212515114D02*
X301697368Y-212086542D01*
X301697368Y-212086542D02*
X301768796Y-211943685D01*
X301768796Y-211943685D02*
X301840225Y-211872257D01*
X301840225Y-211872257D02*
X301983082Y-211800828D01*
X301983082Y-211800828D02*
X302197368Y-211800828D01*
X302197368Y-211800828D02*
X302340225Y-211872257D01*
X302340225Y-211872257D02*
X302411654Y-211943685D01*
X302411654Y-211943685D02*
X302483082Y-212086542D01*
X302483082Y-212086542D02*
X302483082Y-212515114D01*
X302483082Y-212515114D02*
X302411654Y-212657971D01*
X302411654Y-212657971D02*
X302340225Y-212729400D01*
X302340225Y-212729400D02*
X302197368Y-212800828D01*
X302197368Y-212800828D02*
X301983082Y-212800828D01*
X302983082Y-211800828D02*
X303768797Y-211800828D01*
X303768797Y-211800828D02*
X302983082Y-212800828D01*
X302983082Y-212800828D02*
X303768797Y-212800828D01*
X304340225Y-212800828D02*
X304340225Y-211800828D01*
X304340225Y-211300828D02*
X304268797Y-211372257D01*
X304268797Y-211372257D02*
X304340225Y-211443685D01*
X304340225Y-211443685D02*
X304411654Y-211372257D01*
X304411654Y-211372257D02*
X304340225Y-211300828D01*
X304340225Y-211300828D02*
X304340225Y-211443685D01*
X305054511Y-212800828D02*
X305054511Y-211300828D01*
X305697369Y-212800828D02*
X305697369Y-212015114D01*
X305697369Y-212015114D02*
X305625940Y-211872257D01*
X305625940Y-211872257D02*
X305483083Y-211800828D01*
X305483083Y-211800828D02*
X305268797Y-211800828D01*
X305268797Y-211800828D02*
X305125940Y-211872257D01*
X305125940Y-211872257D02*
X305054511Y-211943685D01*
X306625940Y-212800828D02*
X306483083Y-212729400D01*
X306483083Y-212729400D02*
X306411654Y-212657971D01*
X306411654Y-212657971D02*
X306340226Y-212515114D01*
X306340226Y-212515114D02*
X306340226Y-212086542D01*
X306340226Y-212086542D02*
X306411654Y-211943685D01*
X306411654Y-211943685D02*
X306483083Y-211872257D01*
X306483083Y-211872257D02*
X306625940Y-211800828D01*
X306625940Y-211800828D02*
X306840226Y-211800828D01*
X306840226Y-211800828D02*
X306983083Y-211872257D01*
X306983083Y-211872257D02*
X307054512Y-211943685D01*
X307054512Y-211943685D02*
X307125940Y-212086542D01*
X307125940Y-212086542D02*
X307125940Y-212515114D01*
X307125940Y-212515114D02*
X307054512Y-212657971D01*
X307054512Y-212657971D02*
X306983083Y-212729400D01*
X306983083Y-212729400D02*
X306840226Y-212800828D01*
X306840226Y-212800828D02*
X306625940Y-212800828D01*
X307625940Y-211800828D02*
X308411655Y-211800828D01*
X308411655Y-211800828D02*
X307625940Y-212800828D01*
X307625940Y-212800828D02*
X308411655Y-212800828D01*
X308983083Y-212800828D02*
X308983083Y-211800828D01*
X308983083Y-211300828D02*
X308911655Y-211372257D01*
X308911655Y-211372257D02*
X308983083Y-211443685D01*
X308983083Y-211443685D02*
X309054512Y-211372257D01*
X309054512Y-211372257D02*
X308983083Y-211300828D01*
X308983083Y-211300828D02*
X308983083Y-211443685D01*
D11*
X309025000Y-185000000D02*
G75*
G02*
X269025000Y-185000000I-20000000J0D01*
G01*
X269025000Y-185000000D02*
G75*
G02*
X309025000Y-185000000I20000000J0D01*
G01*
X306025000Y-185000000D02*
G75*
G02*
X272025000Y-185000000I-17000000J0D01*
G01*
X272025000Y-185000000D02*
G75*
G02*
X306025000Y-185000000I17000000J0D01*
G01*
D12*
X81571905Y-93620819D02*
X81571905Y-94430342D01*
X81571905Y-94430342D02*
X81619524Y-94525580D01*
X81619524Y-94525580D02*
X81667143Y-94573200D01*
X81667143Y-94573200D02*
X81762381Y-94620819D01*
X81762381Y-94620819D02*
X81952857Y-94620819D01*
X81952857Y-94620819D02*
X82048095Y-94573200D01*
X82048095Y-94573200D02*
X82095714Y-94525580D01*
X82095714Y-94525580D02*
X82143333Y-94430342D01*
X82143333Y-94430342D02*
X82143333Y-93620819D01*
X83143333Y-94620819D02*
X82571905Y-94620819D01*
X82857619Y-94620819D02*
X82857619Y-93620819D01*
X82857619Y-93620819D02*
X82762381Y-93763676D01*
X82762381Y-93763676D02*
X82667143Y-93858914D01*
X82667143Y-93858914D02*
X82571905Y-93906533D01*
X84095714Y-94620819D02*
X83524286Y-94620819D01*
X83810000Y-94620819D02*
X83810000Y-93620819D01*
X83810000Y-93620819D02*
X83714762Y-93763676D01*
X83714762Y-93763676D02*
X83619524Y-93858914D01*
X83619524Y-93858914D02*
X83524286Y-93906533D01*
X201571905Y-53620819D02*
X201571905Y-54430342D01*
X201571905Y-54430342D02*
X201619524Y-54525580D01*
X201619524Y-54525580D02*
X201667143Y-54573200D01*
X201667143Y-54573200D02*
X201762381Y-54620819D01*
X201762381Y-54620819D02*
X201952857Y-54620819D01*
X201952857Y-54620819D02*
X202048095Y-54573200D01*
X202048095Y-54573200D02*
X202095714Y-54525580D01*
X202095714Y-54525580D02*
X202143333Y-54430342D01*
X202143333Y-54430342D02*
X202143333Y-53620819D01*
X203095714Y-53620819D02*
X202619524Y-53620819D01*
X202619524Y-53620819D02*
X202571905Y-54097009D01*
X202571905Y-54097009D02*
X202619524Y-54049390D01*
X202619524Y-54049390D02*
X202714762Y-54001771D01*
X202714762Y-54001771D02*
X202952857Y-54001771D01*
X202952857Y-54001771D02*
X203048095Y-54049390D01*
X203048095Y-54049390D02*
X203095714Y-54097009D01*
X203095714Y-54097009D02*
X203143333Y-54192247D01*
X203143333Y-54192247D02*
X203143333Y-54430342D01*
X203143333Y-54430342D02*
X203095714Y-54525580D01*
X203095714Y-54525580D02*
X203048095Y-54573200D01*
X203048095Y-54573200D02*
X202952857Y-54620819D01*
X202952857Y-54620819D02*
X202714762Y-54620819D01*
X202714762Y-54620819D02*
X202619524Y-54573200D01*
X202619524Y-54573200D02*
X202571905Y-54525580D01*
X203476667Y-53620819D02*
X204143333Y-53620819D01*
X204143333Y-53620819D02*
X203714762Y-54620819D01*
X201571905Y-73620819D02*
X201571905Y-74430342D01*
X201571905Y-74430342D02*
X201619524Y-74525580D01*
X201619524Y-74525580D02*
X201667143Y-74573200D01*
X201667143Y-74573200D02*
X201762381Y-74620819D01*
X201762381Y-74620819D02*
X201952857Y-74620819D01*
X201952857Y-74620819D02*
X202048095Y-74573200D01*
X202048095Y-74573200D02*
X202095714Y-74525580D01*
X202095714Y-74525580D02*
X202143333Y-74430342D01*
X202143333Y-74430342D02*
X202143333Y-73620819D01*
X203095714Y-73620819D02*
X202619524Y-73620819D01*
X202619524Y-73620819D02*
X202571905Y-74097009D01*
X202571905Y-74097009D02*
X202619524Y-74049390D01*
X202619524Y-74049390D02*
X202714762Y-74001771D01*
X202714762Y-74001771D02*
X202952857Y-74001771D01*
X202952857Y-74001771D02*
X203048095Y-74049390D01*
X203048095Y-74049390D02*
X203095714Y-74097009D01*
X203095714Y-74097009D02*
X203143333Y-74192247D01*
X203143333Y-74192247D02*
X203143333Y-74430342D01*
X203143333Y-74430342D02*
X203095714Y-74525580D01*
X203095714Y-74525580D02*
X203048095Y-74573200D01*
X203048095Y-74573200D02*
X202952857Y-74620819D01*
X202952857Y-74620819D02*
X202714762Y-74620819D01*
X202714762Y-74620819D02*
X202619524Y-74573200D01*
X202619524Y-74573200D02*
X202571905Y-74525580D01*
X203714762Y-74049390D02*
X203619524Y-74001771D01*
X203619524Y-74001771D02*
X203571905Y-73954152D01*
X203571905Y-73954152D02*
X203524286Y-73858914D01*
X203524286Y-73858914D02*
X203524286Y-73811295D01*
X203524286Y-73811295D02*
X203571905Y-73716057D01*
X203571905Y-73716057D02*
X203619524Y-73668438D01*
X203619524Y-73668438D02*
X203714762Y-73620819D01*
X203714762Y-73620819D02*
X203905238Y-73620819D01*
X203905238Y-73620819D02*
X204000476Y-73668438D01*
X204000476Y-73668438D02*
X204048095Y-73716057D01*
X204048095Y-73716057D02*
X204095714Y-73811295D01*
X204095714Y-73811295D02*
X204095714Y-73858914D01*
X204095714Y-73858914D02*
X204048095Y-73954152D01*
X204048095Y-73954152D02*
X204000476Y-74001771D01*
X204000476Y-74001771D02*
X203905238Y-74049390D01*
X203905238Y-74049390D02*
X203714762Y-74049390D01*
X203714762Y-74049390D02*
X203619524Y-74097009D01*
X203619524Y-74097009D02*
X203571905Y-74144628D01*
X203571905Y-74144628D02*
X203524286Y-74239866D01*
X203524286Y-74239866D02*
X203524286Y-74430342D01*
X203524286Y-74430342D02*
X203571905Y-74525580D01*
X203571905Y-74525580D02*
X203619524Y-74573200D01*
X203619524Y-74573200D02*
X203714762Y-74620819D01*
X203714762Y-74620819D02*
X203905238Y-74620819D01*
X203905238Y-74620819D02*
X204000476Y-74573200D01*
X204000476Y-74573200D02*
X204048095Y-74525580D01*
X204048095Y-74525580D02*
X204095714Y-74430342D01*
X204095714Y-74430342D02*
X204095714Y-74239866D01*
X204095714Y-74239866D02*
X204048095Y-74144628D01*
X204048095Y-74144628D02*
X204000476Y-74097009D01*
X204000476Y-74097009D02*
X203905238Y-74049390D01*
X201571905Y-153620819D02*
X201571905Y-154430342D01*
X201571905Y-154430342D02*
X201619524Y-154525580D01*
X201619524Y-154525580D02*
X201667143Y-154573200D01*
X201667143Y-154573200D02*
X201762381Y-154620819D01*
X201762381Y-154620819D02*
X201952857Y-154620819D01*
X201952857Y-154620819D02*
X202048095Y-154573200D01*
X202048095Y-154573200D02*
X202095714Y-154525580D01*
X202095714Y-154525580D02*
X202143333Y-154430342D01*
X202143333Y-154430342D02*
X202143333Y-153620819D01*
X203048095Y-153620819D02*
X202857619Y-153620819D01*
X202857619Y-153620819D02*
X202762381Y-153668438D01*
X202762381Y-153668438D02*
X202714762Y-153716057D01*
X202714762Y-153716057D02*
X202619524Y-153858914D01*
X202619524Y-153858914D02*
X202571905Y-154049390D01*
X202571905Y-154049390D02*
X202571905Y-154430342D01*
X202571905Y-154430342D02*
X202619524Y-154525580D01*
X202619524Y-154525580D02*
X202667143Y-154573200D01*
X202667143Y-154573200D02*
X202762381Y-154620819D01*
X202762381Y-154620819D02*
X202952857Y-154620819D01*
X202952857Y-154620819D02*
X203048095Y-154573200D01*
X203048095Y-154573200D02*
X203095714Y-154525580D01*
X203095714Y-154525580D02*
X203143333Y-154430342D01*
X203143333Y-154430342D02*
X203143333Y-154192247D01*
X203143333Y-154192247D02*
X203095714Y-154097009D01*
X203095714Y-154097009D02*
X203048095Y-154049390D01*
X203048095Y-154049390D02*
X202952857Y-154001771D01*
X202952857Y-154001771D02*
X202762381Y-154001771D01*
X202762381Y-154001771D02*
X202667143Y-154049390D01*
X202667143Y-154049390D02*
X202619524Y-154097009D01*
X202619524Y-154097009D02*
X202571905Y-154192247D01*
X203524286Y-153716057D02*
X203571905Y-153668438D01*
X203571905Y-153668438D02*
X203667143Y-153620819D01*
X203667143Y-153620819D02*
X203905238Y-153620819D01*
X203905238Y-153620819D02*
X204000476Y-153668438D01*
X204000476Y-153668438D02*
X204048095Y-153716057D01*
X204048095Y-153716057D02*
X204095714Y-153811295D01*
X204095714Y-153811295D02*
X204095714Y-153906533D01*
X204095714Y-153906533D02*
X204048095Y-154049390D01*
X204048095Y-154049390D02*
X203476667Y-154620819D01*
X203476667Y-154620819D02*
X204095714Y-154620819D01*
X181571905Y-73620819D02*
X181571905Y-74430342D01*
X181571905Y-74430342D02*
X181619524Y-74525580D01*
X181619524Y-74525580D02*
X181667143Y-74573200D01*
X181667143Y-74573200D02*
X181762381Y-74620819D01*
X181762381Y-74620819D02*
X181952857Y-74620819D01*
X181952857Y-74620819D02*
X182048095Y-74573200D01*
X182048095Y-74573200D02*
X182095714Y-74525580D01*
X182095714Y-74525580D02*
X182143333Y-74430342D01*
X182143333Y-74430342D02*
X182143333Y-73620819D01*
X183095714Y-73620819D02*
X182619524Y-73620819D01*
X182619524Y-73620819D02*
X182571905Y-74097009D01*
X182571905Y-74097009D02*
X182619524Y-74049390D01*
X182619524Y-74049390D02*
X182714762Y-74001771D01*
X182714762Y-74001771D02*
X182952857Y-74001771D01*
X182952857Y-74001771D02*
X183048095Y-74049390D01*
X183048095Y-74049390D02*
X183095714Y-74097009D01*
X183095714Y-74097009D02*
X183143333Y-74192247D01*
X183143333Y-74192247D02*
X183143333Y-74430342D01*
X183143333Y-74430342D02*
X183095714Y-74525580D01*
X183095714Y-74525580D02*
X183048095Y-74573200D01*
X183048095Y-74573200D02*
X182952857Y-74620819D01*
X182952857Y-74620819D02*
X182714762Y-74620819D01*
X182714762Y-74620819D02*
X182619524Y-74573200D01*
X182619524Y-74573200D02*
X182571905Y-74525580D01*
X183762381Y-73620819D02*
X183857619Y-73620819D01*
X183857619Y-73620819D02*
X183952857Y-73668438D01*
X183952857Y-73668438D02*
X184000476Y-73716057D01*
X184000476Y-73716057D02*
X184048095Y-73811295D01*
X184048095Y-73811295D02*
X184095714Y-74001771D01*
X184095714Y-74001771D02*
X184095714Y-74239866D01*
X184095714Y-74239866D02*
X184048095Y-74430342D01*
X184048095Y-74430342D02*
X184000476Y-74525580D01*
X184000476Y-74525580D02*
X183952857Y-74573200D01*
X183952857Y-74573200D02*
X183857619Y-74620819D01*
X183857619Y-74620819D02*
X183762381Y-74620819D01*
X183762381Y-74620819D02*
X183667143Y-74573200D01*
X183667143Y-74573200D02*
X183619524Y-74525580D01*
X183619524Y-74525580D02*
X183571905Y-74430342D01*
X183571905Y-74430342D02*
X183524286Y-74239866D01*
X183524286Y-74239866D02*
X183524286Y-74001771D01*
X183524286Y-74001771D02*
X183571905Y-73811295D01*
X183571905Y-73811295D02*
X183619524Y-73716057D01*
X183619524Y-73716057D02*
X183667143Y-73668438D01*
X183667143Y-73668438D02*
X183762381Y-73620819D01*
X121571905Y-53620819D02*
X121571905Y-54430342D01*
X121571905Y-54430342D02*
X121619524Y-54525580D01*
X121619524Y-54525580D02*
X121667143Y-54573200D01*
X121667143Y-54573200D02*
X121762381Y-54620819D01*
X121762381Y-54620819D02*
X121952857Y-54620819D01*
X121952857Y-54620819D02*
X122048095Y-54573200D01*
X122048095Y-54573200D02*
X122095714Y-54525580D01*
X122095714Y-54525580D02*
X122143333Y-54430342D01*
X122143333Y-54430342D02*
X122143333Y-53620819D01*
X122571905Y-53716057D02*
X122619524Y-53668438D01*
X122619524Y-53668438D02*
X122714762Y-53620819D01*
X122714762Y-53620819D02*
X122952857Y-53620819D01*
X122952857Y-53620819D02*
X123048095Y-53668438D01*
X123048095Y-53668438D02*
X123095714Y-53716057D01*
X123095714Y-53716057D02*
X123143333Y-53811295D01*
X123143333Y-53811295D02*
X123143333Y-53906533D01*
X123143333Y-53906533D02*
X123095714Y-54049390D01*
X123095714Y-54049390D02*
X122524286Y-54620819D01*
X122524286Y-54620819D02*
X123143333Y-54620819D01*
X124048095Y-53620819D02*
X123571905Y-53620819D01*
X123571905Y-53620819D02*
X123524286Y-54097009D01*
X123524286Y-54097009D02*
X123571905Y-54049390D01*
X123571905Y-54049390D02*
X123667143Y-54001771D01*
X123667143Y-54001771D02*
X123905238Y-54001771D01*
X123905238Y-54001771D02*
X124000476Y-54049390D01*
X124000476Y-54049390D02*
X124048095Y-54097009D01*
X124048095Y-54097009D02*
X124095714Y-54192247D01*
X124095714Y-54192247D02*
X124095714Y-54430342D01*
X124095714Y-54430342D02*
X124048095Y-54525580D01*
X124048095Y-54525580D02*
X124000476Y-54573200D01*
X124000476Y-54573200D02*
X123905238Y-54620819D01*
X123905238Y-54620819D02*
X123667143Y-54620819D01*
X123667143Y-54620819D02*
X123571905Y-54573200D01*
X123571905Y-54573200D02*
X123524286Y-54525580D01*
X101571905Y-73620819D02*
X101571905Y-74430342D01*
X101571905Y-74430342D02*
X101619524Y-74525580D01*
X101619524Y-74525580D02*
X101667143Y-74573200D01*
X101667143Y-74573200D02*
X101762381Y-74620819D01*
X101762381Y-74620819D02*
X101952857Y-74620819D01*
X101952857Y-74620819D02*
X102048095Y-74573200D01*
X102048095Y-74573200D02*
X102095714Y-74525580D01*
X102095714Y-74525580D02*
X102143333Y-74430342D01*
X102143333Y-74430342D02*
X102143333Y-73620819D01*
X103143333Y-74620819D02*
X102571905Y-74620819D01*
X102857619Y-74620819D02*
X102857619Y-73620819D01*
X102857619Y-73620819D02*
X102762381Y-73763676D01*
X102762381Y-73763676D02*
X102667143Y-73858914D01*
X102667143Y-73858914D02*
X102571905Y-73906533D01*
X103714762Y-74049390D02*
X103619524Y-74001771D01*
X103619524Y-74001771D02*
X103571905Y-73954152D01*
X103571905Y-73954152D02*
X103524286Y-73858914D01*
X103524286Y-73858914D02*
X103524286Y-73811295D01*
X103524286Y-73811295D02*
X103571905Y-73716057D01*
X103571905Y-73716057D02*
X103619524Y-73668438D01*
X103619524Y-73668438D02*
X103714762Y-73620819D01*
X103714762Y-73620819D02*
X103905238Y-73620819D01*
X103905238Y-73620819D02*
X104000476Y-73668438D01*
X104000476Y-73668438D02*
X104048095Y-73716057D01*
X104048095Y-73716057D02*
X104095714Y-73811295D01*
X104095714Y-73811295D02*
X104095714Y-73858914D01*
X104095714Y-73858914D02*
X104048095Y-73954152D01*
X104048095Y-73954152D02*
X104000476Y-74001771D01*
X104000476Y-74001771D02*
X103905238Y-74049390D01*
X103905238Y-74049390D02*
X103714762Y-74049390D01*
X103714762Y-74049390D02*
X103619524Y-74097009D01*
X103619524Y-74097009D02*
X103571905Y-74144628D01*
X103571905Y-74144628D02*
X103524286Y-74239866D01*
X103524286Y-74239866D02*
X103524286Y-74430342D01*
X103524286Y-74430342D02*
X103571905Y-74525580D01*
X103571905Y-74525580D02*
X103619524Y-74573200D01*
X103619524Y-74573200D02*
X103714762Y-74620819D01*
X103714762Y-74620819D02*
X103905238Y-74620819D01*
X103905238Y-74620819D02*
X104000476Y-74573200D01*
X104000476Y-74573200D02*
X104048095Y-74525580D01*
X104048095Y-74525580D02*
X104095714Y-74430342D01*
X104095714Y-74430342D02*
X104095714Y-74239866D01*
X104095714Y-74239866D02*
X104048095Y-74144628D01*
X104048095Y-74144628D02*
X104000476Y-74097009D01*
X104000476Y-74097009D02*
X103905238Y-74049390D01*
X101571905Y-173620819D02*
X101571905Y-174430342D01*
X101571905Y-174430342D02*
X101619524Y-174525580D01*
X101619524Y-174525580D02*
X101667143Y-174573200D01*
X101667143Y-174573200D02*
X101762381Y-174620819D01*
X101762381Y-174620819D02*
X101952857Y-174620819D01*
X101952857Y-174620819D02*
X102048095Y-174573200D01*
X102048095Y-174573200D02*
X102095714Y-174525580D01*
X102095714Y-174525580D02*
X102143333Y-174430342D01*
X102143333Y-174430342D02*
X102143333Y-173620819D01*
X102571905Y-173716057D02*
X102619524Y-173668438D01*
X102619524Y-173668438D02*
X102714762Y-173620819D01*
X102714762Y-173620819D02*
X102952857Y-173620819D01*
X102952857Y-173620819D02*
X103048095Y-173668438D01*
X103048095Y-173668438D02*
X103095714Y-173716057D01*
X103095714Y-173716057D02*
X103143333Y-173811295D01*
X103143333Y-173811295D02*
X103143333Y-173906533D01*
X103143333Y-173906533D02*
X103095714Y-174049390D01*
X103095714Y-174049390D02*
X102524286Y-174620819D01*
X102524286Y-174620819D02*
X103143333Y-174620819D01*
X103476667Y-173620819D02*
X104095714Y-173620819D01*
X104095714Y-173620819D02*
X103762381Y-174001771D01*
X103762381Y-174001771D02*
X103905238Y-174001771D01*
X103905238Y-174001771D02*
X104000476Y-174049390D01*
X104000476Y-174049390D02*
X104048095Y-174097009D01*
X104048095Y-174097009D02*
X104095714Y-174192247D01*
X104095714Y-174192247D02*
X104095714Y-174430342D01*
X104095714Y-174430342D02*
X104048095Y-174525580D01*
X104048095Y-174525580D02*
X104000476Y-174573200D01*
X104000476Y-174573200D02*
X103905238Y-174620819D01*
X103905238Y-174620819D02*
X103619524Y-174620819D01*
X103619524Y-174620819D02*
X103524286Y-174573200D01*
X103524286Y-174573200D02*
X103476667Y-174525580D01*
X181571905Y-133620819D02*
X181571905Y-134430342D01*
X181571905Y-134430342D02*
X181619524Y-134525580D01*
X181619524Y-134525580D02*
X181667143Y-134573200D01*
X181667143Y-134573200D02*
X181762381Y-134620819D01*
X181762381Y-134620819D02*
X181952857Y-134620819D01*
X181952857Y-134620819D02*
X182048095Y-134573200D01*
X182048095Y-134573200D02*
X182095714Y-134525580D01*
X182095714Y-134525580D02*
X182143333Y-134430342D01*
X182143333Y-134430342D02*
X182143333Y-133620819D01*
X183095714Y-133620819D02*
X182619524Y-133620819D01*
X182619524Y-133620819D02*
X182571905Y-134097009D01*
X182571905Y-134097009D02*
X182619524Y-134049390D01*
X182619524Y-134049390D02*
X182714762Y-134001771D01*
X182714762Y-134001771D02*
X182952857Y-134001771D01*
X182952857Y-134001771D02*
X183048095Y-134049390D01*
X183048095Y-134049390D02*
X183095714Y-134097009D01*
X183095714Y-134097009D02*
X183143333Y-134192247D01*
X183143333Y-134192247D02*
X183143333Y-134430342D01*
X183143333Y-134430342D02*
X183095714Y-134525580D01*
X183095714Y-134525580D02*
X183048095Y-134573200D01*
X183048095Y-134573200D02*
X182952857Y-134620819D01*
X182952857Y-134620819D02*
X182714762Y-134620819D01*
X182714762Y-134620819D02*
X182619524Y-134573200D01*
X182619524Y-134573200D02*
X182571905Y-134525580D01*
X183476667Y-133620819D02*
X184095714Y-133620819D01*
X184095714Y-133620819D02*
X183762381Y-134001771D01*
X183762381Y-134001771D02*
X183905238Y-134001771D01*
X183905238Y-134001771D02*
X184000476Y-134049390D01*
X184000476Y-134049390D02*
X184048095Y-134097009D01*
X184048095Y-134097009D02*
X184095714Y-134192247D01*
X184095714Y-134192247D02*
X184095714Y-134430342D01*
X184095714Y-134430342D02*
X184048095Y-134525580D01*
X184048095Y-134525580D02*
X184000476Y-134573200D01*
X184000476Y-134573200D02*
X183905238Y-134620819D01*
X183905238Y-134620819D02*
X183619524Y-134620819D01*
X183619524Y-134620819D02*
X183524286Y-134573200D01*
X183524286Y-134573200D02*
X183476667Y-134525580D01*
X201571905Y-173620819D02*
X201571905Y-174430342D01*
X201571905Y-174430342D02*
X201619524Y-174525580D01*
X201619524Y-174525580D02*
X201667143Y-174573200D01*
X201667143Y-174573200D02*
X201762381Y-174620819D01*
X201762381Y-174620819D02*
X201952857Y-174620819D01*
X201952857Y-174620819D02*
X202048095Y-174573200D01*
X202048095Y-174573200D02*
X202095714Y-174525580D01*
X202095714Y-174525580D02*
X202143333Y-174430342D01*
X202143333Y-174430342D02*
X202143333Y-173620819D01*
X203048095Y-173620819D02*
X202857619Y-173620819D01*
X202857619Y-173620819D02*
X202762381Y-173668438D01*
X202762381Y-173668438D02*
X202714762Y-173716057D01*
X202714762Y-173716057D02*
X202619524Y-173858914D01*
X202619524Y-173858914D02*
X202571905Y-174049390D01*
X202571905Y-174049390D02*
X202571905Y-174430342D01*
X202571905Y-174430342D02*
X202619524Y-174525580D01*
X202619524Y-174525580D02*
X202667143Y-174573200D01*
X202667143Y-174573200D02*
X202762381Y-174620819D01*
X202762381Y-174620819D02*
X202952857Y-174620819D01*
X202952857Y-174620819D02*
X203048095Y-174573200D01*
X203048095Y-174573200D02*
X203095714Y-174525580D01*
X203095714Y-174525580D02*
X203143333Y-174430342D01*
X203143333Y-174430342D02*
X203143333Y-174192247D01*
X203143333Y-174192247D02*
X203095714Y-174097009D01*
X203095714Y-174097009D02*
X203048095Y-174049390D01*
X203048095Y-174049390D02*
X202952857Y-174001771D01*
X202952857Y-174001771D02*
X202762381Y-174001771D01*
X202762381Y-174001771D02*
X202667143Y-174049390D01*
X202667143Y-174049390D02*
X202619524Y-174097009D01*
X202619524Y-174097009D02*
X202571905Y-174192247D01*
X203476667Y-173620819D02*
X204095714Y-173620819D01*
X204095714Y-173620819D02*
X203762381Y-174001771D01*
X203762381Y-174001771D02*
X203905238Y-174001771D01*
X203905238Y-174001771D02*
X204000476Y-174049390D01*
X204000476Y-174049390D02*
X204048095Y-174097009D01*
X204048095Y-174097009D02*
X204095714Y-174192247D01*
X204095714Y-174192247D02*
X204095714Y-174430342D01*
X204095714Y-174430342D02*
X204048095Y-174525580D01*
X204048095Y-174525580D02*
X204000476Y-174573200D01*
X204000476Y-174573200D02*
X203905238Y-174620819D01*
X203905238Y-174620819D02*
X203619524Y-174620819D01*
X203619524Y-174620819D02*
X203524286Y-174573200D01*
X203524286Y-174573200D02*
X203476667Y-174525580D01*
X181571905Y-173620819D02*
X181571905Y-174430342D01*
X181571905Y-174430342D02*
X181619524Y-174525580D01*
X181619524Y-174525580D02*
X181667143Y-174573200D01*
X181667143Y-174573200D02*
X181762381Y-174620819D01*
X181762381Y-174620819D02*
X181952857Y-174620819D01*
X181952857Y-174620819D02*
X182048095Y-174573200D01*
X182048095Y-174573200D02*
X182095714Y-174525580D01*
X182095714Y-174525580D02*
X182143333Y-174430342D01*
X182143333Y-174430342D02*
X182143333Y-173620819D01*
X183095714Y-173620819D02*
X182619524Y-173620819D01*
X182619524Y-173620819D02*
X182571905Y-174097009D01*
X182571905Y-174097009D02*
X182619524Y-174049390D01*
X182619524Y-174049390D02*
X182714762Y-174001771D01*
X182714762Y-174001771D02*
X182952857Y-174001771D01*
X182952857Y-174001771D02*
X183048095Y-174049390D01*
X183048095Y-174049390D02*
X183095714Y-174097009D01*
X183095714Y-174097009D02*
X183143333Y-174192247D01*
X183143333Y-174192247D02*
X183143333Y-174430342D01*
X183143333Y-174430342D02*
X183095714Y-174525580D01*
X183095714Y-174525580D02*
X183048095Y-174573200D01*
X183048095Y-174573200D02*
X182952857Y-174620819D01*
X182952857Y-174620819D02*
X182714762Y-174620819D01*
X182714762Y-174620819D02*
X182619524Y-174573200D01*
X182619524Y-174573200D02*
X182571905Y-174525580D01*
X184048095Y-173620819D02*
X183571905Y-173620819D01*
X183571905Y-173620819D02*
X183524286Y-174097009D01*
X183524286Y-174097009D02*
X183571905Y-174049390D01*
X183571905Y-174049390D02*
X183667143Y-174001771D01*
X183667143Y-174001771D02*
X183905238Y-174001771D01*
X183905238Y-174001771D02*
X184000476Y-174049390D01*
X184000476Y-174049390D02*
X184048095Y-174097009D01*
X184048095Y-174097009D02*
X184095714Y-174192247D01*
X184095714Y-174192247D02*
X184095714Y-174430342D01*
X184095714Y-174430342D02*
X184048095Y-174525580D01*
X184048095Y-174525580D02*
X184000476Y-174573200D01*
X184000476Y-174573200D02*
X183905238Y-174620819D01*
X183905238Y-174620819D02*
X183667143Y-174620819D01*
X183667143Y-174620819D02*
X183571905Y-174573200D01*
X183571905Y-174573200D02*
X183524286Y-174525580D01*
X101571905Y-93620819D02*
X101571905Y-94430342D01*
X101571905Y-94430342D02*
X101619524Y-94525580D01*
X101619524Y-94525580D02*
X101667143Y-94573200D01*
X101667143Y-94573200D02*
X101762381Y-94620819D01*
X101762381Y-94620819D02*
X101952857Y-94620819D01*
X101952857Y-94620819D02*
X102048095Y-94573200D01*
X102048095Y-94573200D02*
X102095714Y-94525580D01*
X102095714Y-94525580D02*
X102143333Y-94430342D01*
X102143333Y-94430342D02*
X102143333Y-93620819D01*
X103143333Y-94620819D02*
X102571905Y-94620819D01*
X102857619Y-94620819D02*
X102857619Y-93620819D01*
X102857619Y-93620819D02*
X102762381Y-93763676D01*
X102762381Y-93763676D02*
X102667143Y-93858914D01*
X102667143Y-93858914D02*
X102571905Y-93906533D01*
X103619524Y-94620819D02*
X103810000Y-94620819D01*
X103810000Y-94620819D02*
X103905238Y-94573200D01*
X103905238Y-94573200D02*
X103952857Y-94525580D01*
X103952857Y-94525580D02*
X104048095Y-94382723D01*
X104048095Y-94382723D02*
X104095714Y-94192247D01*
X104095714Y-94192247D02*
X104095714Y-93811295D01*
X104095714Y-93811295D02*
X104048095Y-93716057D01*
X104048095Y-93716057D02*
X104000476Y-93668438D01*
X104000476Y-93668438D02*
X103905238Y-93620819D01*
X103905238Y-93620819D02*
X103714762Y-93620819D01*
X103714762Y-93620819D02*
X103619524Y-93668438D01*
X103619524Y-93668438D02*
X103571905Y-93716057D01*
X103571905Y-93716057D02*
X103524286Y-93811295D01*
X103524286Y-93811295D02*
X103524286Y-94049390D01*
X103524286Y-94049390D02*
X103571905Y-94144628D01*
X103571905Y-94144628D02*
X103619524Y-94192247D01*
X103619524Y-94192247D02*
X103714762Y-94239866D01*
X103714762Y-94239866D02*
X103905238Y-94239866D01*
X103905238Y-94239866D02*
X104000476Y-94192247D01*
X104000476Y-94192247D02*
X104048095Y-94144628D01*
X104048095Y-94144628D02*
X104095714Y-94049390D01*
X161571905Y-193620819D02*
X161571905Y-194430342D01*
X161571905Y-194430342D02*
X161619524Y-194525580D01*
X161619524Y-194525580D02*
X161667143Y-194573200D01*
X161667143Y-194573200D02*
X161762381Y-194620819D01*
X161762381Y-194620819D02*
X161952857Y-194620819D01*
X161952857Y-194620819D02*
X162048095Y-194573200D01*
X162048095Y-194573200D02*
X162095714Y-194525580D01*
X162095714Y-194525580D02*
X162143333Y-194430342D01*
X162143333Y-194430342D02*
X162143333Y-193620819D01*
X163048095Y-193954152D02*
X163048095Y-194620819D01*
X162810000Y-193573200D02*
X162571905Y-194287485D01*
X162571905Y-194287485D02*
X163190952Y-194287485D01*
X163714762Y-194049390D02*
X163619524Y-194001771D01*
X163619524Y-194001771D02*
X163571905Y-193954152D01*
X163571905Y-193954152D02*
X163524286Y-193858914D01*
X163524286Y-193858914D02*
X163524286Y-193811295D01*
X163524286Y-193811295D02*
X163571905Y-193716057D01*
X163571905Y-193716057D02*
X163619524Y-193668438D01*
X163619524Y-193668438D02*
X163714762Y-193620819D01*
X163714762Y-193620819D02*
X163905238Y-193620819D01*
X163905238Y-193620819D02*
X164000476Y-193668438D01*
X164000476Y-193668438D02*
X164048095Y-193716057D01*
X164048095Y-193716057D02*
X164095714Y-193811295D01*
X164095714Y-193811295D02*
X164095714Y-193858914D01*
X164095714Y-193858914D02*
X164048095Y-193954152D01*
X164048095Y-193954152D02*
X164000476Y-194001771D01*
X164000476Y-194001771D02*
X163905238Y-194049390D01*
X163905238Y-194049390D02*
X163714762Y-194049390D01*
X163714762Y-194049390D02*
X163619524Y-194097009D01*
X163619524Y-194097009D02*
X163571905Y-194144628D01*
X163571905Y-194144628D02*
X163524286Y-194239866D01*
X163524286Y-194239866D02*
X163524286Y-194430342D01*
X163524286Y-194430342D02*
X163571905Y-194525580D01*
X163571905Y-194525580D02*
X163619524Y-194573200D01*
X163619524Y-194573200D02*
X163714762Y-194620819D01*
X163714762Y-194620819D02*
X163905238Y-194620819D01*
X163905238Y-194620819D02*
X164000476Y-194573200D01*
X164000476Y-194573200D02*
X164048095Y-194525580D01*
X164048095Y-194525580D02*
X164095714Y-194430342D01*
X164095714Y-194430342D02*
X164095714Y-194239866D01*
X164095714Y-194239866D02*
X164048095Y-194144628D01*
X164048095Y-194144628D02*
X164000476Y-194097009D01*
X164000476Y-194097009D02*
X163905238Y-194049390D01*
X82048095Y-53620819D02*
X82048095Y-54430342D01*
X82048095Y-54430342D02*
X82095714Y-54525580D01*
X82095714Y-54525580D02*
X82143333Y-54573200D01*
X82143333Y-54573200D02*
X82238571Y-54620819D01*
X82238571Y-54620819D02*
X82429047Y-54620819D01*
X82429047Y-54620819D02*
X82524285Y-54573200D01*
X82524285Y-54573200D02*
X82571904Y-54525580D01*
X82571904Y-54525580D02*
X82619523Y-54430342D01*
X82619523Y-54430342D02*
X82619523Y-53620819D01*
X83143333Y-54620819D02*
X83333809Y-54620819D01*
X83333809Y-54620819D02*
X83429047Y-54573200D01*
X83429047Y-54573200D02*
X83476666Y-54525580D01*
X83476666Y-54525580D02*
X83571904Y-54382723D01*
X83571904Y-54382723D02*
X83619523Y-54192247D01*
X83619523Y-54192247D02*
X83619523Y-53811295D01*
X83619523Y-53811295D02*
X83571904Y-53716057D01*
X83571904Y-53716057D02*
X83524285Y-53668438D01*
X83524285Y-53668438D02*
X83429047Y-53620819D01*
X83429047Y-53620819D02*
X83238571Y-53620819D01*
X83238571Y-53620819D02*
X83143333Y-53668438D01*
X83143333Y-53668438D02*
X83095714Y-53716057D01*
X83095714Y-53716057D02*
X83048095Y-53811295D01*
X83048095Y-53811295D02*
X83048095Y-54049390D01*
X83048095Y-54049390D02*
X83095714Y-54144628D01*
X83095714Y-54144628D02*
X83143333Y-54192247D01*
X83143333Y-54192247D02*
X83238571Y-54239866D01*
X83238571Y-54239866D02*
X83429047Y-54239866D01*
X83429047Y-54239866D02*
X83524285Y-54192247D01*
X83524285Y-54192247D02*
X83571904Y-54144628D01*
X83571904Y-54144628D02*
X83619523Y-54049390D01*
X201571905Y-193620819D02*
X201571905Y-194430342D01*
X201571905Y-194430342D02*
X201619524Y-194525580D01*
X201619524Y-194525580D02*
X201667143Y-194573200D01*
X201667143Y-194573200D02*
X201762381Y-194620819D01*
X201762381Y-194620819D02*
X201952857Y-194620819D01*
X201952857Y-194620819D02*
X202048095Y-194573200D01*
X202048095Y-194573200D02*
X202095714Y-194525580D01*
X202095714Y-194525580D02*
X202143333Y-194430342D01*
X202143333Y-194430342D02*
X202143333Y-193620819D01*
X203048095Y-193620819D02*
X202857619Y-193620819D01*
X202857619Y-193620819D02*
X202762381Y-193668438D01*
X202762381Y-193668438D02*
X202714762Y-193716057D01*
X202714762Y-193716057D02*
X202619524Y-193858914D01*
X202619524Y-193858914D02*
X202571905Y-194049390D01*
X202571905Y-194049390D02*
X202571905Y-194430342D01*
X202571905Y-194430342D02*
X202619524Y-194525580D01*
X202619524Y-194525580D02*
X202667143Y-194573200D01*
X202667143Y-194573200D02*
X202762381Y-194620819D01*
X202762381Y-194620819D02*
X202952857Y-194620819D01*
X202952857Y-194620819D02*
X203048095Y-194573200D01*
X203048095Y-194573200D02*
X203095714Y-194525580D01*
X203095714Y-194525580D02*
X203143333Y-194430342D01*
X203143333Y-194430342D02*
X203143333Y-194192247D01*
X203143333Y-194192247D02*
X203095714Y-194097009D01*
X203095714Y-194097009D02*
X203048095Y-194049390D01*
X203048095Y-194049390D02*
X202952857Y-194001771D01*
X202952857Y-194001771D02*
X202762381Y-194001771D01*
X202762381Y-194001771D02*
X202667143Y-194049390D01*
X202667143Y-194049390D02*
X202619524Y-194097009D01*
X202619524Y-194097009D02*
X202571905Y-194192247D01*
X204000476Y-193954152D02*
X204000476Y-194620819D01*
X203762381Y-193573200D02*
X203524286Y-194287485D01*
X203524286Y-194287485D02*
X204143333Y-194287485D01*
X121571905Y-173620819D02*
X121571905Y-174430342D01*
X121571905Y-174430342D02*
X121619524Y-174525580D01*
X121619524Y-174525580D02*
X121667143Y-174573200D01*
X121667143Y-174573200D02*
X121762381Y-174620819D01*
X121762381Y-174620819D02*
X121952857Y-174620819D01*
X121952857Y-174620819D02*
X122048095Y-174573200D01*
X122048095Y-174573200D02*
X122095714Y-174525580D01*
X122095714Y-174525580D02*
X122143333Y-174430342D01*
X122143333Y-174430342D02*
X122143333Y-173620819D01*
X122524286Y-173620819D02*
X123143333Y-173620819D01*
X123143333Y-173620819D02*
X122810000Y-174001771D01*
X122810000Y-174001771D02*
X122952857Y-174001771D01*
X122952857Y-174001771D02*
X123048095Y-174049390D01*
X123048095Y-174049390D02*
X123095714Y-174097009D01*
X123095714Y-174097009D02*
X123143333Y-174192247D01*
X123143333Y-174192247D02*
X123143333Y-174430342D01*
X123143333Y-174430342D02*
X123095714Y-174525580D01*
X123095714Y-174525580D02*
X123048095Y-174573200D01*
X123048095Y-174573200D02*
X122952857Y-174620819D01*
X122952857Y-174620819D02*
X122667143Y-174620819D01*
X122667143Y-174620819D02*
X122571905Y-174573200D01*
X122571905Y-174573200D02*
X122524286Y-174525580D01*
X124095714Y-174620819D02*
X123524286Y-174620819D01*
X123810000Y-174620819D02*
X123810000Y-173620819D01*
X123810000Y-173620819D02*
X123714762Y-173763676D01*
X123714762Y-173763676D02*
X123619524Y-173858914D01*
X123619524Y-173858914D02*
X123524286Y-173906533D01*
X121571905Y-113620819D02*
X121571905Y-114430342D01*
X121571905Y-114430342D02*
X121619524Y-114525580D01*
X121619524Y-114525580D02*
X121667143Y-114573200D01*
X121667143Y-114573200D02*
X121762381Y-114620819D01*
X121762381Y-114620819D02*
X121952857Y-114620819D01*
X121952857Y-114620819D02*
X122048095Y-114573200D01*
X122048095Y-114573200D02*
X122095714Y-114525580D01*
X122095714Y-114525580D02*
X122143333Y-114430342D01*
X122143333Y-114430342D02*
X122143333Y-113620819D01*
X122571905Y-113716057D02*
X122619524Y-113668438D01*
X122619524Y-113668438D02*
X122714762Y-113620819D01*
X122714762Y-113620819D02*
X122952857Y-113620819D01*
X122952857Y-113620819D02*
X123048095Y-113668438D01*
X123048095Y-113668438D02*
X123095714Y-113716057D01*
X123095714Y-113716057D02*
X123143333Y-113811295D01*
X123143333Y-113811295D02*
X123143333Y-113906533D01*
X123143333Y-113906533D02*
X123095714Y-114049390D01*
X123095714Y-114049390D02*
X122524286Y-114620819D01*
X122524286Y-114620819D02*
X123143333Y-114620819D01*
X123714762Y-114049390D02*
X123619524Y-114001771D01*
X123619524Y-114001771D02*
X123571905Y-113954152D01*
X123571905Y-113954152D02*
X123524286Y-113858914D01*
X123524286Y-113858914D02*
X123524286Y-113811295D01*
X123524286Y-113811295D02*
X123571905Y-113716057D01*
X123571905Y-113716057D02*
X123619524Y-113668438D01*
X123619524Y-113668438D02*
X123714762Y-113620819D01*
X123714762Y-113620819D02*
X123905238Y-113620819D01*
X123905238Y-113620819D02*
X124000476Y-113668438D01*
X124000476Y-113668438D02*
X124048095Y-113716057D01*
X124048095Y-113716057D02*
X124095714Y-113811295D01*
X124095714Y-113811295D02*
X124095714Y-113858914D01*
X124095714Y-113858914D02*
X124048095Y-113954152D01*
X124048095Y-113954152D02*
X124000476Y-114001771D01*
X124000476Y-114001771D02*
X123905238Y-114049390D01*
X123905238Y-114049390D02*
X123714762Y-114049390D01*
X123714762Y-114049390D02*
X123619524Y-114097009D01*
X123619524Y-114097009D02*
X123571905Y-114144628D01*
X123571905Y-114144628D02*
X123524286Y-114239866D01*
X123524286Y-114239866D02*
X123524286Y-114430342D01*
X123524286Y-114430342D02*
X123571905Y-114525580D01*
X123571905Y-114525580D02*
X123619524Y-114573200D01*
X123619524Y-114573200D02*
X123714762Y-114620819D01*
X123714762Y-114620819D02*
X123905238Y-114620819D01*
X123905238Y-114620819D02*
X124000476Y-114573200D01*
X124000476Y-114573200D02*
X124048095Y-114525580D01*
X124048095Y-114525580D02*
X124095714Y-114430342D01*
X124095714Y-114430342D02*
X124095714Y-114239866D01*
X124095714Y-114239866D02*
X124048095Y-114144628D01*
X124048095Y-114144628D02*
X124000476Y-114097009D01*
X124000476Y-114097009D02*
X123905238Y-114049390D01*
X229654819Y-174595238D02*
X229178628Y-174928571D01*
X229654819Y-175166666D02*
X228654819Y-175166666D01*
X228654819Y-175166666D02*
X228654819Y-174785714D01*
X228654819Y-174785714D02*
X228702438Y-174690476D01*
X228702438Y-174690476D02*
X228750057Y-174642857D01*
X228750057Y-174642857D02*
X228845295Y-174595238D01*
X228845295Y-174595238D02*
X228988152Y-174595238D01*
X228988152Y-174595238D02*
X229083390Y-174642857D01*
X229083390Y-174642857D02*
X229131009Y-174690476D01*
X229131009Y-174690476D02*
X229178628Y-174785714D01*
X229178628Y-174785714D02*
X229178628Y-175166666D01*
X228654819Y-174309523D02*
X229654819Y-173976190D01*
X229654819Y-173976190D02*
X228654819Y-173642857D01*
X229654819Y-172785714D02*
X229654819Y-173357142D01*
X229654819Y-173071428D02*
X228654819Y-173071428D01*
X228654819Y-173071428D02*
X228797676Y-173166666D01*
X228797676Y-173166666D02*
X228892914Y-173261904D01*
X228892914Y-173261904D02*
X228940533Y-173357142D01*
X248354819Y-125810238D02*
X247878628Y-126143571D01*
X248354819Y-126381666D02*
X247354819Y-126381666D01*
X247354819Y-126381666D02*
X247354819Y-126000714D01*
X247354819Y-126000714D02*
X247402438Y-125905476D01*
X247402438Y-125905476D02*
X247450057Y-125857857D01*
X247450057Y-125857857D02*
X247545295Y-125810238D01*
X247545295Y-125810238D02*
X247688152Y-125810238D01*
X247688152Y-125810238D02*
X247783390Y-125857857D01*
X247783390Y-125857857D02*
X247831009Y-125905476D01*
X247831009Y-125905476D02*
X247878628Y-126000714D01*
X247878628Y-126000714D02*
X247878628Y-126381666D01*
X247354819Y-125524523D02*
X248354819Y-125191190D01*
X248354819Y-125191190D02*
X247354819Y-124857857D01*
X247688152Y-124095952D02*
X248354819Y-124095952D01*
X247307200Y-124334047D02*
X248021485Y-124572142D01*
X248021485Y-124572142D02*
X248021485Y-123953095D01*
X201571905Y-133620819D02*
X201571905Y-134430342D01*
X201571905Y-134430342D02*
X201619524Y-134525580D01*
X201619524Y-134525580D02*
X201667143Y-134573200D01*
X201667143Y-134573200D02*
X201762381Y-134620819D01*
X201762381Y-134620819D02*
X201952857Y-134620819D01*
X201952857Y-134620819D02*
X202048095Y-134573200D01*
X202048095Y-134573200D02*
X202095714Y-134525580D01*
X202095714Y-134525580D02*
X202143333Y-134430342D01*
X202143333Y-134430342D02*
X202143333Y-133620819D01*
X203048095Y-133620819D02*
X202857619Y-133620819D01*
X202857619Y-133620819D02*
X202762381Y-133668438D01*
X202762381Y-133668438D02*
X202714762Y-133716057D01*
X202714762Y-133716057D02*
X202619524Y-133858914D01*
X202619524Y-133858914D02*
X202571905Y-134049390D01*
X202571905Y-134049390D02*
X202571905Y-134430342D01*
X202571905Y-134430342D02*
X202619524Y-134525580D01*
X202619524Y-134525580D02*
X202667143Y-134573200D01*
X202667143Y-134573200D02*
X202762381Y-134620819D01*
X202762381Y-134620819D02*
X202952857Y-134620819D01*
X202952857Y-134620819D02*
X203048095Y-134573200D01*
X203048095Y-134573200D02*
X203095714Y-134525580D01*
X203095714Y-134525580D02*
X203143333Y-134430342D01*
X203143333Y-134430342D02*
X203143333Y-134192247D01*
X203143333Y-134192247D02*
X203095714Y-134097009D01*
X203095714Y-134097009D02*
X203048095Y-134049390D01*
X203048095Y-134049390D02*
X202952857Y-134001771D01*
X202952857Y-134001771D02*
X202762381Y-134001771D01*
X202762381Y-134001771D02*
X202667143Y-134049390D01*
X202667143Y-134049390D02*
X202619524Y-134097009D01*
X202619524Y-134097009D02*
X202571905Y-134192247D01*
X204095714Y-134620819D02*
X203524286Y-134620819D01*
X203810000Y-134620819D02*
X203810000Y-133620819D01*
X203810000Y-133620819D02*
X203714762Y-133763676D01*
X203714762Y-133763676D02*
X203619524Y-133858914D01*
X203619524Y-133858914D02*
X203524286Y-133906533D01*
X101571905Y-153620819D02*
X101571905Y-154430342D01*
X101571905Y-154430342D02*
X101619524Y-154525580D01*
X101619524Y-154525580D02*
X101667143Y-154573200D01*
X101667143Y-154573200D02*
X101762381Y-154620819D01*
X101762381Y-154620819D02*
X101952857Y-154620819D01*
X101952857Y-154620819D02*
X102048095Y-154573200D01*
X102048095Y-154573200D02*
X102095714Y-154525580D01*
X102095714Y-154525580D02*
X102143333Y-154430342D01*
X102143333Y-154430342D02*
X102143333Y-153620819D01*
X102571905Y-153716057D02*
X102619524Y-153668438D01*
X102619524Y-153668438D02*
X102714762Y-153620819D01*
X102714762Y-153620819D02*
X102952857Y-153620819D01*
X102952857Y-153620819D02*
X103048095Y-153668438D01*
X103048095Y-153668438D02*
X103095714Y-153716057D01*
X103095714Y-153716057D02*
X103143333Y-153811295D01*
X103143333Y-153811295D02*
X103143333Y-153906533D01*
X103143333Y-153906533D02*
X103095714Y-154049390D01*
X103095714Y-154049390D02*
X102524286Y-154620819D01*
X102524286Y-154620819D02*
X103143333Y-154620819D01*
X103524286Y-153716057D02*
X103571905Y-153668438D01*
X103571905Y-153668438D02*
X103667143Y-153620819D01*
X103667143Y-153620819D02*
X103905238Y-153620819D01*
X103905238Y-153620819D02*
X104000476Y-153668438D01*
X104000476Y-153668438D02*
X104048095Y-153716057D01*
X104048095Y-153716057D02*
X104095714Y-153811295D01*
X104095714Y-153811295D02*
X104095714Y-153906533D01*
X104095714Y-153906533D02*
X104048095Y-154049390D01*
X104048095Y-154049390D02*
X103476667Y-154620819D01*
X103476667Y-154620819D02*
X104095714Y-154620819D01*
X292966667Y-138207200D02*
X293109524Y-138254819D01*
X293109524Y-138254819D02*
X293347619Y-138254819D01*
X293347619Y-138254819D02*
X293442857Y-138207200D01*
X293442857Y-138207200D02*
X293490476Y-138159580D01*
X293490476Y-138159580D02*
X293538095Y-138064342D01*
X293538095Y-138064342D02*
X293538095Y-137969104D01*
X293538095Y-137969104D02*
X293490476Y-137873866D01*
X293490476Y-137873866D02*
X293442857Y-137826247D01*
X293442857Y-137826247D02*
X293347619Y-137778628D01*
X293347619Y-137778628D02*
X293157143Y-137731009D01*
X293157143Y-137731009D02*
X293061905Y-137683390D01*
X293061905Y-137683390D02*
X293014286Y-137635771D01*
X293014286Y-137635771D02*
X292966667Y-137540533D01*
X292966667Y-137540533D02*
X292966667Y-137445295D01*
X292966667Y-137445295D02*
X293014286Y-137350057D01*
X293014286Y-137350057D02*
X293061905Y-137302438D01*
X293061905Y-137302438D02*
X293157143Y-137254819D01*
X293157143Y-137254819D02*
X293395238Y-137254819D01*
X293395238Y-137254819D02*
X293538095Y-137302438D01*
X293871429Y-137254819D02*
X294109524Y-138254819D01*
X294109524Y-138254819D02*
X294300000Y-137540533D01*
X294300000Y-137540533D02*
X294490476Y-138254819D01*
X294490476Y-138254819D02*
X294728572Y-137254819D01*
X295585714Y-137254819D02*
X295109524Y-137254819D01*
X295109524Y-137254819D02*
X295061905Y-137731009D01*
X295061905Y-137731009D02*
X295109524Y-137683390D01*
X295109524Y-137683390D02*
X295204762Y-137635771D01*
X295204762Y-137635771D02*
X295442857Y-137635771D01*
X295442857Y-137635771D02*
X295538095Y-137683390D01*
X295538095Y-137683390D02*
X295585714Y-137731009D01*
X295585714Y-137731009D02*
X295633333Y-137826247D01*
X295633333Y-137826247D02*
X295633333Y-138064342D01*
X295633333Y-138064342D02*
X295585714Y-138159580D01*
X295585714Y-138159580D02*
X295538095Y-138207200D01*
X295538095Y-138207200D02*
X295442857Y-138254819D01*
X295442857Y-138254819D02*
X295204762Y-138254819D01*
X295204762Y-138254819D02*
X295109524Y-138207200D01*
X295109524Y-138207200D02*
X295061905Y-138159580D01*
X81571905Y-173620819D02*
X81571905Y-174430342D01*
X81571905Y-174430342D02*
X81619524Y-174525580D01*
X81619524Y-174525580D02*
X81667143Y-174573200D01*
X81667143Y-174573200D02*
X81762381Y-174620819D01*
X81762381Y-174620819D02*
X81952857Y-174620819D01*
X81952857Y-174620819D02*
X82048095Y-174573200D01*
X82048095Y-174573200D02*
X82095714Y-174525580D01*
X82095714Y-174525580D02*
X82143333Y-174430342D01*
X82143333Y-174430342D02*
X82143333Y-173620819D01*
X83143333Y-174620819D02*
X82571905Y-174620819D01*
X82857619Y-174620819D02*
X82857619Y-173620819D01*
X82857619Y-173620819D02*
X82762381Y-173763676D01*
X82762381Y-173763676D02*
X82667143Y-173858914D01*
X82667143Y-173858914D02*
X82571905Y-173906533D01*
X84048095Y-173620819D02*
X83571905Y-173620819D01*
X83571905Y-173620819D02*
X83524286Y-174097009D01*
X83524286Y-174097009D02*
X83571905Y-174049390D01*
X83571905Y-174049390D02*
X83667143Y-174001771D01*
X83667143Y-174001771D02*
X83905238Y-174001771D01*
X83905238Y-174001771D02*
X84000476Y-174049390D01*
X84000476Y-174049390D02*
X84048095Y-174097009D01*
X84048095Y-174097009D02*
X84095714Y-174192247D01*
X84095714Y-174192247D02*
X84095714Y-174430342D01*
X84095714Y-174430342D02*
X84048095Y-174525580D01*
X84048095Y-174525580D02*
X84000476Y-174573200D01*
X84000476Y-174573200D02*
X83905238Y-174620819D01*
X83905238Y-174620819D02*
X83667143Y-174620819D01*
X83667143Y-174620819D02*
X83571905Y-174573200D01*
X83571905Y-174573200D02*
X83524286Y-174525580D01*
X81571905Y-193620819D02*
X81571905Y-194430342D01*
X81571905Y-194430342D02*
X81619524Y-194525580D01*
X81619524Y-194525580D02*
X81667143Y-194573200D01*
X81667143Y-194573200D02*
X81762381Y-194620819D01*
X81762381Y-194620819D02*
X81952857Y-194620819D01*
X81952857Y-194620819D02*
X82048095Y-194573200D01*
X82048095Y-194573200D02*
X82095714Y-194525580D01*
X82095714Y-194525580D02*
X82143333Y-194430342D01*
X82143333Y-194430342D02*
X82143333Y-193620819D01*
X83143333Y-194620819D02*
X82571905Y-194620819D01*
X82857619Y-194620819D02*
X82857619Y-193620819D01*
X82857619Y-193620819D02*
X82762381Y-193763676D01*
X82762381Y-193763676D02*
X82667143Y-193858914D01*
X82667143Y-193858914D02*
X82571905Y-193906533D01*
X84000476Y-193620819D02*
X83810000Y-193620819D01*
X83810000Y-193620819D02*
X83714762Y-193668438D01*
X83714762Y-193668438D02*
X83667143Y-193716057D01*
X83667143Y-193716057D02*
X83571905Y-193858914D01*
X83571905Y-193858914D02*
X83524286Y-194049390D01*
X83524286Y-194049390D02*
X83524286Y-194430342D01*
X83524286Y-194430342D02*
X83571905Y-194525580D01*
X83571905Y-194525580D02*
X83619524Y-194573200D01*
X83619524Y-194573200D02*
X83714762Y-194620819D01*
X83714762Y-194620819D02*
X83905238Y-194620819D01*
X83905238Y-194620819D02*
X84000476Y-194573200D01*
X84000476Y-194573200D02*
X84048095Y-194525580D01*
X84048095Y-194525580D02*
X84095714Y-194430342D01*
X84095714Y-194430342D02*
X84095714Y-194192247D01*
X84095714Y-194192247D02*
X84048095Y-194097009D01*
X84048095Y-194097009D02*
X84000476Y-194049390D01*
X84000476Y-194049390D02*
X83905238Y-194001771D01*
X83905238Y-194001771D02*
X83714762Y-194001771D01*
X83714762Y-194001771D02*
X83619524Y-194049390D01*
X83619524Y-194049390D02*
X83571905Y-194097009D01*
X83571905Y-194097009D02*
X83524286Y-194192247D01*
X249654819Y-174595238D02*
X249178628Y-174928571D01*
X249654819Y-175166666D02*
X248654819Y-175166666D01*
X248654819Y-175166666D02*
X248654819Y-174785714D01*
X248654819Y-174785714D02*
X248702438Y-174690476D01*
X248702438Y-174690476D02*
X248750057Y-174642857D01*
X248750057Y-174642857D02*
X248845295Y-174595238D01*
X248845295Y-174595238D02*
X248988152Y-174595238D01*
X248988152Y-174595238D02*
X249083390Y-174642857D01*
X249083390Y-174642857D02*
X249131009Y-174690476D01*
X249131009Y-174690476D02*
X249178628Y-174785714D01*
X249178628Y-174785714D02*
X249178628Y-175166666D01*
X248654819Y-174309523D02*
X249654819Y-173976190D01*
X249654819Y-173976190D02*
X248654819Y-173642857D01*
X248750057Y-173357142D02*
X248702438Y-173309523D01*
X248702438Y-173309523D02*
X248654819Y-173214285D01*
X248654819Y-173214285D02*
X248654819Y-172976190D01*
X248654819Y-172976190D02*
X248702438Y-172880952D01*
X248702438Y-172880952D02*
X248750057Y-172833333D01*
X248750057Y-172833333D02*
X248845295Y-172785714D01*
X248845295Y-172785714D02*
X248940533Y-172785714D01*
X248940533Y-172785714D02*
X249083390Y-172833333D01*
X249083390Y-172833333D02*
X249654819Y-173404761D01*
X249654819Y-173404761D02*
X249654819Y-172785714D01*
X121571905Y-133620819D02*
X121571905Y-134430342D01*
X121571905Y-134430342D02*
X121619524Y-134525580D01*
X121619524Y-134525580D02*
X121667143Y-134573200D01*
X121667143Y-134573200D02*
X121762381Y-134620819D01*
X121762381Y-134620819D02*
X121952857Y-134620819D01*
X121952857Y-134620819D02*
X122048095Y-134573200D01*
X122048095Y-134573200D02*
X122095714Y-134525580D01*
X122095714Y-134525580D02*
X122143333Y-134430342D01*
X122143333Y-134430342D02*
X122143333Y-133620819D01*
X122571905Y-133716057D02*
X122619524Y-133668438D01*
X122619524Y-133668438D02*
X122714762Y-133620819D01*
X122714762Y-133620819D02*
X122952857Y-133620819D01*
X122952857Y-133620819D02*
X123048095Y-133668438D01*
X123048095Y-133668438D02*
X123095714Y-133716057D01*
X123095714Y-133716057D02*
X123143333Y-133811295D01*
X123143333Y-133811295D02*
X123143333Y-133906533D01*
X123143333Y-133906533D02*
X123095714Y-134049390D01*
X123095714Y-134049390D02*
X122524286Y-134620819D01*
X122524286Y-134620819D02*
X123143333Y-134620819D01*
X123619524Y-134620819D02*
X123810000Y-134620819D01*
X123810000Y-134620819D02*
X123905238Y-134573200D01*
X123905238Y-134573200D02*
X123952857Y-134525580D01*
X123952857Y-134525580D02*
X124048095Y-134382723D01*
X124048095Y-134382723D02*
X124095714Y-134192247D01*
X124095714Y-134192247D02*
X124095714Y-133811295D01*
X124095714Y-133811295D02*
X124048095Y-133716057D01*
X124048095Y-133716057D02*
X124000476Y-133668438D01*
X124000476Y-133668438D02*
X123905238Y-133620819D01*
X123905238Y-133620819D02*
X123714762Y-133620819D01*
X123714762Y-133620819D02*
X123619524Y-133668438D01*
X123619524Y-133668438D02*
X123571905Y-133716057D01*
X123571905Y-133716057D02*
X123524286Y-133811295D01*
X123524286Y-133811295D02*
X123524286Y-134049390D01*
X123524286Y-134049390D02*
X123571905Y-134144628D01*
X123571905Y-134144628D02*
X123619524Y-134192247D01*
X123619524Y-134192247D02*
X123714762Y-134239866D01*
X123714762Y-134239866D02*
X123905238Y-134239866D01*
X123905238Y-134239866D02*
X124000476Y-134192247D01*
X124000476Y-134192247D02*
X124048095Y-134144628D01*
X124048095Y-134144628D02*
X124095714Y-134049390D01*
X272966667Y-118207200D02*
X273109524Y-118254819D01*
X273109524Y-118254819D02*
X273347619Y-118254819D01*
X273347619Y-118254819D02*
X273442857Y-118207200D01*
X273442857Y-118207200D02*
X273490476Y-118159580D01*
X273490476Y-118159580D02*
X273538095Y-118064342D01*
X273538095Y-118064342D02*
X273538095Y-117969104D01*
X273538095Y-117969104D02*
X273490476Y-117873866D01*
X273490476Y-117873866D02*
X273442857Y-117826247D01*
X273442857Y-117826247D02*
X273347619Y-117778628D01*
X273347619Y-117778628D02*
X273157143Y-117731009D01*
X273157143Y-117731009D02*
X273061905Y-117683390D01*
X273061905Y-117683390D02*
X273014286Y-117635771D01*
X273014286Y-117635771D02*
X272966667Y-117540533D01*
X272966667Y-117540533D02*
X272966667Y-117445295D01*
X272966667Y-117445295D02*
X273014286Y-117350057D01*
X273014286Y-117350057D02*
X273061905Y-117302438D01*
X273061905Y-117302438D02*
X273157143Y-117254819D01*
X273157143Y-117254819D02*
X273395238Y-117254819D01*
X273395238Y-117254819D02*
X273538095Y-117302438D01*
X273871429Y-117254819D02*
X274109524Y-118254819D01*
X274109524Y-118254819D02*
X274300000Y-117540533D01*
X274300000Y-117540533D02*
X274490476Y-118254819D01*
X274490476Y-118254819D02*
X274728572Y-117254819D01*
X275061905Y-117350057D02*
X275109524Y-117302438D01*
X275109524Y-117302438D02*
X275204762Y-117254819D01*
X275204762Y-117254819D02*
X275442857Y-117254819D01*
X275442857Y-117254819D02*
X275538095Y-117302438D01*
X275538095Y-117302438D02*
X275585714Y-117350057D01*
X275585714Y-117350057D02*
X275633333Y-117445295D01*
X275633333Y-117445295D02*
X275633333Y-117540533D01*
X275633333Y-117540533D02*
X275585714Y-117683390D01*
X275585714Y-117683390D02*
X275014286Y-118254819D01*
X275014286Y-118254819D02*
X275633333Y-118254819D01*
X181571905Y-113620819D02*
X181571905Y-114430342D01*
X181571905Y-114430342D02*
X181619524Y-114525580D01*
X181619524Y-114525580D02*
X181667143Y-114573200D01*
X181667143Y-114573200D02*
X181762381Y-114620819D01*
X181762381Y-114620819D02*
X181952857Y-114620819D01*
X181952857Y-114620819D02*
X182048095Y-114573200D01*
X182048095Y-114573200D02*
X182095714Y-114525580D01*
X182095714Y-114525580D02*
X182143333Y-114430342D01*
X182143333Y-114430342D02*
X182143333Y-113620819D01*
X183095714Y-113620819D02*
X182619524Y-113620819D01*
X182619524Y-113620819D02*
X182571905Y-114097009D01*
X182571905Y-114097009D02*
X182619524Y-114049390D01*
X182619524Y-114049390D02*
X182714762Y-114001771D01*
X182714762Y-114001771D02*
X182952857Y-114001771D01*
X182952857Y-114001771D02*
X183048095Y-114049390D01*
X183048095Y-114049390D02*
X183095714Y-114097009D01*
X183095714Y-114097009D02*
X183143333Y-114192247D01*
X183143333Y-114192247D02*
X183143333Y-114430342D01*
X183143333Y-114430342D02*
X183095714Y-114525580D01*
X183095714Y-114525580D02*
X183048095Y-114573200D01*
X183048095Y-114573200D02*
X182952857Y-114620819D01*
X182952857Y-114620819D02*
X182714762Y-114620819D01*
X182714762Y-114620819D02*
X182619524Y-114573200D01*
X182619524Y-114573200D02*
X182571905Y-114525580D01*
X183524286Y-113716057D02*
X183571905Y-113668438D01*
X183571905Y-113668438D02*
X183667143Y-113620819D01*
X183667143Y-113620819D02*
X183905238Y-113620819D01*
X183905238Y-113620819D02*
X184000476Y-113668438D01*
X184000476Y-113668438D02*
X184048095Y-113716057D01*
X184048095Y-113716057D02*
X184095714Y-113811295D01*
X184095714Y-113811295D02*
X184095714Y-113906533D01*
X184095714Y-113906533D02*
X184048095Y-114049390D01*
X184048095Y-114049390D02*
X183476667Y-114620819D01*
X183476667Y-114620819D02*
X184095714Y-114620819D01*
X81571905Y-73620819D02*
X81571905Y-74430342D01*
X81571905Y-74430342D02*
X81619524Y-74525580D01*
X81619524Y-74525580D02*
X81667143Y-74573200D01*
X81667143Y-74573200D02*
X81762381Y-74620819D01*
X81762381Y-74620819D02*
X81952857Y-74620819D01*
X81952857Y-74620819D02*
X82048095Y-74573200D01*
X82048095Y-74573200D02*
X82095714Y-74525580D01*
X82095714Y-74525580D02*
X82143333Y-74430342D01*
X82143333Y-74430342D02*
X82143333Y-73620819D01*
X83143333Y-74620819D02*
X82571905Y-74620819D01*
X82857619Y-74620819D02*
X82857619Y-73620819D01*
X82857619Y-73620819D02*
X82762381Y-73763676D01*
X82762381Y-73763676D02*
X82667143Y-73858914D01*
X82667143Y-73858914D02*
X82571905Y-73906533D01*
X83762381Y-73620819D02*
X83857619Y-73620819D01*
X83857619Y-73620819D02*
X83952857Y-73668438D01*
X83952857Y-73668438D02*
X84000476Y-73716057D01*
X84000476Y-73716057D02*
X84048095Y-73811295D01*
X84048095Y-73811295D02*
X84095714Y-74001771D01*
X84095714Y-74001771D02*
X84095714Y-74239866D01*
X84095714Y-74239866D02*
X84048095Y-74430342D01*
X84048095Y-74430342D02*
X84000476Y-74525580D01*
X84000476Y-74525580D02*
X83952857Y-74573200D01*
X83952857Y-74573200D02*
X83857619Y-74620819D01*
X83857619Y-74620819D02*
X83762381Y-74620819D01*
X83762381Y-74620819D02*
X83667143Y-74573200D01*
X83667143Y-74573200D02*
X83619524Y-74525580D01*
X83619524Y-74525580D02*
X83571905Y-74430342D01*
X83571905Y-74430342D02*
X83524286Y-74239866D01*
X83524286Y-74239866D02*
X83524286Y-74001771D01*
X83524286Y-74001771D02*
X83571905Y-73811295D01*
X83571905Y-73811295D02*
X83619524Y-73716057D01*
X83619524Y-73716057D02*
X83667143Y-73668438D01*
X83667143Y-73668438D02*
X83762381Y-73620819D01*
X161571905Y-113620819D02*
X161571905Y-114430342D01*
X161571905Y-114430342D02*
X161619524Y-114525580D01*
X161619524Y-114525580D02*
X161667143Y-114573200D01*
X161667143Y-114573200D02*
X161762381Y-114620819D01*
X161762381Y-114620819D02*
X161952857Y-114620819D01*
X161952857Y-114620819D02*
X162048095Y-114573200D01*
X162048095Y-114573200D02*
X162095714Y-114525580D01*
X162095714Y-114525580D02*
X162143333Y-114430342D01*
X162143333Y-114430342D02*
X162143333Y-113620819D01*
X163048095Y-113954152D02*
X163048095Y-114620819D01*
X162810000Y-113573200D02*
X162571905Y-114287485D01*
X162571905Y-114287485D02*
X163190952Y-114287485D01*
X164000476Y-113954152D02*
X164000476Y-114620819D01*
X163762381Y-113573200D02*
X163524286Y-114287485D01*
X163524286Y-114287485D02*
X164143333Y-114287485D01*
X121571905Y-153620819D02*
X121571905Y-154430342D01*
X121571905Y-154430342D02*
X121619524Y-154525580D01*
X121619524Y-154525580D02*
X121667143Y-154573200D01*
X121667143Y-154573200D02*
X121762381Y-154620819D01*
X121762381Y-154620819D02*
X121952857Y-154620819D01*
X121952857Y-154620819D02*
X122048095Y-154573200D01*
X122048095Y-154573200D02*
X122095714Y-154525580D01*
X122095714Y-154525580D02*
X122143333Y-154430342D01*
X122143333Y-154430342D02*
X122143333Y-153620819D01*
X122524286Y-153620819D02*
X123143333Y-153620819D01*
X123143333Y-153620819D02*
X122810000Y-154001771D01*
X122810000Y-154001771D02*
X122952857Y-154001771D01*
X122952857Y-154001771D02*
X123048095Y-154049390D01*
X123048095Y-154049390D02*
X123095714Y-154097009D01*
X123095714Y-154097009D02*
X123143333Y-154192247D01*
X123143333Y-154192247D02*
X123143333Y-154430342D01*
X123143333Y-154430342D02*
X123095714Y-154525580D01*
X123095714Y-154525580D02*
X123048095Y-154573200D01*
X123048095Y-154573200D02*
X122952857Y-154620819D01*
X122952857Y-154620819D02*
X122667143Y-154620819D01*
X122667143Y-154620819D02*
X122571905Y-154573200D01*
X122571905Y-154573200D02*
X122524286Y-154525580D01*
X123762381Y-153620819D02*
X123857619Y-153620819D01*
X123857619Y-153620819D02*
X123952857Y-153668438D01*
X123952857Y-153668438D02*
X124000476Y-153716057D01*
X124000476Y-153716057D02*
X124048095Y-153811295D01*
X124048095Y-153811295D02*
X124095714Y-154001771D01*
X124095714Y-154001771D02*
X124095714Y-154239866D01*
X124095714Y-154239866D02*
X124048095Y-154430342D01*
X124048095Y-154430342D02*
X124000476Y-154525580D01*
X124000476Y-154525580D02*
X123952857Y-154573200D01*
X123952857Y-154573200D02*
X123857619Y-154620819D01*
X123857619Y-154620819D02*
X123762381Y-154620819D01*
X123762381Y-154620819D02*
X123667143Y-154573200D01*
X123667143Y-154573200D02*
X123619524Y-154525580D01*
X123619524Y-154525580D02*
X123571905Y-154430342D01*
X123571905Y-154430342D02*
X123524286Y-154239866D01*
X123524286Y-154239866D02*
X123524286Y-154001771D01*
X123524286Y-154001771D02*
X123571905Y-153811295D01*
X123571905Y-153811295D02*
X123619524Y-153716057D01*
X123619524Y-153716057D02*
X123667143Y-153668438D01*
X123667143Y-153668438D02*
X123762381Y-153620819D01*
X62048095Y-173620819D02*
X62048095Y-174430342D01*
X62048095Y-174430342D02*
X62095714Y-174525580D01*
X62095714Y-174525580D02*
X62143333Y-174573200D01*
X62143333Y-174573200D02*
X62238571Y-174620819D01*
X62238571Y-174620819D02*
X62429047Y-174620819D01*
X62429047Y-174620819D02*
X62524285Y-174573200D01*
X62524285Y-174573200D02*
X62571904Y-174525580D01*
X62571904Y-174525580D02*
X62619523Y-174430342D01*
X62619523Y-174430342D02*
X62619523Y-173620819D01*
X63000476Y-173620819D02*
X63667142Y-173620819D01*
X63667142Y-173620819D02*
X63238571Y-174620819D01*
X62048095Y-153620819D02*
X62048095Y-154430342D01*
X62048095Y-154430342D02*
X62095714Y-154525580D01*
X62095714Y-154525580D02*
X62143333Y-154573200D01*
X62143333Y-154573200D02*
X62238571Y-154620819D01*
X62238571Y-154620819D02*
X62429047Y-154620819D01*
X62429047Y-154620819D02*
X62524285Y-154573200D01*
X62524285Y-154573200D02*
X62571904Y-154525580D01*
X62571904Y-154525580D02*
X62619523Y-154430342D01*
X62619523Y-154430342D02*
X62619523Y-153620819D01*
X63524285Y-153620819D02*
X63333809Y-153620819D01*
X63333809Y-153620819D02*
X63238571Y-153668438D01*
X63238571Y-153668438D02*
X63190952Y-153716057D01*
X63190952Y-153716057D02*
X63095714Y-153858914D01*
X63095714Y-153858914D02*
X63048095Y-154049390D01*
X63048095Y-154049390D02*
X63048095Y-154430342D01*
X63048095Y-154430342D02*
X63095714Y-154525580D01*
X63095714Y-154525580D02*
X63143333Y-154573200D01*
X63143333Y-154573200D02*
X63238571Y-154620819D01*
X63238571Y-154620819D02*
X63429047Y-154620819D01*
X63429047Y-154620819D02*
X63524285Y-154573200D01*
X63524285Y-154573200D02*
X63571904Y-154525580D01*
X63571904Y-154525580D02*
X63619523Y-154430342D01*
X63619523Y-154430342D02*
X63619523Y-154192247D01*
X63619523Y-154192247D02*
X63571904Y-154097009D01*
X63571904Y-154097009D02*
X63524285Y-154049390D01*
X63524285Y-154049390D02*
X63429047Y-154001771D01*
X63429047Y-154001771D02*
X63238571Y-154001771D01*
X63238571Y-154001771D02*
X63143333Y-154049390D01*
X63143333Y-154049390D02*
X63095714Y-154097009D01*
X63095714Y-154097009D02*
X63048095Y-154192247D01*
X181571905Y-153620819D02*
X181571905Y-154430342D01*
X181571905Y-154430342D02*
X181619524Y-154525580D01*
X181619524Y-154525580D02*
X181667143Y-154573200D01*
X181667143Y-154573200D02*
X181762381Y-154620819D01*
X181762381Y-154620819D02*
X181952857Y-154620819D01*
X181952857Y-154620819D02*
X182048095Y-154573200D01*
X182048095Y-154573200D02*
X182095714Y-154525580D01*
X182095714Y-154525580D02*
X182143333Y-154430342D01*
X182143333Y-154430342D02*
X182143333Y-153620819D01*
X183095714Y-153620819D02*
X182619524Y-153620819D01*
X182619524Y-153620819D02*
X182571905Y-154097009D01*
X182571905Y-154097009D02*
X182619524Y-154049390D01*
X182619524Y-154049390D02*
X182714762Y-154001771D01*
X182714762Y-154001771D02*
X182952857Y-154001771D01*
X182952857Y-154001771D02*
X183048095Y-154049390D01*
X183048095Y-154049390D02*
X183095714Y-154097009D01*
X183095714Y-154097009D02*
X183143333Y-154192247D01*
X183143333Y-154192247D02*
X183143333Y-154430342D01*
X183143333Y-154430342D02*
X183095714Y-154525580D01*
X183095714Y-154525580D02*
X183048095Y-154573200D01*
X183048095Y-154573200D02*
X182952857Y-154620819D01*
X182952857Y-154620819D02*
X182714762Y-154620819D01*
X182714762Y-154620819D02*
X182619524Y-154573200D01*
X182619524Y-154573200D02*
X182571905Y-154525580D01*
X184000476Y-153954152D02*
X184000476Y-154620819D01*
X183762381Y-153573200D02*
X183524286Y-154287485D01*
X183524286Y-154287485D02*
X184143333Y-154287485D01*
X81571905Y-133620819D02*
X81571905Y-134430342D01*
X81571905Y-134430342D02*
X81619524Y-134525580D01*
X81619524Y-134525580D02*
X81667143Y-134573200D01*
X81667143Y-134573200D02*
X81762381Y-134620819D01*
X81762381Y-134620819D02*
X81952857Y-134620819D01*
X81952857Y-134620819D02*
X82048095Y-134573200D01*
X82048095Y-134573200D02*
X82095714Y-134525580D01*
X82095714Y-134525580D02*
X82143333Y-134430342D01*
X82143333Y-134430342D02*
X82143333Y-133620819D01*
X83143333Y-134620819D02*
X82571905Y-134620819D01*
X82857619Y-134620819D02*
X82857619Y-133620819D01*
X82857619Y-133620819D02*
X82762381Y-133763676D01*
X82762381Y-133763676D02*
X82667143Y-133858914D01*
X82667143Y-133858914D02*
X82571905Y-133906533D01*
X83476667Y-133620819D02*
X84095714Y-133620819D01*
X84095714Y-133620819D02*
X83762381Y-134001771D01*
X83762381Y-134001771D02*
X83905238Y-134001771D01*
X83905238Y-134001771D02*
X84000476Y-134049390D01*
X84000476Y-134049390D02*
X84048095Y-134097009D01*
X84048095Y-134097009D02*
X84095714Y-134192247D01*
X84095714Y-134192247D02*
X84095714Y-134430342D01*
X84095714Y-134430342D02*
X84048095Y-134525580D01*
X84048095Y-134525580D02*
X84000476Y-134573200D01*
X84000476Y-134573200D02*
X83905238Y-134620819D01*
X83905238Y-134620819D02*
X83619524Y-134620819D01*
X83619524Y-134620819D02*
X83524286Y-134573200D01*
X83524286Y-134573200D02*
X83476667Y-134525580D01*
X201571905Y-93620819D02*
X201571905Y-94430342D01*
X201571905Y-94430342D02*
X201619524Y-94525580D01*
X201619524Y-94525580D02*
X201667143Y-94573200D01*
X201667143Y-94573200D02*
X201762381Y-94620819D01*
X201762381Y-94620819D02*
X201952857Y-94620819D01*
X201952857Y-94620819D02*
X202048095Y-94573200D01*
X202048095Y-94573200D02*
X202095714Y-94525580D01*
X202095714Y-94525580D02*
X202143333Y-94430342D01*
X202143333Y-94430342D02*
X202143333Y-93620819D01*
X203095714Y-93620819D02*
X202619524Y-93620819D01*
X202619524Y-93620819D02*
X202571905Y-94097009D01*
X202571905Y-94097009D02*
X202619524Y-94049390D01*
X202619524Y-94049390D02*
X202714762Y-94001771D01*
X202714762Y-94001771D02*
X202952857Y-94001771D01*
X202952857Y-94001771D02*
X203048095Y-94049390D01*
X203048095Y-94049390D02*
X203095714Y-94097009D01*
X203095714Y-94097009D02*
X203143333Y-94192247D01*
X203143333Y-94192247D02*
X203143333Y-94430342D01*
X203143333Y-94430342D02*
X203095714Y-94525580D01*
X203095714Y-94525580D02*
X203048095Y-94573200D01*
X203048095Y-94573200D02*
X202952857Y-94620819D01*
X202952857Y-94620819D02*
X202714762Y-94620819D01*
X202714762Y-94620819D02*
X202619524Y-94573200D01*
X202619524Y-94573200D02*
X202571905Y-94525580D01*
X203619524Y-94620819D02*
X203810000Y-94620819D01*
X203810000Y-94620819D02*
X203905238Y-94573200D01*
X203905238Y-94573200D02*
X203952857Y-94525580D01*
X203952857Y-94525580D02*
X204048095Y-94382723D01*
X204048095Y-94382723D02*
X204095714Y-94192247D01*
X204095714Y-94192247D02*
X204095714Y-93811295D01*
X204095714Y-93811295D02*
X204048095Y-93716057D01*
X204048095Y-93716057D02*
X204000476Y-93668438D01*
X204000476Y-93668438D02*
X203905238Y-93620819D01*
X203905238Y-93620819D02*
X203714762Y-93620819D01*
X203714762Y-93620819D02*
X203619524Y-93668438D01*
X203619524Y-93668438D02*
X203571905Y-93716057D01*
X203571905Y-93716057D02*
X203524286Y-93811295D01*
X203524286Y-93811295D02*
X203524286Y-94049390D01*
X203524286Y-94049390D02*
X203571905Y-94144628D01*
X203571905Y-94144628D02*
X203619524Y-94192247D01*
X203619524Y-94192247D02*
X203714762Y-94239866D01*
X203714762Y-94239866D02*
X203905238Y-94239866D01*
X203905238Y-94239866D02*
X204000476Y-94192247D01*
X204000476Y-94192247D02*
X204048095Y-94144628D01*
X204048095Y-94144628D02*
X204095714Y-94049390D01*
X141571905Y-73620819D02*
X141571905Y-74430342D01*
X141571905Y-74430342D02*
X141619524Y-74525580D01*
X141619524Y-74525580D02*
X141667143Y-74573200D01*
X141667143Y-74573200D02*
X141762381Y-74620819D01*
X141762381Y-74620819D02*
X141952857Y-74620819D01*
X141952857Y-74620819D02*
X142048095Y-74573200D01*
X142048095Y-74573200D02*
X142095714Y-74525580D01*
X142095714Y-74525580D02*
X142143333Y-74430342D01*
X142143333Y-74430342D02*
X142143333Y-73620819D01*
X142524286Y-73620819D02*
X143143333Y-73620819D01*
X143143333Y-73620819D02*
X142810000Y-74001771D01*
X142810000Y-74001771D02*
X142952857Y-74001771D01*
X142952857Y-74001771D02*
X143048095Y-74049390D01*
X143048095Y-74049390D02*
X143095714Y-74097009D01*
X143095714Y-74097009D02*
X143143333Y-74192247D01*
X143143333Y-74192247D02*
X143143333Y-74430342D01*
X143143333Y-74430342D02*
X143095714Y-74525580D01*
X143095714Y-74525580D02*
X143048095Y-74573200D01*
X143048095Y-74573200D02*
X142952857Y-74620819D01*
X142952857Y-74620819D02*
X142667143Y-74620819D01*
X142667143Y-74620819D02*
X142571905Y-74573200D01*
X142571905Y-74573200D02*
X142524286Y-74525580D01*
X144000476Y-73954152D02*
X144000476Y-74620819D01*
X143762381Y-73573200D02*
X143524286Y-74287485D01*
X143524286Y-74287485D02*
X144143333Y-74287485D01*
X81571905Y-153620819D02*
X81571905Y-154430342D01*
X81571905Y-154430342D02*
X81619524Y-154525580D01*
X81619524Y-154525580D02*
X81667143Y-154573200D01*
X81667143Y-154573200D02*
X81762381Y-154620819D01*
X81762381Y-154620819D02*
X81952857Y-154620819D01*
X81952857Y-154620819D02*
X82048095Y-154573200D01*
X82048095Y-154573200D02*
X82095714Y-154525580D01*
X82095714Y-154525580D02*
X82143333Y-154430342D01*
X82143333Y-154430342D02*
X82143333Y-153620819D01*
X83143333Y-154620819D02*
X82571905Y-154620819D01*
X82857619Y-154620819D02*
X82857619Y-153620819D01*
X82857619Y-153620819D02*
X82762381Y-153763676D01*
X82762381Y-153763676D02*
X82667143Y-153858914D01*
X82667143Y-153858914D02*
X82571905Y-153906533D01*
X84000476Y-153954152D02*
X84000476Y-154620819D01*
X83762381Y-153573200D02*
X83524286Y-154287485D01*
X83524286Y-154287485D02*
X84143333Y-154287485D01*
X62048095Y-93620819D02*
X62048095Y-94430342D01*
X62048095Y-94430342D02*
X62095714Y-94525580D01*
X62095714Y-94525580D02*
X62143333Y-94573200D01*
X62143333Y-94573200D02*
X62238571Y-94620819D01*
X62238571Y-94620819D02*
X62429047Y-94620819D01*
X62429047Y-94620819D02*
X62524285Y-94573200D01*
X62524285Y-94573200D02*
X62571904Y-94525580D01*
X62571904Y-94525580D02*
X62619523Y-94430342D01*
X62619523Y-94430342D02*
X62619523Y-93620819D01*
X63000476Y-93620819D02*
X63619523Y-93620819D01*
X63619523Y-93620819D02*
X63286190Y-94001771D01*
X63286190Y-94001771D02*
X63429047Y-94001771D01*
X63429047Y-94001771D02*
X63524285Y-94049390D01*
X63524285Y-94049390D02*
X63571904Y-94097009D01*
X63571904Y-94097009D02*
X63619523Y-94192247D01*
X63619523Y-94192247D02*
X63619523Y-94430342D01*
X63619523Y-94430342D02*
X63571904Y-94525580D01*
X63571904Y-94525580D02*
X63524285Y-94573200D01*
X63524285Y-94573200D02*
X63429047Y-94620819D01*
X63429047Y-94620819D02*
X63143333Y-94620819D01*
X63143333Y-94620819D02*
X63048095Y-94573200D01*
X63048095Y-94573200D02*
X63000476Y-94525580D01*
X161571905Y-173620819D02*
X161571905Y-174430342D01*
X161571905Y-174430342D02*
X161619524Y-174525580D01*
X161619524Y-174525580D02*
X161667143Y-174573200D01*
X161667143Y-174573200D02*
X161762381Y-174620819D01*
X161762381Y-174620819D02*
X161952857Y-174620819D01*
X161952857Y-174620819D02*
X162048095Y-174573200D01*
X162048095Y-174573200D02*
X162095714Y-174525580D01*
X162095714Y-174525580D02*
X162143333Y-174430342D01*
X162143333Y-174430342D02*
X162143333Y-173620819D01*
X163048095Y-173954152D02*
X163048095Y-174620819D01*
X162810000Y-173573200D02*
X162571905Y-174287485D01*
X162571905Y-174287485D02*
X163190952Y-174287485D01*
X163476667Y-173620819D02*
X164143333Y-173620819D01*
X164143333Y-173620819D02*
X163714762Y-174620819D01*
X161571905Y-93620819D02*
X161571905Y-94430342D01*
X161571905Y-94430342D02*
X161619524Y-94525580D01*
X161619524Y-94525580D02*
X161667143Y-94573200D01*
X161667143Y-94573200D02*
X161762381Y-94620819D01*
X161762381Y-94620819D02*
X161952857Y-94620819D01*
X161952857Y-94620819D02*
X162048095Y-94573200D01*
X162048095Y-94573200D02*
X162095714Y-94525580D01*
X162095714Y-94525580D02*
X162143333Y-94430342D01*
X162143333Y-94430342D02*
X162143333Y-93620819D01*
X163048095Y-93954152D02*
X163048095Y-94620819D01*
X162810000Y-93573200D02*
X162571905Y-94287485D01*
X162571905Y-94287485D02*
X163190952Y-94287485D01*
X163476667Y-93620819D02*
X164095714Y-93620819D01*
X164095714Y-93620819D02*
X163762381Y-94001771D01*
X163762381Y-94001771D02*
X163905238Y-94001771D01*
X163905238Y-94001771D02*
X164000476Y-94049390D01*
X164000476Y-94049390D02*
X164048095Y-94097009D01*
X164048095Y-94097009D02*
X164095714Y-94192247D01*
X164095714Y-94192247D02*
X164095714Y-94430342D01*
X164095714Y-94430342D02*
X164048095Y-94525580D01*
X164048095Y-94525580D02*
X164000476Y-94573200D01*
X164000476Y-94573200D02*
X163905238Y-94620819D01*
X163905238Y-94620819D02*
X163619524Y-94620819D01*
X163619524Y-94620819D02*
X163524286Y-94573200D01*
X163524286Y-94573200D02*
X163476667Y-94525580D01*
X62048095Y-133620819D02*
X62048095Y-134430342D01*
X62048095Y-134430342D02*
X62095714Y-134525580D01*
X62095714Y-134525580D02*
X62143333Y-134573200D01*
X62143333Y-134573200D02*
X62238571Y-134620819D01*
X62238571Y-134620819D02*
X62429047Y-134620819D01*
X62429047Y-134620819D02*
X62524285Y-134573200D01*
X62524285Y-134573200D02*
X62571904Y-134525580D01*
X62571904Y-134525580D02*
X62619523Y-134430342D01*
X62619523Y-134430342D02*
X62619523Y-133620819D01*
X63571904Y-133620819D02*
X63095714Y-133620819D01*
X63095714Y-133620819D02*
X63048095Y-134097009D01*
X63048095Y-134097009D02*
X63095714Y-134049390D01*
X63095714Y-134049390D02*
X63190952Y-134001771D01*
X63190952Y-134001771D02*
X63429047Y-134001771D01*
X63429047Y-134001771D02*
X63524285Y-134049390D01*
X63524285Y-134049390D02*
X63571904Y-134097009D01*
X63571904Y-134097009D02*
X63619523Y-134192247D01*
X63619523Y-134192247D02*
X63619523Y-134430342D01*
X63619523Y-134430342D02*
X63571904Y-134525580D01*
X63571904Y-134525580D02*
X63524285Y-134573200D01*
X63524285Y-134573200D02*
X63429047Y-134620819D01*
X63429047Y-134620819D02*
X63190952Y-134620819D01*
X63190952Y-134620819D02*
X63095714Y-134573200D01*
X63095714Y-134573200D02*
X63048095Y-134525580D01*
X121571905Y-93620819D02*
X121571905Y-94430342D01*
X121571905Y-94430342D02*
X121619524Y-94525580D01*
X121619524Y-94525580D02*
X121667143Y-94573200D01*
X121667143Y-94573200D02*
X121762381Y-94620819D01*
X121762381Y-94620819D02*
X121952857Y-94620819D01*
X121952857Y-94620819D02*
X122048095Y-94573200D01*
X122048095Y-94573200D02*
X122095714Y-94525580D01*
X122095714Y-94525580D02*
X122143333Y-94430342D01*
X122143333Y-94430342D02*
X122143333Y-93620819D01*
X122571905Y-93716057D02*
X122619524Y-93668438D01*
X122619524Y-93668438D02*
X122714762Y-93620819D01*
X122714762Y-93620819D02*
X122952857Y-93620819D01*
X122952857Y-93620819D02*
X123048095Y-93668438D01*
X123048095Y-93668438D02*
X123095714Y-93716057D01*
X123095714Y-93716057D02*
X123143333Y-93811295D01*
X123143333Y-93811295D02*
X123143333Y-93906533D01*
X123143333Y-93906533D02*
X123095714Y-94049390D01*
X123095714Y-94049390D02*
X122524286Y-94620819D01*
X122524286Y-94620819D02*
X123143333Y-94620819D01*
X123476667Y-93620819D02*
X124143333Y-93620819D01*
X124143333Y-93620819D02*
X123714762Y-94620819D01*
X272966667Y-138207200D02*
X273109524Y-138254819D01*
X273109524Y-138254819D02*
X273347619Y-138254819D01*
X273347619Y-138254819D02*
X273442857Y-138207200D01*
X273442857Y-138207200D02*
X273490476Y-138159580D01*
X273490476Y-138159580D02*
X273538095Y-138064342D01*
X273538095Y-138064342D02*
X273538095Y-137969104D01*
X273538095Y-137969104D02*
X273490476Y-137873866D01*
X273490476Y-137873866D02*
X273442857Y-137826247D01*
X273442857Y-137826247D02*
X273347619Y-137778628D01*
X273347619Y-137778628D02*
X273157143Y-137731009D01*
X273157143Y-137731009D02*
X273061905Y-137683390D01*
X273061905Y-137683390D02*
X273014286Y-137635771D01*
X273014286Y-137635771D02*
X272966667Y-137540533D01*
X272966667Y-137540533D02*
X272966667Y-137445295D01*
X272966667Y-137445295D02*
X273014286Y-137350057D01*
X273014286Y-137350057D02*
X273061905Y-137302438D01*
X273061905Y-137302438D02*
X273157143Y-137254819D01*
X273157143Y-137254819D02*
X273395238Y-137254819D01*
X273395238Y-137254819D02*
X273538095Y-137302438D01*
X273871429Y-137254819D02*
X274109524Y-138254819D01*
X274109524Y-138254819D02*
X274300000Y-137540533D01*
X274300000Y-137540533D02*
X274490476Y-138254819D01*
X274490476Y-138254819D02*
X274728572Y-137254819D01*
X275538095Y-137588152D02*
X275538095Y-138254819D01*
X275300000Y-137207200D02*
X275061905Y-137921485D01*
X275061905Y-137921485D02*
X275680952Y-137921485D01*
X62048095Y-193620819D02*
X62048095Y-194430342D01*
X62048095Y-194430342D02*
X62095714Y-194525580D01*
X62095714Y-194525580D02*
X62143333Y-194573200D01*
X62143333Y-194573200D02*
X62238571Y-194620819D01*
X62238571Y-194620819D02*
X62429047Y-194620819D01*
X62429047Y-194620819D02*
X62524285Y-194573200D01*
X62524285Y-194573200D02*
X62571904Y-194525580D01*
X62571904Y-194525580D02*
X62619523Y-194430342D01*
X62619523Y-194430342D02*
X62619523Y-193620819D01*
X63238571Y-194049390D02*
X63143333Y-194001771D01*
X63143333Y-194001771D02*
X63095714Y-193954152D01*
X63095714Y-193954152D02*
X63048095Y-193858914D01*
X63048095Y-193858914D02*
X63048095Y-193811295D01*
X63048095Y-193811295D02*
X63095714Y-193716057D01*
X63095714Y-193716057D02*
X63143333Y-193668438D01*
X63143333Y-193668438D02*
X63238571Y-193620819D01*
X63238571Y-193620819D02*
X63429047Y-193620819D01*
X63429047Y-193620819D02*
X63524285Y-193668438D01*
X63524285Y-193668438D02*
X63571904Y-193716057D01*
X63571904Y-193716057D02*
X63619523Y-193811295D01*
X63619523Y-193811295D02*
X63619523Y-193858914D01*
X63619523Y-193858914D02*
X63571904Y-193954152D01*
X63571904Y-193954152D02*
X63524285Y-194001771D01*
X63524285Y-194001771D02*
X63429047Y-194049390D01*
X63429047Y-194049390D02*
X63238571Y-194049390D01*
X63238571Y-194049390D02*
X63143333Y-194097009D01*
X63143333Y-194097009D02*
X63095714Y-194144628D01*
X63095714Y-194144628D02*
X63048095Y-194239866D01*
X63048095Y-194239866D02*
X63048095Y-194430342D01*
X63048095Y-194430342D02*
X63095714Y-194525580D01*
X63095714Y-194525580D02*
X63143333Y-194573200D01*
X63143333Y-194573200D02*
X63238571Y-194620819D01*
X63238571Y-194620819D02*
X63429047Y-194620819D01*
X63429047Y-194620819D02*
X63524285Y-194573200D01*
X63524285Y-194573200D02*
X63571904Y-194525580D01*
X63571904Y-194525580D02*
X63619523Y-194430342D01*
X63619523Y-194430342D02*
X63619523Y-194239866D01*
X63619523Y-194239866D02*
X63571904Y-194144628D01*
X63571904Y-194144628D02*
X63524285Y-194097009D01*
X63524285Y-194097009D02*
X63429047Y-194049390D01*
X228364819Y-125810238D02*
X227888628Y-126143571D01*
X228364819Y-126381666D02*
X227364819Y-126381666D01*
X227364819Y-126381666D02*
X227364819Y-126000714D01*
X227364819Y-126000714D02*
X227412438Y-125905476D01*
X227412438Y-125905476D02*
X227460057Y-125857857D01*
X227460057Y-125857857D02*
X227555295Y-125810238D01*
X227555295Y-125810238D02*
X227698152Y-125810238D01*
X227698152Y-125810238D02*
X227793390Y-125857857D01*
X227793390Y-125857857D02*
X227841009Y-125905476D01*
X227841009Y-125905476D02*
X227888628Y-126000714D01*
X227888628Y-126000714D02*
X227888628Y-126381666D01*
X227364819Y-125524523D02*
X228364819Y-125191190D01*
X228364819Y-125191190D02*
X227364819Y-124857857D01*
X227364819Y-124619761D02*
X227364819Y-124000714D01*
X227364819Y-124000714D02*
X227745771Y-124334047D01*
X227745771Y-124334047D02*
X227745771Y-124191190D01*
X227745771Y-124191190D02*
X227793390Y-124095952D01*
X227793390Y-124095952D02*
X227841009Y-124048333D01*
X227841009Y-124048333D02*
X227936247Y-124000714D01*
X227936247Y-124000714D02*
X228174342Y-124000714D01*
X228174342Y-124000714D02*
X228269580Y-124048333D01*
X228269580Y-124048333D02*
X228317200Y-124095952D01*
X228317200Y-124095952D02*
X228364819Y-124191190D01*
X228364819Y-124191190D02*
X228364819Y-124476904D01*
X228364819Y-124476904D02*
X228317200Y-124572142D01*
X228317200Y-124572142D02*
X228269580Y-124619761D01*
X161571905Y-153620819D02*
X161571905Y-154430342D01*
X161571905Y-154430342D02*
X161619524Y-154525580D01*
X161619524Y-154525580D02*
X161667143Y-154573200D01*
X161667143Y-154573200D02*
X161762381Y-154620819D01*
X161762381Y-154620819D02*
X161952857Y-154620819D01*
X161952857Y-154620819D02*
X162048095Y-154573200D01*
X162048095Y-154573200D02*
X162095714Y-154525580D01*
X162095714Y-154525580D02*
X162143333Y-154430342D01*
X162143333Y-154430342D02*
X162143333Y-153620819D01*
X163048095Y-153954152D02*
X163048095Y-154620819D01*
X162810000Y-153573200D02*
X162571905Y-154287485D01*
X162571905Y-154287485D02*
X163190952Y-154287485D01*
X164000476Y-153620819D02*
X163810000Y-153620819D01*
X163810000Y-153620819D02*
X163714762Y-153668438D01*
X163714762Y-153668438D02*
X163667143Y-153716057D01*
X163667143Y-153716057D02*
X163571905Y-153858914D01*
X163571905Y-153858914D02*
X163524286Y-154049390D01*
X163524286Y-154049390D02*
X163524286Y-154430342D01*
X163524286Y-154430342D02*
X163571905Y-154525580D01*
X163571905Y-154525580D02*
X163619524Y-154573200D01*
X163619524Y-154573200D02*
X163714762Y-154620819D01*
X163714762Y-154620819D02*
X163905238Y-154620819D01*
X163905238Y-154620819D02*
X164000476Y-154573200D01*
X164000476Y-154573200D02*
X164048095Y-154525580D01*
X164048095Y-154525580D02*
X164095714Y-154430342D01*
X164095714Y-154430342D02*
X164095714Y-154192247D01*
X164095714Y-154192247D02*
X164048095Y-154097009D01*
X164048095Y-154097009D02*
X164000476Y-154049390D01*
X164000476Y-154049390D02*
X163905238Y-154001771D01*
X163905238Y-154001771D02*
X163714762Y-154001771D01*
X163714762Y-154001771D02*
X163619524Y-154049390D01*
X163619524Y-154049390D02*
X163571905Y-154097009D01*
X163571905Y-154097009D02*
X163524286Y-154192247D01*
X101571905Y-133620819D02*
X101571905Y-134430342D01*
X101571905Y-134430342D02*
X101619524Y-134525580D01*
X101619524Y-134525580D02*
X101667143Y-134573200D01*
X101667143Y-134573200D02*
X101762381Y-134620819D01*
X101762381Y-134620819D02*
X101952857Y-134620819D01*
X101952857Y-134620819D02*
X102048095Y-134573200D01*
X102048095Y-134573200D02*
X102095714Y-134525580D01*
X102095714Y-134525580D02*
X102143333Y-134430342D01*
X102143333Y-134430342D02*
X102143333Y-133620819D01*
X102571905Y-133716057D02*
X102619524Y-133668438D01*
X102619524Y-133668438D02*
X102714762Y-133620819D01*
X102714762Y-133620819D02*
X102952857Y-133620819D01*
X102952857Y-133620819D02*
X103048095Y-133668438D01*
X103048095Y-133668438D02*
X103095714Y-133716057D01*
X103095714Y-133716057D02*
X103143333Y-133811295D01*
X103143333Y-133811295D02*
X103143333Y-133906533D01*
X103143333Y-133906533D02*
X103095714Y-134049390D01*
X103095714Y-134049390D02*
X102524286Y-134620819D01*
X102524286Y-134620819D02*
X103143333Y-134620819D01*
X104095714Y-134620819D02*
X103524286Y-134620819D01*
X103810000Y-134620819D02*
X103810000Y-133620819D01*
X103810000Y-133620819D02*
X103714762Y-133763676D01*
X103714762Y-133763676D02*
X103619524Y-133858914D01*
X103619524Y-133858914D02*
X103524286Y-133906533D01*
X81571905Y-113620819D02*
X81571905Y-114430342D01*
X81571905Y-114430342D02*
X81619524Y-114525580D01*
X81619524Y-114525580D02*
X81667143Y-114573200D01*
X81667143Y-114573200D02*
X81762381Y-114620819D01*
X81762381Y-114620819D02*
X81952857Y-114620819D01*
X81952857Y-114620819D02*
X82048095Y-114573200D01*
X82048095Y-114573200D02*
X82095714Y-114525580D01*
X82095714Y-114525580D02*
X82143333Y-114430342D01*
X82143333Y-114430342D02*
X82143333Y-113620819D01*
X83143333Y-114620819D02*
X82571905Y-114620819D01*
X82857619Y-114620819D02*
X82857619Y-113620819D01*
X82857619Y-113620819D02*
X82762381Y-113763676D01*
X82762381Y-113763676D02*
X82667143Y-113858914D01*
X82667143Y-113858914D02*
X82571905Y-113906533D01*
X83524286Y-113716057D02*
X83571905Y-113668438D01*
X83571905Y-113668438D02*
X83667143Y-113620819D01*
X83667143Y-113620819D02*
X83905238Y-113620819D01*
X83905238Y-113620819D02*
X84000476Y-113668438D01*
X84000476Y-113668438D02*
X84048095Y-113716057D01*
X84048095Y-113716057D02*
X84095714Y-113811295D01*
X84095714Y-113811295D02*
X84095714Y-113906533D01*
X84095714Y-113906533D02*
X84048095Y-114049390D01*
X84048095Y-114049390D02*
X83476667Y-114620819D01*
X83476667Y-114620819D02*
X84095714Y-114620819D01*
X181571905Y-93620819D02*
X181571905Y-94430342D01*
X181571905Y-94430342D02*
X181619524Y-94525580D01*
X181619524Y-94525580D02*
X181667143Y-94573200D01*
X181667143Y-94573200D02*
X181762381Y-94620819D01*
X181762381Y-94620819D02*
X181952857Y-94620819D01*
X181952857Y-94620819D02*
X182048095Y-94573200D01*
X182048095Y-94573200D02*
X182095714Y-94525580D01*
X182095714Y-94525580D02*
X182143333Y-94430342D01*
X182143333Y-94430342D02*
X182143333Y-93620819D01*
X183095714Y-93620819D02*
X182619524Y-93620819D01*
X182619524Y-93620819D02*
X182571905Y-94097009D01*
X182571905Y-94097009D02*
X182619524Y-94049390D01*
X182619524Y-94049390D02*
X182714762Y-94001771D01*
X182714762Y-94001771D02*
X182952857Y-94001771D01*
X182952857Y-94001771D02*
X183048095Y-94049390D01*
X183048095Y-94049390D02*
X183095714Y-94097009D01*
X183095714Y-94097009D02*
X183143333Y-94192247D01*
X183143333Y-94192247D02*
X183143333Y-94430342D01*
X183143333Y-94430342D02*
X183095714Y-94525580D01*
X183095714Y-94525580D02*
X183048095Y-94573200D01*
X183048095Y-94573200D02*
X182952857Y-94620819D01*
X182952857Y-94620819D02*
X182714762Y-94620819D01*
X182714762Y-94620819D02*
X182619524Y-94573200D01*
X182619524Y-94573200D02*
X182571905Y-94525580D01*
X184095714Y-94620819D02*
X183524286Y-94620819D01*
X183810000Y-94620819D02*
X183810000Y-93620819D01*
X183810000Y-93620819D02*
X183714762Y-93763676D01*
X183714762Y-93763676D02*
X183619524Y-93858914D01*
X183619524Y-93858914D02*
X183524286Y-93906533D01*
X121571905Y-73620819D02*
X121571905Y-74430342D01*
X121571905Y-74430342D02*
X121619524Y-74525580D01*
X121619524Y-74525580D02*
X121667143Y-74573200D01*
X121667143Y-74573200D02*
X121762381Y-74620819D01*
X121762381Y-74620819D02*
X121952857Y-74620819D01*
X121952857Y-74620819D02*
X122048095Y-74573200D01*
X122048095Y-74573200D02*
X122095714Y-74525580D01*
X122095714Y-74525580D02*
X122143333Y-74430342D01*
X122143333Y-74430342D02*
X122143333Y-73620819D01*
X122571905Y-73716057D02*
X122619524Y-73668438D01*
X122619524Y-73668438D02*
X122714762Y-73620819D01*
X122714762Y-73620819D02*
X122952857Y-73620819D01*
X122952857Y-73620819D02*
X123048095Y-73668438D01*
X123048095Y-73668438D02*
X123095714Y-73716057D01*
X123095714Y-73716057D02*
X123143333Y-73811295D01*
X123143333Y-73811295D02*
X123143333Y-73906533D01*
X123143333Y-73906533D02*
X123095714Y-74049390D01*
X123095714Y-74049390D02*
X122524286Y-74620819D01*
X122524286Y-74620819D02*
X123143333Y-74620819D01*
X124000476Y-73620819D02*
X123810000Y-73620819D01*
X123810000Y-73620819D02*
X123714762Y-73668438D01*
X123714762Y-73668438D02*
X123667143Y-73716057D01*
X123667143Y-73716057D02*
X123571905Y-73858914D01*
X123571905Y-73858914D02*
X123524286Y-74049390D01*
X123524286Y-74049390D02*
X123524286Y-74430342D01*
X123524286Y-74430342D02*
X123571905Y-74525580D01*
X123571905Y-74525580D02*
X123619524Y-74573200D01*
X123619524Y-74573200D02*
X123714762Y-74620819D01*
X123714762Y-74620819D02*
X123905238Y-74620819D01*
X123905238Y-74620819D02*
X124000476Y-74573200D01*
X124000476Y-74573200D02*
X124048095Y-74525580D01*
X124048095Y-74525580D02*
X124095714Y-74430342D01*
X124095714Y-74430342D02*
X124095714Y-74192247D01*
X124095714Y-74192247D02*
X124048095Y-74097009D01*
X124048095Y-74097009D02*
X124000476Y-74049390D01*
X124000476Y-74049390D02*
X123905238Y-74001771D01*
X123905238Y-74001771D02*
X123714762Y-74001771D01*
X123714762Y-74001771D02*
X123619524Y-74049390D01*
X123619524Y-74049390D02*
X123571905Y-74097009D01*
X123571905Y-74097009D02*
X123524286Y-74192247D01*
X161571905Y-133620819D02*
X161571905Y-134430342D01*
X161571905Y-134430342D02*
X161619524Y-134525580D01*
X161619524Y-134525580D02*
X161667143Y-134573200D01*
X161667143Y-134573200D02*
X161762381Y-134620819D01*
X161762381Y-134620819D02*
X161952857Y-134620819D01*
X161952857Y-134620819D02*
X162048095Y-134573200D01*
X162048095Y-134573200D02*
X162095714Y-134525580D01*
X162095714Y-134525580D02*
X162143333Y-134430342D01*
X162143333Y-134430342D02*
X162143333Y-133620819D01*
X163048095Y-133954152D02*
X163048095Y-134620819D01*
X162810000Y-133573200D02*
X162571905Y-134287485D01*
X162571905Y-134287485D02*
X163190952Y-134287485D01*
X164048095Y-133620819D02*
X163571905Y-133620819D01*
X163571905Y-133620819D02*
X163524286Y-134097009D01*
X163524286Y-134097009D02*
X163571905Y-134049390D01*
X163571905Y-134049390D02*
X163667143Y-134001771D01*
X163667143Y-134001771D02*
X163905238Y-134001771D01*
X163905238Y-134001771D02*
X164000476Y-134049390D01*
X164000476Y-134049390D02*
X164048095Y-134097009D01*
X164048095Y-134097009D02*
X164095714Y-134192247D01*
X164095714Y-134192247D02*
X164095714Y-134430342D01*
X164095714Y-134430342D02*
X164048095Y-134525580D01*
X164048095Y-134525580D02*
X164000476Y-134573200D01*
X164000476Y-134573200D02*
X163905238Y-134620819D01*
X163905238Y-134620819D02*
X163667143Y-134620819D01*
X163667143Y-134620819D02*
X163571905Y-134573200D01*
X163571905Y-134573200D02*
X163524286Y-134525580D01*
X101571905Y-53620819D02*
X101571905Y-54430342D01*
X101571905Y-54430342D02*
X101619524Y-54525580D01*
X101619524Y-54525580D02*
X101667143Y-54573200D01*
X101667143Y-54573200D02*
X101762381Y-54620819D01*
X101762381Y-54620819D02*
X101952857Y-54620819D01*
X101952857Y-54620819D02*
X102048095Y-54573200D01*
X102048095Y-54573200D02*
X102095714Y-54525580D01*
X102095714Y-54525580D02*
X102143333Y-54430342D01*
X102143333Y-54430342D02*
X102143333Y-53620819D01*
X103143333Y-54620819D02*
X102571905Y-54620819D01*
X102857619Y-54620819D02*
X102857619Y-53620819D01*
X102857619Y-53620819D02*
X102762381Y-53763676D01*
X102762381Y-53763676D02*
X102667143Y-53858914D01*
X102667143Y-53858914D02*
X102571905Y-53906533D01*
X103476667Y-53620819D02*
X104143333Y-53620819D01*
X104143333Y-53620819D02*
X103714762Y-54620819D01*
X161571905Y-73620819D02*
X161571905Y-74430342D01*
X161571905Y-74430342D02*
X161619524Y-74525580D01*
X161619524Y-74525580D02*
X161667143Y-74573200D01*
X161667143Y-74573200D02*
X161762381Y-74620819D01*
X161762381Y-74620819D02*
X161952857Y-74620819D01*
X161952857Y-74620819D02*
X162048095Y-74573200D01*
X162048095Y-74573200D02*
X162095714Y-74525580D01*
X162095714Y-74525580D02*
X162143333Y-74430342D01*
X162143333Y-74430342D02*
X162143333Y-73620819D01*
X163048095Y-73954152D02*
X163048095Y-74620819D01*
X162810000Y-73573200D02*
X162571905Y-74287485D01*
X162571905Y-74287485D02*
X163190952Y-74287485D01*
X163524286Y-73716057D02*
X163571905Y-73668438D01*
X163571905Y-73668438D02*
X163667143Y-73620819D01*
X163667143Y-73620819D02*
X163905238Y-73620819D01*
X163905238Y-73620819D02*
X164000476Y-73668438D01*
X164000476Y-73668438D02*
X164048095Y-73716057D01*
X164048095Y-73716057D02*
X164095714Y-73811295D01*
X164095714Y-73811295D02*
X164095714Y-73906533D01*
X164095714Y-73906533D02*
X164048095Y-74049390D01*
X164048095Y-74049390D02*
X163476667Y-74620819D01*
X163476667Y-74620819D02*
X164095714Y-74620819D01*
X181571905Y-53620819D02*
X181571905Y-54430342D01*
X181571905Y-54430342D02*
X181619524Y-54525580D01*
X181619524Y-54525580D02*
X181667143Y-54573200D01*
X181667143Y-54573200D02*
X181762381Y-54620819D01*
X181762381Y-54620819D02*
X181952857Y-54620819D01*
X181952857Y-54620819D02*
X182048095Y-54573200D01*
X182048095Y-54573200D02*
X182095714Y-54525580D01*
X182095714Y-54525580D02*
X182143333Y-54430342D01*
X182143333Y-54430342D02*
X182143333Y-53620819D01*
X183048095Y-53954152D02*
X183048095Y-54620819D01*
X182810000Y-53573200D02*
X182571905Y-54287485D01*
X182571905Y-54287485D02*
X183190952Y-54287485D01*
X183619524Y-54620819D02*
X183810000Y-54620819D01*
X183810000Y-54620819D02*
X183905238Y-54573200D01*
X183905238Y-54573200D02*
X183952857Y-54525580D01*
X183952857Y-54525580D02*
X184048095Y-54382723D01*
X184048095Y-54382723D02*
X184095714Y-54192247D01*
X184095714Y-54192247D02*
X184095714Y-53811295D01*
X184095714Y-53811295D02*
X184048095Y-53716057D01*
X184048095Y-53716057D02*
X184000476Y-53668438D01*
X184000476Y-53668438D02*
X183905238Y-53620819D01*
X183905238Y-53620819D02*
X183714762Y-53620819D01*
X183714762Y-53620819D02*
X183619524Y-53668438D01*
X183619524Y-53668438D02*
X183571905Y-53716057D01*
X183571905Y-53716057D02*
X183524286Y-53811295D01*
X183524286Y-53811295D02*
X183524286Y-54049390D01*
X183524286Y-54049390D02*
X183571905Y-54144628D01*
X183571905Y-54144628D02*
X183619524Y-54192247D01*
X183619524Y-54192247D02*
X183714762Y-54239866D01*
X183714762Y-54239866D02*
X183905238Y-54239866D01*
X183905238Y-54239866D02*
X184000476Y-54192247D01*
X184000476Y-54192247D02*
X184048095Y-54144628D01*
X184048095Y-54144628D02*
X184095714Y-54049390D01*
X141571905Y-53620819D02*
X141571905Y-54430342D01*
X141571905Y-54430342D02*
X141619524Y-54525580D01*
X141619524Y-54525580D02*
X141667143Y-54573200D01*
X141667143Y-54573200D02*
X141762381Y-54620819D01*
X141762381Y-54620819D02*
X141952857Y-54620819D01*
X141952857Y-54620819D02*
X142048095Y-54573200D01*
X142048095Y-54573200D02*
X142095714Y-54525580D01*
X142095714Y-54525580D02*
X142143333Y-54430342D01*
X142143333Y-54430342D02*
X142143333Y-53620819D01*
X142524286Y-53620819D02*
X143143333Y-53620819D01*
X143143333Y-53620819D02*
X142810000Y-54001771D01*
X142810000Y-54001771D02*
X142952857Y-54001771D01*
X142952857Y-54001771D02*
X143048095Y-54049390D01*
X143048095Y-54049390D02*
X143095714Y-54097009D01*
X143095714Y-54097009D02*
X143143333Y-54192247D01*
X143143333Y-54192247D02*
X143143333Y-54430342D01*
X143143333Y-54430342D02*
X143095714Y-54525580D01*
X143095714Y-54525580D02*
X143048095Y-54573200D01*
X143048095Y-54573200D02*
X142952857Y-54620819D01*
X142952857Y-54620819D02*
X142667143Y-54620819D01*
X142667143Y-54620819D02*
X142571905Y-54573200D01*
X142571905Y-54573200D02*
X142524286Y-54525580D01*
X143476667Y-53620819D02*
X144095714Y-53620819D01*
X144095714Y-53620819D02*
X143762381Y-54001771D01*
X143762381Y-54001771D02*
X143905238Y-54001771D01*
X143905238Y-54001771D02*
X144000476Y-54049390D01*
X144000476Y-54049390D02*
X144048095Y-54097009D01*
X144048095Y-54097009D02*
X144095714Y-54192247D01*
X144095714Y-54192247D02*
X144095714Y-54430342D01*
X144095714Y-54430342D02*
X144048095Y-54525580D01*
X144048095Y-54525580D02*
X144000476Y-54573200D01*
X144000476Y-54573200D02*
X143905238Y-54620819D01*
X143905238Y-54620819D02*
X143619524Y-54620819D01*
X143619524Y-54620819D02*
X143524286Y-54573200D01*
X143524286Y-54573200D02*
X143476667Y-54525580D01*
X62048095Y-113620819D02*
X62048095Y-114430342D01*
X62048095Y-114430342D02*
X62095714Y-114525580D01*
X62095714Y-114525580D02*
X62143333Y-114573200D01*
X62143333Y-114573200D02*
X62238571Y-114620819D01*
X62238571Y-114620819D02*
X62429047Y-114620819D01*
X62429047Y-114620819D02*
X62524285Y-114573200D01*
X62524285Y-114573200D02*
X62571904Y-114525580D01*
X62571904Y-114525580D02*
X62619523Y-114430342D01*
X62619523Y-114430342D02*
X62619523Y-113620819D01*
X63524285Y-113954152D02*
X63524285Y-114620819D01*
X63286190Y-113573200D02*
X63048095Y-114287485D01*
X63048095Y-114287485D02*
X63667142Y-114287485D01*
X287780714Y-170694819D02*
X287780714Y-169694819D01*
X287780714Y-169694819D02*
X288018809Y-169694819D01*
X288018809Y-169694819D02*
X288161666Y-169742438D01*
X288161666Y-169742438D02*
X288256904Y-169837676D01*
X288256904Y-169837676D02*
X288304523Y-169932914D01*
X288304523Y-169932914D02*
X288352142Y-170123390D01*
X288352142Y-170123390D02*
X288352142Y-170266247D01*
X288352142Y-170266247D02*
X288304523Y-170456723D01*
X288304523Y-170456723D02*
X288256904Y-170551961D01*
X288256904Y-170551961D02*
X288161666Y-170647200D01*
X288161666Y-170647200D02*
X288018809Y-170694819D01*
X288018809Y-170694819D02*
X287780714Y-170694819D01*
X289209285Y-169694819D02*
X289018809Y-169694819D01*
X289018809Y-169694819D02*
X288923571Y-169742438D01*
X288923571Y-169742438D02*
X288875952Y-169790057D01*
X288875952Y-169790057D02*
X288780714Y-169932914D01*
X288780714Y-169932914D02*
X288733095Y-170123390D01*
X288733095Y-170123390D02*
X288733095Y-170504342D01*
X288733095Y-170504342D02*
X288780714Y-170599580D01*
X288780714Y-170599580D02*
X288828333Y-170647200D01*
X288828333Y-170647200D02*
X288923571Y-170694819D01*
X288923571Y-170694819D02*
X289114047Y-170694819D01*
X289114047Y-170694819D02*
X289209285Y-170647200D01*
X289209285Y-170647200D02*
X289256904Y-170599580D01*
X289256904Y-170599580D02*
X289304523Y-170504342D01*
X289304523Y-170504342D02*
X289304523Y-170266247D01*
X289304523Y-170266247D02*
X289256904Y-170171009D01*
X289256904Y-170171009D02*
X289209285Y-170123390D01*
X289209285Y-170123390D02*
X289114047Y-170075771D01*
X289114047Y-170075771D02*
X288923571Y-170075771D01*
X288923571Y-170075771D02*
X288828333Y-170123390D01*
X288828333Y-170123390D02*
X288780714Y-170171009D01*
X288780714Y-170171009D02*
X288733095Y-170266247D01*
X290209285Y-169694819D02*
X289733095Y-169694819D01*
X289733095Y-169694819D02*
X289685476Y-170171009D01*
X289685476Y-170171009D02*
X289733095Y-170123390D01*
X289733095Y-170123390D02*
X289828333Y-170075771D01*
X289828333Y-170075771D02*
X290066428Y-170075771D01*
X290066428Y-170075771D02*
X290161666Y-170123390D01*
X290161666Y-170123390D02*
X290209285Y-170171009D01*
X290209285Y-170171009D02*
X290256904Y-170266247D01*
X290256904Y-170266247D02*
X290256904Y-170504342D01*
X290256904Y-170504342D02*
X290209285Y-170599580D01*
X290209285Y-170599580D02*
X290161666Y-170647200D01*
X290161666Y-170647200D02*
X290066428Y-170694819D01*
X290066428Y-170694819D02*
X289828333Y-170694819D01*
X289828333Y-170694819D02*
X289733095Y-170647200D01*
X289733095Y-170647200D02*
X289685476Y-170599580D01*
X141571905Y-173620819D02*
X141571905Y-174430342D01*
X141571905Y-174430342D02*
X141619524Y-174525580D01*
X141619524Y-174525580D02*
X141667143Y-174573200D01*
X141667143Y-174573200D02*
X141762381Y-174620819D01*
X141762381Y-174620819D02*
X141952857Y-174620819D01*
X141952857Y-174620819D02*
X142048095Y-174573200D01*
X142048095Y-174573200D02*
X142095714Y-174525580D01*
X142095714Y-174525580D02*
X142143333Y-174430342D01*
X142143333Y-174430342D02*
X142143333Y-173620819D01*
X142524286Y-173620819D02*
X143143333Y-173620819D01*
X143143333Y-173620819D02*
X142810000Y-174001771D01*
X142810000Y-174001771D02*
X142952857Y-174001771D01*
X142952857Y-174001771D02*
X143048095Y-174049390D01*
X143048095Y-174049390D02*
X143095714Y-174097009D01*
X143095714Y-174097009D02*
X143143333Y-174192247D01*
X143143333Y-174192247D02*
X143143333Y-174430342D01*
X143143333Y-174430342D02*
X143095714Y-174525580D01*
X143095714Y-174525580D02*
X143048095Y-174573200D01*
X143048095Y-174573200D02*
X142952857Y-174620819D01*
X142952857Y-174620819D02*
X142667143Y-174620819D01*
X142667143Y-174620819D02*
X142571905Y-174573200D01*
X142571905Y-174573200D02*
X142524286Y-174525580D01*
X143619524Y-174620819D02*
X143810000Y-174620819D01*
X143810000Y-174620819D02*
X143905238Y-174573200D01*
X143905238Y-174573200D02*
X143952857Y-174525580D01*
X143952857Y-174525580D02*
X144048095Y-174382723D01*
X144048095Y-174382723D02*
X144095714Y-174192247D01*
X144095714Y-174192247D02*
X144095714Y-173811295D01*
X144095714Y-173811295D02*
X144048095Y-173716057D01*
X144048095Y-173716057D02*
X144000476Y-173668438D01*
X144000476Y-173668438D02*
X143905238Y-173620819D01*
X143905238Y-173620819D02*
X143714762Y-173620819D01*
X143714762Y-173620819D02*
X143619524Y-173668438D01*
X143619524Y-173668438D02*
X143571905Y-173716057D01*
X143571905Y-173716057D02*
X143524286Y-173811295D01*
X143524286Y-173811295D02*
X143524286Y-174049390D01*
X143524286Y-174049390D02*
X143571905Y-174144628D01*
X143571905Y-174144628D02*
X143619524Y-174192247D01*
X143619524Y-174192247D02*
X143714762Y-174239866D01*
X143714762Y-174239866D02*
X143905238Y-174239866D01*
X143905238Y-174239866D02*
X144000476Y-174192247D01*
X144000476Y-174192247D02*
X144048095Y-174144628D01*
X144048095Y-174144628D02*
X144095714Y-174049390D01*
X62048095Y-53620819D02*
X62048095Y-54430342D01*
X62048095Y-54430342D02*
X62095714Y-54525580D01*
X62095714Y-54525580D02*
X62143333Y-54573200D01*
X62143333Y-54573200D02*
X62238571Y-54620819D01*
X62238571Y-54620819D02*
X62429047Y-54620819D01*
X62429047Y-54620819D02*
X62524285Y-54573200D01*
X62524285Y-54573200D02*
X62571904Y-54525580D01*
X62571904Y-54525580D02*
X62619523Y-54430342D01*
X62619523Y-54430342D02*
X62619523Y-53620819D01*
X63619523Y-54620819D02*
X63048095Y-54620819D01*
X63333809Y-54620819D02*
X63333809Y-53620819D01*
X63333809Y-53620819D02*
X63238571Y-53763676D01*
X63238571Y-53763676D02*
X63143333Y-53858914D01*
X63143333Y-53858914D02*
X63048095Y-53906533D01*
X292966667Y-118207200D02*
X293109524Y-118254819D01*
X293109524Y-118254819D02*
X293347619Y-118254819D01*
X293347619Y-118254819D02*
X293442857Y-118207200D01*
X293442857Y-118207200D02*
X293490476Y-118159580D01*
X293490476Y-118159580D02*
X293538095Y-118064342D01*
X293538095Y-118064342D02*
X293538095Y-117969104D01*
X293538095Y-117969104D02*
X293490476Y-117873866D01*
X293490476Y-117873866D02*
X293442857Y-117826247D01*
X293442857Y-117826247D02*
X293347619Y-117778628D01*
X293347619Y-117778628D02*
X293157143Y-117731009D01*
X293157143Y-117731009D02*
X293061905Y-117683390D01*
X293061905Y-117683390D02*
X293014286Y-117635771D01*
X293014286Y-117635771D02*
X292966667Y-117540533D01*
X292966667Y-117540533D02*
X292966667Y-117445295D01*
X292966667Y-117445295D02*
X293014286Y-117350057D01*
X293014286Y-117350057D02*
X293061905Y-117302438D01*
X293061905Y-117302438D02*
X293157143Y-117254819D01*
X293157143Y-117254819D02*
X293395238Y-117254819D01*
X293395238Y-117254819D02*
X293538095Y-117302438D01*
X293871429Y-117254819D02*
X294109524Y-118254819D01*
X294109524Y-118254819D02*
X294300000Y-117540533D01*
X294300000Y-117540533D02*
X294490476Y-118254819D01*
X294490476Y-118254819D02*
X294728572Y-117254819D01*
X295014286Y-117254819D02*
X295633333Y-117254819D01*
X295633333Y-117254819D02*
X295300000Y-117635771D01*
X295300000Y-117635771D02*
X295442857Y-117635771D01*
X295442857Y-117635771D02*
X295538095Y-117683390D01*
X295538095Y-117683390D02*
X295585714Y-117731009D01*
X295585714Y-117731009D02*
X295633333Y-117826247D01*
X295633333Y-117826247D02*
X295633333Y-118064342D01*
X295633333Y-118064342D02*
X295585714Y-118159580D01*
X295585714Y-118159580D02*
X295538095Y-118207200D01*
X295538095Y-118207200D02*
X295442857Y-118254819D01*
X295442857Y-118254819D02*
X295157143Y-118254819D01*
X295157143Y-118254819D02*
X295061905Y-118207200D01*
X295061905Y-118207200D02*
X295014286Y-118159580D01*
X181571905Y-193620819D02*
X181571905Y-194430342D01*
X181571905Y-194430342D02*
X181619524Y-194525580D01*
X181619524Y-194525580D02*
X181667143Y-194573200D01*
X181667143Y-194573200D02*
X181762381Y-194620819D01*
X181762381Y-194620819D02*
X181952857Y-194620819D01*
X181952857Y-194620819D02*
X182048095Y-194573200D01*
X182048095Y-194573200D02*
X182095714Y-194525580D01*
X182095714Y-194525580D02*
X182143333Y-194430342D01*
X182143333Y-194430342D02*
X182143333Y-193620819D01*
X183095714Y-193620819D02*
X182619524Y-193620819D01*
X182619524Y-193620819D02*
X182571905Y-194097009D01*
X182571905Y-194097009D02*
X182619524Y-194049390D01*
X182619524Y-194049390D02*
X182714762Y-194001771D01*
X182714762Y-194001771D02*
X182952857Y-194001771D01*
X182952857Y-194001771D02*
X183048095Y-194049390D01*
X183048095Y-194049390D02*
X183095714Y-194097009D01*
X183095714Y-194097009D02*
X183143333Y-194192247D01*
X183143333Y-194192247D02*
X183143333Y-194430342D01*
X183143333Y-194430342D02*
X183095714Y-194525580D01*
X183095714Y-194525580D02*
X183048095Y-194573200D01*
X183048095Y-194573200D02*
X182952857Y-194620819D01*
X182952857Y-194620819D02*
X182714762Y-194620819D01*
X182714762Y-194620819D02*
X182619524Y-194573200D01*
X182619524Y-194573200D02*
X182571905Y-194525580D01*
X184000476Y-193620819D02*
X183810000Y-193620819D01*
X183810000Y-193620819D02*
X183714762Y-193668438D01*
X183714762Y-193668438D02*
X183667143Y-193716057D01*
X183667143Y-193716057D02*
X183571905Y-193858914D01*
X183571905Y-193858914D02*
X183524286Y-194049390D01*
X183524286Y-194049390D02*
X183524286Y-194430342D01*
X183524286Y-194430342D02*
X183571905Y-194525580D01*
X183571905Y-194525580D02*
X183619524Y-194573200D01*
X183619524Y-194573200D02*
X183714762Y-194620819D01*
X183714762Y-194620819D02*
X183905238Y-194620819D01*
X183905238Y-194620819D02*
X184000476Y-194573200D01*
X184000476Y-194573200D02*
X184048095Y-194525580D01*
X184048095Y-194525580D02*
X184095714Y-194430342D01*
X184095714Y-194430342D02*
X184095714Y-194192247D01*
X184095714Y-194192247D02*
X184048095Y-194097009D01*
X184048095Y-194097009D02*
X184000476Y-194049390D01*
X184000476Y-194049390D02*
X183905238Y-194001771D01*
X183905238Y-194001771D02*
X183714762Y-194001771D01*
X183714762Y-194001771D02*
X183619524Y-194049390D01*
X183619524Y-194049390D02*
X183571905Y-194097009D01*
X183571905Y-194097009D02*
X183524286Y-194192247D01*
X62048095Y-73620819D02*
X62048095Y-74430342D01*
X62048095Y-74430342D02*
X62095714Y-74525580D01*
X62095714Y-74525580D02*
X62143333Y-74573200D01*
X62143333Y-74573200D02*
X62238571Y-74620819D01*
X62238571Y-74620819D02*
X62429047Y-74620819D01*
X62429047Y-74620819D02*
X62524285Y-74573200D01*
X62524285Y-74573200D02*
X62571904Y-74525580D01*
X62571904Y-74525580D02*
X62619523Y-74430342D01*
X62619523Y-74430342D02*
X62619523Y-73620819D01*
X63048095Y-73716057D02*
X63095714Y-73668438D01*
X63095714Y-73668438D02*
X63190952Y-73620819D01*
X63190952Y-73620819D02*
X63429047Y-73620819D01*
X63429047Y-73620819D02*
X63524285Y-73668438D01*
X63524285Y-73668438D02*
X63571904Y-73716057D01*
X63571904Y-73716057D02*
X63619523Y-73811295D01*
X63619523Y-73811295D02*
X63619523Y-73906533D01*
X63619523Y-73906533D02*
X63571904Y-74049390D01*
X63571904Y-74049390D02*
X63000476Y-74620819D01*
X63000476Y-74620819D02*
X63619523Y-74620819D01*
X228405714Y-50144819D02*
X228405714Y-49144819D01*
X228405714Y-49144819D02*
X228643809Y-49144819D01*
X228643809Y-49144819D02*
X228786666Y-49192438D01*
X228786666Y-49192438D02*
X228881904Y-49287676D01*
X228881904Y-49287676D02*
X228929523Y-49382914D01*
X228929523Y-49382914D02*
X228977142Y-49573390D01*
X228977142Y-49573390D02*
X228977142Y-49716247D01*
X228977142Y-49716247D02*
X228929523Y-49906723D01*
X228929523Y-49906723D02*
X228881904Y-50001961D01*
X228881904Y-50001961D02*
X228786666Y-50097200D01*
X228786666Y-50097200D02*
X228643809Y-50144819D01*
X228643809Y-50144819D02*
X228405714Y-50144819D01*
X229358095Y-50097200D02*
X229500952Y-50144819D01*
X229500952Y-50144819D02*
X229739047Y-50144819D01*
X229739047Y-50144819D02*
X229834285Y-50097200D01*
X229834285Y-50097200D02*
X229881904Y-50049580D01*
X229881904Y-50049580D02*
X229929523Y-49954342D01*
X229929523Y-49954342D02*
X229929523Y-49859104D01*
X229929523Y-49859104D02*
X229881904Y-49763866D01*
X229881904Y-49763866D02*
X229834285Y-49716247D01*
X229834285Y-49716247D02*
X229739047Y-49668628D01*
X229739047Y-49668628D02*
X229548571Y-49621009D01*
X229548571Y-49621009D02*
X229453333Y-49573390D01*
X229453333Y-49573390D02*
X229405714Y-49525771D01*
X229405714Y-49525771D02*
X229358095Y-49430533D01*
X229358095Y-49430533D02*
X229358095Y-49335295D01*
X229358095Y-49335295D02*
X229405714Y-49240057D01*
X229405714Y-49240057D02*
X229453333Y-49192438D01*
X229453333Y-49192438D02*
X229548571Y-49144819D01*
X229548571Y-49144819D02*
X229786666Y-49144819D01*
X229786666Y-49144819D02*
X229929523Y-49192438D01*
X230881904Y-50144819D02*
X230310476Y-50144819D01*
X230596190Y-50144819D02*
X230596190Y-49144819D01*
X230596190Y-49144819D02*
X230500952Y-49287676D01*
X230500952Y-49287676D02*
X230405714Y-49382914D01*
X230405714Y-49382914D02*
X230310476Y-49430533D01*
X101571905Y-193620819D02*
X101571905Y-194430342D01*
X101571905Y-194430342D02*
X101619524Y-194525580D01*
X101619524Y-194525580D02*
X101667143Y-194573200D01*
X101667143Y-194573200D02*
X101762381Y-194620819D01*
X101762381Y-194620819D02*
X101952857Y-194620819D01*
X101952857Y-194620819D02*
X102048095Y-194573200D01*
X102048095Y-194573200D02*
X102095714Y-194525580D01*
X102095714Y-194525580D02*
X102143333Y-194430342D01*
X102143333Y-194430342D02*
X102143333Y-193620819D01*
X102571905Y-193716057D02*
X102619524Y-193668438D01*
X102619524Y-193668438D02*
X102714762Y-193620819D01*
X102714762Y-193620819D02*
X102952857Y-193620819D01*
X102952857Y-193620819D02*
X103048095Y-193668438D01*
X103048095Y-193668438D02*
X103095714Y-193716057D01*
X103095714Y-193716057D02*
X103143333Y-193811295D01*
X103143333Y-193811295D02*
X103143333Y-193906533D01*
X103143333Y-193906533D02*
X103095714Y-194049390D01*
X103095714Y-194049390D02*
X102524286Y-194620819D01*
X102524286Y-194620819D02*
X103143333Y-194620819D01*
X104000476Y-193954152D02*
X104000476Y-194620819D01*
X103762381Y-193573200D02*
X103524286Y-194287485D01*
X103524286Y-194287485D02*
X104143333Y-194287485D01*
X101571905Y-113620819D02*
X101571905Y-114430342D01*
X101571905Y-114430342D02*
X101619524Y-114525580D01*
X101619524Y-114525580D02*
X101667143Y-114573200D01*
X101667143Y-114573200D02*
X101762381Y-114620819D01*
X101762381Y-114620819D02*
X101952857Y-114620819D01*
X101952857Y-114620819D02*
X102048095Y-114573200D01*
X102048095Y-114573200D02*
X102095714Y-114525580D01*
X102095714Y-114525580D02*
X102143333Y-114430342D01*
X102143333Y-114430342D02*
X102143333Y-113620819D01*
X102571905Y-113716057D02*
X102619524Y-113668438D01*
X102619524Y-113668438D02*
X102714762Y-113620819D01*
X102714762Y-113620819D02*
X102952857Y-113620819D01*
X102952857Y-113620819D02*
X103048095Y-113668438D01*
X103048095Y-113668438D02*
X103095714Y-113716057D01*
X103095714Y-113716057D02*
X103143333Y-113811295D01*
X103143333Y-113811295D02*
X103143333Y-113906533D01*
X103143333Y-113906533D02*
X103095714Y-114049390D01*
X103095714Y-114049390D02*
X102524286Y-114620819D01*
X102524286Y-114620819D02*
X103143333Y-114620819D01*
X103762381Y-113620819D02*
X103857619Y-113620819D01*
X103857619Y-113620819D02*
X103952857Y-113668438D01*
X103952857Y-113668438D02*
X104000476Y-113716057D01*
X104000476Y-113716057D02*
X104048095Y-113811295D01*
X104048095Y-113811295D02*
X104095714Y-114001771D01*
X104095714Y-114001771D02*
X104095714Y-114239866D01*
X104095714Y-114239866D02*
X104048095Y-114430342D01*
X104048095Y-114430342D02*
X104000476Y-114525580D01*
X104000476Y-114525580D02*
X103952857Y-114573200D01*
X103952857Y-114573200D02*
X103857619Y-114620819D01*
X103857619Y-114620819D02*
X103762381Y-114620819D01*
X103762381Y-114620819D02*
X103667143Y-114573200D01*
X103667143Y-114573200D02*
X103619524Y-114525580D01*
X103619524Y-114525580D02*
X103571905Y-114430342D01*
X103571905Y-114430342D02*
X103524286Y-114239866D01*
X103524286Y-114239866D02*
X103524286Y-114001771D01*
X103524286Y-114001771D02*
X103571905Y-113811295D01*
X103571905Y-113811295D02*
X103619524Y-113716057D01*
X103619524Y-113716057D02*
X103667143Y-113668438D01*
X103667143Y-113668438D02*
X103762381Y-113620819D01*
X141571905Y-93620819D02*
X141571905Y-94430342D01*
X141571905Y-94430342D02*
X141619524Y-94525580D01*
X141619524Y-94525580D02*
X141667143Y-94573200D01*
X141667143Y-94573200D02*
X141762381Y-94620819D01*
X141762381Y-94620819D02*
X141952857Y-94620819D01*
X141952857Y-94620819D02*
X142048095Y-94573200D01*
X142048095Y-94573200D02*
X142095714Y-94525580D01*
X142095714Y-94525580D02*
X142143333Y-94430342D01*
X142143333Y-94430342D02*
X142143333Y-93620819D01*
X142524286Y-93620819D02*
X143143333Y-93620819D01*
X143143333Y-93620819D02*
X142810000Y-94001771D01*
X142810000Y-94001771D02*
X142952857Y-94001771D01*
X142952857Y-94001771D02*
X143048095Y-94049390D01*
X143048095Y-94049390D02*
X143095714Y-94097009D01*
X143095714Y-94097009D02*
X143143333Y-94192247D01*
X143143333Y-94192247D02*
X143143333Y-94430342D01*
X143143333Y-94430342D02*
X143095714Y-94525580D01*
X143095714Y-94525580D02*
X143048095Y-94573200D01*
X143048095Y-94573200D02*
X142952857Y-94620819D01*
X142952857Y-94620819D02*
X142667143Y-94620819D01*
X142667143Y-94620819D02*
X142571905Y-94573200D01*
X142571905Y-94573200D02*
X142524286Y-94525580D01*
X144048095Y-93620819D02*
X143571905Y-93620819D01*
X143571905Y-93620819D02*
X143524286Y-94097009D01*
X143524286Y-94097009D02*
X143571905Y-94049390D01*
X143571905Y-94049390D02*
X143667143Y-94001771D01*
X143667143Y-94001771D02*
X143905238Y-94001771D01*
X143905238Y-94001771D02*
X144000476Y-94049390D01*
X144000476Y-94049390D02*
X144048095Y-94097009D01*
X144048095Y-94097009D02*
X144095714Y-94192247D01*
X144095714Y-94192247D02*
X144095714Y-94430342D01*
X144095714Y-94430342D02*
X144048095Y-94525580D01*
X144048095Y-94525580D02*
X144000476Y-94573200D01*
X144000476Y-94573200D02*
X143905238Y-94620819D01*
X143905238Y-94620819D02*
X143667143Y-94620819D01*
X143667143Y-94620819D02*
X143571905Y-94573200D01*
X143571905Y-94573200D02*
X143524286Y-94525580D01*
X141571905Y-193620819D02*
X141571905Y-194430342D01*
X141571905Y-194430342D02*
X141619524Y-194525580D01*
X141619524Y-194525580D02*
X141667143Y-194573200D01*
X141667143Y-194573200D02*
X141762381Y-194620819D01*
X141762381Y-194620819D02*
X141952857Y-194620819D01*
X141952857Y-194620819D02*
X142048095Y-194573200D01*
X142048095Y-194573200D02*
X142095714Y-194525580D01*
X142095714Y-194525580D02*
X142143333Y-194430342D01*
X142143333Y-194430342D02*
X142143333Y-193620819D01*
X143048095Y-193954152D02*
X143048095Y-194620819D01*
X142810000Y-193573200D02*
X142571905Y-194287485D01*
X142571905Y-194287485D02*
X143190952Y-194287485D01*
X143762381Y-193620819D02*
X143857619Y-193620819D01*
X143857619Y-193620819D02*
X143952857Y-193668438D01*
X143952857Y-193668438D02*
X144000476Y-193716057D01*
X144000476Y-193716057D02*
X144048095Y-193811295D01*
X144048095Y-193811295D02*
X144095714Y-194001771D01*
X144095714Y-194001771D02*
X144095714Y-194239866D01*
X144095714Y-194239866D02*
X144048095Y-194430342D01*
X144048095Y-194430342D02*
X144000476Y-194525580D01*
X144000476Y-194525580D02*
X143952857Y-194573200D01*
X143952857Y-194573200D02*
X143857619Y-194620819D01*
X143857619Y-194620819D02*
X143762381Y-194620819D01*
X143762381Y-194620819D02*
X143667143Y-194573200D01*
X143667143Y-194573200D02*
X143619524Y-194525580D01*
X143619524Y-194525580D02*
X143571905Y-194430342D01*
X143571905Y-194430342D02*
X143524286Y-194239866D01*
X143524286Y-194239866D02*
X143524286Y-194001771D01*
X143524286Y-194001771D02*
X143571905Y-193811295D01*
X143571905Y-193811295D02*
X143619524Y-193716057D01*
X143619524Y-193716057D02*
X143667143Y-193668438D01*
X143667143Y-193668438D02*
X143762381Y-193620819D01*
X201571905Y-113620819D02*
X201571905Y-114430342D01*
X201571905Y-114430342D02*
X201619524Y-114525580D01*
X201619524Y-114525580D02*
X201667143Y-114573200D01*
X201667143Y-114573200D02*
X201762381Y-114620819D01*
X201762381Y-114620819D02*
X201952857Y-114620819D01*
X201952857Y-114620819D02*
X202048095Y-114573200D01*
X202048095Y-114573200D02*
X202095714Y-114525580D01*
X202095714Y-114525580D02*
X202143333Y-114430342D01*
X202143333Y-114430342D02*
X202143333Y-113620819D01*
X203048095Y-113620819D02*
X202857619Y-113620819D01*
X202857619Y-113620819D02*
X202762381Y-113668438D01*
X202762381Y-113668438D02*
X202714762Y-113716057D01*
X202714762Y-113716057D02*
X202619524Y-113858914D01*
X202619524Y-113858914D02*
X202571905Y-114049390D01*
X202571905Y-114049390D02*
X202571905Y-114430342D01*
X202571905Y-114430342D02*
X202619524Y-114525580D01*
X202619524Y-114525580D02*
X202667143Y-114573200D01*
X202667143Y-114573200D02*
X202762381Y-114620819D01*
X202762381Y-114620819D02*
X202952857Y-114620819D01*
X202952857Y-114620819D02*
X203048095Y-114573200D01*
X203048095Y-114573200D02*
X203095714Y-114525580D01*
X203095714Y-114525580D02*
X203143333Y-114430342D01*
X203143333Y-114430342D02*
X203143333Y-114192247D01*
X203143333Y-114192247D02*
X203095714Y-114097009D01*
X203095714Y-114097009D02*
X203048095Y-114049390D01*
X203048095Y-114049390D02*
X202952857Y-114001771D01*
X202952857Y-114001771D02*
X202762381Y-114001771D01*
X202762381Y-114001771D02*
X202667143Y-114049390D01*
X202667143Y-114049390D02*
X202619524Y-114097009D01*
X202619524Y-114097009D02*
X202571905Y-114192247D01*
X203762381Y-113620819D02*
X203857619Y-113620819D01*
X203857619Y-113620819D02*
X203952857Y-113668438D01*
X203952857Y-113668438D02*
X204000476Y-113716057D01*
X204000476Y-113716057D02*
X204048095Y-113811295D01*
X204048095Y-113811295D02*
X204095714Y-114001771D01*
X204095714Y-114001771D02*
X204095714Y-114239866D01*
X204095714Y-114239866D02*
X204048095Y-114430342D01*
X204048095Y-114430342D02*
X204000476Y-114525580D01*
X204000476Y-114525580D02*
X203952857Y-114573200D01*
X203952857Y-114573200D02*
X203857619Y-114620819D01*
X203857619Y-114620819D02*
X203762381Y-114620819D01*
X203762381Y-114620819D02*
X203667143Y-114573200D01*
X203667143Y-114573200D02*
X203619524Y-114525580D01*
X203619524Y-114525580D02*
X203571905Y-114430342D01*
X203571905Y-114430342D02*
X203524286Y-114239866D01*
X203524286Y-114239866D02*
X203524286Y-114001771D01*
X203524286Y-114001771D02*
X203571905Y-113811295D01*
X203571905Y-113811295D02*
X203619524Y-113716057D01*
X203619524Y-113716057D02*
X203667143Y-113668438D01*
X203667143Y-113668438D02*
X203762381Y-113620819D01*
X141571905Y-113620819D02*
X141571905Y-114430342D01*
X141571905Y-114430342D02*
X141619524Y-114525580D01*
X141619524Y-114525580D02*
X141667143Y-114573200D01*
X141667143Y-114573200D02*
X141762381Y-114620819D01*
X141762381Y-114620819D02*
X141952857Y-114620819D01*
X141952857Y-114620819D02*
X142048095Y-114573200D01*
X142048095Y-114573200D02*
X142095714Y-114525580D01*
X142095714Y-114525580D02*
X142143333Y-114430342D01*
X142143333Y-114430342D02*
X142143333Y-113620819D01*
X142524286Y-113620819D02*
X143143333Y-113620819D01*
X143143333Y-113620819D02*
X142810000Y-114001771D01*
X142810000Y-114001771D02*
X142952857Y-114001771D01*
X142952857Y-114001771D02*
X143048095Y-114049390D01*
X143048095Y-114049390D02*
X143095714Y-114097009D01*
X143095714Y-114097009D02*
X143143333Y-114192247D01*
X143143333Y-114192247D02*
X143143333Y-114430342D01*
X143143333Y-114430342D02*
X143095714Y-114525580D01*
X143095714Y-114525580D02*
X143048095Y-114573200D01*
X143048095Y-114573200D02*
X142952857Y-114620819D01*
X142952857Y-114620819D02*
X142667143Y-114620819D01*
X142667143Y-114620819D02*
X142571905Y-114573200D01*
X142571905Y-114573200D02*
X142524286Y-114525580D01*
X144000476Y-113620819D02*
X143810000Y-113620819D01*
X143810000Y-113620819D02*
X143714762Y-113668438D01*
X143714762Y-113668438D02*
X143667143Y-113716057D01*
X143667143Y-113716057D02*
X143571905Y-113858914D01*
X143571905Y-113858914D02*
X143524286Y-114049390D01*
X143524286Y-114049390D02*
X143524286Y-114430342D01*
X143524286Y-114430342D02*
X143571905Y-114525580D01*
X143571905Y-114525580D02*
X143619524Y-114573200D01*
X143619524Y-114573200D02*
X143714762Y-114620819D01*
X143714762Y-114620819D02*
X143905238Y-114620819D01*
X143905238Y-114620819D02*
X144000476Y-114573200D01*
X144000476Y-114573200D02*
X144048095Y-114525580D01*
X144048095Y-114525580D02*
X144095714Y-114430342D01*
X144095714Y-114430342D02*
X144095714Y-114192247D01*
X144095714Y-114192247D02*
X144048095Y-114097009D01*
X144048095Y-114097009D02*
X144000476Y-114049390D01*
X144000476Y-114049390D02*
X143905238Y-114001771D01*
X143905238Y-114001771D02*
X143714762Y-114001771D01*
X143714762Y-114001771D02*
X143619524Y-114049390D01*
X143619524Y-114049390D02*
X143571905Y-114097009D01*
X143571905Y-114097009D02*
X143524286Y-114192247D01*
X141571905Y-133620819D02*
X141571905Y-134430342D01*
X141571905Y-134430342D02*
X141619524Y-134525580D01*
X141619524Y-134525580D02*
X141667143Y-134573200D01*
X141667143Y-134573200D02*
X141762381Y-134620819D01*
X141762381Y-134620819D02*
X141952857Y-134620819D01*
X141952857Y-134620819D02*
X142048095Y-134573200D01*
X142048095Y-134573200D02*
X142095714Y-134525580D01*
X142095714Y-134525580D02*
X142143333Y-134430342D01*
X142143333Y-134430342D02*
X142143333Y-133620819D01*
X142524286Y-133620819D02*
X143143333Y-133620819D01*
X143143333Y-133620819D02*
X142810000Y-134001771D01*
X142810000Y-134001771D02*
X142952857Y-134001771D01*
X142952857Y-134001771D02*
X143048095Y-134049390D01*
X143048095Y-134049390D02*
X143095714Y-134097009D01*
X143095714Y-134097009D02*
X143143333Y-134192247D01*
X143143333Y-134192247D02*
X143143333Y-134430342D01*
X143143333Y-134430342D02*
X143095714Y-134525580D01*
X143095714Y-134525580D02*
X143048095Y-134573200D01*
X143048095Y-134573200D02*
X142952857Y-134620819D01*
X142952857Y-134620819D02*
X142667143Y-134620819D01*
X142667143Y-134620819D02*
X142571905Y-134573200D01*
X142571905Y-134573200D02*
X142524286Y-134525580D01*
X143476667Y-133620819D02*
X144143333Y-133620819D01*
X144143333Y-133620819D02*
X143714762Y-134620819D01*
X141571905Y-153620819D02*
X141571905Y-154430342D01*
X141571905Y-154430342D02*
X141619524Y-154525580D01*
X141619524Y-154525580D02*
X141667143Y-154573200D01*
X141667143Y-154573200D02*
X141762381Y-154620819D01*
X141762381Y-154620819D02*
X141952857Y-154620819D01*
X141952857Y-154620819D02*
X142048095Y-154573200D01*
X142048095Y-154573200D02*
X142095714Y-154525580D01*
X142095714Y-154525580D02*
X142143333Y-154430342D01*
X142143333Y-154430342D02*
X142143333Y-153620819D01*
X142524286Y-153620819D02*
X143143333Y-153620819D01*
X143143333Y-153620819D02*
X142810000Y-154001771D01*
X142810000Y-154001771D02*
X142952857Y-154001771D01*
X142952857Y-154001771D02*
X143048095Y-154049390D01*
X143048095Y-154049390D02*
X143095714Y-154097009D01*
X143095714Y-154097009D02*
X143143333Y-154192247D01*
X143143333Y-154192247D02*
X143143333Y-154430342D01*
X143143333Y-154430342D02*
X143095714Y-154525580D01*
X143095714Y-154525580D02*
X143048095Y-154573200D01*
X143048095Y-154573200D02*
X142952857Y-154620819D01*
X142952857Y-154620819D02*
X142667143Y-154620819D01*
X142667143Y-154620819D02*
X142571905Y-154573200D01*
X142571905Y-154573200D02*
X142524286Y-154525580D01*
X143714762Y-154049390D02*
X143619524Y-154001771D01*
X143619524Y-154001771D02*
X143571905Y-153954152D01*
X143571905Y-153954152D02*
X143524286Y-153858914D01*
X143524286Y-153858914D02*
X143524286Y-153811295D01*
X143524286Y-153811295D02*
X143571905Y-153716057D01*
X143571905Y-153716057D02*
X143619524Y-153668438D01*
X143619524Y-153668438D02*
X143714762Y-153620819D01*
X143714762Y-153620819D02*
X143905238Y-153620819D01*
X143905238Y-153620819D02*
X144000476Y-153668438D01*
X144000476Y-153668438D02*
X144048095Y-153716057D01*
X144048095Y-153716057D02*
X144095714Y-153811295D01*
X144095714Y-153811295D02*
X144095714Y-153858914D01*
X144095714Y-153858914D02*
X144048095Y-153954152D01*
X144048095Y-153954152D02*
X144000476Y-154001771D01*
X144000476Y-154001771D02*
X143905238Y-154049390D01*
X143905238Y-154049390D02*
X143714762Y-154049390D01*
X143714762Y-154049390D02*
X143619524Y-154097009D01*
X143619524Y-154097009D02*
X143571905Y-154144628D01*
X143571905Y-154144628D02*
X143524286Y-154239866D01*
X143524286Y-154239866D02*
X143524286Y-154430342D01*
X143524286Y-154430342D02*
X143571905Y-154525580D01*
X143571905Y-154525580D02*
X143619524Y-154573200D01*
X143619524Y-154573200D02*
X143714762Y-154620819D01*
X143714762Y-154620819D02*
X143905238Y-154620819D01*
X143905238Y-154620819D02*
X144000476Y-154573200D01*
X144000476Y-154573200D02*
X144048095Y-154525580D01*
X144048095Y-154525580D02*
X144095714Y-154430342D01*
X144095714Y-154430342D02*
X144095714Y-154239866D01*
X144095714Y-154239866D02*
X144048095Y-154144628D01*
X144048095Y-154144628D02*
X144000476Y-154097009D01*
X144000476Y-154097009D02*
X143905238Y-154049390D01*
X121571905Y-193620819D02*
X121571905Y-194430342D01*
X121571905Y-194430342D02*
X121619524Y-194525580D01*
X121619524Y-194525580D02*
X121667143Y-194573200D01*
X121667143Y-194573200D02*
X121762381Y-194620819D01*
X121762381Y-194620819D02*
X121952857Y-194620819D01*
X121952857Y-194620819D02*
X122048095Y-194573200D01*
X122048095Y-194573200D02*
X122095714Y-194525580D01*
X122095714Y-194525580D02*
X122143333Y-194430342D01*
X122143333Y-194430342D02*
X122143333Y-193620819D01*
X122524286Y-193620819D02*
X123143333Y-193620819D01*
X123143333Y-193620819D02*
X122810000Y-194001771D01*
X122810000Y-194001771D02*
X122952857Y-194001771D01*
X122952857Y-194001771D02*
X123048095Y-194049390D01*
X123048095Y-194049390D02*
X123095714Y-194097009D01*
X123095714Y-194097009D02*
X123143333Y-194192247D01*
X123143333Y-194192247D02*
X123143333Y-194430342D01*
X123143333Y-194430342D02*
X123095714Y-194525580D01*
X123095714Y-194525580D02*
X123048095Y-194573200D01*
X123048095Y-194573200D02*
X122952857Y-194620819D01*
X122952857Y-194620819D02*
X122667143Y-194620819D01*
X122667143Y-194620819D02*
X122571905Y-194573200D01*
X122571905Y-194573200D02*
X122524286Y-194525580D01*
X123524286Y-193716057D02*
X123571905Y-193668438D01*
X123571905Y-193668438D02*
X123667143Y-193620819D01*
X123667143Y-193620819D02*
X123905238Y-193620819D01*
X123905238Y-193620819D02*
X124000476Y-193668438D01*
X124000476Y-193668438D02*
X124048095Y-193716057D01*
X124048095Y-193716057D02*
X124095714Y-193811295D01*
X124095714Y-193811295D02*
X124095714Y-193906533D01*
X124095714Y-193906533D02*
X124048095Y-194049390D01*
X124048095Y-194049390D02*
X123476667Y-194620819D01*
X123476667Y-194620819D02*
X124095714Y-194620819D01*
X282941667Y-178207200D02*
X283084524Y-178254819D01*
X283084524Y-178254819D02*
X283322619Y-178254819D01*
X283322619Y-178254819D02*
X283417857Y-178207200D01*
X283417857Y-178207200D02*
X283465476Y-178159580D01*
X283465476Y-178159580D02*
X283513095Y-178064342D01*
X283513095Y-178064342D02*
X283513095Y-177969104D01*
X283513095Y-177969104D02*
X283465476Y-177873866D01*
X283465476Y-177873866D02*
X283417857Y-177826247D01*
X283417857Y-177826247D02*
X283322619Y-177778628D01*
X283322619Y-177778628D02*
X283132143Y-177731009D01*
X283132143Y-177731009D02*
X283036905Y-177683390D01*
X283036905Y-177683390D02*
X282989286Y-177635771D01*
X282989286Y-177635771D02*
X282941667Y-177540533D01*
X282941667Y-177540533D02*
X282941667Y-177445295D01*
X282941667Y-177445295D02*
X282989286Y-177350057D01*
X282989286Y-177350057D02*
X283036905Y-177302438D01*
X283036905Y-177302438D02*
X283132143Y-177254819D01*
X283132143Y-177254819D02*
X283370238Y-177254819D01*
X283370238Y-177254819D02*
X283513095Y-177302438D01*
X283846429Y-177254819D02*
X284084524Y-178254819D01*
X284084524Y-178254819D02*
X284275000Y-177540533D01*
X284275000Y-177540533D02*
X284465476Y-178254819D01*
X284465476Y-178254819D02*
X284703572Y-177254819D01*
X285608333Y-178254819D02*
X285036905Y-178254819D01*
X285322619Y-178254819D02*
X285322619Y-177254819D01*
X285322619Y-177254819D02*
X285227381Y-177397676D01*
X285227381Y-177397676D02*
X285132143Y-177492914D01*
X285132143Y-177492914D02*
X285036905Y-177540533D01*
X161571905Y-53620819D02*
X161571905Y-54430342D01*
X161571905Y-54430342D02*
X161619524Y-54525580D01*
X161619524Y-54525580D02*
X161667143Y-54573200D01*
X161667143Y-54573200D02*
X161762381Y-54620819D01*
X161762381Y-54620819D02*
X161952857Y-54620819D01*
X161952857Y-54620819D02*
X162048095Y-54573200D01*
X162048095Y-54573200D02*
X162095714Y-54525580D01*
X162095714Y-54525580D02*
X162143333Y-54430342D01*
X162143333Y-54430342D02*
X162143333Y-53620819D01*
X163048095Y-53954152D02*
X163048095Y-54620819D01*
X162810000Y-53573200D02*
X162571905Y-54287485D01*
X162571905Y-54287485D02*
X163190952Y-54287485D01*
X164095714Y-54620819D02*
X163524286Y-54620819D01*
X163810000Y-54620819D02*
X163810000Y-53620819D01*
X163810000Y-53620819D02*
X163714762Y-53763676D01*
X163714762Y-53763676D02*
X163619524Y-53858914D01*
X163619524Y-53858914D02*
X163524286Y-53906533D01*
D13*
%TO.C,U11*%
X75825000Y-95055000D02*
X89795000Y-95055000D01*
X75825000Y-109025000D02*
X75825000Y-95055000D01*
X89795000Y-95055000D02*
X89795000Y-109025000D01*
X89795000Y-109025000D02*
X75825000Y-109025000D01*
%TO.C,U57*%
X195825000Y-55055000D02*
X209795000Y-55055000D01*
X195825000Y-69025000D02*
X195825000Y-55055000D01*
X209795000Y-55055000D02*
X209795000Y-69025000D01*
X209795000Y-69025000D02*
X195825000Y-69025000D01*
%TO.C,U58*%
X195825000Y-75055000D02*
X209795000Y-75055000D01*
X195825000Y-89025000D02*
X195825000Y-75055000D01*
X209795000Y-75055000D02*
X209795000Y-89025000D01*
X209795000Y-89025000D02*
X195825000Y-89025000D01*
%TO.C,U62*%
X195825000Y-155055000D02*
X209795000Y-155055000D01*
X195825000Y-169025000D02*
X195825000Y-155055000D01*
X209795000Y-155055000D02*
X209795000Y-169025000D01*
X209795000Y-169025000D02*
X195825000Y-169025000D01*
%TO.C,U50*%
X175825000Y-75055000D02*
X189795000Y-75055000D01*
X175825000Y-89025000D02*
X175825000Y-75055000D01*
X189795000Y-75055000D02*
X189795000Y-89025000D01*
X189795000Y-89025000D02*
X175825000Y-89025000D01*
%TO.C,U25*%
X115825000Y-55055000D02*
X129795000Y-55055000D01*
X115825000Y-69025000D02*
X115825000Y-55055000D01*
X129795000Y-55055000D02*
X129795000Y-69025000D01*
X129795000Y-69025000D02*
X115825000Y-69025000D01*
%TO.C,U18*%
X95825000Y-75055000D02*
X109795000Y-75055000D01*
X95825000Y-89025000D02*
X95825000Y-75055000D01*
X109795000Y-75055000D02*
X109795000Y-89025000D01*
X109795000Y-89025000D02*
X95825000Y-89025000D01*
%TO.C,U23*%
X95825000Y-175055000D02*
X109795000Y-175055000D01*
X95825000Y-189025000D02*
X95825000Y-175055000D01*
X109795000Y-175055000D02*
X109795000Y-189025000D01*
X109795000Y-189025000D02*
X95825000Y-189025000D01*
%TO.C,U53*%
X175825000Y-135055000D02*
X189795000Y-135055000D01*
X175825000Y-149025000D02*
X175825000Y-135055000D01*
X189795000Y-135055000D02*
X189795000Y-149025000D01*
X189795000Y-149025000D02*
X175825000Y-149025000D01*
%TO.C,U63*%
X195825000Y-175055000D02*
X209795000Y-175055000D01*
X195825000Y-189025000D02*
X195825000Y-175055000D01*
X209795000Y-175055000D02*
X209795000Y-189025000D01*
X209795000Y-189025000D02*
X195825000Y-189025000D01*
%TO.C,U55*%
X175825000Y-175055000D02*
X189795000Y-175055000D01*
X175825000Y-189025000D02*
X175825000Y-175055000D01*
X189795000Y-175055000D02*
X189795000Y-189025000D01*
X189795000Y-189025000D02*
X175825000Y-189025000D01*
%TO.C,U19*%
X95825000Y-95055000D02*
X109795000Y-95055000D01*
X95825000Y-109025000D02*
X95825000Y-95055000D01*
X109795000Y-95055000D02*
X109795000Y-109025000D01*
X109795000Y-109025000D02*
X95825000Y-109025000D01*
%TO.C,U48*%
X155825000Y-195055000D02*
X169795000Y-195055000D01*
X155825000Y-209025000D02*
X155825000Y-195055000D01*
X169795000Y-195055000D02*
X169795000Y-209025000D01*
X169795000Y-209025000D02*
X155825000Y-209025000D01*
%TO.C,U9*%
X75825000Y-55055000D02*
X89795000Y-55055000D01*
X75825000Y-69025000D02*
X75825000Y-55055000D01*
X89795000Y-55055000D02*
X89795000Y-69025000D01*
X89795000Y-69025000D02*
X75825000Y-69025000D01*
%TO.C,U64*%
X195825000Y-195055000D02*
X209795000Y-195055000D01*
X195825000Y-209025000D02*
X195825000Y-195055000D01*
X209795000Y-195055000D02*
X209795000Y-209025000D01*
X209795000Y-209025000D02*
X195825000Y-209025000D01*
%TO.C,U31*%
X115825000Y-175055000D02*
X129795000Y-175055000D01*
X115825000Y-189025000D02*
X115825000Y-175055000D01*
X129795000Y-175055000D02*
X129795000Y-189025000D01*
X129795000Y-189025000D02*
X115825000Y-189025000D01*
%TO.C,U28*%
X115825000Y-115055000D02*
X129795000Y-115055000D01*
X115825000Y-129025000D02*
X115825000Y-115055000D01*
X129795000Y-115055000D02*
X129795000Y-129025000D01*
X129795000Y-129025000D02*
X115825000Y-129025000D01*
%TO.C,RV1*%
X230330000Y-136380000D02*
X232377000Y-136380000D01*
X230330000Y-140964000D02*
X230330000Y-136380000D01*
X230330000Y-203764000D02*
X230330000Y-144235000D01*
X230330000Y-211620000D02*
X230330000Y-207035000D01*
X230330000Y-211620000D02*
X232025000Y-211620000D01*
X232700000Y-212425000D02*
X233700000Y-212425000D01*
X233200000Y-211925000D02*
X232700000Y-212425000D01*
X233450000Y-144000000D02*
X236450000Y-144000000D01*
X233450000Y-204000000D02*
X236450000Y-204000000D01*
X233700000Y-212425000D02*
X233200000Y-211925000D01*
X234023000Y-136380000D02*
X239570000Y-136380000D01*
X234200000Y-144750000D02*
X234950000Y-144000000D01*
X234200000Y-203250000D02*
X234950000Y-204000000D01*
X234375000Y-211620000D02*
X235878000Y-211620000D01*
X234950000Y-144000000D02*
X235700000Y-144750000D01*
X234950000Y-204000000D02*
X234950000Y-144000000D01*
X234950000Y-204000000D02*
X235700000Y-203250000D01*
X237523000Y-211620000D02*
X239570000Y-211620000D01*
X239570000Y-139764000D02*
X239570000Y-136380000D01*
X239570000Y-204964000D02*
X239570000Y-143035000D01*
X239570000Y-211620000D02*
X239570000Y-208235000D01*
%TO.C,RV4*%
X250160000Y-131045000D02*
X250160000Y-126925000D01*
X250170000Y-122925000D02*
X250170000Y-119455000D01*
X251350000Y-131045000D02*
X250170000Y-131045000D01*
X254250000Y-131045000D02*
X253720000Y-131045000D01*
X256700000Y-131045000D02*
X255870000Y-131045000D01*
X259910000Y-119455000D02*
X250170000Y-119455000D01*
X259910000Y-122925000D02*
X259910000Y-119455000D01*
X259910000Y-131045000D02*
X258420000Y-131045000D01*
X259910000Y-131045000D02*
X259910000Y-126925000D01*
%TO.C,U61*%
X195825000Y-135055000D02*
X209795000Y-135055000D01*
X195825000Y-149025000D02*
X195825000Y-135055000D01*
X209795000Y-135055000D02*
X209795000Y-149025000D01*
X209795000Y-149025000D02*
X195825000Y-149025000D01*
%TO.C,U22*%
X95825000Y-155055000D02*
X109795000Y-155055000D01*
X95825000Y-169025000D02*
X95825000Y-155055000D01*
X109795000Y-155055000D02*
X109795000Y-169025000D01*
X109795000Y-169025000D02*
X95825000Y-169025000D01*
%TO.C,SW5*%
X291200000Y-140900000D02*
X291800000Y-140900000D01*
X291500000Y-141200000D02*
X291200000Y-140900000D01*
X291800000Y-140900000D02*
X291500000Y-141200000D01*
X292900000Y-139100000D02*
X292900000Y-150900000D01*
X297000000Y-139100000D02*
X292900000Y-139100000D01*
X297000000Y-150900000D02*
X292900000Y-150900000D01*
X298500000Y-145000000D02*
X299500000Y-145000000D01*
X299000000Y-144500000D02*
X299000000Y-145500000D01*
X301000000Y-139100000D02*
X305100000Y-139100000D01*
X305100000Y-139100000D02*
X305100000Y-141500000D01*
X305100000Y-143700000D02*
X305100000Y-146300000D01*
X305100000Y-148500000D02*
X305100000Y-150900000D01*
X305100000Y-150900000D02*
X301000000Y-150900000D01*
X302000000Y-145000000D02*
G75*
G02*
X296000000Y-145000000I-3000000J0D01*
G01*
X296000000Y-145000000D02*
G75*
G02*
X302000000Y-145000000I3000000J0D01*
G01*
%TO.C,U15*%
X75825000Y-175055000D02*
X89795000Y-175055000D01*
X75825000Y-189025000D02*
X75825000Y-175055000D01*
X89795000Y-175055000D02*
X89795000Y-189025000D01*
X89795000Y-189025000D02*
X75825000Y-189025000D01*
%TO.C,U16*%
X75825000Y-195055000D02*
X89795000Y-195055000D01*
X75825000Y-209025000D02*
X75825000Y-195055000D01*
X89795000Y-195055000D02*
X89795000Y-209025000D01*
X89795000Y-209025000D02*
X75825000Y-209025000D01*
%TO.C,RV2*%
X250330000Y-136380000D02*
X252377000Y-136380000D01*
X250330000Y-140964000D02*
X250330000Y-136380000D01*
X250330000Y-203764000D02*
X250330000Y-144235000D01*
X250330000Y-211620000D02*
X250330000Y-207035000D01*
X250330000Y-211620000D02*
X252025000Y-211620000D01*
X252700000Y-212425000D02*
X253700000Y-212425000D01*
X253200000Y-211925000D02*
X252700000Y-212425000D01*
X253450000Y-144000000D02*
X256450000Y-144000000D01*
X253450000Y-204000000D02*
X256450000Y-204000000D01*
X253700000Y-212425000D02*
X253200000Y-211925000D01*
X254023000Y-136380000D02*
X259570000Y-136380000D01*
X254200000Y-144750000D02*
X254950000Y-144000000D01*
X254200000Y-203250000D02*
X254950000Y-204000000D01*
X254375000Y-211620000D02*
X255878000Y-211620000D01*
X254950000Y-144000000D02*
X255700000Y-144750000D01*
X254950000Y-204000000D02*
X254950000Y-144000000D01*
X254950000Y-204000000D02*
X255700000Y-203250000D01*
X257523000Y-211620000D02*
X259570000Y-211620000D01*
X259570000Y-139764000D02*
X259570000Y-136380000D01*
X259570000Y-204964000D02*
X259570000Y-143035000D01*
X259570000Y-211620000D02*
X259570000Y-208235000D01*
%TO.C,U29*%
X115825000Y-135055000D02*
X129795000Y-135055000D01*
X115825000Y-149025000D02*
X115825000Y-135055000D01*
X129795000Y-135055000D02*
X129795000Y-149025000D01*
X129795000Y-149025000D02*
X115825000Y-149025000D01*
%TO.C,SW2*%
X271200000Y-120900000D02*
X271800000Y-120900000D01*
X271500000Y-121200000D02*
X271200000Y-120900000D01*
X271800000Y-120900000D02*
X271500000Y-121200000D01*
X272900000Y-119100000D02*
X272900000Y-130900000D01*
X277000000Y-119100000D02*
X272900000Y-119100000D01*
X277000000Y-130900000D02*
X272900000Y-130900000D01*
X278500000Y-125000000D02*
X279500000Y-125000000D01*
X279000000Y-124500000D02*
X279000000Y-125500000D01*
X281000000Y-119100000D02*
X285100000Y-119100000D01*
X285100000Y-119100000D02*
X285100000Y-121500000D01*
X285100000Y-123700000D02*
X285100000Y-126300000D01*
X285100000Y-128500000D02*
X285100000Y-130900000D01*
X285100000Y-130900000D02*
X281000000Y-130900000D01*
X282000000Y-125000000D02*
G75*
G02*
X276000000Y-125000000I-3000000J0D01*
G01*
X276000000Y-125000000D02*
G75*
G02*
X282000000Y-125000000I3000000J0D01*
G01*
%TO.C,U52*%
X175825000Y-115055000D02*
X189795000Y-115055000D01*
X175825000Y-129025000D02*
X175825000Y-115055000D01*
X189795000Y-115055000D02*
X189795000Y-129025000D01*
X189795000Y-129025000D02*
X175825000Y-129025000D01*
%TO.C,U10*%
X75825000Y-75055000D02*
X89795000Y-75055000D01*
X75825000Y-89025000D02*
X75825000Y-75055000D01*
X89795000Y-75055000D02*
X89795000Y-89025000D01*
X89795000Y-89025000D02*
X75825000Y-89025000D01*
%TO.C,U44*%
X155825000Y-115055000D02*
X169795000Y-115055000D01*
X155825000Y-129025000D02*
X155825000Y-115055000D01*
X169795000Y-115055000D02*
X169795000Y-129025000D01*
X169795000Y-129025000D02*
X155825000Y-129025000D01*
%TO.C,U30*%
X115825000Y-155055000D02*
X129795000Y-155055000D01*
X115825000Y-169025000D02*
X115825000Y-155055000D01*
X129795000Y-155055000D02*
X129795000Y-169025000D01*
X129795000Y-169025000D02*
X115825000Y-169025000D01*
%TO.C,U7*%
X55825000Y-175055000D02*
X69795000Y-175055000D01*
X55825000Y-189025000D02*
X55825000Y-175055000D01*
X69795000Y-175055000D02*
X69795000Y-189025000D01*
X69795000Y-189025000D02*
X55825000Y-189025000D01*
%TO.C,U6*%
X55825000Y-155055000D02*
X69795000Y-155055000D01*
X55825000Y-169025000D02*
X55825000Y-155055000D01*
X69795000Y-155055000D02*
X69795000Y-169025000D01*
X69795000Y-169025000D02*
X55825000Y-169025000D01*
%TO.C,U54*%
X175825000Y-155055000D02*
X189795000Y-155055000D01*
X175825000Y-169025000D02*
X175825000Y-155055000D01*
X189795000Y-155055000D02*
X189795000Y-169025000D01*
X189795000Y-169025000D02*
X175825000Y-169025000D01*
%TO.C,U13*%
X75825000Y-135055000D02*
X89795000Y-135055000D01*
X75825000Y-149025000D02*
X75825000Y-135055000D01*
X89795000Y-135055000D02*
X89795000Y-149025000D01*
X89795000Y-149025000D02*
X75825000Y-149025000D01*
%TO.C,U59*%
X195825000Y-95055000D02*
X209795000Y-95055000D01*
X195825000Y-109025000D02*
X195825000Y-95055000D01*
X209795000Y-95055000D02*
X209795000Y-109025000D01*
X209795000Y-109025000D02*
X195825000Y-109025000D01*
%TO.C,U34*%
X135825000Y-75055000D02*
X149795000Y-75055000D01*
X135825000Y-89025000D02*
X135825000Y-75055000D01*
X149795000Y-75055000D02*
X149795000Y-89025000D01*
X149795000Y-89025000D02*
X135825000Y-89025000D01*
%TO.C,U14*%
X75825000Y-155055000D02*
X89795000Y-155055000D01*
X75825000Y-169025000D02*
X75825000Y-155055000D01*
X89795000Y-155055000D02*
X89795000Y-169025000D01*
X89795000Y-169025000D02*
X75825000Y-169025000D01*
%TO.C,U3*%
X55825000Y-95055000D02*
X69795000Y-95055000D01*
X55825000Y-109025000D02*
X55825000Y-95055000D01*
X69795000Y-95055000D02*
X69795000Y-109025000D01*
X69795000Y-109025000D02*
X55825000Y-109025000D01*
%TO.C,U47*%
X155825000Y-175055000D02*
X169795000Y-175055000D01*
X155825000Y-189025000D02*
X155825000Y-175055000D01*
X169795000Y-175055000D02*
X169795000Y-189025000D01*
X169795000Y-189025000D02*
X155825000Y-189025000D01*
%TO.C,U43*%
X155825000Y-95055000D02*
X169795000Y-95055000D01*
X155825000Y-109025000D02*
X155825000Y-95055000D01*
X169795000Y-95055000D02*
X169795000Y-109025000D01*
X169795000Y-109025000D02*
X155825000Y-109025000D01*
%TO.C,U5*%
X55825000Y-135055000D02*
X69795000Y-135055000D01*
X55825000Y-149025000D02*
X55825000Y-135055000D01*
X69795000Y-135055000D02*
X69795000Y-149025000D01*
X69795000Y-149025000D02*
X55825000Y-149025000D01*
%TO.C,U27*%
X115825000Y-95055000D02*
X129795000Y-95055000D01*
X115825000Y-109025000D02*
X115825000Y-95055000D01*
X129795000Y-95055000D02*
X129795000Y-109025000D01*
X129795000Y-109025000D02*
X115825000Y-109025000D01*
%TO.C,SW4*%
X271200000Y-140900000D02*
X271800000Y-140900000D01*
X271500000Y-141200000D02*
X271200000Y-140900000D01*
X271800000Y-140900000D02*
X271500000Y-141200000D01*
X272900000Y-139100000D02*
X272900000Y-150900000D01*
X277000000Y-139100000D02*
X272900000Y-139100000D01*
X277000000Y-150900000D02*
X272900000Y-150900000D01*
X278500000Y-145000000D02*
X279500000Y-145000000D01*
X279000000Y-144500000D02*
X279000000Y-145500000D01*
X281000000Y-139100000D02*
X285100000Y-139100000D01*
X285100000Y-139100000D02*
X285100000Y-141500000D01*
X285100000Y-143700000D02*
X285100000Y-146300000D01*
X285100000Y-148500000D02*
X285100000Y-150900000D01*
X285100000Y-150900000D02*
X281000000Y-150900000D01*
X282000000Y-145000000D02*
G75*
G02*
X276000000Y-145000000I-3000000J0D01*
G01*
X276000000Y-145000000D02*
G75*
G02*
X282000000Y-145000000I3000000J0D01*
G01*
%TO.C,U8*%
X55825000Y-195055000D02*
X69795000Y-195055000D01*
X55825000Y-209025000D02*
X55825000Y-195055000D01*
X69795000Y-195055000D02*
X69795000Y-209025000D01*
X69795000Y-209025000D02*
X55825000Y-209025000D01*
%TO.C,RV3*%
X230170000Y-131045000D02*
X230170000Y-126925000D01*
X230180000Y-122925000D02*
X230180000Y-119455000D01*
X231360000Y-131045000D02*
X230180000Y-131045000D01*
X234260000Y-131045000D02*
X233730000Y-131045000D01*
X236710000Y-131045000D02*
X235880000Y-131045000D01*
X239920000Y-119455000D02*
X230180000Y-119455000D01*
X239920000Y-122925000D02*
X239920000Y-119455000D01*
X239920000Y-131045000D02*
X238430000Y-131045000D01*
X239920000Y-131045000D02*
X239920000Y-126925000D01*
%TO.C,U46*%
X155825000Y-155055000D02*
X169795000Y-155055000D01*
X155825000Y-169025000D02*
X155825000Y-155055000D01*
X169795000Y-155055000D02*
X169795000Y-169025000D01*
X169795000Y-169025000D02*
X155825000Y-169025000D01*
%TO.C,U21*%
X95825000Y-135055000D02*
X109795000Y-135055000D01*
X95825000Y-149025000D02*
X95825000Y-135055000D01*
X109795000Y-135055000D02*
X109795000Y-149025000D01*
X109795000Y-149025000D02*
X95825000Y-149025000D01*
%TO.C,U12*%
X75825000Y-115055000D02*
X89795000Y-115055000D01*
X75825000Y-129025000D02*
X75825000Y-115055000D01*
X89795000Y-115055000D02*
X89795000Y-129025000D01*
X89795000Y-129025000D02*
X75825000Y-129025000D01*
%TO.C,U51*%
X175825000Y-95055000D02*
X189795000Y-95055000D01*
X175825000Y-109025000D02*
X175825000Y-95055000D01*
X189795000Y-95055000D02*
X189795000Y-109025000D01*
X189795000Y-109025000D02*
X175825000Y-109025000D01*
%TO.C,U26*%
X115825000Y-75055000D02*
X129795000Y-75055000D01*
X115825000Y-89025000D02*
X115825000Y-75055000D01*
X129795000Y-75055000D02*
X129795000Y-89025000D01*
X129795000Y-89025000D02*
X115825000Y-89025000D01*
%TO.C,U45*%
X155825000Y-135055000D02*
X169795000Y-135055000D01*
X155825000Y-149025000D02*
X155825000Y-135055000D01*
X169795000Y-135055000D02*
X169795000Y-149025000D01*
X169795000Y-149025000D02*
X155825000Y-149025000D01*
%TO.C,U17*%
X95825000Y-55055000D02*
X109795000Y-55055000D01*
X95825000Y-69025000D02*
X95825000Y-55055000D01*
X109795000Y-55055000D02*
X109795000Y-69025000D01*
X109795000Y-69025000D02*
X95825000Y-69025000D01*
%TO.C,U42*%
X155825000Y-75055000D02*
X169795000Y-75055000D01*
X155825000Y-89025000D02*
X155825000Y-75055000D01*
X169795000Y-75055000D02*
X169795000Y-89025000D01*
X169795000Y-89025000D02*
X155825000Y-89025000D01*
%TO.C,U49*%
X175825000Y-55055000D02*
X189795000Y-55055000D01*
X175825000Y-69025000D02*
X175825000Y-55055000D01*
X189795000Y-55055000D02*
X189795000Y-69025000D01*
X189795000Y-69025000D02*
X175825000Y-69025000D01*
%TO.C,U33*%
X135825000Y-55055000D02*
X149795000Y-55055000D01*
X135825000Y-69025000D02*
X135825000Y-55055000D01*
X149795000Y-55055000D02*
X149795000Y-69025000D01*
X149795000Y-69025000D02*
X135825000Y-69025000D01*
%TO.C,U4*%
X55825000Y-115055000D02*
X69795000Y-115055000D01*
X55825000Y-129025000D02*
X55825000Y-115055000D01*
X69795000Y-115055000D02*
X69795000Y-129025000D01*
X69795000Y-129025000D02*
X55825000Y-129025000D01*
%TO.C,D65*%
X286435000Y-172610000D02*
X286435000Y-175890000D01*
X286435000Y-172610488D02*
G75*
G02*
X292034999Y-174251958I2560000J-1639512D01*
G01*
X292034999Y-174248042D02*
G75*
G02*
X286435000Y-175889512I-3039999J-1958D01*
G01*
X291495000Y-174250000D02*
G75*
G02*
X286495000Y-174250000I-2500000J0D01*
G01*
X286495000Y-174250000D02*
G75*
G02*
X291495000Y-174250000I2500000J0D01*
G01*
%TO.C,U39*%
X135825000Y-175055000D02*
X149795000Y-175055000D01*
X135825000Y-189025000D02*
X135825000Y-175055000D01*
X149795000Y-175055000D02*
X149795000Y-189025000D01*
X149795000Y-189025000D02*
X135825000Y-189025000D01*
%TO.C,U1*%
X55825000Y-55055000D02*
X69795000Y-55055000D01*
X55825000Y-69025000D02*
X55825000Y-55055000D01*
X69795000Y-55055000D02*
X69795000Y-69025000D01*
X69795000Y-69025000D02*
X55825000Y-69025000D01*
%TO.C,SW3*%
X291200000Y-120900000D02*
X291800000Y-120900000D01*
X291500000Y-121200000D02*
X291200000Y-120900000D01*
X291800000Y-120900000D02*
X291500000Y-121200000D01*
X292900000Y-119100000D02*
X292900000Y-130900000D01*
X297000000Y-119100000D02*
X292900000Y-119100000D01*
X297000000Y-130900000D02*
X292900000Y-130900000D01*
X298500000Y-125000000D02*
X299500000Y-125000000D01*
X299000000Y-124500000D02*
X299000000Y-125500000D01*
X301000000Y-119100000D02*
X305100000Y-119100000D01*
X305100000Y-119100000D02*
X305100000Y-121500000D01*
X305100000Y-123700000D02*
X305100000Y-126300000D01*
X305100000Y-128500000D02*
X305100000Y-130900000D01*
X305100000Y-130900000D02*
X301000000Y-130900000D01*
X302000000Y-125000000D02*
G75*
G02*
X296000000Y-125000000I-3000000J0D01*
G01*
X296000000Y-125000000D02*
G75*
G02*
X302000000Y-125000000I3000000J0D01*
G01*
%TO.C,U56*%
X175825000Y-195055000D02*
X189795000Y-195055000D01*
X175825000Y-209025000D02*
X175825000Y-195055000D01*
X189795000Y-195055000D02*
X189795000Y-209025000D01*
X189795000Y-209025000D02*
X175825000Y-209025000D01*
%TO.C,U2*%
X55825000Y-75055000D02*
X69795000Y-75055000D01*
X55825000Y-89025000D02*
X55825000Y-75055000D01*
X69795000Y-75055000D02*
X69795000Y-89025000D01*
X69795000Y-89025000D02*
X55825000Y-89025000D01*
%TO.C,DS1*%
X227300000Y-50860000D02*
X227300000Y-87140000D01*
X227300000Y-87140000D02*
X307580000Y-87140000D01*
X227310000Y-50860000D02*
X228100000Y-50860000D01*
X230440000Y-56500000D02*
X303440000Y-56500000D01*
X230440000Y-81500000D02*
X230440000Y-56500000D01*
X233940000Y-50500000D02*
X236940000Y-50500000D01*
X235140280Y-75999320D02*
X235140280Y-62000000D01*
X235640000Y-61500000D02*
X299140000Y-61500000D01*
X299140660Y-76500000D02*
X235640000Y-76500000D01*
X299640000Y-62000000D02*
X299640000Y-76000000D01*
X303440000Y-56500000D02*
X303440000Y-81500000D01*
X303440000Y-81500000D02*
X230440000Y-81500000D01*
X307580000Y-50860000D02*
X228100000Y-50860000D01*
X307580000Y-87140000D02*
X307580000Y-50860000D01*
X235140280Y-61998840D02*
G75*
G02*
X235640660Y-61498460I500380J0D01*
G01*
X235640660Y-76499700D02*
G75*
G02*
X235140280Y-75999320I0J500380D01*
G01*
X299140000Y-61500000D02*
G75*
G02*
X299640000Y-62000000I0J-500000D01*
G01*
X299641040Y-75999320D02*
G75*
G02*
X299140660Y-76499740I-500440J20D01*
G01*
%TO.C,U24*%
X95825000Y-195055000D02*
X109795000Y-195055000D01*
X95825000Y-209025000D02*
X95825000Y-195055000D01*
X109795000Y-195055000D02*
X109795000Y-209025000D01*
X109795000Y-209025000D02*
X95825000Y-209025000D01*
%TO.C,U20*%
X95825000Y-115055000D02*
X109795000Y-115055000D01*
X95825000Y-129025000D02*
X95825000Y-115055000D01*
X109795000Y-115055000D02*
X109795000Y-129025000D01*
X109795000Y-129025000D02*
X95825000Y-129025000D01*
%TO.C,U35*%
X135825000Y-95055000D02*
X149795000Y-95055000D01*
X135825000Y-109025000D02*
X135825000Y-95055000D01*
X149795000Y-95055000D02*
X149795000Y-109025000D01*
X149795000Y-109025000D02*
X135825000Y-109025000D01*
%TO.C,U40*%
X135825000Y-195055000D02*
X149795000Y-195055000D01*
X135825000Y-209025000D02*
X135825000Y-195055000D01*
X149795000Y-195055000D02*
X149795000Y-209025000D01*
X149795000Y-209025000D02*
X135825000Y-209025000D01*
%TO.C,U60*%
X195825000Y-115055000D02*
X209795000Y-115055000D01*
X195825000Y-129025000D02*
X195825000Y-115055000D01*
X209795000Y-115055000D02*
X209795000Y-129025000D01*
X209795000Y-129025000D02*
X195825000Y-129025000D01*
%TO.C,U36*%
X135825000Y-115055000D02*
X149795000Y-115055000D01*
X135825000Y-129025000D02*
X135825000Y-115055000D01*
X149795000Y-115055000D02*
X149795000Y-129025000D01*
X149795000Y-129025000D02*
X135825000Y-129025000D01*
%TO.C,U37*%
X135825000Y-135055000D02*
X149795000Y-135055000D01*
X135825000Y-149025000D02*
X135825000Y-135055000D01*
X149795000Y-135055000D02*
X149795000Y-149025000D01*
X149795000Y-149025000D02*
X135825000Y-149025000D01*
%TO.C,U38*%
X135825000Y-155055000D02*
X149795000Y-155055000D01*
X135825000Y-169025000D02*
X135825000Y-155055000D01*
X149795000Y-155055000D02*
X149795000Y-169025000D01*
X149795000Y-169025000D02*
X135825000Y-169025000D01*
%TO.C,U32*%
X115825000Y-195055000D02*
X129795000Y-195055000D01*
X115825000Y-209025000D02*
X115825000Y-195055000D01*
X129795000Y-195055000D02*
X129795000Y-209025000D01*
X129795000Y-209025000D02*
X115825000Y-209025000D01*
%TO.C,SW1*%
X281175000Y-180900000D02*
X281775000Y-180900000D01*
X281475000Y-181200000D02*
X281175000Y-180900000D01*
X281775000Y-180900000D02*
X281475000Y-181200000D01*
X282875000Y-179100000D02*
X282875000Y-190900000D01*
X286975000Y-179100000D02*
X282875000Y-179100000D01*
X286975000Y-190900000D02*
X282875000Y-190900000D01*
X288475000Y-185000000D02*
X289475000Y-185000000D01*
X288975000Y-184500000D02*
X288975000Y-185500000D01*
X290975000Y-179100000D02*
X295075000Y-179100000D01*
X295075000Y-179100000D02*
X295075000Y-181500000D01*
X295075000Y-183700000D02*
X295075000Y-186300000D01*
X295075000Y-188500000D02*
X295075000Y-190900000D01*
X295075000Y-190900000D02*
X290975000Y-190900000D01*
X291975000Y-185000000D02*
G75*
G02*
X285975000Y-185000000I-3000000J0D01*
G01*
X285975000Y-185000000D02*
G75*
G02*
X291975000Y-185000000I3000000J0D01*
G01*
%TO.C,U41*%
X155825000Y-55055000D02*
X169795000Y-55055000D01*
X155825000Y-69025000D02*
X155825000Y-55055000D01*
X169795000Y-55055000D02*
X169795000Y-69025000D01*
X169795000Y-69025000D02*
X155825000Y-69025000D01*
%TD*%
M02*
