%TF.GenerationSoftware,KiCad,Pcbnew,8.0.4*%
%TF.CreationDate,2024-12-04T19:54:40+09:00*%
%TF.ProjectId,gradmc,67726164-6d63-42e6-9b69-6361645f7063,rev?*%
%TF.SameCoordinates,Original*%
%TF.FileFunction,Copper,L1,Top*%
%TF.FilePolarity,Positive*%
%FSLAX46Y46*%
G04 Gerber Fmt 4.6, Leading zero omitted, Abs format (unit mm)*
G04 Created by KiCad (PCBNEW 8.0.4) date 2024-12-04 19:54:40*
%MOMM*%
%LPD*%
G01*
G04 APERTURE LIST*
%TA.AperFunction,ComponentPad*%
%ADD10C,2.200000*%
%TD*%
%TA.AperFunction,ComponentPad*%
%ADD11R,1.750000X1.750000*%
%TD*%
%TA.AperFunction,ComponentPad*%
%ADD12C,1.750000*%
%TD*%
%TA.AperFunction,ComponentPad*%
%ADD13C,2.700000*%
%TD*%
%TA.AperFunction,ComponentPad*%
%ADD14O,2.720000X3.240000*%
%TD*%
%TA.AperFunction,ComponentPad*%
%ADD15R,1.800000X1.800000*%
%TD*%
%TA.AperFunction,ComponentPad*%
%ADD16C,1.800000*%
%TD*%
%TA.AperFunction,ComponentPad*%
%ADD17R,2.000000X2.000000*%
%TD*%
%TA.AperFunction,ComponentPad*%
%ADD18C,2.000000*%
%TD*%
%TA.AperFunction,ComponentPad*%
%ADD19R,3.200000X2.000000*%
%TD*%
%TA.AperFunction,ComponentPad*%
%ADD20C,3.000000*%
%TD*%
%TA.AperFunction,ComponentPad*%
%ADD21R,1.800000X2.600000*%
%TD*%
%TA.AperFunction,ComponentPad*%
%ADD22O,1.800000X2.600000*%
%TD*%
%TA.AperFunction,ComponentPad*%
%ADD23R,1.600000X1.600000*%
%TD*%
%TA.AperFunction,ComponentPad*%
%ADD24O,1.600000X1.600000*%
%TD*%
%TA.AperFunction,ComponentPad*%
%ADD25C,1.600000*%
%TD*%
%TA.AperFunction,ComponentPad*%
%ADD26R,1.300000X1.300000*%
%TD*%
%TA.AperFunction,ComponentPad*%
%ADD27C,1.300000*%
%TD*%
%TA.AperFunction,ViaPad*%
%ADD28C,0.600000*%
%TD*%
%TA.AperFunction,Conductor*%
%ADD29C,0.200000*%
%TD*%
G04 APERTURE END LIST*
D10*
%TO.P,U11,1,1*%
%TO.N,/ROW2*%
X85350000Y-96960000D03*
%TO.P,U11,2,2*%
%TO.N,Net-(D11-A)*%
X79000000Y-99500000D03*
%TD*%
%TO.P,U57,1,1*%
%TO.N,/ROW0*%
X205350000Y-56960000D03*
%TO.P,U57,2,2*%
%TO.N,Net-(D57-A)*%
X199000000Y-59500000D03*
%TD*%
%TO.P,U58,1,1*%
%TO.N,/ROW1*%
X205350000Y-76960000D03*
%TO.P,U58,2,2*%
%TO.N,Net-(D58-A)*%
X199000000Y-79500000D03*
%TD*%
%TO.P,U62,1,1*%
%TO.N,/ROW5*%
X205350000Y-156960000D03*
%TO.P,U62,2,2*%
%TO.N,Net-(D62-A)*%
X199000000Y-159500000D03*
%TD*%
%TO.P,U50,1,1*%
%TO.N,/ROW1*%
X185350000Y-76960000D03*
%TO.P,U50,2,2*%
%TO.N,Net-(D50-A)*%
X179000000Y-79500000D03*
%TD*%
%TO.P,U25,1,1*%
%TO.N,/ROW0*%
X125350000Y-56960000D03*
%TO.P,U25,2,2*%
%TO.N,Net-(D25-A)*%
X119000000Y-59500000D03*
%TD*%
%TO.P,U18,1,1*%
%TO.N,/ROW1*%
X105350000Y-76960000D03*
%TO.P,U18,2,2*%
%TO.N,Net-(D18-A)*%
X99000000Y-79500000D03*
%TD*%
%TO.P,U23,1,1*%
%TO.N,/ROW6*%
X105350000Y-176960000D03*
%TO.P,U23,2,2*%
%TO.N,Net-(D23-A)*%
X99000000Y-179500000D03*
%TD*%
%TO.P,U53,1,1*%
%TO.N,/ROW4*%
X185350000Y-136960000D03*
%TO.P,U53,2,2*%
%TO.N,Net-(D53-A)*%
X179000000Y-139500000D03*
%TD*%
%TO.P,U63,1,1*%
%TO.N,/ROW6*%
X205350000Y-176960000D03*
%TO.P,U63,2,2*%
%TO.N,Net-(D63-A)*%
X199000000Y-179500000D03*
%TD*%
%TO.P,U55,1,1*%
%TO.N,/ROW6*%
X185350000Y-176960000D03*
%TO.P,U55,2,2*%
%TO.N,Net-(D55-A)*%
X179000000Y-179500000D03*
%TD*%
%TO.P,U19,1,1*%
%TO.N,/ROW2*%
X105350000Y-96960000D03*
%TO.P,U19,2,2*%
%TO.N,Net-(D19-A)*%
X99000000Y-99500000D03*
%TD*%
%TO.P,U48,1,1*%
%TO.N,/ROW7*%
X165350000Y-196960000D03*
%TO.P,U48,2,2*%
%TO.N,Net-(D48-A)*%
X159000000Y-199500000D03*
%TD*%
%TO.P,U9,1,1*%
%TO.N,/ROW0*%
X85350000Y-56960000D03*
%TO.P,U9,2,2*%
%TO.N,Net-(D9-A)*%
X79000000Y-59500000D03*
%TD*%
%TO.P,U64,1,1*%
%TO.N,/ROW7*%
X205350000Y-196960000D03*
%TO.P,U64,2,2*%
%TO.N,Net-(D64-A)*%
X199000000Y-199500000D03*
%TD*%
%TO.P,U31,1,1*%
%TO.N,/ROW6*%
X125350000Y-176960000D03*
%TO.P,U31,2,2*%
%TO.N,Net-(D31-A)*%
X119000000Y-179500000D03*
%TD*%
%TO.P,U28,1,1*%
%TO.N,/ROW3*%
X125350000Y-116960000D03*
%TO.P,U28,2,2*%
%TO.N,Net-(D28-A)*%
X119000000Y-119500000D03*
%TD*%
D11*
%TO.P,RV1,1,1*%
%TO.N,VCC*%
X233200000Y-210750000D03*
D12*
%TO.P,RV1,2,2*%
%TO.N,/RV1*%
X236700000Y-210750000D03*
%TO.P,RV1,3,3*%
%TO.N,GND*%
X233200000Y-137250000D03*
D13*
%TO.P,RV1,MP*%
%TO.N,N/C*%
X239150000Y-206600000D03*
X230750000Y-205400000D03*
X230750000Y-142600000D03*
X239150000Y-141400000D03*
%TD*%
D14*
%TO.P,RV4,*%
%TO.N,*%
X250040000Y-124925000D03*
X260040000Y-124925000D03*
D15*
%TO.P,RV4,1,1*%
%TO.N,VCC*%
X252540000Y-131925000D03*
D16*
%TO.P,RV4,2,2*%
%TO.N,/RV4*%
X255040000Y-131925000D03*
%TO.P,RV4,3,3*%
%TO.N,GND*%
X257540000Y-131925000D03*
%TD*%
D10*
%TO.P,U61,1,1*%
%TO.N,/ROW4*%
X205350000Y-136960000D03*
%TO.P,U61,2,2*%
%TO.N,Net-(D61-A)*%
X199000000Y-139500000D03*
%TD*%
%TO.P,U22,1,1*%
%TO.N,/ROW5*%
X105350000Y-156960000D03*
%TO.P,U22,2,2*%
%TO.N,Net-(D22-A)*%
X99000000Y-159500000D03*
%TD*%
D17*
%TO.P,SW5,A,A*%
%TO.N,/RE51*%
X291500000Y-142500000D03*
D18*
%TO.P,SW5,B,B*%
%TO.N,/RE52*%
X291500000Y-147500000D03*
%TO.P,SW5,C,C*%
%TO.N,GND*%
X291500000Y-145000000D03*
D19*
%TO.P,SW5,MP*%
%TO.N,N/C*%
X299000000Y-139400000D03*
X299000000Y-150600000D03*
D18*
%TO.P,SW5,S1,S1*%
%TO.N,/RESW5*%
X306000000Y-147500000D03*
%TO.P,SW5,S2,S2*%
%TO.N,GND*%
X306000000Y-142500000D03*
%TD*%
D10*
%TO.P,U15,1,1*%
%TO.N,/ROW6*%
X85350000Y-176960000D03*
%TO.P,U15,2,2*%
%TO.N,Net-(D15-A)*%
X79000000Y-179500000D03*
%TD*%
%TO.P,U16,1,1*%
%TO.N,/ROW7*%
X85350000Y-196960000D03*
%TO.P,U16,2,2*%
%TO.N,Net-(D16-A)*%
X79000000Y-199500000D03*
%TD*%
D11*
%TO.P,RV2,1,1*%
%TO.N,VCC*%
X253200000Y-210750000D03*
D12*
%TO.P,RV2,2,2*%
%TO.N,/RV2*%
X256700000Y-210750000D03*
%TO.P,RV2,3,3*%
%TO.N,GND*%
X253200000Y-137250000D03*
D13*
%TO.P,RV2,MP*%
%TO.N,N/C*%
X259150000Y-206600000D03*
X250750000Y-205400000D03*
X250750000Y-142600000D03*
X259150000Y-141400000D03*
%TD*%
D10*
%TO.P,U29,1,1*%
%TO.N,/ROW4*%
X125350000Y-136960000D03*
%TO.P,U29,2,2*%
%TO.N,Net-(D29-A)*%
X119000000Y-139500000D03*
%TD*%
D17*
%TO.P,SW2,A,A*%
%TO.N,/RE21*%
X271500000Y-122500000D03*
D18*
%TO.P,SW2,B,B*%
%TO.N,/RE22*%
X271500000Y-127500000D03*
%TO.P,SW2,C,C*%
%TO.N,GND*%
X271500000Y-125000000D03*
D19*
%TO.P,SW2,MP*%
%TO.N,N/C*%
X279000000Y-119400000D03*
X279000000Y-130600000D03*
D18*
%TO.P,SW2,S1,S1*%
%TO.N,/RESW2*%
X286000000Y-127500000D03*
%TO.P,SW2,S2,S2*%
%TO.N,GND*%
X286000000Y-122500000D03*
%TD*%
D10*
%TO.P,U52,1,1*%
%TO.N,/ROW3*%
X185350000Y-116960000D03*
%TO.P,U52,2,2*%
%TO.N,Net-(D52-A)*%
X179000000Y-119500000D03*
%TD*%
%TO.P,U10,1,1*%
%TO.N,/ROW1*%
X85350000Y-76960000D03*
%TO.P,U10,2,2*%
%TO.N,Net-(D10-A)*%
X79000000Y-79500000D03*
%TD*%
%TO.P,U44,1,1*%
%TO.N,/ROW3*%
X165350000Y-116960000D03*
%TO.P,U44,2,2*%
%TO.N,Net-(D44-A)*%
X159000000Y-119500000D03*
%TD*%
%TO.P,U30,1,1*%
%TO.N,/ROW5*%
X125350000Y-156960000D03*
%TO.P,U30,2,2*%
%TO.N,Net-(D30-A)*%
X119000000Y-159500000D03*
%TD*%
%TO.P,U7,1,1*%
%TO.N,/ROW6*%
X65350000Y-176960000D03*
%TO.P,U7,2,2*%
%TO.N,Net-(D7-A)*%
X59000000Y-179500000D03*
%TD*%
%TO.P,U6,1,1*%
%TO.N,/ROW5*%
X65350000Y-156960000D03*
%TO.P,U6,2,2*%
%TO.N,Net-(D6-A)*%
X59000000Y-159500000D03*
%TD*%
%TO.P,U54,1,1*%
%TO.N,/ROW5*%
X185350000Y-156960000D03*
%TO.P,U54,2,2*%
%TO.N,Net-(D54-A)*%
X179000000Y-159500000D03*
%TD*%
%TO.P,U13,1,1*%
%TO.N,/ROW4*%
X85350000Y-136960000D03*
%TO.P,U13,2,2*%
%TO.N,Net-(D13-A)*%
X79000000Y-139500000D03*
%TD*%
%TO.P,U59,1,1*%
%TO.N,/ROW2*%
X205350000Y-96960000D03*
%TO.P,U59,2,2*%
%TO.N,Net-(D59-A)*%
X199000000Y-99500000D03*
%TD*%
%TO.P,U34,1,1*%
%TO.N,/ROW1*%
X145350000Y-76960000D03*
%TO.P,U34,2,2*%
%TO.N,Net-(D34-A)*%
X139000000Y-79500000D03*
%TD*%
%TO.P,U14,1,1*%
%TO.N,/ROW5*%
X85350000Y-156960000D03*
%TO.P,U14,2,2*%
%TO.N,Net-(D14-A)*%
X79000000Y-159500000D03*
%TD*%
%TO.P,U3,1,1*%
%TO.N,/ROW2*%
X65350000Y-96960000D03*
%TO.P,U3,2,2*%
%TO.N,Net-(D3-A)*%
X59000000Y-99500000D03*
%TD*%
%TO.P,U47,1,1*%
%TO.N,/ROW6*%
X165350000Y-176960000D03*
%TO.P,U47,2,2*%
%TO.N,Net-(D47-A)*%
X159000000Y-179500000D03*
%TD*%
%TO.P,U43,1,1*%
%TO.N,/ROW2*%
X165350000Y-96960000D03*
%TO.P,U43,2,2*%
%TO.N,Net-(D43-A)*%
X159000000Y-99500000D03*
%TD*%
%TO.P,U5,1,1*%
%TO.N,/ROW4*%
X65350000Y-136960000D03*
%TO.P,U5,2,2*%
%TO.N,Net-(D5-A)*%
X59000000Y-139500000D03*
%TD*%
%TO.P,U27,1,1*%
%TO.N,/ROW2*%
X125350000Y-96960000D03*
%TO.P,U27,2,2*%
%TO.N,Net-(D27-A)*%
X119000000Y-99500000D03*
%TD*%
D17*
%TO.P,SW4,A,A*%
%TO.N,/RE41*%
X271500000Y-142500000D03*
D18*
%TO.P,SW4,B,B*%
%TO.N,/RE42*%
X271500000Y-147500000D03*
%TO.P,SW4,C,C*%
%TO.N,GND*%
X271500000Y-145000000D03*
D19*
%TO.P,SW4,MP*%
%TO.N,N/C*%
X279000000Y-139400000D03*
X279000000Y-150600000D03*
D18*
%TO.P,SW4,S1,S1*%
%TO.N,/RESW4*%
X286000000Y-147500000D03*
%TO.P,SW4,S2,S2*%
%TO.N,GND*%
X286000000Y-142500000D03*
%TD*%
D10*
%TO.P,U8,1,1*%
%TO.N,/ROW7*%
X65350000Y-196960000D03*
%TO.P,U8,2,2*%
%TO.N,Net-(D8-A)*%
X59000000Y-199500000D03*
%TD*%
D14*
%TO.P,RV3,*%
%TO.N,*%
X230050000Y-124925000D03*
X240050000Y-124925000D03*
D15*
%TO.P,RV3,1,1*%
%TO.N,VCC*%
X232550000Y-131925000D03*
D16*
%TO.P,RV3,2,2*%
%TO.N,/RV3*%
X235050000Y-131925000D03*
%TO.P,RV3,3,3*%
%TO.N,GND*%
X237550000Y-131925000D03*
%TD*%
D10*
%TO.P,U46,1,1*%
%TO.N,/ROW5*%
X165350000Y-156960000D03*
%TO.P,U46,2,2*%
%TO.N,Net-(D46-A)*%
X159000000Y-159500000D03*
%TD*%
%TO.P,U21,1,1*%
%TO.N,/ROW4*%
X105350000Y-136960000D03*
%TO.P,U21,2,2*%
%TO.N,Net-(D21-A)*%
X99000000Y-139500000D03*
%TD*%
%TO.P,U12,1,1*%
%TO.N,/ROW3*%
X85350000Y-116960000D03*
%TO.P,U12,2,2*%
%TO.N,Net-(D12-A)*%
X79000000Y-119500000D03*
%TD*%
%TO.P,U51,1,1*%
%TO.N,/ROW2*%
X185350000Y-96960000D03*
%TO.P,U51,2,2*%
%TO.N,Net-(D51-A)*%
X179000000Y-99500000D03*
%TD*%
%TO.P,U26,1,1*%
%TO.N,/ROW1*%
X125350000Y-76960000D03*
%TO.P,U26,2,2*%
%TO.N,Net-(D26-A)*%
X119000000Y-79500000D03*
%TD*%
%TO.P,U45,1,1*%
%TO.N,/ROW4*%
X165350000Y-136960000D03*
%TO.P,U45,2,2*%
%TO.N,Net-(D45-A)*%
X159000000Y-139500000D03*
%TD*%
%TO.P,U17,1,1*%
%TO.N,/ROW0*%
X105350000Y-56960000D03*
%TO.P,U17,2,2*%
%TO.N,Net-(D17-A)*%
X99000000Y-59500000D03*
%TD*%
%TO.P,U42,1,1*%
%TO.N,/ROW1*%
X165350000Y-76960000D03*
%TO.P,U42,2,2*%
%TO.N,Net-(D42-A)*%
X159000000Y-79500000D03*
%TD*%
%TO.P,U49,1,1*%
%TO.N,/ROW0*%
X185350000Y-56960000D03*
%TO.P,U49,2,2*%
%TO.N,Net-(D49-A)*%
X179000000Y-59500000D03*
%TD*%
%TO.P,U33,1,1*%
%TO.N,/ROW0*%
X145350000Y-56960000D03*
%TO.P,U33,2,2*%
%TO.N,Net-(D33-A)*%
X139000000Y-59500000D03*
%TD*%
%TO.P,U4,1,1*%
%TO.N,/ROW3*%
X65350000Y-116960000D03*
%TO.P,U4,2,2*%
%TO.N,Net-(D4-A)*%
X59000000Y-119500000D03*
%TD*%
D15*
%TO.P,D65,1,K*%
%TO.N,GND*%
X287725000Y-174250000D03*
D16*
%TO.P,D65,2,A*%
%TO.N,Net-(D65-A)*%
X290265000Y-174250000D03*
%TD*%
D10*
%TO.P,U39,1,1*%
%TO.N,/ROW6*%
X145350000Y-176960000D03*
%TO.P,U39,2,2*%
%TO.N,Net-(D39-A)*%
X139000000Y-179500000D03*
%TD*%
%TO.P,U1,1,1*%
%TO.N,/ROW0*%
X65350000Y-56960000D03*
%TO.P,U1,2,2*%
%TO.N,Net-(D1-A)*%
X59000000Y-59500000D03*
%TD*%
D17*
%TO.P,SW3,A,A*%
%TO.N,/RE31*%
X291500000Y-122500000D03*
D18*
%TO.P,SW3,B,B*%
%TO.N,/RE32*%
X291500000Y-127500000D03*
%TO.P,SW3,C,C*%
%TO.N,GND*%
X291500000Y-125000000D03*
D19*
%TO.P,SW3,MP*%
%TO.N,N/C*%
X299000000Y-119400000D03*
X299000000Y-130600000D03*
D18*
%TO.P,SW3,S1,S1*%
%TO.N,/RESW3*%
X306000000Y-127500000D03*
%TO.P,SW3,S2,S2*%
%TO.N,GND*%
X306000000Y-122500000D03*
%TD*%
D10*
%TO.P,U56,1,1*%
%TO.N,/ROW7*%
X185350000Y-196960000D03*
%TO.P,U56,2,2*%
%TO.N,Net-(D56-A)*%
X179000000Y-199500000D03*
%TD*%
%TO.P,U2,1,1*%
%TO.N,/ROW1*%
X65350000Y-76960000D03*
%TO.P,U2,2,2*%
%TO.N,Net-(D2-A)*%
X59000000Y-79500000D03*
%TD*%
D20*
%TO.P,DS1,*%
%TO.N,*%
X229940900Y-53500000D03*
X229940900Y-84500700D03*
X304939480Y-84500700D03*
X304940000Y-53500000D03*
D21*
%TO.P,DS1,1,VSS*%
%TO.N,GND*%
X235440000Y-53500000D03*
D22*
%TO.P,DS1,2,VDD*%
%TO.N,VCC*%
X237980000Y-53500000D03*
%TO.P,DS1,3,VO*%
%TO.N,/RV4*%
X240520000Y-53500000D03*
%TO.P,DS1,4,RS*%
%TO.N,/LCD4*%
X243060000Y-53500000D03*
%TO.P,DS1,5,R/W*%
%TO.N,GND*%
X245600000Y-53500000D03*
%TO.P,DS1,6,E*%
%TO.N,/LCD6*%
X248140000Y-53500000D03*
%TO.P,DS1,7,D0*%
%TO.N,unconnected-(DS1-D0-Pad7)*%
X250680000Y-53500000D03*
%TO.P,DS1,8,D1*%
%TO.N,unconnected-(DS1-D1-Pad8)*%
X253220000Y-53500000D03*
%TO.P,DS1,9,D2*%
%TO.N,unconnected-(DS1-D2-Pad9)*%
X255760000Y-53500000D03*
%TO.P,DS1,10,D3*%
%TO.N,unconnected-(DS1-D3-Pad10)*%
X258300000Y-53500000D03*
%TO.P,DS1,11,D4*%
%TO.N,/LCD11*%
X260840000Y-53500000D03*
%TO.P,DS1,12,D5*%
%TO.N,/LCD12*%
X263380000Y-53500000D03*
%TO.P,DS1,13,D6*%
%TO.N,/LCD13*%
X265920000Y-53500000D03*
%TO.P,DS1,14,D7*%
%TO.N,/LCD14*%
X268460000Y-53500000D03*
%TO.P,DS1,15,LED(+)*%
%TO.N,VCC*%
X271000000Y-53500000D03*
%TO.P,DS1,16,LED(-)*%
%TO.N,GND*%
X273540000Y-53500000D03*
%TD*%
D10*
%TO.P,U24,1,1*%
%TO.N,/ROW7*%
X105350000Y-196960000D03*
%TO.P,U24,2,2*%
%TO.N,Net-(D24-A)*%
X99000000Y-199500000D03*
%TD*%
%TO.P,U20,1,1*%
%TO.N,/ROW3*%
X105350000Y-116960000D03*
%TO.P,U20,2,2*%
%TO.N,Net-(D20-A)*%
X99000000Y-119500000D03*
%TD*%
%TO.P,U35,1,1*%
%TO.N,/ROW2*%
X145350000Y-96960000D03*
%TO.P,U35,2,2*%
%TO.N,Net-(D35-A)*%
X139000000Y-99500000D03*
%TD*%
%TO.P,U40,1,1*%
%TO.N,/ROW7*%
X145350000Y-196960000D03*
%TO.P,U40,2,2*%
%TO.N,Net-(D40-A)*%
X139000000Y-199500000D03*
%TD*%
%TO.P,U60,1,1*%
%TO.N,/ROW3*%
X205350000Y-116960000D03*
%TO.P,U60,2,2*%
%TO.N,Net-(D60-A)*%
X199000000Y-119500000D03*
%TD*%
%TO.P,U36,1,1*%
%TO.N,/ROW3*%
X145350000Y-116960000D03*
%TO.P,U36,2,2*%
%TO.N,Net-(D36-A)*%
X139000000Y-119500000D03*
%TD*%
%TO.P,U37,1,1*%
%TO.N,/ROW4*%
X145350000Y-136960000D03*
%TO.P,U37,2,2*%
%TO.N,Net-(D37-A)*%
X139000000Y-139500000D03*
%TD*%
%TO.P,U38,1,1*%
%TO.N,/ROW5*%
X145350000Y-156960000D03*
%TO.P,U38,2,2*%
%TO.N,Net-(D38-A)*%
X139000000Y-159500000D03*
%TD*%
%TO.P,U32,1,1*%
%TO.N,/ROW7*%
X125350000Y-196960000D03*
%TO.P,U32,2,2*%
%TO.N,Net-(D32-A)*%
X119000000Y-199500000D03*
%TD*%
D17*
%TO.P,SW1,A,A*%
%TO.N,/RE11*%
X281475000Y-182500000D03*
D18*
%TO.P,SW1,B,B*%
%TO.N,/RE12*%
X281475000Y-187500000D03*
%TO.P,SW1,C,C*%
%TO.N,GND*%
X281475000Y-185000000D03*
D19*
%TO.P,SW1,MP*%
%TO.N,N/C*%
X288975000Y-179400000D03*
X288975000Y-190600000D03*
D18*
%TO.P,SW1,S1,S1*%
%TO.N,/RESW1*%
X295975000Y-187500000D03*
%TO.P,SW1,S2,S2*%
%TO.N,GND*%
X295975000Y-182500000D03*
%TD*%
D10*
%TO.P,U41,1,1*%
%TO.N,/ROW0*%
X165350000Y-56960000D03*
%TO.P,U41,2,2*%
%TO.N,Net-(D41-A)*%
X159000000Y-59500000D03*
%TD*%
D23*
%TO.P,D62,1,K*%
%TO.N,/COL7*%
X209000000Y-170720000D03*
D24*
%TO.P,D62,2,A*%
%TO.N,Net-(D62-A)*%
X201380000Y-170720000D03*
%TD*%
D23*
%TO.P,D60,1,K*%
%TO.N,/COL7*%
X209000000Y-130720000D03*
D24*
%TO.P,D60,2,A*%
%TO.N,Net-(D60-A)*%
X201380000Y-130720000D03*
%TD*%
D23*
%TO.P,D35,1,K*%
%TO.N,/COL4*%
X149000000Y-110720000D03*
D24*
%TO.P,D35,2,A*%
%TO.N,Net-(D35-A)*%
X141380000Y-110720000D03*
%TD*%
D23*
%TO.P,D11,1,K*%
%TO.N,/COL1*%
X89120000Y-110720000D03*
D24*
%TO.P,D11,2,A*%
%TO.N,Net-(D11-A)*%
X81500000Y-110720000D03*
%TD*%
D23*
%TO.P,D26,1,K*%
%TO.N,/COL3*%
X129000000Y-90720000D03*
D24*
%TO.P,D26,2,A*%
%TO.N,Net-(D26-A)*%
X121380000Y-90720000D03*
%TD*%
D23*
%TO.P,D33,1,K*%
%TO.N,/COL4*%
X149000000Y-70720000D03*
D24*
%TO.P,D33,2,A*%
%TO.N,Net-(D33-A)*%
X141380000Y-70720000D03*
%TD*%
D23*
%TO.P,D23,1,K*%
%TO.N,/COL2*%
X109000000Y-190720000D03*
D24*
%TO.P,D23,2,A*%
%TO.N,Net-(D23-A)*%
X101380000Y-190720000D03*
%TD*%
D25*
%TO.P,R1,1*%
%TO.N,Net-(D65-A)*%
X305350000Y-156500000D03*
D24*
%TO.P,R1,2*%
%TO.N,/LED*%
X292650000Y-156500000D03*
%TD*%
D23*
%TO.P,D6,1,K*%
%TO.N,/COL0*%
X68810000Y-170720000D03*
D24*
%TO.P,D6,2,A*%
%TO.N,Net-(D6-A)*%
X61190000Y-170720000D03*
%TD*%
D23*
%TO.P,D50,1,K*%
%TO.N,/COL6*%
X189000000Y-90720000D03*
D24*
%TO.P,D50,2,A*%
%TO.N,Net-(D50-A)*%
X181380000Y-90720000D03*
%TD*%
D23*
%TO.P,D27,1,K*%
%TO.N,/COL3*%
X128810000Y-110720000D03*
D24*
%TO.P,D27,2,A*%
%TO.N,Net-(D27-A)*%
X121190000Y-110720000D03*
%TD*%
D23*
%TO.P,D47,1,K*%
%TO.N,/COL5*%
X169000000Y-190720000D03*
D24*
%TO.P,D47,2,A*%
%TO.N,Net-(D47-A)*%
X161380000Y-190720000D03*
%TD*%
D23*
%TO.P,D24,1,K*%
%TO.N,/COL2*%
X109000000Y-210720000D03*
D24*
%TO.P,D24,2,A*%
%TO.N,Net-(D24-A)*%
X101380000Y-210720000D03*
%TD*%
D23*
%TO.P,U65,1,GND*%
%TO.N,GND*%
X309299200Y-107050800D03*
D25*
%TO.P,U65,2,0_RX1_CRX2_CS1*%
%TO.N,/RE11*%
X306759200Y-107050800D03*
%TO.P,U65,3,1_TX1_CTX2_MISO1*%
%TO.N,/RE12*%
X304219200Y-107050800D03*
%TO.P,U65,4,2_OUT2*%
%TO.N,/RE21*%
X301679200Y-107050800D03*
%TO.P,U65,5,3_LRCLK2*%
%TO.N,/RE22*%
X299139200Y-107050800D03*
%TO.P,U65,6,4_BCLK2*%
%TO.N,/RE31*%
X296599200Y-107050800D03*
%TO.P,U65,7,5_IN2*%
%TO.N,/RE32*%
X294059200Y-107050800D03*
%TO.P,U65,8,6_OUT1D*%
%TO.N,/RE41*%
X291519200Y-107050800D03*
%TO.P,U65,9,7_RX2_OUT1A*%
%TO.N,/RE42*%
X288979200Y-107050800D03*
%TO.P,U65,10,8_TX2_IN1*%
%TO.N,/RE51*%
X286439200Y-107050800D03*
%TO.P,U65,11,9_OUT1C*%
%TO.N,/RE52*%
X283899200Y-107050800D03*
%TO.P,U65,12,10_CS_MQSR*%
%TO.N,/ROW0*%
X281359200Y-107050800D03*
%TO.P,U65,13,11_MOSI_CTX1*%
%TO.N,/ROW1*%
X278819200Y-107050800D03*
%TO.P,U65,14,12_MISO_MQSL*%
%TO.N,/ROW2*%
X276279200Y-107050800D03*
%TO.P,U65,15,3V3*%
%TO.N,VCC*%
X273739200Y-107050800D03*
%TO.P,U65,16,24_A10_TX6_SCL2*%
%TO.N,/RV1*%
X271199200Y-107050800D03*
%TO.P,U65,17,25_A11_RX6_SDA2*%
%TO.N,/RV2*%
X268659200Y-107050800D03*
%TO.P,U65,18,26_A12_MOSI1*%
%TO.N,/RV3*%
X266119200Y-107050800D03*
%TO.P,U65,19,27_A13_SCK1*%
%TO.N,/RV4*%
X263579200Y-107050800D03*
%TO.P,U65,20,28_RX7*%
%TO.N,/RESW1*%
X261039200Y-107050800D03*
%TO.P,U65,21,29_TX7*%
%TO.N,/RESW2*%
X258499200Y-107050800D03*
%TO.P,U65,22,30_CRX3*%
%TO.N,/RESW3*%
X255959200Y-107050800D03*
%TO.P,U65,23,31_CTX3*%
%TO.N,/RESW4*%
X253419200Y-107050800D03*
%TO.P,U65,24,32_OUT1B*%
%TO.N,/RESW5*%
X250879200Y-107050800D03*
%TO.P,U65,25,33_MCLK2*%
%TO.N,/ROW3*%
X250879200Y-91810800D03*
%TO.P,U65,26,34_RX8*%
%TO.N,/ROW4*%
X253419200Y-91810800D03*
%TO.P,U65,27,35_TX8*%
%TO.N,/ROW5*%
X255959200Y-91810800D03*
%TO.P,U65,28,36_CS*%
%TO.N,/ROW6*%
X258499200Y-91810800D03*
%TO.P,U65,29,37_CS*%
%TO.N,/ROW7*%
X261039200Y-91810800D03*
%TO.P,U65,30,38_CS1_IN1*%
%TO.N,/COL7*%
X263579200Y-91810800D03*
%TO.P,U65,31,39_MISO1_OUT1A*%
%TO.N,/COL6*%
X266119200Y-91810800D03*
%TO.P,U65,32,40_A16*%
%TO.N,/COL5*%
X268659200Y-91810800D03*
%TO.P,U65,33,41_A17*%
%TO.N,/COL4*%
X271199200Y-91810800D03*
%TO.P,U65,34,GND*%
%TO.N,GND*%
X273739200Y-91810800D03*
%TO.P,U65,35,13_SCK_LED*%
%TO.N,/LED*%
X276279200Y-91810800D03*
%TO.P,U65,36,14_A0_TX3_SPDIF_OUT*%
%TO.N,/COL3*%
X278819200Y-91810800D03*
%TO.P,U65,37,15_A1_RX3_SPDIF_IN*%
%TO.N,/COL2*%
X281359200Y-91810800D03*
%TO.P,U65,38,16_A2_RX4_SCL1*%
%TO.N,/COL1*%
X283899200Y-91810800D03*
%TO.P,U65,39,17_A3_TX4_SDA1*%
%TO.N,/COL0*%
X286439200Y-91810800D03*
%TO.P,U65,40,18_A4_SDA*%
%TO.N,/LCD4*%
X288979200Y-91810800D03*
%TO.P,U65,41,19_A5_SCL*%
%TO.N,/LCD6*%
X291519200Y-91810800D03*
%TO.P,U65,42,20_A6_TX5_LRCLK1*%
%TO.N,/LCD11*%
X294059200Y-91810800D03*
%TO.P,U65,43,21_A7_RX5_BCLK1*%
%TO.N,/LCD12*%
X296599200Y-91810800D03*
%TO.P,U65,44,22_A8_CTX1*%
%TO.N,/LCD13*%
X299139200Y-91810800D03*
%TO.P,U65,45,23_A9_CRX1_MCLK1*%
%TO.N,/LCD14*%
X301679200Y-91810800D03*
%TO.P,U65,46,3V3*%
%TO.N,unconnected-(U65-3V3-Pad46)*%
X304219200Y-91810800D03*
%TO.P,U65,47,GND*%
%TO.N,unconnected-(U65-GND-Pad47)*%
X306759200Y-91810800D03*
%TO.P,U65,48,VIN*%
%TO.N,unconnected-(U65-VIN-Pad48)*%
X309299200Y-91810800D03*
%TO.P,U65,49,VUSB*%
%TO.N,unconnected-(U65-VUSB-Pad49)*%
X306759200Y-94350800D03*
%TO.P,U65,50,VBAT*%
%TO.N,unconnected-(U65-VBAT-Pad50)*%
X263579200Y-104510800D03*
%TO.P,U65,51,3V3*%
%TO.N,unconnected-(U65-3V3-Pad51)*%
X263579200Y-101970800D03*
%TO.P,U65,52,GND*%
%TO.N,unconnected-(U65-GND-Pad52)*%
X263579200Y-99430800D03*
%TO.P,U65,53,PROGRAM*%
%TO.N,unconnected-(U65-PROGRAM-Pad53)*%
X263579200Y-96890800D03*
%TO.P,U65,54,ON_OFF*%
%TO.N,unconnected-(U65-ON_OFF-Pad54)*%
X263579200Y-94350800D03*
D23*
%TO.P,U65,55,5V*%
%TO.N,unconnected-(U65-5V-Pad55)*%
X303000000Y-104000000D03*
D25*
%TO.P,U65,56,D-*%
%TO.N,unconnected-(U65-D--Pad56)*%
X300460000Y-104000000D03*
%TO.P,U65,57,D+*%
%TO.N,unconnected-(U65-D+-Pad57)*%
X297920000Y-104000000D03*
%TO.P,U65,58,GND*%
%TO.N,unconnected-(U65-GND-Pad58)*%
X295380000Y-104000000D03*
%TO.P,U65,59,GND*%
%TO.N,unconnected-(U65-GND-Pad59)*%
X292840000Y-104000000D03*
D26*
%TO.P,U65,60,R+*%
%TO.N,unconnected-(U65-R+-Pad60)*%
X296329200Y-94249200D03*
D27*
%TO.P,U65,61,LED*%
%TO.N,unconnected-(U65-LED-Pad61)*%
X296329200Y-96249200D03*
%TO.P,U65,62,T-*%
%TO.N,unconnected-(U65-T--Pad62)*%
X296329200Y-98249200D03*
%TO.P,U65,63,T+*%
%TO.N,unconnected-(U65-T+-Pad63)*%
X294329200Y-98249200D03*
%TO.P,U65,64,GND*%
%TO.N,unconnected-(U65-GND-Pad64)*%
X294329200Y-96249200D03*
%TO.P,U65,65,R-*%
%TO.N,unconnected-(U65-R--Pad65)*%
X294329200Y-94249200D03*
%TO.P,U65,66,D-*%
%TO.N,unconnected-(U65-D--Pad66)*%
X308569200Y-98160800D03*
%TO.P,U65,67,D+*%
%TO.N,unconnected-(U65-D+-Pad67)*%
X308569200Y-100700800D03*
%TD*%
D23*
%TO.P,D43,1,K*%
%TO.N,/COL5*%
X169000000Y-110720000D03*
D24*
%TO.P,D43,2,A*%
%TO.N,Net-(D43-A)*%
X161380000Y-110720000D03*
%TD*%
D23*
%TO.P,D8,1,K*%
%TO.N,/COL0*%
X68810000Y-210720000D03*
D24*
%TO.P,D8,2,A*%
%TO.N,Net-(D8-A)*%
X61190000Y-210720000D03*
%TD*%
D23*
%TO.P,D40,1,K*%
%TO.N,/COL4*%
X149000000Y-210720000D03*
D24*
%TO.P,D40,2,A*%
%TO.N,Net-(D40-A)*%
X141380000Y-210720000D03*
%TD*%
D23*
%TO.P,D38,1,K*%
%TO.N,/COL4*%
X149000000Y-170720000D03*
D24*
%TO.P,D38,2,A*%
%TO.N,Net-(D38-A)*%
X141380000Y-170720000D03*
%TD*%
D23*
%TO.P,D46,1,K*%
%TO.N,/COL5*%
X169000000Y-170720000D03*
D24*
%TO.P,D46,2,A*%
%TO.N,Net-(D46-A)*%
X161380000Y-170720000D03*
%TD*%
D23*
%TO.P,D34,1,K*%
%TO.N,/COL4*%
X149000000Y-90720000D03*
D24*
%TO.P,D34,2,A*%
%TO.N,Net-(D34-A)*%
X141380000Y-90720000D03*
%TD*%
D23*
%TO.P,D17,1,K*%
%TO.N,/COL2*%
X109000000Y-70720000D03*
D24*
%TO.P,D17,2,A*%
%TO.N,Net-(D17-A)*%
X101380000Y-70720000D03*
%TD*%
D23*
%TO.P,D42,1,K*%
%TO.N,/COL5*%
X169000000Y-90720000D03*
D24*
%TO.P,D42,2,A*%
%TO.N,Net-(D42-A)*%
X161380000Y-90720000D03*
%TD*%
D23*
%TO.P,D28,1,K*%
%TO.N,/COL3*%
X129000000Y-130720000D03*
D24*
%TO.P,D28,2,A*%
%TO.N,Net-(D28-A)*%
X121380000Y-130720000D03*
%TD*%
D23*
%TO.P,D64,1,K*%
%TO.N,/COL7*%
X209000000Y-210720000D03*
D24*
%TO.P,D64,2,A*%
%TO.N,Net-(D64-A)*%
X201380000Y-210720000D03*
%TD*%
D23*
%TO.P,D59,1,K*%
%TO.N,/COL7*%
X209000000Y-110720000D03*
D24*
%TO.P,D59,2,A*%
%TO.N,Net-(D59-A)*%
X201380000Y-110720000D03*
%TD*%
D23*
%TO.P,D25,1,K*%
%TO.N,/COL3*%
X128810000Y-70720000D03*
D24*
%TO.P,D25,2,A*%
%TO.N,Net-(D25-A)*%
X121190000Y-70720000D03*
%TD*%
D23*
%TO.P,D9,1,K*%
%TO.N,/COL1*%
X88810000Y-70720000D03*
D24*
%TO.P,D9,2,A*%
%TO.N,Net-(D9-A)*%
X81190000Y-70720000D03*
%TD*%
D23*
%TO.P,D37,1,K*%
%TO.N,/COL4*%
X149000000Y-150720000D03*
D24*
%TO.P,D37,2,A*%
%TO.N,Net-(D37-A)*%
X141380000Y-150720000D03*
%TD*%
D23*
%TO.P,D18,1,K*%
%TO.N,/COL2*%
X109000000Y-90720000D03*
D24*
%TO.P,D18,2,A*%
%TO.N,Net-(D18-A)*%
X101380000Y-90720000D03*
%TD*%
D23*
%TO.P,D49,1,K*%
%TO.N,/COL6*%
X189000000Y-70720000D03*
D24*
%TO.P,D49,2,A*%
%TO.N,Net-(D49-A)*%
X181380000Y-70720000D03*
%TD*%
D23*
%TO.P,D2,1,K*%
%TO.N,/COL0*%
X69000000Y-90720000D03*
D24*
%TO.P,D2,2,A*%
%TO.N,Net-(D2-A)*%
X61380000Y-90720000D03*
%TD*%
D23*
%TO.P,D13,1,K*%
%TO.N,/COL1*%
X89000000Y-150720000D03*
D24*
%TO.P,D13,2,A*%
%TO.N,Net-(D13-A)*%
X81380000Y-150720000D03*
%TD*%
D23*
%TO.P,D39,1,K*%
%TO.N,/COL4*%
X149000000Y-190720000D03*
D24*
%TO.P,D39,2,A*%
%TO.N,Net-(D39-A)*%
X141380000Y-190720000D03*
%TD*%
D23*
%TO.P,D22,1,K*%
%TO.N,/COL2*%
X109000000Y-170720000D03*
D24*
%TO.P,D22,2,A*%
%TO.N,Net-(D22-A)*%
X101380000Y-170720000D03*
%TD*%
D23*
%TO.P,D52,1,K*%
%TO.N,/COL6*%
X189000000Y-130720000D03*
D24*
%TO.P,D52,2,A*%
%TO.N,Net-(D52-A)*%
X181380000Y-130720000D03*
%TD*%
D23*
%TO.P,D1,1,K*%
%TO.N,/COL0*%
X68810000Y-70720000D03*
D24*
%TO.P,D1,2,A*%
%TO.N,Net-(D1-A)*%
X61190000Y-70720000D03*
%TD*%
D23*
%TO.P,D36,1,K*%
%TO.N,/COL4*%
X149000000Y-130720000D03*
D24*
%TO.P,D36,2,A*%
%TO.N,Net-(D36-A)*%
X141380000Y-130720000D03*
%TD*%
D23*
%TO.P,D53,1,K*%
%TO.N,/COL6*%
X189000000Y-150720000D03*
D24*
%TO.P,D53,2,A*%
%TO.N,Net-(D53-A)*%
X181380000Y-150720000D03*
%TD*%
D23*
%TO.P,D29,1,K*%
%TO.N,/COL3*%
X129000000Y-150720000D03*
D24*
%TO.P,D29,2,A*%
%TO.N,Net-(D29-A)*%
X121380000Y-150720000D03*
%TD*%
D23*
%TO.P,D63,1,K*%
%TO.N,/COL7*%
X209000000Y-190720000D03*
D24*
%TO.P,D63,2,A*%
%TO.N,Net-(D63-A)*%
X201380000Y-190720000D03*
%TD*%
D23*
%TO.P,D48,1,K*%
%TO.N,/COL5*%
X169000000Y-210720000D03*
D24*
%TO.P,D48,2,A*%
%TO.N,Net-(D48-A)*%
X161380000Y-210720000D03*
%TD*%
D23*
%TO.P,D12,1,K*%
%TO.N,/COL1*%
X89120000Y-130720000D03*
D24*
%TO.P,D12,2,A*%
%TO.N,Net-(D12-A)*%
X81500000Y-130720000D03*
%TD*%
D23*
%TO.P,D32,1,K*%
%TO.N,/COL3*%
X129000000Y-210720000D03*
D24*
%TO.P,D32,2,A*%
%TO.N,Net-(D32-A)*%
X121380000Y-210720000D03*
%TD*%
D23*
%TO.P,D15,1,K*%
%TO.N,/COL1*%
X89000000Y-190720000D03*
D24*
%TO.P,D15,2,A*%
%TO.N,Net-(D15-A)*%
X81380000Y-190720000D03*
%TD*%
D23*
%TO.P,D51,1,K*%
%TO.N,/COL6*%
X189000000Y-110720000D03*
D24*
%TO.P,D51,2,A*%
%TO.N,Net-(D51-A)*%
X181380000Y-110720000D03*
%TD*%
D23*
%TO.P,D41,1,K*%
%TO.N,/COL5*%
X169000000Y-70720000D03*
D24*
%TO.P,D41,2,A*%
%TO.N,Net-(D41-A)*%
X161380000Y-70720000D03*
%TD*%
D23*
%TO.P,D45,1,K*%
%TO.N,/COL5*%
X169000000Y-150720000D03*
D24*
%TO.P,D45,2,A*%
%TO.N,Net-(D45-A)*%
X161380000Y-150720000D03*
%TD*%
D23*
%TO.P,D5,1,K*%
%TO.N,/COL0*%
X68810000Y-150720000D03*
D24*
%TO.P,D5,2,A*%
%TO.N,Net-(D5-A)*%
X61190000Y-150720000D03*
%TD*%
D23*
%TO.P,D20,1,K*%
%TO.N,/COL2*%
X109000000Y-130720000D03*
D24*
%TO.P,D20,2,A*%
%TO.N,Net-(D20-A)*%
X101380000Y-130720000D03*
%TD*%
D23*
%TO.P,D55,1,K*%
%TO.N,/COL6*%
X189000000Y-190720000D03*
D24*
%TO.P,D55,2,A*%
%TO.N,Net-(D55-A)*%
X181380000Y-190720000D03*
%TD*%
D23*
%TO.P,D58,1,K*%
%TO.N,/COL7*%
X208810000Y-90720000D03*
D24*
%TO.P,D58,2,A*%
%TO.N,Net-(D58-A)*%
X201190000Y-90720000D03*
%TD*%
D23*
%TO.P,D54,1,K*%
%TO.N,/COL6*%
X189000000Y-170720000D03*
D24*
%TO.P,D54,2,A*%
%TO.N,Net-(D54-A)*%
X181380000Y-170720000D03*
%TD*%
D23*
%TO.P,D16,1,K*%
%TO.N,/COL1*%
X89310000Y-210720000D03*
D24*
%TO.P,D16,2,A*%
%TO.N,Net-(D16-A)*%
X81690000Y-210720000D03*
%TD*%
D23*
%TO.P,D14,1,K*%
%TO.N,/COL1*%
X89000000Y-170720000D03*
D24*
%TO.P,D14,2,A*%
%TO.N,Net-(D14-A)*%
X81380000Y-170720000D03*
%TD*%
D23*
%TO.P,D56,1,K*%
%TO.N,/COL6*%
X189000000Y-210720000D03*
D24*
%TO.P,D56,2,A*%
%TO.N,Net-(D56-A)*%
X181380000Y-210720000D03*
%TD*%
D23*
%TO.P,D61,1,K*%
%TO.N,/COL7*%
X209000000Y-150720000D03*
D24*
%TO.P,D61,2,A*%
%TO.N,Net-(D61-A)*%
X201380000Y-150720000D03*
%TD*%
D23*
%TO.P,D21,1,K*%
%TO.N,/COL2*%
X109000000Y-150720000D03*
D24*
%TO.P,D21,2,A*%
%TO.N,Net-(D21-A)*%
X101380000Y-150720000D03*
%TD*%
D23*
%TO.P,D31,1,K*%
%TO.N,/COL3*%
X129000000Y-190720000D03*
D24*
%TO.P,D31,2,A*%
%TO.N,Net-(D31-A)*%
X121380000Y-190720000D03*
%TD*%
D23*
%TO.P,D30,1,K*%
%TO.N,/COL3*%
X129000000Y-170720000D03*
D24*
%TO.P,D30,2,A*%
%TO.N,Net-(D30-A)*%
X121380000Y-170720000D03*
%TD*%
D23*
%TO.P,D4,1,K*%
%TO.N,/COL0*%
X68810000Y-130720000D03*
D24*
%TO.P,D4,2,A*%
%TO.N,Net-(D4-A)*%
X61190000Y-130720000D03*
%TD*%
D23*
%TO.P,D19,1,K*%
%TO.N,/COL2*%
X109000000Y-110720000D03*
D24*
%TO.P,D19,2,A*%
%TO.N,Net-(D19-A)*%
X101380000Y-110720000D03*
%TD*%
D23*
%TO.P,D10,1,K*%
%TO.N,/COL1*%
X89120000Y-90720000D03*
D24*
%TO.P,D10,2,A*%
%TO.N,Net-(D10-A)*%
X81500000Y-90720000D03*
%TD*%
D23*
%TO.P,D57,1,K*%
%TO.N,/COL7*%
X209000000Y-70720000D03*
D24*
%TO.P,D57,2,A*%
%TO.N,Net-(D57-A)*%
X201380000Y-70720000D03*
%TD*%
D23*
%TO.P,D7,1,K*%
%TO.N,/COL0*%
X68810000Y-190720000D03*
D24*
%TO.P,D7,2,A*%
%TO.N,Net-(D7-A)*%
X61190000Y-190720000D03*
%TD*%
D23*
%TO.P,D44,1,K*%
%TO.N,/COL5*%
X169000000Y-130720000D03*
D24*
%TO.P,D44,2,A*%
%TO.N,Net-(D44-A)*%
X161380000Y-130720000D03*
%TD*%
D23*
%TO.P,D3,1,K*%
%TO.N,/COL0*%
X68810000Y-110720000D03*
D24*
%TO.P,D3,2,A*%
%TO.N,Net-(D3-A)*%
X61190000Y-110720000D03*
%TD*%
D28*
%TO.N,/RV4*%
X240500000Y-71500000D03*
X260050000Y-109550000D03*
X258000000Y-96000000D03*
X262650000Y-108800000D03*
%TO.N,/LED*%
X293500000Y-148200000D03*
%TO.N,VCC*%
X263050000Y-112100000D03*
X272500000Y-98500000D03*
X272500000Y-75500000D03*
%TO.N,GND*%
X273500000Y-75500000D03*
%TO.N,/RV3*%
X261350000Y-110400000D03*
%TO.N,/RESW2*%
X275500000Y-116900000D03*
%TO.N,/RE41*%
X264000000Y-114000000D03*
X270000000Y-114000000D03*
%TO.N,/COL2*%
X244329999Y-52510848D03*
X248850000Y-58850000D03*
%TD*%
D29*
%TO.N,/LCD13*%
X265920000Y-53500000D02*
X268420000Y-56000000D01*
X300950000Y-90000000D02*
X299139200Y-91810800D01*
X301279200Y-89720800D02*
X301000000Y-90000000D01*
X301000000Y-90000000D02*
X300950000Y-90000000D01*
X301279200Y-56000000D02*
X301279200Y-89720800D01*
X268420000Y-56000000D02*
X301279200Y-56000000D01*
%TO.N,/LCD6*%
X248140000Y-53500000D02*
X253640000Y-59000000D01*
X300000000Y-59000000D02*
X300000000Y-87000000D01*
X296330000Y-87000000D02*
X291519200Y-91810800D01*
X300000000Y-87000000D02*
X296330000Y-87000000D01*
X253640000Y-59000000D02*
X300000000Y-59000000D01*
%TO.N,/LCD11*%
X300479200Y-58479200D02*
X300479200Y-88000000D01*
X297870000Y-88000000D02*
X294059200Y-91810800D01*
X260840000Y-53500000D02*
X265340000Y-58000000D01*
X265340000Y-58000000D02*
X300000000Y-58000000D01*
X300479200Y-88000000D02*
X297870000Y-88000000D01*
X300000000Y-58000000D02*
X300479200Y-58479200D01*
%TO.N,/LCD4*%
X299600000Y-60000000D02*
X246150000Y-60000000D01*
X243550000Y-53990000D02*
X243060000Y-53500000D01*
X246150000Y-60000000D02*
X246150000Y-57800000D01*
X294190000Y-86600000D02*
X299400000Y-86600000D01*
X299400000Y-86600000D02*
X299600000Y-86400000D01*
X246150000Y-57800000D02*
X243550000Y-55200000D01*
X243550000Y-55200000D02*
X243550000Y-53990000D01*
X288979200Y-91810800D02*
X294190000Y-86600000D01*
X299600000Y-86400000D02*
X299600000Y-60000000D01*
%TO.N,/LCD14*%
X268460000Y-53500000D02*
X270060000Y-55100000D01*
X301000000Y-55000000D02*
X301679200Y-55679200D01*
X301679200Y-55679200D02*
X301679200Y-91810800D01*
X300900000Y-55100000D02*
X301000000Y-55000000D01*
X270060000Y-55100000D02*
X300900000Y-55100000D01*
%TO.N,/RV4*%
X240500000Y-70500000D02*
X240520000Y-70480000D01*
X261900000Y-109550000D02*
X260050000Y-109550000D01*
X240520000Y-70480000D02*
X240520000Y-53500000D01*
X240500000Y-71500000D02*
X240500000Y-70500000D01*
X258000000Y-101471600D02*
X258000000Y-96000000D01*
X262650000Y-108800000D02*
X261900000Y-109550000D01*
X263579200Y-107050800D02*
X258000000Y-101471600D01*
%TO.N,/LCD12*%
X263380000Y-53500000D02*
X266880000Y-57000000D01*
X299410000Y-89000000D02*
X296599200Y-91810800D01*
X266880000Y-57000000D02*
X300879200Y-57000000D01*
X300879200Y-57000000D02*
X300879200Y-89000000D01*
X300879200Y-89000000D02*
X299410000Y-89000000D01*
%TO.N,/LED*%
X292650000Y-149050000D02*
X292650000Y-156500000D01*
X293500000Y-148200000D02*
X292650000Y-149050000D01*
%TO.N,VCC*%
X234375000Y-209500000D02*
X234375000Y-209575000D01*
X234375000Y-133750000D02*
X234375000Y-209500000D01*
X251950000Y-209500000D02*
X234375000Y-209500000D01*
X253200000Y-210750000D02*
X251950000Y-209500000D01*
X251340000Y-133125000D02*
X233750000Y-133125000D01*
X239580000Y-51900000D02*
X237980000Y-53500000D01*
X234375000Y-209575000D02*
X233200000Y-210750000D01*
X268690000Y-112100000D02*
X263050000Y-112100000D01*
X272500000Y-75500000D02*
X272500000Y-98500000D01*
X252540000Y-131925000D02*
X251340000Y-133125000D01*
X271000000Y-53500000D02*
X269400000Y-51900000D01*
X269400000Y-51900000D02*
X239580000Y-51900000D01*
X233750000Y-133125000D02*
X234375000Y-133750000D01*
X273739200Y-107050800D02*
X268690000Y-112100000D01*
X233750000Y-133125000D02*
X232550000Y-131925000D01*
%TO.N,GND*%
X287075000Y-174900000D02*
X287725000Y-174250000D01*
X286000000Y-122500000D02*
X288500000Y-125000000D01*
X281475000Y-185000000D02*
X287075000Y-179400000D01*
X288500000Y-145000000D02*
X291500000Y-145000000D01*
X237440000Y-51500000D02*
X271540000Y-51500000D01*
X287075000Y-179400000D02*
X287075000Y-174900000D01*
X273739200Y-75739200D02*
X273739200Y-91810800D01*
X273500000Y-75500000D02*
X273739200Y-75739200D01*
X295975000Y-182500000D02*
X287725000Y-174250000D01*
X303500000Y-145000000D02*
X306000000Y-142500000D01*
X235440000Y-53500000D02*
X237440000Y-51500000D01*
X291500000Y-145000000D02*
X303500000Y-145000000D01*
X271540000Y-51500000D02*
X273540000Y-53500000D01*
X288500000Y-125000000D02*
X291500000Y-125000000D01*
X286000000Y-142500000D02*
X288500000Y-145000000D01*
X287725000Y-174250000D02*
X287725000Y-148775000D01*
X287725000Y-148775000D02*
X291500000Y-145000000D01*
%TO.N,/RV3*%
X262770000Y-110400000D02*
X261350000Y-110400000D01*
X266119200Y-107050800D02*
X262770000Y-110400000D01*
%TO.N,/RESW2*%
X275500000Y-116900000D02*
X266100000Y-116900000D01*
X266100000Y-116900000D02*
X266000000Y-117000000D01*
X266000000Y-117000000D02*
X258499200Y-109499200D01*
X258499200Y-109499200D02*
X258499200Y-107050800D01*
%TO.N,/RE22*%
X270000000Y-121400000D02*
X270000000Y-126000000D01*
X288090000Y-118100000D02*
X273300000Y-118100000D01*
X270000000Y-126000000D02*
X271500000Y-127500000D01*
X299139200Y-107050800D02*
X288090000Y-118100000D01*
X273300000Y-118100000D02*
X270000000Y-121400000D01*
%TO.N,/RE21*%
X273300000Y-120700000D02*
X271500000Y-122500000D01*
X288030000Y-120700000D02*
X273300000Y-120700000D01*
X301679200Y-107050800D02*
X288030000Y-120700000D01*
%TO.N,/RESW3*%
X265663565Y-105950800D02*
X274194835Y-105950800D01*
X257059200Y-105950800D02*
X261494835Y-105950800D01*
X261494835Y-105950800D02*
X262479200Y-106935165D01*
X263123565Y-108150800D02*
X264374835Y-108150800D01*
X255959200Y-107050800D02*
X257059200Y-105950800D01*
X275650800Y-108150800D02*
X282349200Y-108150800D01*
X265019200Y-106595165D02*
X265663565Y-105950800D01*
X274194835Y-105950800D02*
X275000000Y-106755965D01*
X275000000Y-107500000D02*
X275650800Y-108150800D01*
X282799200Y-106595165D02*
X283443565Y-105950800D01*
X282799200Y-107700800D02*
X282799200Y-106595165D01*
X264374835Y-108150800D02*
X265019200Y-107506435D01*
X262479200Y-107506435D02*
X263123565Y-108150800D01*
X310500000Y-123000000D02*
X306000000Y-127500000D01*
X262479200Y-106935165D02*
X262479200Y-107506435D01*
X283443565Y-105950800D02*
X310399200Y-105950800D01*
X310399200Y-105950800D02*
X310500000Y-106051600D01*
X275000000Y-106755965D02*
X275000000Y-107500000D01*
X310500000Y-106051600D02*
X310500000Y-123000000D01*
X282349200Y-108150800D02*
X282799200Y-107700800D01*
X265019200Y-107506435D02*
X265019200Y-106595165D01*
%TO.N,/RE41*%
X270000000Y-114000000D02*
X264000000Y-114000000D01*
%TO.N,/RESW4*%
X284700000Y-148800000D02*
X270961522Y-148800000D01*
X269200000Y-147038478D02*
X269200000Y-124000000D01*
X270961522Y-148800000D02*
X269200000Y-147038478D01*
X253419200Y-108219200D02*
X253419200Y-107050800D01*
X269200000Y-124000000D02*
X253419200Y-108219200D01*
X286000000Y-147500000D02*
X284700000Y-148800000D01*
%TO.N,/RE42*%
X288979200Y-115520800D02*
X288979200Y-107050800D01*
X269600000Y-145600000D02*
X269600000Y-121234314D01*
X269600000Y-121234314D02*
X273334314Y-117500000D01*
X273334314Y-117500000D02*
X287000000Y-117500000D01*
X287000000Y-117500000D02*
X288979200Y-115520800D01*
X271500000Y-147500000D02*
X269600000Y-145600000D01*
%TO.N,/ROW0*%
X65350000Y-56960000D02*
X205350000Y-56960000D01*
%TO.N,/ROW1*%
X250284035Y-76960000D02*
X264884200Y-91560165D01*
X264884200Y-93115800D02*
X278819200Y-107050800D01*
X205350000Y-76960000D02*
X250284035Y-76960000D01*
X65350000Y-76960000D02*
X205350000Y-76960000D01*
X264884200Y-91560165D02*
X264884200Y-93115800D01*
%TO.N,/COL2*%
X244329999Y-52510848D02*
X244329999Y-54329999D01*
X244329999Y-54329999D02*
X248850000Y-58850000D01*
%TO.N,/ROW2*%
X262139200Y-92266435D02*
X263123565Y-93250800D01*
X276279200Y-105279200D02*
X276279200Y-107050800D01*
X261494835Y-90710800D02*
X262139200Y-91355165D01*
X263123565Y-93250800D02*
X264250800Y-93250800D01*
X65350000Y-96960000D02*
X205350000Y-96960000D01*
X205350000Y-96960000D02*
X211599200Y-90710800D01*
X211599200Y-90710800D02*
X261494835Y-90710800D01*
X262139200Y-91355165D02*
X262139200Y-92266435D01*
X264250800Y-93250800D02*
X276279200Y-105279200D01*
%TO.N,/ROW3*%
X65350000Y-116960000D02*
X205350000Y-116960000D01*
X205350000Y-116960000D02*
X225730000Y-116960000D01*
X225730000Y-116960000D02*
X250879200Y-91810800D01*
%TO.N,/ROW4*%
X205350000Y-136960000D02*
X185350000Y-136960000D01*
X253419200Y-91810800D02*
X252102157Y-93127843D01*
X252102157Y-93127843D02*
X250127843Y-93127843D01*
X250127843Y-93127843D02*
X206295686Y-136960000D01*
X65350000Y-136960000D02*
X205350000Y-136960000D01*
X206295686Y-136960000D02*
X205350000Y-136960000D01*
%TO.N,/ROW5*%
X255959200Y-91810800D02*
X254242157Y-93527843D01*
X250472157Y-93527843D02*
X207000000Y-137000000D01*
X205350000Y-156960000D02*
X65350000Y-156960000D01*
X205350000Y-142650000D02*
X205350000Y-156960000D01*
X207000000Y-137000000D02*
X207000000Y-141000000D01*
X207000000Y-141000000D02*
X205350000Y-142650000D01*
X254242157Y-93527843D02*
X250472157Y-93527843D01*
%TO.N,/ROW6*%
X210100000Y-137100000D02*
X210100000Y-172210000D01*
X209000000Y-136000000D02*
X210100000Y-137100000D01*
X258499200Y-91810800D02*
X256310000Y-94000000D01*
X65350000Y-176960000D02*
X205350000Y-176960000D01*
X210100000Y-172210000D02*
X205350000Y-176960000D01*
X256310000Y-94000000D02*
X251000000Y-94000000D01*
X251000000Y-94000000D02*
X209000000Y-136000000D01*
%TO.N,/ROW7*%
X210500000Y-191810000D02*
X205350000Y-196960000D01*
X205350000Y-196960000D02*
X65350000Y-196960000D01*
X261039200Y-91810800D02*
X257850000Y-95000000D01*
X210500000Y-135500000D02*
X210500000Y-191810000D01*
X251000000Y-95000000D02*
X210500000Y-135500000D01*
X257850000Y-95000000D02*
X251000000Y-95000000D01*
%TD*%
M02*
