%TF.GenerationSoftware,KiCad,Pcbnew,8.0.4*%
%TF.CreationDate,2024-12-04T19:54:40+09:00*%
%TF.ProjectId,gradmc,67726164-6d63-42e6-9b69-6361645f7063,rev?*%
%TF.SameCoordinates,Original*%
%TF.FileFunction,Legend,Bot*%
%TF.FilePolarity,Positive*%
%FSLAX46Y46*%
G04 Gerber Fmt 4.6, Leading zero omitted, Abs format (unit mm)*
G04 Created by KiCad (PCBNEW 8.0.4) date 2024-12-04 19:54:40*
%MOMM*%
%LPD*%
G01*
G04 APERTURE LIST*
%ADD10C,0.150000*%
%ADD11C,0.120000*%
%ADD12C,0.100000*%
G04 APERTURE END LIST*
D10*
X206404285Y-169054819D02*
X206404285Y-168054819D01*
X206404285Y-168054819D02*
X206166190Y-168054819D01*
X206166190Y-168054819D02*
X206023333Y-168102438D01*
X206023333Y-168102438D02*
X205928095Y-168197676D01*
X205928095Y-168197676D02*
X205880476Y-168292914D01*
X205880476Y-168292914D02*
X205832857Y-168483390D01*
X205832857Y-168483390D02*
X205832857Y-168626247D01*
X205832857Y-168626247D02*
X205880476Y-168816723D01*
X205880476Y-168816723D02*
X205928095Y-168911961D01*
X205928095Y-168911961D02*
X206023333Y-169007200D01*
X206023333Y-169007200D02*
X206166190Y-169054819D01*
X206166190Y-169054819D02*
X206404285Y-169054819D01*
X204975714Y-168054819D02*
X205166190Y-168054819D01*
X205166190Y-168054819D02*
X205261428Y-168102438D01*
X205261428Y-168102438D02*
X205309047Y-168150057D01*
X205309047Y-168150057D02*
X205404285Y-168292914D01*
X205404285Y-168292914D02*
X205451904Y-168483390D01*
X205451904Y-168483390D02*
X205451904Y-168864342D01*
X205451904Y-168864342D02*
X205404285Y-168959580D01*
X205404285Y-168959580D02*
X205356666Y-169007200D01*
X205356666Y-169007200D02*
X205261428Y-169054819D01*
X205261428Y-169054819D02*
X205070952Y-169054819D01*
X205070952Y-169054819D02*
X204975714Y-169007200D01*
X204975714Y-169007200D02*
X204928095Y-168959580D01*
X204928095Y-168959580D02*
X204880476Y-168864342D01*
X204880476Y-168864342D02*
X204880476Y-168626247D01*
X204880476Y-168626247D02*
X204928095Y-168531009D01*
X204928095Y-168531009D02*
X204975714Y-168483390D01*
X204975714Y-168483390D02*
X205070952Y-168435771D01*
X205070952Y-168435771D02*
X205261428Y-168435771D01*
X205261428Y-168435771D02*
X205356666Y-168483390D01*
X205356666Y-168483390D02*
X205404285Y-168531009D01*
X205404285Y-168531009D02*
X205451904Y-168626247D01*
X204499523Y-168150057D02*
X204451904Y-168102438D01*
X204451904Y-168102438D02*
X204356666Y-168054819D01*
X204356666Y-168054819D02*
X204118571Y-168054819D01*
X204118571Y-168054819D02*
X204023333Y-168102438D01*
X204023333Y-168102438D02*
X203975714Y-168150057D01*
X203975714Y-168150057D02*
X203928095Y-168245295D01*
X203928095Y-168245295D02*
X203928095Y-168340533D01*
X203928095Y-168340533D02*
X203975714Y-168483390D01*
X203975714Y-168483390D02*
X204547142Y-169054819D01*
X204547142Y-169054819D02*
X203928095Y-169054819D01*
X209261904Y-169374819D02*
X209261904Y-168374819D01*
X208690476Y-169374819D02*
X209119047Y-168803390D01*
X208690476Y-168374819D02*
X209261904Y-168946247D01*
X206404285Y-129054819D02*
X206404285Y-128054819D01*
X206404285Y-128054819D02*
X206166190Y-128054819D01*
X206166190Y-128054819D02*
X206023333Y-128102438D01*
X206023333Y-128102438D02*
X205928095Y-128197676D01*
X205928095Y-128197676D02*
X205880476Y-128292914D01*
X205880476Y-128292914D02*
X205832857Y-128483390D01*
X205832857Y-128483390D02*
X205832857Y-128626247D01*
X205832857Y-128626247D02*
X205880476Y-128816723D01*
X205880476Y-128816723D02*
X205928095Y-128911961D01*
X205928095Y-128911961D02*
X206023333Y-129007200D01*
X206023333Y-129007200D02*
X206166190Y-129054819D01*
X206166190Y-129054819D02*
X206404285Y-129054819D01*
X204975714Y-128054819D02*
X205166190Y-128054819D01*
X205166190Y-128054819D02*
X205261428Y-128102438D01*
X205261428Y-128102438D02*
X205309047Y-128150057D01*
X205309047Y-128150057D02*
X205404285Y-128292914D01*
X205404285Y-128292914D02*
X205451904Y-128483390D01*
X205451904Y-128483390D02*
X205451904Y-128864342D01*
X205451904Y-128864342D02*
X205404285Y-128959580D01*
X205404285Y-128959580D02*
X205356666Y-129007200D01*
X205356666Y-129007200D02*
X205261428Y-129054819D01*
X205261428Y-129054819D02*
X205070952Y-129054819D01*
X205070952Y-129054819D02*
X204975714Y-129007200D01*
X204975714Y-129007200D02*
X204928095Y-128959580D01*
X204928095Y-128959580D02*
X204880476Y-128864342D01*
X204880476Y-128864342D02*
X204880476Y-128626247D01*
X204880476Y-128626247D02*
X204928095Y-128531009D01*
X204928095Y-128531009D02*
X204975714Y-128483390D01*
X204975714Y-128483390D02*
X205070952Y-128435771D01*
X205070952Y-128435771D02*
X205261428Y-128435771D01*
X205261428Y-128435771D02*
X205356666Y-128483390D01*
X205356666Y-128483390D02*
X205404285Y-128531009D01*
X205404285Y-128531009D02*
X205451904Y-128626247D01*
X204261428Y-128054819D02*
X204166190Y-128054819D01*
X204166190Y-128054819D02*
X204070952Y-128102438D01*
X204070952Y-128102438D02*
X204023333Y-128150057D01*
X204023333Y-128150057D02*
X203975714Y-128245295D01*
X203975714Y-128245295D02*
X203928095Y-128435771D01*
X203928095Y-128435771D02*
X203928095Y-128673866D01*
X203928095Y-128673866D02*
X203975714Y-128864342D01*
X203975714Y-128864342D02*
X204023333Y-128959580D01*
X204023333Y-128959580D02*
X204070952Y-129007200D01*
X204070952Y-129007200D02*
X204166190Y-129054819D01*
X204166190Y-129054819D02*
X204261428Y-129054819D01*
X204261428Y-129054819D02*
X204356666Y-129007200D01*
X204356666Y-129007200D02*
X204404285Y-128959580D01*
X204404285Y-128959580D02*
X204451904Y-128864342D01*
X204451904Y-128864342D02*
X204499523Y-128673866D01*
X204499523Y-128673866D02*
X204499523Y-128435771D01*
X204499523Y-128435771D02*
X204451904Y-128245295D01*
X204451904Y-128245295D02*
X204404285Y-128150057D01*
X204404285Y-128150057D02*
X204356666Y-128102438D01*
X204356666Y-128102438D02*
X204261428Y-128054819D01*
X209261904Y-129374819D02*
X209261904Y-128374819D01*
X208690476Y-129374819D02*
X209119047Y-128803390D01*
X208690476Y-128374819D02*
X209261904Y-128946247D01*
X146404285Y-109054819D02*
X146404285Y-108054819D01*
X146404285Y-108054819D02*
X146166190Y-108054819D01*
X146166190Y-108054819D02*
X146023333Y-108102438D01*
X146023333Y-108102438D02*
X145928095Y-108197676D01*
X145928095Y-108197676D02*
X145880476Y-108292914D01*
X145880476Y-108292914D02*
X145832857Y-108483390D01*
X145832857Y-108483390D02*
X145832857Y-108626247D01*
X145832857Y-108626247D02*
X145880476Y-108816723D01*
X145880476Y-108816723D02*
X145928095Y-108911961D01*
X145928095Y-108911961D02*
X146023333Y-109007200D01*
X146023333Y-109007200D02*
X146166190Y-109054819D01*
X146166190Y-109054819D02*
X146404285Y-109054819D01*
X145499523Y-108054819D02*
X144880476Y-108054819D01*
X144880476Y-108054819D02*
X145213809Y-108435771D01*
X145213809Y-108435771D02*
X145070952Y-108435771D01*
X145070952Y-108435771D02*
X144975714Y-108483390D01*
X144975714Y-108483390D02*
X144928095Y-108531009D01*
X144928095Y-108531009D02*
X144880476Y-108626247D01*
X144880476Y-108626247D02*
X144880476Y-108864342D01*
X144880476Y-108864342D02*
X144928095Y-108959580D01*
X144928095Y-108959580D02*
X144975714Y-109007200D01*
X144975714Y-109007200D02*
X145070952Y-109054819D01*
X145070952Y-109054819D02*
X145356666Y-109054819D01*
X145356666Y-109054819D02*
X145451904Y-109007200D01*
X145451904Y-109007200D02*
X145499523Y-108959580D01*
X143975714Y-108054819D02*
X144451904Y-108054819D01*
X144451904Y-108054819D02*
X144499523Y-108531009D01*
X144499523Y-108531009D02*
X144451904Y-108483390D01*
X144451904Y-108483390D02*
X144356666Y-108435771D01*
X144356666Y-108435771D02*
X144118571Y-108435771D01*
X144118571Y-108435771D02*
X144023333Y-108483390D01*
X144023333Y-108483390D02*
X143975714Y-108531009D01*
X143975714Y-108531009D02*
X143928095Y-108626247D01*
X143928095Y-108626247D02*
X143928095Y-108864342D01*
X143928095Y-108864342D02*
X143975714Y-108959580D01*
X143975714Y-108959580D02*
X144023333Y-109007200D01*
X144023333Y-109007200D02*
X144118571Y-109054819D01*
X144118571Y-109054819D02*
X144356666Y-109054819D01*
X144356666Y-109054819D02*
X144451904Y-109007200D01*
X144451904Y-109007200D02*
X144499523Y-108959580D01*
X149261904Y-109374819D02*
X149261904Y-108374819D01*
X148690476Y-109374819D02*
X149119047Y-108803390D01*
X148690476Y-108374819D02*
X149261904Y-108946247D01*
X86524285Y-109054819D02*
X86524285Y-108054819D01*
X86524285Y-108054819D02*
X86286190Y-108054819D01*
X86286190Y-108054819D02*
X86143333Y-108102438D01*
X86143333Y-108102438D02*
X86048095Y-108197676D01*
X86048095Y-108197676D02*
X86000476Y-108292914D01*
X86000476Y-108292914D02*
X85952857Y-108483390D01*
X85952857Y-108483390D02*
X85952857Y-108626247D01*
X85952857Y-108626247D02*
X86000476Y-108816723D01*
X86000476Y-108816723D02*
X86048095Y-108911961D01*
X86048095Y-108911961D02*
X86143333Y-109007200D01*
X86143333Y-109007200D02*
X86286190Y-109054819D01*
X86286190Y-109054819D02*
X86524285Y-109054819D01*
X85000476Y-109054819D02*
X85571904Y-109054819D01*
X85286190Y-109054819D02*
X85286190Y-108054819D01*
X85286190Y-108054819D02*
X85381428Y-108197676D01*
X85381428Y-108197676D02*
X85476666Y-108292914D01*
X85476666Y-108292914D02*
X85571904Y-108340533D01*
X84048095Y-109054819D02*
X84619523Y-109054819D01*
X84333809Y-109054819D02*
X84333809Y-108054819D01*
X84333809Y-108054819D02*
X84429047Y-108197676D01*
X84429047Y-108197676D02*
X84524285Y-108292914D01*
X84524285Y-108292914D02*
X84619523Y-108340533D01*
X89381904Y-109374819D02*
X89381904Y-108374819D01*
X88810476Y-109374819D02*
X89239047Y-108803390D01*
X88810476Y-108374819D02*
X89381904Y-108946247D01*
X126404285Y-89054819D02*
X126404285Y-88054819D01*
X126404285Y-88054819D02*
X126166190Y-88054819D01*
X126166190Y-88054819D02*
X126023333Y-88102438D01*
X126023333Y-88102438D02*
X125928095Y-88197676D01*
X125928095Y-88197676D02*
X125880476Y-88292914D01*
X125880476Y-88292914D02*
X125832857Y-88483390D01*
X125832857Y-88483390D02*
X125832857Y-88626247D01*
X125832857Y-88626247D02*
X125880476Y-88816723D01*
X125880476Y-88816723D02*
X125928095Y-88911961D01*
X125928095Y-88911961D02*
X126023333Y-89007200D01*
X126023333Y-89007200D02*
X126166190Y-89054819D01*
X126166190Y-89054819D02*
X126404285Y-89054819D01*
X125451904Y-88150057D02*
X125404285Y-88102438D01*
X125404285Y-88102438D02*
X125309047Y-88054819D01*
X125309047Y-88054819D02*
X125070952Y-88054819D01*
X125070952Y-88054819D02*
X124975714Y-88102438D01*
X124975714Y-88102438D02*
X124928095Y-88150057D01*
X124928095Y-88150057D02*
X124880476Y-88245295D01*
X124880476Y-88245295D02*
X124880476Y-88340533D01*
X124880476Y-88340533D02*
X124928095Y-88483390D01*
X124928095Y-88483390D02*
X125499523Y-89054819D01*
X125499523Y-89054819D02*
X124880476Y-89054819D01*
X124023333Y-88054819D02*
X124213809Y-88054819D01*
X124213809Y-88054819D02*
X124309047Y-88102438D01*
X124309047Y-88102438D02*
X124356666Y-88150057D01*
X124356666Y-88150057D02*
X124451904Y-88292914D01*
X124451904Y-88292914D02*
X124499523Y-88483390D01*
X124499523Y-88483390D02*
X124499523Y-88864342D01*
X124499523Y-88864342D02*
X124451904Y-88959580D01*
X124451904Y-88959580D02*
X124404285Y-89007200D01*
X124404285Y-89007200D02*
X124309047Y-89054819D01*
X124309047Y-89054819D02*
X124118571Y-89054819D01*
X124118571Y-89054819D02*
X124023333Y-89007200D01*
X124023333Y-89007200D02*
X123975714Y-88959580D01*
X123975714Y-88959580D02*
X123928095Y-88864342D01*
X123928095Y-88864342D02*
X123928095Y-88626247D01*
X123928095Y-88626247D02*
X123975714Y-88531009D01*
X123975714Y-88531009D02*
X124023333Y-88483390D01*
X124023333Y-88483390D02*
X124118571Y-88435771D01*
X124118571Y-88435771D02*
X124309047Y-88435771D01*
X124309047Y-88435771D02*
X124404285Y-88483390D01*
X124404285Y-88483390D02*
X124451904Y-88531009D01*
X124451904Y-88531009D02*
X124499523Y-88626247D01*
X129261904Y-89374819D02*
X129261904Y-88374819D01*
X128690476Y-89374819D02*
X129119047Y-88803390D01*
X128690476Y-88374819D02*
X129261904Y-88946247D01*
X146404285Y-69054819D02*
X146404285Y-68054819D01*
X146404285Y-68054819D02*
X146166190Y-68054819D01*
X146166190Y-68054819D02*
X146023333Y-68102438D01*
X146023333Y-68102438D02*
X145928095Y-68197676D01*
X145928095Y-68197676D02*
X145880476Y-68292914D01*
X145880476Y-68292914D02*
X145832857Y-68483390D01*
X145832857Y-68483390D02*
X145832857Y-68626247D01*
X145832857Y-68626247D02*
X145880476Y-68816723D01*
X145880476Y-68816723D02*
X145928095Y-68911961D01*
X145928095Y-68911961D02*
X146023333Y-69007200D01*
X146023333Y-69007200D02*
X146166190Y-69054819D01*
X146166190Y-69054819D02*
X146404285Y-69054819D01*
X145499523Y-68054819D02*
X144880476Y-68054819D01*
X144880476Y-68054819D02*
X145213809Y-68435771D01*
X145213809Y-68435771D02*
X145070952Y-68435771D01*
X145070952Y-68435771D02*
X144975714Y-68483390D01*
X144975714Y-68483390D02*
X144928095Y-68531009D01*
X144928095Y-68531009D02*
X144880476Y-68626247D01*
X144880476Y-68626247D02*
X144880476Y-68864342D01*
X144880476Y-68864342D02*
X144928095Y-68959580D01*
X144928095Y-68959580D02*
X144975714Y-69007200D01*
X144975714Y-69007200D02*
X145070952Y-69054819D01*
X145070952Y-69054819D02*
X145356666Y-69054819D01*
X145356666Y-69054819D02*
X145451904Y-69007200D01*
X145451904Y-69007200D02*
X145499523Y-68959580D01*
X144547142Y-68054819D02*
X143928095Y-68054819D01*
X143928095Y-68054819D02*
X144261428Y-68435771D01*
X144261428Y-68435771D02*
X144118571Y-68435771D01*
X144118571Y-68435771D02*
X144023333Y-68483390D01*
X144023333Y-68483390D02*
X143975714Y-68531009D01*
X143975714Y-68531009D02*
X143928095Y-68626247D01*
X143928095Y-68626247D02*
X143928095Y-68864342D01*
X143928095Y-68864342D02*
X143975714Y-68959580D01*
X143975714Y-68959580D02*
X144023333Y-69007200D01*
X144023333Y-69007200D02*
X144118571Y-69054819D01*
X144118571Y-69054819D02*
X144404285Y-69054819D01*
X144404285Y-69054819D02*
X144499523Y-69007200D01*
X144499523Y-69007200D02*
X144547142Y-68959580D01*
X149261904Y-69374819D02*
X149261904Y-68374819D01*
X148690476Y-69374819D02*
X149119047Y-68803390D01*
X148690476Y-68374819D02*
X149261904Y-68946247D01*
X106404285Y-189054819D02*
X106404285Y-188054819D01*
X106404285Y-188054819D02*
X106166190Y-188054819D01*
X106166190Y-188054819D02*
X106023333Y-188102438D01*
X106023333Y-188102438D02*
X105928095Y-188197676D01*
X105928095Y-188197676D02*
X105880476Y-188292914D01*
X105880476Y-188292914D02*
X105832857Y-188483390D01*
X105832857Y-188483390D02*
X105832857Y-188626247D01*
X105832857Y-188626247D02*
X105880476Y-188816723D01*
X105880476Y-188816723D02*
X105928095Y-188911961D01*
X105928095Y-188911961D02*
X106023333Y-189007200D01*
X106023333Y-189007200D02*
X106166190Y-189054819D01*
X106166190Y-189054819D02*
X106404285Y-189054819D01*
X105451904Y-188150057D02*
X105404285Y-188102438D01*
X105404285Y-188102438D02*
X105309047Y-188054819D01*
X105309047Y-188054819D02*
X105070952Y-188054819D01*
X105070952Y-188054819D02*
X104975714Y-188102438D01*
X104975714Y-188102438D02*
X104928095Y-188150057D01*
X104928095Y-188150057D02*
X104880476Y-188245295D01*
X104880476Y-188245295D02*
X104880476Y-188340533D01*
X104880476Y-188340533D02*
X104928095Y-188483390D01*
X104928095Y-188483390D02*
X105499523Y-189054819D01*
X105499523Y-189054819D02*
X104880476Y-189054819D01*
X104547142Y-188054819D02*
X103928095Y-188054819D01*
X103928095Y-188054819D02*
X104261428Y-188435771D01*
X104261428Y-188435771D02*
X104118571Y-188435771D01*
X104118571Y-188435771D02*
X104023333Y-188483390D01*
X104023333Y-188483390D02*
X103975714Y-188531009D01*
X103975714Y-188531009D02*
X103928095Y-188626247D01*
X103928095Y-188626247D02*
X103928095Y-188864342D01*
X103928095Y-188864342D02*
X103975714Y-188959580D01*
X103975714Y-188959580D02*
X104023333Y-189007200D01*
X104023333Y-189007200D02*
X104118571Y-189054819D01*
X104118571Y-189054819D02*
X104404285Y-189054819D01*
X104404285Y-189054819D02*
X104499523Y-189007200D01*
X104499523Y-189007200D02*
X104547142Y-188959580D01*
X109261904Y-189374819D02*
X109261904Y-188374819D01*
X108690476Y-189374819D02*
X109119047Y-188803390D01*
X108690476Y-188374819D02*
X109261904Y-188946247D01*
X299166666Y-154234819D02*
X299499999Y-153758628D01*
X299738094Y-154234819D02*
X299738094Y-153234819D01*
X299738094Y-153234819D02*
X299357142Y-153234819D01*
X299357142Y-153234819D02*
X299261904Y-153282438D01*
X299261904Y-153282438D02*
X299214285Y-153330057D01*
X299214285Y-153330057D02*
X299166666Y-153425295D01*
X299166666Y-153425295D02*
X299166666Y-153568152D01*
X299166666Y-153568152D02*
X299214285Y-153663390D01*
X299214285Y-153663390D02*
X299261904Y-153711009D01*
X299261904Y-153711009D02*
X299357142Y-153758628D01*
X299357142Y-153758628D02*
X299738094Y-153758628D01*
X298214285Y-154234819D02*
X298785713Y-154234819D01*
X298499999Y-154234819D02*
X298499999Y-153234819D01*
X298499999Y-153234819D02*
X298595237Y-153377676D01*
X298595237Y-153377676D02*
X298690475Y-153472914D01*
X298690475Y-153472914D02*
X298785713Y-153520533D01*
X65738094Y-169054819D02*
X65738094Y-168054819D01*
X65738094Y-168054819D02*
X65499999Y-168054819D01*
X65499999Y-168054819D02*
X65357142Y-168102438D01*
X65357142Y-168102438D02*
X65261904Y-168197676D01*
X65261904Y-168197676D02*
X65214285Y-168292914D01*
X65214285Y-168292914D02*
X65166666Y-168483390D01*
X65166666Y-168483390D02*
X65166666Y-168626247D01*
X65166666Y-168626247D02*
X65214285Y-168816723D01*
X65214285Y-168816723D02*
X65261904Y-168911961D01*
X65261904Y-168911961D02*
X65357142Y-169007200D01*
X65357142Y-169007200D02*
X65499999Y-169054819D01*
X65499999Y-169054819D02*
X65738094Y-169054819D01*
X64309523Y-168054819D02*
X64499999Y-168054819D01*
X64499999Y-168054819D02*
X64595237Y-168102438D01*
X64595237Y-168102438D02*
X64642856Y-168150057D01*
X64642856Y-168150057D02*
X64738094Y-168292914D01*
X64738094Y-168292914D02*
X64785713Y-168483390D01*
X64785713Y-168483390D02*
X64785713Y-168864342D01*
X64785713Y-168864342D02*
X64738094Y-168959580D01*
X64738094Y-168959580D02*
X64690475Y-169007200D01*
X64690475Y-169007200D02*
X64595237Y-169054819D01*
X64595237Y-169054819D02*
X64404761Y-169054819D01*
X64404761Y-169054819D02*
X64309523Y-169007200D01*
X64309523Y-169007200D02*
X64261904Y-168959580D01*
X64261904Y-168959580D02*
X64214285Y-168864342D01*
X64214285Y-168864342D02*
X64214285Y-168626247D01*
X64214285Y-168626247D02*
X64261904Y-168531009D01*
X64261904Y-168531009D02*
X64309523Y-168483390D01*
X64309523Y-168483390D02*
X64404761Y-168435771D01*
X64404761Y-168435771D02*
X64595237Y-168435771D01*
X64595237Y-168435771D02*
X64690475Y-168483390D01*
X64690475Y-168483390D02*
X64738094Y-168531009D01*
X64738094Y-168531009D02*
X64785713Y-168626247D01*
X69071904Y-169374819D02*
X69071904Y-168374819D01*
X68500476Y-169374819D02*
X68929047Y-168803390D01*
X68500476Y-168374819D02*
X69071904Y-168946247D01*
X186404285Y-89054819D02*
X186404285Y-88054819D01*
X186404285Y-88054819D02*
X186166190Y-88054819D01*
X186166190Y-88054819D02*
X186023333Y-88102438D01*
X186023333Y-88102438D02*
X185928095Y-88197676D01*
X185928095Y-88197676D02*
X185880476Y-88292914D01*
X185880476Y-88292914D02*
X185832857Y-88483390D01*
X185832857Y-88483390D02*
X185832857Y-88626247D01*
X185832857Y-88626247D02*
X185880476Y-88816723D01*
X185880476Y-88816723D02*
X185928095Y-88911961D01*
X185928095Y-88911961D02*
X186023333Y-89007200D01*
X186023333Y-89007200D02*
X186166190Y-89054819D01*
X186166190Y-89054819D02*
X186404285Y-89054819D01*
X184928095Y-88054819D02*
X185404285Y-88054819D01*
X185404285Y-88054819D02*
X185451904Y-88531009D01*
X185451904Y-88531009D02*
X185404285Y-88483390D01*
X185404285Y-88483390D02*
X185309047Y-88435771D01*
X185309047Y-88435771D02*
X185070952Y-88435771D01*
X185070952Y-88435771D02*
X184975714Y-88483390D01*
X184975714Y-88483390D02*
X184928095Y-88531009D01*
X184928095Y-88531009D02*
X184880476Y-88626247D01*
X184880476Y-88626247D02*
X184880476Y-88864342D01*
X184880476Y-88864342D02*
X184928095Y-88959580D01*
X184928095Y-88959580D02*
X184975714Y-89007200D01*
X184975714Y-89007200D02*
X185070952Y-89054819D01*
X185070952Y-89054819D02*
X185309047Y-89054819D01*
X185309047Y-89054819D02*
X185404285Y-89007200D01*
X185404285Y-89007200D02*
X185451904Y-88959580D01*
X184261428Y-88054819D02*
X184166190Y-88054819D01*
X184166190Y-88054819D02*
X184070952Y-88102438D01*
X184070952Y-88102438D02*
X184023333Y-88150057D01*
X184023333Y-88150057D02*
X183975714Y-88245295D01*
X183975714Y-88245295D02*
X183928095Y-88435771D01*
X183928095Y-88435771D02*
X183928095Y-88673866D01*
X183928095Y-88673866D02*
X183975714Y-88864342D01*
X183975714Y-88864342D02*
X184023333Y-88959580D01*
X184023333Y-88959580D02*
X184070952Y-89007200D01*
X184070952Y-89007200D02*
X184166190Y-89054819D01*
X184166190Y-89054819D02*
X184261428Y-89054819D01*
X184261428Y-89054819D02*
X184356666Y-89007200D01*
X184356666Y-89007200D02*
X184404285Y-88959580D01*
X184404285Y-88959580D02*
X184451904Y-88864342D01*
X184451904Y-88864342D02*
X184499523Y-88673866D01*
X184499523Y-88673866D02*
X184499523Y-88435771D01*
X184499523Y-88435771D02*
X184451904Y-88245295D01*
X184451904Y-88245295D02*
X184404285Y-88150057D01*
X184404285Y-88150057D02*
X184356666Y-88102438D01*
X184356666Y-88102438D02*
X184261428Y-88054819D01*
X189261904Y-89374819D02*
X189261904Y-88374819D01*
X188690476Y-89374819D02*
X189119047Y-88803390D01*
X188690476Y-88374819D02*
X189261904Y-88946247D01*
X126214285Y-109054819D02*
X126214285Y-108054819D01*
X126214285Y-108054819D02*
X125976190Y-108054819D01*
X125976190Y-108054819D02*
X125833333Y-108102438D01*
X125833333Y-108102438D02*
X125738095Y-108197676D01*
X125738095Y-108197676D02*
X125690476Y-108292914D01*
X125690476Y-108292914D02*
X125642857Y-108483390D01*
X125642857Y-108483390D02*
X125642857Y-108626247D01*
X125642857Y-108626247D02*
X125690476Y-108816723D01*
X125690476Y-108816723D02*
X125738095Y-108911961D01*
X125738095Y-108911961D02*
X125833333Y-109007200D01*
X125833333Y-109007200D02*
X125976190Y-109054819D01*
X125976190Y-109054819D02*
X126214285Y-109054819D01*
X125261904Y-108150057D02*
X125214285Y-108102438D01*
X125214285Y-108102438D02*
X125119047Y-108054819D01*
X125119047Y-108054819D02*
X124880952Y-108054819D01*
X124880952Y-108054819D02*
X124785714Y-108102438D01*
X124785714Y-108102438D02*
X124738095Y-108150057D01*
X124738095Y-108150057D02*
X124690476Y-108245295D01*
X124690476Y-108245295D02*
X124690476Y-108340533D01*
X124690476Y-108340533D02*
X124738095Y-108483390D01*
X124738095Y-108483390D02*
X125309523Y-109054819D01*
X125309523Y-109054819D02*
X124690476Y-109054819D01*
X124357142Y-108054819D02*
X123690476Y-108054819D01*
X123690476Y-108054819D02*
X124119047Y-109054819D01*
X129071904Y-109374819D02*
X129071904Y-108374819D01*
X128500476Y-109374819D02*
X128929047Y-108803390D01*
X128500476Y-108374819D02*
X129071904Y-108946247D01*
X166404285Y-189054819D02*
X166404285Y-188054819D01*
X166404285Y-188054819D02*
X166166190Y-188054819D01*
X166166190Y-188054819D02*
X166023333Y-188102438D01*
X166023333Y-188102438D02*
X165928095Y-188197676D01*
X165928095Y-188197676D02*
X165880476Y-188292914D01*
X165880476Y-188292914D02*
X165832857Y-188483390D01*
X165832857Y-188483390D02*
X165832857Y-188626247D01*
X165832857Y-188626247D02*
X165880476Y-188816723D01*
X165880476Y-188816723D02*
X165928095Y-188911961D01*
X165928095Y-188911961D02*
X166023333Y-189007200D01*
X166023333Y-189007200D02*
X166166190Y-189054819D01*
X166166190Y-189054819D02*
X166404285Y-189054819D01*
X164975714Y-188388152D02*
X164975714Y-189054819D01*
X165213809Y-188007200D02*
X165451904Y-188721485D01*
X165451904Y-188721485D02*
X164832857Y-188721485D01*
X164547142Y-188054819D02*
X163880476Y-188054819D01*
X163880476Y-188054819D02*
X164309047Y-189054819D01*
X169261904Y-189374819D02*
X169261904Y-188374819D01*
X168690476Y-189374819D02*
X169119047Y-188803390D01*
X168690476Y-188374819D02*
X169261904Y-188946247D01*
X106404285Y-209054819D02*
X106404285Y-208054819D01*
X106404285Y-208054819D02*
X106166190Y-208054819D01*
X106166190Y-208054819D02*
X106023333Y-208102438D01*
X106023333Y-208102438D02*
X105928095Y-208197676D01*
X105928095Y-208197676D02*
X105880476Y-208292914D01*
X105880476Y-208292914D02*
X105832857Y-208483390D01*
X105832857Y-208483390D02*
X105832857Y-208626247D01*
X105832857Y-208626247D02*
X105880476Y-208816723D01*
X105880476Y-208816723D02*
X105928095Y-208911961D01*
X105928095Y-208911961D02*
X106023333Y-209007200D01*
X106023333Y-209007200D02*
X106166190Y-209054819D01*
X106166190Y-209054819D02*
X106404285Y-209054819D01*
X105451904Y-208150057D02*
X105404285Y-208102438D01*
X105404285Y-208102438D02*
X105309047Y-208054819D01*
X105309047Y-208054819D02*
X105070952Y-208054819D01*
X105070952Y-208054819D02*
X104975714Y-208102438D01*
X104975714Y-208102438D02*
X104928095Y-208150057D01*
X104928095Y-208150057D02*
X104880476Y-208245295D01*
X104880476Y-208245295D02*
X104880476Y-208340533D01*
X104880476Y-208340533D02*
X104928095Y-208483390D01*
X104928095Y-208483390D02*
X105499523Y-209054819D01*
X105499523Y-209054819D02*
X104880476Y-209054819D01*
X104023333Y-208388152D02*
X104023333Y-209054819D01*
X104261428Y-208007200D02*
X104499523Y-208721485D01*
X104499523Y-208721485D02*
X103880476Y-208721485D01*
X109261904Y-209374819D02*
X109261904Y-208374819D01*
X108690476Y-209374819D02*
X109119047Y-208803390D01*
X108690476Y-208374819D02*
X109261904Y-208946247D01*
X281327294Y-88725619D02*
X281327294Y-89535142D01*
X281327294Y-89535142D02*
X281279675Y-89630380D01*
X281279675Y-89630380D02*
X281232056Y-89678000D01*
X281232056Y-89678000D02*
X281136818Y-89725619D01*
X281136818Y-89725619D02*
X280946342Y-89725619D01*
X280946342Y-89725619D02*
X280851104Y-89678000D01*
X280851104Y-89678000D02*
X280803485Y-89630380D01*
X280803485Y-89630380D02*
X280755866Y-89535142D01*
X280755866Y-89535142D02*
X280755866Y-88725619D01*
X279851104Y-88725619D02*
X280041580Y-88725619D01*
X280041580Y-88725619D02*
X280136818Y-88773238D01*
X280136818Y-88773238D02*
X280184437Y-88820857D01*
X280184437Y-88820857D02*
X280279675Y-88963714D01*
X280279675Y-88963714D02*
X280327294Y-89154190D01*
X280327294Y-89154190D02*
X280327294Y-89535142D01*
X280327294Y-89535142D02*
X280279675Y-89630380D01*
X280279675Y-89630380D02*
X280232056Y-89678000D01*
X280232056Y-89678000D02*
X280136818Y-89725619D01*
X280136818Y-89725619D02*
X279946342Y-89725619D01*
X279946342Y-89725619D02*
X279851104Y-89678000D01*
X279851104Y-89678000D02*
X279803485Y-89630380D01*
X279803485Y-89630380D02*
X279755866Y-89535142D01*
X279755866Y-89535142D02*
X279755866Y-89297047D01*
X279755866Y-89297047D02*
X279803485Y-89201809D01*
X279803485Y-89201809D02*
X279851104Y-89154190D01*
X279851104Y-89154190D02*
X279946342Y-89106571D01*
X279946342Y-89106571D02*
X280136818Y-89106571D01*
X280136818Y-89106571D02*
X280232056Y-89154190D01*
X280232056Y-89154190D02*
X280279675Y-89201809D01*
X280279675Y-89201809D02*
X280327294Y-89297047D01*
X278851104Y-88725619D02*
X279327294Y-88725619D01*
X279327294Y-88725619D02*
X279374913Y-89201809D01*
X279374913Y-89201809D02*
X279327294Y-89154190D01*
X279327294Y-89154190D02*
X279232056Y-89106571D01*
X279232056Y-89106571D02*
X278993961Y-89106571D01*
X278993961Y-89106571D02*
X278898723Y-89154190D01*
X278898723Y-89154190D02*
X278851104Y-89201809D01*
X278851104Y-89201809D02*
X278803485Y-89297047D01*
X278803485Y-89297047D02*
X278803485Y-89535142D01*
X278803485Y-89535142D02*
X278851104Y-89630380D01*
X278851104Y-89630380D02*
X278898723Y-89678000D01*
X278898723Y-89678000D02*
X278993961Y-89725619D01*
X278993961Y-89725619D02*
X279232056Y-89725619D01*
X279232056Y-89725619D02*
X279327294Y-89678000D01*
X279327294Y-89678000D02*
X279374913Y-89630380D01*
X301864523Y-101374819D02*
X301864523Y-102184342D01*
X301864523Y-102184342D02*
X301816904Y-102279580D01*
X301816904Y-102279580D02*
X301769285Y-102327200D01*
X301769285Y-102327200D02*
X301674047Y-102374819D01*
X301674047Y-102374819D02*
X301483571Y-102374819D01*
X301483571Y-102374819D02*
X301388333Y-102327200D01*
X301388333Y-102327200D02*
X301340714Y-102279580D01*
X301340714Y-102279580D02*
X301293095Y-102184342D01*
X301293095Y-102184342D02*
X301293095Y-101374819D01*
X300864523Y-102327200D02*
X300721666Y-102374819D01*
X300721666Y-102374819D02*
X300483571Y-102374819D01*
X300483571Y-102374819D02*
X300388333Y-102327200D01*
X300388333Y-102327200D02*
X300340714Y-102279580D01*
X300340714Y-102279580D02*
X300293095Y-102184342D01*
X300293095Y-102184342D02*
X300293095Y-102089104D01*
X300293095Y-102089104D02*
X300340714Y-101993866D01*
X300340714Y-101993866D02*
X300388333Y-101946247D01*
X300388333Y-101946247D02*
X300483571Y-101898628D01*
X300483571Y-101898628D02*
X300674047Y-101851009D01*
X300674047Y-101851009D02*
X300769285Y-101803390D01*
X300769285Y-101803390D02*
X300816904Y-101755771D01*
X300816904Y-101755771D02*
X300864523Y-101660533D01*
X300864523Y-101660533D02*
X300864523Y-101565295D01*
X300864523Y-101565295D02*
X300816904Y-101470057D01*
X300816904Y-101470057D02*
X300769285Y-101422438D01*
X300769285Y-101422438D02*
X300674047Y-101374819D01*
X300674047Y-101374819D02*
X300435952Y-101374819D01*
X300435952Y-101374819D02*
X300293095Y-101422438D01*
X299531190Y-101851009D02*
X299388333Y-101898628D01*
X299388333Y-101898628D02*
X299340714Y-101946247D01*
X299340714Y-101946247D02*
X299293095Y-102041485D01*
X299293095Y-102041485D02*
X299293095Y-102184342D01*
X299293095Y-102184342D02*
X299340714Y-102279580D01*
X299340714Y-102279580D02*
X299388333Y-102327200D01*
X299388333Y-102327200D02*
X299483571Y-102374819D01*
X299483571Y-102374819D02*
X299864523Y-102374819D01*
X299864523Y-102374819D02*
X299864523Y-101374819D01*
X299864523Y-101374819D02*
X299531190Y-101374819D01*
X299531190Y-101374819D02*
X299435952Y-101422438D01*
X299435952Y-101422438D02*
X299388333Y-101470057D01*
X299388333Y-101470057D02*
X299340714Y-101565295D01*
X299340714Y-101565295D02*
X299340714Y-101660533D01*
X299340714Y-101660533D02*
X299388333Y-101755771D01*
X299388333Y-101755771D02*
X299435952Y-101803390D01*
X299435952Y-101803390D02*
X299531190Y-101851009D01*
X299531190Y-101851009D02*
X299864523Y-101851009D01*
X298102618Y-102374819D02*
X298102618Y-101374819D01*
X298102618Y-101851009D02*
X297531190Y-101851009D01*
X297531190Y-102374819D02*
X297531190Y-101374819D01*
X296912142Y-102374819D02*
X297007380Y-102327200D01*
X297007380Y-102327200D02*
X297054999Y-102279580D01*
X297054999Y-102279580D02*
X297102618Y-102184342D01*
X297102618Y-102184342D02*
X297102618Y-101898628D01*
X297102618Y-101898628D02*
X297054999Y-101803390D01*
X297054999Y-101803390D02*
X297007380Y-101755771D01*
X297007380Y-101755771D02*
X296912142Y-101708152D01*
X296912142Y-101708152D02*
X296769285Y-101708152D01*
X296769285Y-101708152D02*
X296674047Y-101755771D01*
X296674047Y-101755771D02*
X296626428Y-101803390D01*
X296626428Y-101803390D02*
X296578809Y-101898628D01*
X296578809Y-101898628D02*
X296578809Y-102184342D01*
X296578809Y-102184342D02*
X296626428Y-102279580D01*
X296626428Y-102279580D02*
X296674047Y-102327200D01*
X296674047Y-102327200D02*
X296769285Y-102374819D01*
X296769285Y-102374819D02*
X296912142Y-102374819D01*
X296197856Y-102327200D02*
X296102618Y-102374819D01*
X296102618Y-102374819D02*
X295912142Y-102374819D01*
X295912142Y-102374819D02*
X295816904Y-102327200D01*
X295816904Y-102327200D02*
X295769285Y-102231961D01*
X295769285Y-102231961D02*
X295769285Y-102184342D01*
X295769285Y-102184342D02*
X295816904Y-102089104D01*
X295816904Y-102089104D02*
X295912142Y-102041485D01*
X295912142Y-102041485D02*
X296054999Y-102041485D01*
X296054999Y-102041485D02*
X296150237Y-101993866D01*
X296150237Y-101993866D02*
X296197856Y-101898628D01*
X296197856Y-101898628D02*
X296197856Y-101851009D01*
X296197856Y-101851009D02*
X296150237Y-101755771D01*
X296150237Y-101755771D02*
X296054999Y-101708152D01*
X296054999Y-101708152D02*
X295912142Y-101708152D01*
X295912142Y-101708152D02*
X295816904Y-101755771D01*
X295483570Y-101708152D02*
X295102618Y-101708152D01*
X295340713Y-101374819D02*
X295340713Y-102231961D01*
X295340713Y-102231961D02*
X295293094Y-102327200D01*
X295293094Y-102327200D02*
X295197856Y-102374819D01*
X295197856Y-102374819D02*
X295102618Y-102374819D01*
X306214019Y-98168895D02*
X307023542Y-98168895D01*
X307023542Y-98168895D02*
X307118780Y-98216514D01*
X307118780Y-98216514D02*
X307166400Y-98264133D01*
X307166400Y-98264133D02*
X307214019Y-98359371D01*
X307214019Y-98359371D02*
X307214019Y-98549847D01*
X307214019Y-98549847D02*
X307166400Y-98645085D01*
X307166400Y-98645085D02*
X307118780Y-98692704D01*
X307118780Y-98692704D02*
X307023542Y-98740323D01*
X307023542Y-98740323D02*
X306214019Y-98740323D01*
X307166400Y-99168895D02*
X307214019Y-99311752D01*
X307214019Y-99311752D02*
X307214019Y-99549847D01*
X307214019Y-99549847D02*
X307166400Y-99645085D01*
X307166400Y-99645085D02*
X307118780Y-99692704D01*
X307118780Y-99692704D02*
X307023542Y-99740323D01*
X307023542Y-99740323D02*
X306928304Y-99740323D01*
X306928304Y-99740323D02*
X306833066Y-99692704D01*
X306833066Y-99692704D02*
X306785447Y-99645085D01*
X306785447Y-99645085D02*
X306737828Y-99549847D01*
X306737828Y-99549847D02*
X306690209Y-99359371D01*
X306690209Y-99359371D02*
X306642590Y-99264133D01*
X306642590Y-99264133D02*
X306594971Y-99216514D01*
X306594971Y-99216514D02*
X306499733Y-99168895D01*
X306499733Y-99168895D02*
X306404495Y-99168895D01*
X306404495Y-99168895D02*
X306309257Y-99216514D01*
X306309257Y-99216514D02*
X306261638Y-99264133D01*
X306261638Y-99264133D02*
X306214019Y-99359371D01*
X306214019Y-99359371D02*
X306214019Y-99597466D01*
X306214019Y-99597466D02*
X306261638Y-99740323D01*
X306690209Y-100502228D02*
X306737828Y-100645085D01*
X306737828Y-100645085D02*
X306785447Y-100692704D01*
X306785447Y-100692704D02*
X306880685Y-100740323D01*
X306880685Y-100740323D02*
X307023542Y-100740323D01*
X307023542Y-100740323D02*
X307118780Y-100692704D01*
X307118780Y-100692704D02*
X307166400Y-100645085D01*
X307166400Y-100645085D02*
X307214019Y-100549847D01*
X307214019Y-100549847D02*
X307214019Y-100168895D01*
X307214019Y-100168895D02*
X306214019Y-100168895D01*
X306214019Y-100168895D02*
X306214019Y-100502228D01*
X306214019Y-100502228D02*
X306261638Y-100597466D01*
X306261638Y-100597466D02*
X306309257Y-100645085D01*
X306309257Y-100645085D02*
X306404495Y-100692704D01*
X306404495Y-100692704D02*
X306499733Y-100692704D01*
X306499733Y-100692704D02*
X306594971Y-100645085D01*
X306594971Y-100645085D02*
X306642590Y-100597466D01*
X306642590Y-100597466D02*
X306690209Y-100502228D01*
X306690209Y-100502228D02*
X306690209Y-100168895D01*
X281675233Y-96347466D02*
X280975233Y-96347466D01*
X280975233Y-96347466D02*
X281475233Y-96580800D01*
X281475233Y-96580800D02*
X280975233Y-96814133D01*
X280975233Y-96814133D02*
X281675233Y-96814133D01*
X281675233Y-97147466D02*
X280975233Y-97147466D01*
X281675233Y-97480799D02*
X280975233Y-97480799D01*
X280975233Y-97480799D02*
X281475233Y-97714133D01*
X281475233Y-97714133D02*
X280975233Y-97947466D01*
X280975233Y-97947466D02*
X281675233Y-97947466D01*
X280975233Y-98214133D02*
X281675233Y-98680799D01*
X280975233Y-98680799D02*
X281675233Y-98214133D01*
X281675233Y-99347466D02*
X281341900Y-99114133D01*
X281675233Y-98947466D02*
X280975233Y-98947466D01*
X280975233Y-98947466D02*
X280975233Y-99214133D01*
X280975233Y-99214133D02*
X281008566Y-99280800D01*
X281008566Y-99280800D02*
X281041900Y-99314133D01*
X281041900Y-99314133D02*
X281108566Y-99347466D01*
X281108566Y-99347466D02*
X281208566Y-99347466D01*
X281208566Y-99347466D02*
X281275233Y-99314133D01*
X281275233Y-99314133D02*
X281308566Y-99280800D01*
X281308566Y-99280800D02*
X281341900Y-99214133D01*
X281341900Y-99214133D02*
X281341900Y-98947466D01*
X280975233Y-99547466D02*
X280975233Y-99947466D01*
X281675233Y-99747466D02*
X280975233Y-99747466D01*
X281675233Y-100547466D02*
X281675233Y-100147466D01*
X281675233Y-100347466D02*
X280975233Y-100347466D01*
X280975233Y-100347466D02*
X281075233Y-100280799D01*
X281075233Y-100280799D02*
X281141900Y-100214133D01*
X281141900Y-100214133D02*
X281175233Y-100147466D01*
X280975233Y-100980800D02*
X280975233Y-101047466D01*
X280975233Y-101047466D02*
X281008566Y-101114133D01*
X281008566Y-101114133D02*
X281041900Y-101147466D01*
X281041900Y-101147466D02*
X281108566Y-101180800D01*
X281108566Y-101180800D02*
X281241900Y-101214133D01*
X281241900Y-101214133D02*
X281408566Y-101214133D01*
X281408566Y-101214133D02*
X281541900Y-101180800D01*
X281541900Y-101180800D02*
X281608566Y-101147466D01*
X281608566Y-101147466D02*
X281641900Y-101114133D01*
X281641900Y-101114133D02*
X281675233Y-101047466D01*
X281675233Y-101047466D02*
X281675233Y-100980800D01*
X281675233Y-100980800D02*
X281641900Y-100914133D01*
X281641900Y-100914133D02*
X281608566Y-100880800D01*
X281608566Y-100880800D02*
X281541900Y-100847466D01*
X281541900Y-100847466D02*
X281408566Y-100814133D01*
X281408566Y-100814133D02*
X281241900Y-100814133D01*
X281241900Y-100814133D02*
X281108566Y-100847466D01*
X281108566Y-100847466D02*
X281041900Y-100880800D01*
X281041900Y-100880800D02*
X281008566Y-100914133D01*
X281008566Y-100914133D02*
X280975233Y-100980800D01*
X280975233Y-101814133D02*
X280975233Y-101680800D01*
X280975233Y-101680800D02*
X281008566Y-101614133D01*
X281008566Y-101614133D02*
X281041900Y-101580800D01*
X281041900Y-101580800D02*
X281141900Y-101514133D01*
X281141900Y-101514133D02*
X281275233Y-101480800D01*
X281275233Y-101480800D02*
X281541900Y-101480800D01*
X281541900Y-101480800D02*
X281608566Y-101514133D01*
X281608566Y-101514133D02*
X281641900Y-101547467D01*
X281641900Y-101547467D02*
X281675233Y-101614133D01*
X281675233Y-101614133D02*
X281675233Y-101747467D01*
X281675233Y-101747467D02*
X281641900Y-101814133D01*
X281641900Y-101814133D02*
X281608566Y-101847467D01*
X281608566Y-101847467D02*
X281541900Y-101880800D01*
X281541900Y-101880800D02*
X281375233Y-101880800D01*
X281375233Y-101880800D02*
X281308566Y-101847467D01*
X281308566Y-101847467D02*
X281275233Y-101814133D01*
X281275233Y-101814133D02*
X281241900Y-101747467D01*
X281241900Y-101747467D02*
X281241900Y-101614133D01*
X281241900Y-101614133D02*
X281275233Y-101547467D01*
X281275233Y-101547467D02*
X281308566Y-101514133D01*
X281308566Y-101514133D02*
X281375233Y-101480800D01*
X281041900Y-102147467D02*
X281008566Y-102180800D01*
X281008566Y-102180800D02*
X280975233Y-102247467D01*
X280975233Y-102247467D02*
X280975233Y-102414134D01*
X280975233Y-102414134D02*
X281008566Y-102480800D01*
X281008566Y-102480800D02*
X281041900Y-102514134D01*
X281041900Y-102514134D02*
X281108566Y-102547467D01*
X281108566Y-102547467D02*
X281175233Y-102547467D01*
X281175233Y-102547467D02*
X281275233Y-102514134D01*
X281275233Y-102514134D02*
X281675233Y-102114134D01*
X281675233Y-102114134D02*
X281675233Y-102547467D01*
X282945233Y-97867466D02*
X282245233Y-97867466D01*
X282245233Y-97867466D02*
X282245233Y-98034133D01*
X282245233Y-98034133D02*
X282278566Y-98134133D01*
X282278566Y-98134133D02*
X282345233Y-98200800D01*
X282345233Y-98200800D02*
X282411900Y-98234133D01*
X282411900Y-98234133D02*
X282545233Y-98267466D01*
X282545233Y-98267466D02*
X282645233Y-98267466D01*
X282645233Y-98267466D02*
X282778566Y-98234133D01*
X282778566Y-98234133D02*
X282845233Y-98200800D01*
X282845233Y-98200800D02*
X282911900Y-98134133D01*
X282911900Y-98134133D02*
X282945233Y-98034133D01*
X282945233Y-98034133D02*
X282945233Y-97867466D01*
X282245233Y-98467466D02*
X282945233Y-98700800D01*
X282945233Y-98700800D02*
X282245233Y-98934133D01*
X282245233Y-99367466D02*
X282745233Y-99367466D01*
X282745233Y-99367466D02*
X282845233Y-99334133D01*
X282845233Y-99334133D02*
X282911900Y-99267466D01*
X282911900Y-99267466D02*
X282945233Y-99167466D01*
X282945233Y-99167466D02*
X282945233Y-99100800D01*
X282245233Y-100000799D02*
X282245233Y-99867466D01*
X282245233Y-99867466D02*
X282278566Y-99800799D01*
X282278566Y-99800799D02*
X282311900Y-99767466D01*
X282311900Y-99767466D02*
X282411900Y-99700799D01*
X282411900Y-99700799D02*
X282545233Y-99667466D01*
X282545233Y-99667466D02*
X282811900Y-99667466D01*
X282811900Y-99667466D02*
X282878566Y-99700799D01*
X282878566Y-99700799D02*
X282911900Y-99734133D01*
X282911900Y-99734133D02*
X282945233Y-99800799D01*
X282945233Y-99800799D02*
X282945233Y-99934133D01*
X282945233Y-99934133D02*
X282911900Y-100000799D01*
X282911900Y-100000799D02*
X282878566Y-100034133D01*
X282878566Y-100034133D02*
X282811900Y-100067466D01*
X282811900Y-100067466D02*
X282645233Y-100067466D01*
X282645233Y-100067466D02*
X282578566Y-100034133D01*
X282578566Y-100034133D02*
X282545233Y-100000799D01*
X282545233Y-100000799D02*
X282511900Y-99934133D01*
X282511900Y-99934133D02*
X282511900Y-99800799D01*
X282511900Y-99800799D02*
X282545233Y-99734133D01*
X282545233Y-99734133D02*
X282578566Y-99700799D01*
X282578566Y-99700799D02*
X282645233Y-99667466D01*
X282745233Y-100334133D02*
X282745233Y-100667466D01*
X282945233Y-100267466D02*
X282245233Y-100500800D01*
X282245233Y-100500800D02*
X282945233Y-100734133D01*
X292085209Y-93297056D02*
X292085209Y-93630389D01*
X292609019Y-93773246D02*
X292609019Y-93297056D01*
X292609019Y-93297056D02*
X291609019Y-93297056D01*
X291609019Y-93297056D02*
X291609019Y-93773246D01*
X291942352Y-94058961D02*
X291942352Y-94439913D01*
X291609019Y-94201818D02*
X292466161Y-94201818D01*
X292466161Y-94201818D02*
X292561400Y-94249437D01*
X292561400Y-94249437D02*
X292609019Y-94344675D01*
X292609019Y-94344675D02*
X292609019Y-94439913D01*
X292609019Y-94773247D02*
X291609019Y-94773247D01*
X292609019Y-95201818D02*
X292085209Y-95201818D01*
X292085209Y-95201818D02*
X291989971Y-95154199D01*
X291989971Y-95154199D02*
X291942352Y-95058961D01*
X291942352Y-95058961D02*
X291942352Y-94916104D01*
X291942352Y-94916104D02*
X291989971Y-94820866D01*
X291989971Y-94820866D02*
X292037590Y-94773247D01*
X292561400Y-96058961D02*
X292609019Y-95963723D01*
X292609019Y-95963723D02*
X292609019Y-95773247D01*
X292609019Y-95773247D02*
X292561400Y-95678009D01*
X292561400Y-95678009D02*
X292466161Y-95630390D01*
X292466161Y-95630390D02*
X292085209Y-95630390D01*
X292085209Y-95630390D02*
X291989971Y-95678009D01*
X291989971Y-95678009D02*
X291942352Y-95773247D01*
X291942352Y-95773247D02*
X291942352Y-95963723D01*
X291942352Y-95963723D02*
X291989971Y-96058961D01*
X291989971Y-96058961D02*
X292085209Y-96106580D01*
X292085209Y-96106580D02*
X292180447Y-96106580D01*
X292180447Y-96106580D02*
X292275685Y-95630390D01*
X292609019Y-96535152D02*
X291942352Y-96535152D01*
X292132828Y-96535152D02*
X292037590Y-96582771D01*
X292037590Y-96582771D02*
X291989971Y-96630390D01*
X291989971Y-96630390D02*
X291942352Y-96725628D01*
X291942352Y-96725628D02*
X291942352Y-96820866D01*
X291942352Y-97154200D02*
X292609019Y-97154200D01*
X292037590Y-97154200D02*
X291989971Y-97201819D01*
X291989971Y-97201819D02*
X291942352Y-97297057D01*
X291942352Y-97297057D02*
X291942352Y-97439914D01*
X291942352Y-97439914D02*
X291989971Y-97535152D01*
X291989971Y-97535152D02*
X292085209Y-97582771D01*
X292085209Y-97582771D02*
X292609019Y-97582771D01*
X292561400Y-98439914D02*
X292609019Y-98344676D01*
X292609019Y-98344676D02*
X292609019Y-98154200D01*
X292609019Y-98154200D02*
X292561400Y-98058962D01*
X292561400Y-98058962D02*
X292466161Y-98011343D01*
X292466161Y-98011343D02*
X292085209Y-98011343D01*
X292085209Y-98011343D02*
X291989971Y-98058962D01*
X291989971Y-98058962D02*
X291942352Y-98154200D01*
X291942352Y-98154200D02*
X291942352Y-98344676D01*
X291942352Y-98344676D02*
X291989971Y-98439914D01*
X291989971Y-98439914D02*
X292085209Y-98487533D01*
X292085209Y-98487533D02*
X292180447Y-98487533D01*
X292180447Y-98487533D02*
X292275685Y-98011343D01*
X291942352Y-98773248D02*
X291942352Y-99154200D01*
X291609019Y-98916105D02*
X292466161Y-98916105D01*
X292466161Y-98916105D02*
X292561400Y-98963724D01*
X292561400Y-98963724D02*
X292609019Y-99058962D01*
X292609019Y-99058962D02*
X292609019Y-99154200D01*
X259078247Y-99885619D02*
X259078247Y-98885619D01*
X259078247Y-98885619D02*
X258744914Y-99599904D01*
X258744914Y-99599904D02*
X258411581Y-98885619D01*
X258411581Y-98885619D02*
X258411581Y-99885619D01*
X257935390Y-99885619D02*
X257935390Y-99218952D01*
X257935390Y-98885619D02*
X257983009Y-98933238D01*
X257983009Y-98933238D02*
X257935390Y-98980857D01*
X257935390Y-98980857D02*
X257887771Y-98933238D01*
X257887771Y-98933238D02*
X257935390Y-98885619D01*
X257935390Y-98885619D02*
X257935390Y-98980857D01*
X257030629Y-99838000D02*
X257125867Y-99885619D01*
X257125867Y-99885619D02*
X257316343Y-99885619D01*
X257316343Y-99885619D02*
X257411581Y-99838000D01*
X257411581Y-99838000D02*
X257459200Y-99790380D01*
X257459200Y-99790380D02*
X257506819Y-99695142D01*
X257506819Y-99695142D02*
X257506819Y-99409428D01*
X257506819Y-99409428D02*
X257459200Y-99314190D01*
X257459200Y-99314190D02*
X257411581Y-99266571D01*
X257411581Y-99266571D02*
X257316343Y-99218952D01*
X257316343Y-99218952D02*
X257125867Y-99218952D01*
X257125867Y-99218952D02*
X257030629Y-99266571D01*
X256602057Y-99885619D02*
X256602057Y-99218952D01*
X256602057Y-99409428D02*
X256554438Y-99314190D01*
X256554438Y-99314190D02*
X256506819Y-99266571D01*
X256506819Y-99266571D02*
X256411581Y-99218952D01*
X256411581Y-99218952D02*
X256316343Y-99218952D01*
X255840152Y-99885619D02*
X255935390Y-99838000D01*
X255935390Y-99838000D02*
X255983009Y-99790380D01*
X255983009Y-99790380D02*
X256030628Y-99695142D01*
X256030628Y-99695142D02*
X256030628Y-99409428D01*
X256030628Y-99409428D02*
X255983009Y-99314190D01*
X255983009Y-99314190D02*
X255935390Y-99266571D01*
X255935390Y-99266571D02*
X255840152Y-99218952D01*
X255840152Y-99218952D02*
X255697295Y-99218952D01*
X255697295Y-99218952D02*
X255602057Y-99266571D01*
X255602057Y-99266571D02*
X255554438Y-99314190D01*
X255554438Y-99314190D02*
X255506819Y-99409428D01*
X255506819Y-99409428D02*
X255506819Y-99695142D01*
X255506819Y-99695142D02*
X255554438Y-99790380D01*
X255554438Y-99790380D02*
X255602057Y-99838000D01*
X255602057Y-99838000D02*
X255697295Y-99885619D01*
X255697295Y-99885619D02*
X255840152Y-99885619D01*
X254363961Y-99838000D02*
X254221104Y-99885619D01*
X254221104Y-99885619D02*
X253983009Y-99885619D01*
X253983009Y-99885619D02*
X253887771Y-99838000D01*
X253887771Y-99838000D02*
X253840152Y-99790380D01*
X253840152Y-99790380D02*
X253792533Y-99695142D01*
X253792533Y-99695142D02*
X253792533Y-99599904D01*
X253792533Y-99599904D02*
X253840152Y-99504666D01*
X253840152Y-99504666D02*
X253887771Y-99457047D01*
X253887771Y-99457047D02*
X253983009Y-99409428D01*
X253983009Y-99409428D02*
X254173485Y-99361809D01*
X254173485Y-99361809D02*
X254268723Y-99314190D01*
X254268723Y-99314190D02*
X254316342Y-99266571D01*
X254316342Y-99266571D02*
X254363961Y-99171333D01*
X254363961Y-99171333D02*
X254363961Y-99076095D01*
X254363961Y-99076095D02*
X254316342Y-98980857D01*
X254316342Y-98980857D02*
X254268723Y-98933238D01*
X254268723Y-98933238D02*
X254173485Y-98885619D01*
X254173485Y-98885619D02*
X253935390Y-98885619D01*
X253935390Y-98885619D02*
X253792533Y-98933238D01*
X253363961Y-99885619D02*
X253363961Y-98885619D01*
X253363961Y-98885619D02*
X253125866Y-98885619D01*
X253125866Y-98885619D02*
X252983009Y-98933238D01*
X252983009Y-98933238D02*
X252887771Y-99028476D01*
X252887771Y-99028476D02*
X252840152Y-99123714D01*
X252840152Y-99123714D02*
X252792533Y-99314190D01*
X252792533Y-99314190D02*
X252792533Y-99457047D01*
X252792533Y-99457047D02*
X252840152Y-99647523D01*
X252840152Y-99647523D02*
X252887771Y-99742761D01*
X252887771Y-99742761D02*
X252983009Y-99838000D01*
X252983009Y-99838000D02*
X253125866Y-99885619D01*
X253125866Y-99885619D02*
X253363961Y-99885619D01*
X166404285Y-109054819D02*
X166404285Y-108054819D01*
X166404285Y-108054819D02*
X166166190Y-108054819D01*
X166166190Y-108054819D02*
X166023333Y-108102438D01*
X166023333Y-108102438D02*
X165928095Y-108197676D01*
X165928095Y-108197676D02*
X165880476Y-108292914D01*
X165880476Y-108292914D02*
X165832857Y-108483390D01*
X165832857Y-108483390D02*
X165832857Y-108626247D01*
X165832857Y-108626247D02*
X165880476Y-108816723D01*
X165880476Y-108816723D02*
X165928095Y-108911961D01*
X165928095Y-108911961D02*
X166023333Y-109007200D01*
X166023333Y-109007200D02*
X166166190Y-109054819D01*
X166166190Y-109054819D02*
X166404285Y-109054819D01*
X164975714Y-108388152D02*
X164975714Y-109054819D01*
X165213809Y-108007200D02*
X165451904Y-108721485D01*
X165451904Y-108721485D02*
X164832857Y-108721485D01*
X164547142Y-108054819D02*
X163928095Y-108054819D01*
X163928095Y-108054819D02*
X164261428Y-108435771D01*
X164261428Y-108435771D02*
X164118571Y-108435771D01*
X164118571Y-108435771D02*
X164023333Y-108483390D01*
X164023333Y-108483390D02*
X163975714Y-108531009D01*
X163975714Y-108531009D02*
X163928095Y-108626247D01*
X163928095Y-108626247D02*
X163928095Y-108864342D01*
X163928095Y-108864342D02*
X163975714Y-108959580D01*
X163975714Y-108959580D02*
X164023333Y-109007200D01*
X164023333Y-109007200D02*
X164118571Y-109054819D01*
X164118571Y-109054819D02*
X164404285Y-109054819D01*
X164404285Y-109054819D02*
X164499523Y-109007200D01*
X164499523Y-109007200D02*
X164547142Y-108959580D01*
X169261904Y-109374819D02*
X169261904Y-108374819D01*
X168690476Y-109374819D02*
X169119047Y-108803390D01*
X168690476Y-108374819D02*
X169261904Y-108946247D01*
X65738094Y-209054819D02*
X65738094Y-208054819D01*
X65738094Y-208054819D02*
X65499999Y-208054819D01*
X65499999Y-208054819D02*
X65357142Y-208102438D01*
X65357142Y-208102438D02*
X65261904Y-208197676D01*
X65261904Y-208197676D02*
X65214285Y-208292914D01*
X65214285Y-208292914D02*
X65166666Y-208483390D01*
X65166666Y-208483390D02*
X65166666Y-208626247D01*
X65166666Y-208626247D02*
X65214285Y-208816723D01*
X65214285Y-208816723D02*
X65261904Y-208911961D01*
X65261904Y-208911961D02*
X65357142Y-209007200D01*
X65357142Y-209007200D02*
X65499999Y-209054819D01*
X65499999Y-209054819D02*
X65738094Y-209054819D01*
X64595237Y-208483390D02*
X64690475Y-208435771D01*
X64690475Y-208435771D02*
X64738094Y-208388152D01*
X64738094Y-208388152D02*
X64785713Y-208292914D01*
X64785713Y-208292914D02*
X64785713Y-208245295D01*
X64785713Y-208245295D02*
X64738094Y-208150057D01*
X64738094Y-208150057D02*
X64690475Y-208102438D01*
X64690475Y-208102438D02*
X64595237Y-208054819D01*
X64595237Y-208054819D02*
X64404761Y-208054819D01*
X64404761Y-208054819D02*
X64309523Y-208102438D01*
X64309523Y-208102438D02*
X64261904Y-208150057D01*
X64261904Y-208150057D02*
X64214285Y-208245295D01*
X64214285Y-208245295D02*
X64214285Y-208292914D01*
X64214285Y-208292914D02*
X64261904Y-208388152D01*
X64261904Y-208388152D02*
X64309523Y-208435771D01*
X64309523Y-208435771D02*
X64404761Y-208483390D01*
X64404761Y-208483390D02*
X64595237Y-208483390D01*
X64595237Y-208483390D02*
X64690475Y-208531009D01*
X64690475Y-208531009D02*
X64738094Y-208578628D01*
X64738094Y-208578628D02*
X64785713Y-208673866D01*
X64785713Y-208673866D02*
X64785713Y-208864342D01*
X64785713Y-208864342D02*
X64738094Y-208959580D01*
X64738094Y-208959580D02*
X64690475Y-209007200D01*
X64690475Y-209007200D02*
X64595237Y-209054819D01*
X64595237Y-209054819D02*
X64404761Y-209054819D01*
X64404761Y-209054819D02*
X64309523Y-209007200D01*
X64309523Y-209007200D02*
X64261904Y-208959580D01*
X64261904Y-208959580D02*
X64214285Y-208864342D01*
X64214285Y-208864342D02*
X64214285Y-208673866D01*
X64214285Y-208673866D02*
X64261904Y-208578628D01*
X64261904Y-208578628D02*
X64309523Y-208531009D01*
X64309523Y-208531009D02*
X64404761Y-208483390D01*
X69071904Y-209374819D02*
X69071904Y-208374819D01*
X68500476Y-209374819D02*
X68929047Y-208803390D01*
X68500476Y-208374819D02*
X69071904Y-208946247D01*
X146404285Y-209054819D02*
X146404285Y-208054819D01*
X146404285Y-208054819D02*
X146166190Y-208054819D01*
X146166190Y-208054819D02*
X146023333Y-208102438D01*
X146023333Y-208102438D02*
X145928095Y-208197676D01*
X145928095Y-208197676D02*
X145880476Y-208292914D01*
X145880476Y-208292914D02*
X145832857Y-208483390D01*
X145832857Y-208483390D02*
X145832857Y-208626247D01*
X145832857Y-208626247D02*
X145880476Y-208816723D01*
X145880476Y-208816723D02*
X145928095Y-208911961D01*
X145928095Y-208911961D02*
X146023333Y-209007200D01*
X146023333Y-209007200D02*
X146166190Y-209054819D01*
X146166190Y-209054819D02*
X146404285Y-209054819D01*
X144975714Y-208388152D02*
X144975714Y-209054819D01*
X145213809Y-208007200D02*
X145451904Y-208721485D01*
X145451904Y-208721485D02*
X144832857Y-208721485D01*
X144261428Y-208054819D02*
X144166190Y-208054819D01*
X144166190Y-208054819D02*
X144070952Y-208102438D01*
X144070952Y-208102438D02*
X144023333Y-208150057D01*
X144023333Y-208150057D02*
X143975714Y-208245295D01*
X143975714Y-208245295D02*
X143928095Y-208435771D01*
X143928095Y-208435771D02*
X143928095Y-208673866D01*
X143928095Y-208673866D02*
X143975714Y-208864342D01*
X143975714Y-208864342D02*
X144023333Y-208959580D01*
X144023333Y-208959580D02*
X144070952Y-209007200D01*
X144070952Y-209007200D02*
X144166190Y-209054819D01*
X144166190Y-209054819D02*
X144261428Y-209054819D01*
X144261428Y-209054819D02*
X144356666Y-209007200D01*
X144356666Y-209007200D02*
X144404285Y-208959580D01*
X144404285Y-208959580D02*
X144451904Y-208864342D01*
X144451904Y-208864342D02*
X144499523Y-208673866D01*
X144499523Y-208673866D02*
X144499523Y-208435771D01*
X144499523Y-208435771D02*
X144451904Y-208245295D01*
X144451904Y-208245295D02*
X144404285Y-208150057D01*
X144404285Y-208150057D02*
X144356666Y-208102438D01*
X144356666Y-208102438D02*
X144261428Y-208054819D01*
X149261904Y-209374819D02*
X149261904Y-208374819D01*
X148690476Y-209374819D02*
X149119047Y-208803390D01*
X148690476Y-208374819D02*
X149261904Y-208946247D01*
X146404285Y-169054819D02*
X146404285Y-168054819D01*
X146404285Y-168054819D02*
X146166190Y-168054819D01*
X146166190Y-168054819D02*
X146023333Y-168102438D01*
X146023333Y-168102438D02*
X145928095Y-168197676D01*
X145928095Y-168197676D02*
X145880476Y-168292914D01*
X145880476Y-168292914D02*
X145832857Y-168483390D01*
X145832857Y-168483390D02*
X145832857Y-168626247D01*
X145832857Y-168626247D02*
X145880476Y-168816723D01*
X145880476Y-168816723D02*
X145928095Y-168911961D01*
X145928095Y-168911961D02*
X146023333Y-169007200D01*
X146023333Y-169007200D02*
X146166190Y-169054819D01*
X146166190Y-169054819D02*
X146404285Y-169054819D01*
X145499523Y-168054819D02*
X144880476Y-168054819D01*
X144880476Y-168054819D02*
X145213809Y-168435771D01*
X145213809Y-168435771D02*
X145070952Y-168435771D01*
X145070952Y-168435771D02*
X144975714Y-168483390D01*
X144975714Y-168483390D02*
X144928095Y-168531009D01*
X144928095Y-168531009D02*
X144880476Y-168626247D01*
X144880476Y-168626247D02*
X144880476Y-168864342D01*
X144880476Y-168864342D02*
X144928095Y-168959580D01*
X144928095Y-168959580D02*
X144975714Y-169007200D01*
X144975714Y-169007200D02*
X145070952Y-169054819D01*
X145070952Y-169054819D02*
X145356666Y-169054819D01*
X145356666Y-169054819D02*
X145451904Y-169007200D01*
X145451904Y-169007200D02*
X145499523Y-168959580D01*
X144309047Y-168483390D02*
X144404285Y-168435771D01*
X144404285Y-168435771D02*
X144451904Y-168388152D01*
X144451904Y-168388152D02*
X144499523Y-168292914D01*
X144499523Y-168292914D02*
X144499523Y-168245295D01*
X144499523Y-168245295D02*
X144451904Y-168150057D01*
X144451904Y-168150057D02*
X144404285Y-168102438D01*
X144404285Y-168102438D02*
X144309047Y-168054819D01*
X144309047Y-168054819D02*
X144118571Y-168054819D01*
X144118571Y-168054819D02*
X144023333Y-168102438D01*
X144023333Y-168102438D02*
X143975714Y-168150057D01*
X143975714Y-168150057D02*
X143928095Y-168245295D01*
X143928095Y-168245295D02*
X143928095Y-168292914D01*
X143928095Y-168292914D02*
X143975714Y-168388152D01*
X143975714Y-168388152D02*
X144023333Y-168435771D01*
X144023333Y-168435771D02*
X144118571Y-168483390D01*
X144118571Y-168483390D02*
X144309047Y-168483390D01*
X144309047Y-168483390D02*
X144404285Y-168531009D01*
X144404285Y-168531009D02*
X144451904Y-168578628D01*
X144451904Y-168578628D02*
X144499523Y-168673866D01*
X144499523Y-168673866D02*
X144499523Y-168864342D01*
X144499523Y-168864342D02*
X144451904Y-168959580D01*
X144451904Y-168959580D02*
X144404285Y-169007200D01*
X144404285Y-169007200D02*
X144309047Y-169054819D01*
X144309047Y-169054819D02*
X144118571Y-169054819D01*
X144118571Y-169054819D02*
X144023333Y-169007200D01*
X144023333Y-169007200D02*
X143975714Y-168959580D01*
X143975714Y-168959580D02*
X143928095Y-168864342D01*
X143928095Y-168864342D02*
X143928095Y-168673866D01*
X143928095Y-168673866D02*
X143975714Y-168578628D01*
X143975714Y-168578628D02*
X144023333Y-168531009D01*
X144023333Y-168531009D02*
X144118571Y-168483390D01*
X149261904Y-169374819D02*
X149261904Y-168374819D01*
X148690476Y-169374819D02*
X149119047Y-168803390D01*
X148690476Y-168374819D02*
X149261904Y-168946247D01*
X166404285Y-169054819D02*
X166404285Y-168054819D01*
X166404285Y-168054819D02*
X166166190Y-168054819D01*
X166166190Y-168054819D02*
X166023333Y-168102438D01*
X166023333Y-168102438D02*
X165928095Y-168197676D01*
X165928095Y-168197676D02*
X165880476Y-168292914D01*
X165880476Y-168292914D02*
X165832857Y-168483390D01*
X165832857Y-168483390D02*
X165832857Y-168626247D01*
X165832857Y-168626247D02*
X165880476Y-168816723D01*
X165880476Y-168816723D02*
X165928095Y-168911961D01*
X165928095Y-168911961D02*
X166023333Y-169007200D01*
X166023333Y-169007200D02*
X166166190Y-169054819D01*
X166166190Y-169054819D02*
X166404285Y-169054819D01*
X164975714Y-168388152D02*
X164975714Y-169054819D01*
X165213809Y-168007200D02*
X165451904Y-168721485D01*
X165451904Y-168721485D02*
X164832857Y-168721485D01*
X164023333Y-168054819D02*
X164213809Y-168054819D01*
X164213809Y-168054819D02*
X164309047Y-168102438D01*
X164309047Y-168102438D02*
X164356666Y-168150057D01*
X164356666Y-168150057D02*
X164451904Y-168292914D01*
X164451904Y-168292914D02*
X164499523Y-168483390D01*
X164499523Y-168483390D02*
X164499523Y-168864342D01*
X164499523Y-168864342D02*
X164451904Y-168959580D01*
X164451904Y-168959580D02*
X164404285Y-169007200D01*
X164404285Y-169007200D02*
X164309047Y-169054819D01*
X164309047Y-169054819D02*
X164118571Y-169054819D01*
X164118571Y-169054819D02*
X164023333Y-169007200D01*
X164023333Y-169007200D02*
X163975714Y-168959580D01*
X163975714Y-168959580D02*
X163928095Y-168864342D01*
X163928095Y-168864342D02*
X163928095Y-168626247D01*
X163928095Y-168626247D02*
X163975714Y-168531009D01*
X163975714Y-168531009D02*
X164023333Y-168483390D01*
X164023333Y-168483390D02*
X164118571Y-168435771D01*
X164118571Y-168435771D02*
X164309047Y-168435771D01*
X164309047Y-168435771D02*
X164404285Y-168483390D01*
X164404285Y-168483390D02*
X164451904Y-168531009D01*
X164451904Y-168531009D02*
X164499523Y-168626247D01*
X169261904Y-169374819D02*
X169261904Y-168374819D01*
X168690476Y-169374819D02*
X169119047Y-168803390D01*
X168690476Y-168374819D02*
X169261904Y-168946247D01*
X146404285Y-89054819D02*
X146404285Y-88054819D01*
X146404285Y-88054819D02*
X146166190Y-88054819D01*
X146166190Y-88054819D02*
X146023333Y-88102438D01*
X146023333Y-88102438D02*
X145928095Y-88197676D01*
X145928095Y-88197676D02*
X145880476Y-88292914D01*
X145880476Y-88292914D02*
X145832857Y-88483390D01*
X145832857Y-88483390D02*
X145832857Y-88626247D01*
X145832857Y-88626247D02*
X145880476Y-88816723D01*
X145880476Y-88816723D02*
X145928095Y-88911961D01*
X145928095Y-88911961D02*
X146023333Y-89007200D01*
X146023333Y-89007200D02*
X146166190Y-89054819D01*
X146166190Y-89054819D02*
X146404285Y-89054819D01*
X145499523Y-88054819D02*
X144880476Y-88054819D01*
X144880476Y-88054819D02*
X145213809Y-88435771D01*
X145213809Y-88435771D02*
X145070952Y-88435771D01*
X145070952Y-88435771D02*
X144975714Y-88483390D01*
X144975714Y-88483390D02*
X144928095Y-88531009D01*
X144928095Y-88531009D02*
X144880476Y-88626247D01*
X144880476Y-88626247D02*
X144880476Y-88864342D01*
X144880476Y-88864342D02*
X144928095Y-88959580D01*
X144928095Y-88959580D02*
X144975714Y-89007200D01*
X144975714Y-89007200D02*
X145070952Y-89054819D01*
X145070952Y-89054819D02*
X145356666Y-89054819D01*
X145356666Y-89054819D02*
X145451904Y-89007200D01*
X145451904Y-89007200D02*
X145499523Y-88959580D01*
X144023333Y-88388152D02*
X144023333Y-89054819D01*
X144261428Y-88007200D02*
X144499523Y-88721485D01*
X144499523Y-88721485D02*
X143880476Y-88721485D01*
X149261904Y-89374819D02*
X149261904Y-88374819D01*
X148690476Y-89374819D02*
X149119047Y-88803390D01*
X148690476Y-88374819D02*
X149261904Y-88946247D01*
X106404285Y-69054819D02*
X106404285Y-68054819D01*
X106404285Y-68054819D02*
X106166190Y-68054819D01*
X106166190Y-68054819D02*
X106023333Y-68102438D01*
X106023333Y-68102438D02*
X105928095Y-68197676D01*
X105928095Y-68197676D02*
X105880476Y-68292914D01*
X105880476Y-68292914D02*
X105832857Y-68483390D01*
X105832857Y-68483390D02*
X105832857Y-68626247D01*
X105832857Y-68626247D02*
X105880476Y-68816723D01*
X105880476Y-68816723D02*
X105928095Y-68911961D01*
X105928095Y-68911961D02*
X106023333Y-69007200D01*
X106023333Y-69007200D02*
X106166190Y-69054819D01*
X106166190Y-69054819D02*
X106404285Y-69054819D01*
X104880476Y-69054819D02*
X105451904Y-69054819D01*
X105166190Y-69054819D02*
X105166190Y-68054819D01*
X105166190Y-68054819D02*
X105261428Y-68197676D01*
X105261428Y-68197676D02*
X105356666Y-68292914D01*
X105356666Y-68292914D02*
X105451904Y-68340533D01*
X104547142Y-68054819D02*
X103880476Y-68054819D01*
X103880476Y-68054819D02*
X104309047Y-69054819D01*
X109261904Y-69374819D02*
X109261904Y-68374819D01*
X108690476Y-69374819D02*
X109119047Y-68803390D01*
X108690476Y-68374819D02*
X109261904Y-68946247D01*
X166404285Y-89054819D02*
X166404285Y-88054819D01*
X166404285Y-88054819D02*
X166166190Y-88054819D01*
X166166190Y-88054819D02*
X166023333Y-88102438D01*
X166023333Y-88102438D02*
X165928095Y-88197676D01*
X165928095Y-88197676D02*
X165880476Y-88292914D01*
X165880476Y-88292914D02*
X165832857Y-88483390D01*
X165832857Y-88483390D02*
X165832857Y-88626247D01*
X165832857Y-88626247D02*
X165880476Y-88816723D01*
X165880476Y-88816723D02*
X165928095Y-88911961D01*
X165928095Y-88911961D02*
X166023333Y-89007200D01*
X166023333Y-89007200D02*
X166166190Y-89054819D01*
X166166190Y-89054819D02*
X166404285Y-89054819D01*
X164975714Y-88388152D02*
X164975714Y-89054819D01*
X165213809Y-88007200D02*
X165451904Y-88721485D01*
X165451904Y-88721485D02*
X164832857Y-88721485D01*
X164499523Y-88150057D02*
X164451904Y-88102438D01*
X164451904Y-88102438D02*
X164356666Y-88054819D01*
X164356666Y-88054819D02*
X164118571Y-88054819D01*
X164118571Y-88054819D02*
X164023333Y-88102438D01*
X164023333Y-88102438D02*
X163975714Y-88150057D01*
X163975714Y-88150057D02*
X163928095Y-88245295D01*
X163928095Y-88245295D02*
X163928095Y-88340533D01*
X163928095Y-88340533D02*
X163975714Y-88483390D01*
X163975714Y-88483390D02*
X164547142Y-89054819D01*
X164547142Y-89054819D02*
X163928095Y-89054819D01*
X169261904Y-89374819D02*
X169261904Y-88374819D01*
X168690476Y-89374819D02*
X169119047Y-88803390D01*
X168690476Y-88374819D02*
X169261904Y-88946247D01*
X126404285Y-129054819D02*
X126404285Y-128054819D01*
X126404285Y-128054819D02*
X126166190Y-128054819D01*
X126166190Y-128054819D02*
X126023333Y-128102438D01*
X126023333Y-128102438D02*
X125928095Y-128197676D01*
X125928095Y-128197676D02*
X125880476Y-128292914D01*
X125880476Y-128292914D02*
X125832857Y-128483390D01*
X125832857Y-128483390D02*
X125832857Y-128626247D01*
X125832857Y-128626247D02*
X125880476Y-128816723D01*
X125880476Y-128816723D02*
X125928095Y-128911961D01*
X125928095Y-128911961D02*
X126023333Y-129007200D01*
X126023333Y-129007200D02*
X126166190Y-129054819D01*
X126166190Y-129054819D02*
X126404285Y-129054819D01*
X125451904Y-128150057D02*
X125404285Y-128102438D01*
X125404285Y-128102438D02*
X125309047Y-128054819D01*
X125309047Y-128054819D02*
X125070952Y-128054819D01*
X125070952Y-128054819D02*
X124975714Y-128102438D01*
X124975714Y-128102438D02*
X124928095Y-128150057D01*
X124928095Y-128150057D02*
X124880476Y-128245295D01*
X124880476Y-128245295D02*
X124880476Y-128340533D01*
X124880476Y-128340533D02*
X124928095Y-128483390D01*
X124928095Y-128483390D02*
X125499523Y-129054819D01*
X125499523Y-129054819D02*
X124880476Y-129054819D01*
X124309047Y-128483390D02*
X124404285Y-128435771D01*
X124404285Y-128435771D02*
X124451904Y-128388152D01*
X124451904Y-128388152D02*
X124499523Y-128292914D01*
X124499523Y-128292914D02*
X124499523Y-128245295D01*
X124499523Y-128245295D02*
X124451904Y-128150057D01*
X124451904Y-128150057D02*
X124404285Y-128102438D01*
X124404285Y-128102438D02*
X124309047Y-128054819D01*
X124309047Y-128054819D02*
X124118571Y-128054819D01*
X124118571Y-128054819D02*
X124023333Y-128102438D01*
X124023333Y-128102438D02*
X123975714Y-128150057D01*
X123975714Y-128150057D02*
X123928095Y-128245295D01*
X123928095Y-128245295D02*
X123928095Y-128292914D01*
X123928095Y-128292914D02*
X123975714Y-128388152D01*
X123975714Y-128388152D02*
X124023333Y-128435771D01*
X124023333Y-128435771D02*
X124118571Y-128483390D01*
X124118571Y-128483390D02*
X124309047Y-128483390D01*
X124309047Y-128483390D02*
X124404285Y-128531009D01*
X124404285Y-128531009D02*
X124451904Y-128578628D01*
X124451904Y-128578628D02*
X124499523Y-128673866D01*
X124499523Y-128673866D02*
X124499523Y-128864342D01*
X124499523Y-128864342D02*
X124451904Y-128959580D01*
X124451904Y-128959580D02*
X124404285Y-129007200D01*
X124404285Y-129007200D02*
X124309047Y-129054819D01*
X124309047Y-129054819D02*
X124118571Y-129054819D01*
X124118571Y-129054819D02*
X124023333Y-129007200D01*
X124023333Y-129007200D02*
X123975714Y-128959580D01*
X123975714Y-128959580D02*
X123928095Y-128864342D01*
X123928095Y-128864342D02*
X123928095Y-128673866D01*
X123928095Y-128673866D02*
X123975714Y-128578628D01*
X123975714Y-128578628D02*
X124023333Y-128531009D01*
X124023333Y-128531009D02*
X124118571Y-128483390D01*
X129261904Y-129374819D02*
X129261904Y-128374819D01*
X128690476Y-129374819D02*
X129119047Y-128803390D01*
X128690476Y-128374819D02*
X129261904Y-128946247D01*
X206404285Y-209054819D02*
X206404285Y-208054819D01*
X206404285Y-208054819D02*
X206166190Y-208054819D01*
X206166190Y-208054819D02*
X206023333Y-208102438D01*
X206023333Y-208102438D02*
X205928095Y-208197676D01*
X205928095Y-208197676D02*
X205880476Y-208292914D01*
X205880476Y-208292914D02*
X205832857Y-208483390D01*
X205832857Y-208483390D02*
X205832857Y-208626247D01*
X205832857Y-208626247D02*
X205880476Y-208816723D01*
X205880476Y-208816723D02*
X205928095Y-208911961D01*
X205928095Y-208911961D02*
X206023333Y-209007200D01*
X206023333Y-209007200D02*
X206166190Y-209054819D01*
X206166190Y-209054819D02*
X206404285Y-209054819D01*
X204975714Y-208054819D02*
X205166190Y-208054819D01*
X205166190Y-208054819D02*
X205261428Y-208102438D01*
X205261428Y-208102438D02*
X205309047Y-208150057D01*
X205309047Y-208150057D02*
X205404285Y-208292914D01*
X205404285Y-208292914D02*
X205451904Y-208483390D01*
X205451904Y-208483390D02*
X205451904Y-208864342D01*
X205451904Y-208864342D02*
X205404285Y-208959580D01*
X205404285Y-208959580D02*
X205356666Y-209007200D01*
X205356666Y-209007200D02*
X205261428Y-209054819D01*
X205261428Y-209054819D02*
X205070952Y-209054819D01*
X205070952Y-209054819D02*
X204975714Y-209007200D01*
X204975714Y-209007200D02*
X204928095Y-208959580D01*
X204928095Y-208959580D02*
X204880476Y-208864342D01*
X204880476Y-208864342D02*
X204880476Y-208626247D01*
X204880476Y-208626247D02*
X204928095Y-208531009D01*
X204928095Y-208531009D02*
X204975714Y-208483390D01*
X204975714Y-208483390D02*
X205070952Y-208435771D01*
X205070952Y-208435771D02*
X205261428Y-208435771D01*
X205261428Y-208435771D02*
X205356666Y-208483390D01*
X205356666Y-208483390D02*
X205404285Y-208531009D01*
X205404285Y-208531009D02*
X205451904Y-208626247D01*
X204023333Y-208388152D02*
X204023333Y-209054819D01*
X204261428Y-208007200D02*
X204499523Y-208721485D01*
X204499523Y-208721485D02*
X203880476Y-208721485D01*
X209261904Y-209374819D02*
X209261904Y-208374819D01*
X208690476Y-209374819D02*
X209119047Y-208803390D01*
X208690476Y-208374819D02*
X209261904Y-208946247D01*
X206404285Y-109054819D02*
X206404285Y-108054819D01*
X206404285Y-108054819D02*
X206166190Y-108054819D01*
X206166190Y-108054819D02*
X206023333Y-108102438D01*
X206023333Y-108102438D02*
X205928095Y-108197676D01*
X205928095Y-108197676D02*
X205880476Y-108292914D01*
X205880476Y-108292914D02*
X205832857Y-108483390D01*
X205832857Y-108483390D02*
X205832857Y-108626247D01*
X205832857Y-108626247D02*
X205880476Y-108816723D01*
X205880476Y-108816723D02*
X205928095Y-108911961D01*
X205928095Y-108911961D02*
X206023333Y-109007200D01*
X206023333Y-109007200D02*
X206166190Y-109054819D01*
X206166190Y-109054819D02*
X206404285Y-109054819D01*
X204928095Y-108054819D02*
X205404285Y-108054819D01*
X205404285Y-108054819D02*
X205451904Y-108531009D01*
X205451904Y-108531009D02*
X205404285Y-108483390D01*
X205404285Y-108483390D02*
X205309047Y-108435771D01*
X205309047Y-108435771D02*
X205070952Y-108435771D01*
X205070952Y-108435771D02*
X204975714Y-108483390D01*
X204975714Y-108483390D02*
X204928095Y-108531009D01*
X204928095Y-108531009D02*
X204880476Y-108626247D01*
X204880476Y-108626247D02*
X204880476Y-108864342D01*
X204880476Y-108864342D02*
X204928095Y-108959580D01*
X204928095Y-108959580D02*
X204975714Y-109007200D01*
X204975714Y-109007200D02*
X205070952Y-109054819D01*
X205070952Y-109054819D02*
X205309047Y-109054819D01*
X205309047Y-109054819D02*
X205404285Y-109007200D01*
X205404285Y-109007200D02*
X205451904Y-108959580D01*
X204404285Y-109054819D02*
X204213809Y-109054819D01*
X204213809Y-109054819D02*
X204118571Y-109007200D01*
X204118571Y-109007200D02*
X204070952Y-108959580D01*
X204070952Y-108959580D02*
X203975714Y-108816723D01*
X203975714Y-108816723D02*
X203928095Y-108626247D01*
X203928095Y-108626247D02*
X203928095Y-108245295D01*
X203928095Y-108245295D02*
X203975714Y-108150057D01*
X203975714Y-108150057D02*
X204023333Y-108102438D01*
X204023333Y-108102438D02*
X204118571Y-108054819D01*
X204118571Y-108054819D02*
X204309047Y-108054819D01*
X204309047Y-108054819D02*
X204404285Y-108102438D01*
X204404285Y-108102438D02*
X204451904Y-108150057D01*
X204451904Y-108150057D02*
X204499523Y-108245295D01*
X204499523Y-108245295D02*
X204499523Y-108483390D01*
X204499523Y-108483390D02*
X204451904Y-108578628D01*
X204451904Y-108578628D02*
X204404285Y-108626247D01*
X204404285Y-108626247D02*
X204309047Y-108673866D01*
X204309047Y-108673866D02*
X204118571Y-108673866D01*
X204118571Y-108673866D02*
X204023333Y-108626247D01*
X204023333Y-108626247D02*
X203975714Y-108578628D01*
X203975714Y-108578628D02*
X203928095Y-108483390D01*
X209261904Y-109374819D02*
X209261904Y-108374819D01*
X208690476Y-109374819D02*
X209119047Y-108803390D01*
X208690476Y-108374819D02*
X209261904Y-108946247D01*
X126214285Y-69054819D02*
X126214285Y-68054819D01*
X126214285Y-68054819D02*
X125976190Y-68054819D01*
X125976190Y-68054819D02*
X125833333Y-68102438D01*
X125833333Y-68102438D02*
X125738095Y-68197676D01*
X125738095Y-68197676D02*
X125690476Y-68292914D01*
X125690476Y-68292914D02*
X125642857Y-68483390D01*
X125642857Y-68483390D02*
X125642857Y-68626247D01*
X125642857Y-68626247D02*
X125690476Y-68816723D01*
X125690476Y-68816723D02*
X125738095Y-68911961D01*
X125738095Y-68911961D02*
X125833333Y-69007200D01*
X125833333Y-69007200D02*
X125976190Y-69054819D01*
X125976190Y-69054819D02*
X126214285Y-69054819D01*
X125261904Y-68150057D02*
X125214285Y-68102438D01*
X125214285Y-68102438D02*
X125119047Y-68054819D01*
X125119047Y-68054819D02*
X124880952Y-68054819D01*
X124880952Y-68054819D02*
X124785714Y-68102438D01*
X124785714Y-68102438D02*
X124738095Y-68150057D01*
X124738095Y-68150057D02*
X124690476Y-68245295D01*
X124690476Y-68245295D02*
X124690476Y-68340533D01*
X124690476Y-68340533D02*
X124738095Y-68483390D01*
X124738095Y-68483390D02*
X125309523Y-69054819D01*
X125309523Y-69054819D02*
X124690476Y-69054819D01*
X123785714Y-68054819D02*
X124261904Y-68054819D01*
X124261904Y-68054819D02*
X124309523Y-68531009D01*
X124309523Y-68531009D02*
X124261904Y-68483390D01*
X124261904Y-68483390D02*
X124166666Y-68435771D01*
X124166666Y-68435771D02*
X123928571Y-68435771D01*
X123928571Y-68435771D02*
X123833333Y-68483390D01*
X123833333Y-68483390D02*
X123785714Y-68531009D01*
X123785714Y-68531009D02*
X123738095Y-68626247D01*
X123738095Y-68626247D02*
X123738095Y-68864342D01*
X123738095Y-68864342D02*
X123785714Y-68959580D01*
X123785714Y-68959580D02*
X123833333Y-69007200D01*
X123833333Y-69007200D02*
X123928571Y-69054819D01*
X123928571Y-69054819D02*
X124166666Y-69054819D01*
X124166666Y-69054819D02*
X124261904Y-69007200D01*
X124261904Y-69007200D02*
X124309523Y-68959580D01*
X129071904Y-69374819D02*
X129071904Y-68374819D01*
X128500476Y-69374819D02*
X128929047Y-68803390D01*
X128500476Y-68374819D02*
X129071904Y-68946247D01*
X85738094Y-69054819D02*
X85738094Y-68054819D01*
X85738094Y-68054819D02*
X85499999Y-68054819D01*
X85499999Y-68054819D02*
X85357142Y-68102438D01*
X85357142Y-68102438D02*
X85261904Y-68197676D01*
X85261904Y-68197676D02*
X85214285Y-68292914D01*
X85214285Y-68292914D02*
X85166666Y-68483390D01*
X85166666Y-68483390D02*
X85166666Y-68626247D01*
X85166666Y-68626247D02*
X85214285Y-68816723D01*
X85214285Y-68816723D02*
X85261904Y-68911961D01*
X85261904Y-68911961D02*
X85357142Y-69007200D01*
X85357142Y-69007200D02*
X85499999Y-69054819D01*
X85499999Y-69054819D02*
X85738094Y-69054819D01*
X84690475Y-69054819D02*
X84499999Y-69054819D01*
X84499999Y-69054819D02*
X84404761Y-69007200D01*
X84404761Y-69007200D02*
X84357142Y-68959580D01*
X84357142Y-68959580D02*
X84261904Y-68816723D01*
X84261904Y-68816723D02*
X84214285Y-68626247D01*
X84214285Y-68626247D02*
X84214285Y-68245295D01*
X84214285Y-68245295D02*
X84261904Y-68150057D01*
X84261904Y-68150057D02*
X84309523Y-68102438D01*
X84309523Y-68102438D02*
X84404761Y-68054819D01*
X84404761Y-68054819D02*
X84595237Y-68054819D01*
X84595237Y-68054819D02*
X84690475Y-68102438D01*
X84690475Y-68102438D02*
X84738094Y-68150057D01*
X84738094Y-68150057D02*
X84785713Y-68245295D01*
X84785713Y-68245295D02*
X84785713Y-68483390D01*
X84785713Y-68483390D02*
X84738094Y-68578628D01*
X84738094Y-68578628D02*
X84690475Y-68626247D01*
X84690475Y-68626247D02*
X84595237Y-68673866D01*
X84595237Y-68673866D02*
X84404761Y-68673866D01*
X84404761Y-68673866D02*
X84309523Y-68626247D01*
X84309523Y-68626247D02*
X84261904Y-68578628D01*
X84261904Y-68578628D02*
X84214285Y-68483390D01*
X89071904Y-69374819D02*
X89071904Y-68374819D01*
X88500476Y-69374819D02*
X88929047Y-68803390D01*
X88500476Y-68374819D02*
X89071904Y-68946247D01*
X146404285Y-149054819D02*
X146404285Y-148054819D01*
X146404285Y-148054819D02*
X146166190Y-148054819D01*
X146166190Y-148054819D02*
X146023333Y-148102438D01*
X146023333Y-148102438D02*
X145928095Y-148197676D01*
X145928095Y-148197676D02*
X145880476Y-148292914D01*
X145880476Y-148292914D02*
X145832857Y-148483390D01*
X145832857Y-148483390D02*
X145832857Y-148626247D01*
X145832857Y-148626247D02*
X145880476Y-148816723D01*
X145880476Y-148816723D02*
X145928095Y-148911961D01*
X145928095Y-148911961D02*
X146023333Y-149007200D01*
X146023333Y-149007200D02*
X146166190Y-149054819D01*
X146166190Y-149054819D02*
X146404285Y-149054819D01*
X145499523Y-148054819D02*
X144880476Y-148054819D01*
X144880476Y-148054819D02*
X145213809Y-148435771D01*
X145213809Y-148435771D02*
X145070952Y-148435771D01*
X145070952Y-148435771D02*
X144975714Y-148483390D01*
X144975714Y-148483390D02*
X144928095Y-148531009D01*
X144928095Y-148531009D02*
X144880476Y-148626247D01*
X144880476Y-148626247D02*
X144880476Y-148864342D01*
X144880476Y-148864342D02*
X144928095Y-148959580D01*
X144928095Y-148959580D02*
X144975714Y-149007200D01*
X144975714Y-149007200D02*
X145070952Y-149054819D01*
X145070952Y-149054819D02*
X145356666Y-149054819D01*
X145356666Y-149054819D02*
X145451904Y-149007200D01*
X145451904Y-149007200D02*
X145499523Y-148959580D01*
X144547142Y-148054819D02*
X143880476Y-148054819D01*
X143880476Y-148054819D02*
X144309047Y-149054819D01*
X149261904Y-149374819D02*
X149261904Y-148374819D01*
X148690476Y-149374819D02*
X149119047Y-148803390D01*
X148690476Y-148374819D02*
X149261904Y-148946247D01*
X106404285Y-89054819D02*
X106404285Y-88054819D01*
X106404285Y-88054819D02*
X106166190Y-88054819D01*
X106166190Y-88054819D02*
X106023333Y-88102438D01*
X106023333Y-88102438D02*
X105928095Y-88197676D01*
X105928095Y-88197676D02*
X105880476Y-88292914D01*
X105880476Y-88292914D02*
X105832857Y-88483390D01*
X105832857Y-88483390D02*
X105832857Y-88626247D01*
X105832857Y-88626247D02*
X105880476Y-88816723D01*
X105880476Y-88816723D02*
X105928095Y-88911961D01*
X105928095Y-88911961D02*
X106023333Y-89007200D01*
X106023333Y-89007200D02*
X106166190Y-89054819D01*
X106166190Y-89054819D02*
X106404285Y-89054819D01*
X104880476Y-89054819D02*
X105451904Y-89054819D01*
X105166190Y-89054819D02*
X105166190Y-88054819D01*
X105166190Y-88054819D02*
X105261428Y-88197676D01*
X105261428Y-88197676D02*
X105356666Y-88292914D01*
X105356666Y-88292914D02*
X105451904Y-88340533D01*
X104309047Y-88483390D02*
X104404285Y-88435771D01*
X104404285Y-88435771D02*
X104451904Y-88388152D01*
X104451904Y-88388152D02*
X104499523Y-88292914D01*
X104499523Y-88292914D02*
X104499523Y-88245295D01*
X104499523Y-88245295D02*
X104451904Y-88150057D01*
X104451904Y-88150057D02*
X104404285Y-88102438D01*
X104404285Y-88102438D02*
X104309047Y-88054819D01*
X104309047Y-88054819D02*
X104118571Y-88054819D01*
X104118571Y-88054819D02*
X104023333Y-88102438D01*
X104023333Y-88102438D02*
X103975714Y-88150057D01*
X103975714Y-88150057D02*
X103928095Y-88245295D01*
X103928095Y-88245295D02*
X103928095Y-88292914D01*
X103928095Y-88292914D02*
X103975714Y-88388152D01*
X103975714Y-88388152D02*
X104023333Y-88435771D01*
X104023333Y-88435771D02*
X104118571Y-88483390D01*
X104118571Y-88483390D02*
X104309047Y-88483390D01*
X104309047Y-88483390D02*
X104404285Y-88531009D01*
X104404285Y-88531009D02*
X104451904Y-88578628D01*
X104451904Y-88578628D02*
X104499523Y-88673866D01*
X104499523Y-88673866D02*
X104499523Y-88864342D01*
X104499523Y-88864342D02*
X104451904Y-88959580D01*
X104451904Y-88959580D02*
X104404285Y-89007200D01*
X104404285Y-89007200D02*
X104309047Y-89054819D01*
X104309047Y-89054819D02*
X104118571Y-89054819D01*
X104118571Y-89054819D02*
X104023333Y-89007200D01*
X104023333Y-89007200D02*
X103975714Y-88959580D01*
X103975714Y-88959580D02*
X103928095Y-88864342D01*
X103928095Y-88864342D02*
X103928095Y-88673866D01*
X103928095Y-88673866D02*
X103975714Y-88578628D01*
X103975714Y-88578628D02*
X104023333Y-88531009D01*
X104023333Y-88531009D02*
X104118571Y-88483390D01*
X109261904Y-89374819D02*
X109261904Y-88374819D01*
X108690476Y-89374819D02*
X109119047Y-88803390D01*
X108690476Y-88374819D02*
X109261904Y-88946247D01*
X186404285Y-69054819D02*
X186404285Y-68054819D01*
X186404285Y-68054819D02*
X186166190Y-68054819D01*
X186166190Y-68054819D02*
X186023333Y-68102438D01*
X186023333Y-68102438D02*
X185928095Y-68197676D01*
X185928095Y-68197676D02*
X185880476Y-68292914D01*
X185880476Y-68292914D02*
X185832857Y-68483390D01*
X185832857Y-68483390D02*
X185832857Y-68626247D01*
X185832857Y-68626247D02*
X185880476Y-68816723D01*
X185880476Y-68816723D02*
X185928095Y-68911961D01*
X185928095Y-68911961D02*
X186023333Y-69007200D01*
X186023333Y-69007200D02*
X186166190Y-69054819D01*
X186166190Y-69054819D02*
X186404285Y-69054819D01*
X184975714Y-68388152D02*
X184975714Y-69054819D01*
X185213809Y-68007200D02*
X185451904Y-68721485D01*
X185451904Y-68721485D02*
X184832857Y-68721485D01*
X184404285Y-69054819D02*
X184213809Y-69054819D01*
X184213809Y-69054819D02*
X184118571Y-69007200D01*
X184118571Y-69007200D02*
X184070952Y-68959580D01*
X184070952Y-68959580D02*
X183975714Y-68816723D01*
X183975714Y-68816723D02*
X183928095Y-68626247D01*
X183928095Y-68626247D02*
X183928095Y-68245295D01*
X183928095Y-68245295D02*
X183975714Y-68150057D01*
X183975714Y-68150057D02*
X184023333Y-68102438D01*
X184023333Y-68102438D02*
X184118571Y-68054819D01*
X184118571Y-68054819D02*
X184309047Y-68054819D01*
X184309047Y-68054819D02*
X184404285Y-68102438D01*
X184404285Y-68102438D02*
X184451904Y-68150057D01*
X184451904Y-68150057D02*
X184499523Y-68245295D01*
X184499523Y-68245295D02*
X184499523Y-68483390D01*
X184499523Y-68483390D02*
X184451904Y-68578628D01*
X184451904Y-68578628D02*
X184404285Y-68626247D01*
X184404285Y-68626247D02*
X184309047Y-68673866D01*
X184309047Y-68673866D02*
X184118571Y-68673866D01*
X184118571Y-68673866D02*
X184023333Y-68626247D01*
X184023333Y-68626247D02*
X183975714Y-68578628D01*
X183975714Y-68578628D02*
X183928095Y-68483390D01*
X189261904Y-69374819D02*
X189261904Y-68374819D01*
X188690476Y-69374819D02*
X189119047Y-68803390D01*
X188690476Y-68374819D02*
X189261904Y-68946247D01*
X65928094Y-89054819D02*
X65928094Y-88054819D01*
X65928094Y-88054819D02*
X65689999Y-88054819D01*
X65689999Y-88054819D02*
X65547142Y-88102438D01*
X65547142Y-88102438D02*
X65451904Y-88197676D01*
X65451904Y-88197676D02*
X65404285Y-88292914D01*
X65404285Y-88292914D02*
X65356666Y-88483390D01*
X65356666Y-88483390D02*
X65356666Y-88626247D01*
X65356666Y-88626247D02*
X65404285Y-88816723D01*
X65404285Y-88816723D02*
X65451904Y-88911961D01*
X65451904Y-88911961D02*
X65547142Y-89007200D01*
X65547142Y-89007200D02*
X65689999Y-89054819D01*
X65689999Y-89054819D02*
X65928094Y-89054819D01*
X64975713Y-88150057D02*
X64928094Y-88102438D01*
X64928094Y-88102438D02*
X64832856Y-88054819D01*
X64832856Y-88054819D02*
X64594761Y-88054819D01*
X64594761Y-88054819D02*
X64499523Y-88102438D01*
X64499523Y-88102438D02*
X64451904Y-88150057D01*
X64451904Y-88150057D02*
X64404285Y-88245295D01*
X64404285Y-88245295D02*
X64404285Y-88340533D01*
X64404285Y-88340533D02*
X64451904Y-88483390D01*
X64451904Y-88483390D02*
X65023332Y-89054819D01*
X65023332Y-89054819D02*
X64404285Y-89054819D01*
X69261904Y-89374819D02*
X69261904Y-88374819D01*
X68690476Y-89374819D02*
X69119047Y-88803390D01*
X68690476Y-88374819D02*
X69261904Y-88946247D01*
X86404285Y-149054819D02*
X86404285Y-148054819D01*
X86404285Y-148054819D02*
X86166190Y-148054819D01*
X86166190Y-148054819D02*
X86023333Y-148102438D01*
X86023333Y-148102438D02*
X85928095Y-148197676D01*
X85928095Y-148197676D02*
X85880476Y-148292914D01*
X85880476Y-148292914D02*
X85832857Y-148483390D01*
X85832857Y-148483390D02*
X85832857Y-148626247D01*
X85832857Y-148626247D02*
X85880476Y-148816723D01*
X85880476Y-148816723D02*
X85928095Y-148911961D01*
X85928095Y-148911961D02*
X86023333Y-149007200D01*
X86023333Y-149007200D02*
X86166190Y-149054819D01*
X86166190Y-149054819D02*
X86404285Y-149054819D01*
X84880476Y-149054819D02*
X85451904Y-149054819D01*
X85166190Y-149054819D02*
X85166190Y-148054819D01*
X85166190Y-148054819D02*
X85261428Y-148197676D01*
X85261428Y-148197676D02*
X85356666Y-148292914D01*
X85356666Y-148292914D02*
X85451904Y-148340533D01*
X84547142Y-148054819D02*
X83928095Y-148054819D01*
X83928095Y-148054819D02*
X84261428Y-148435771D01*
X84261428Y-148435771D02*
X84118571Y-148435771D01*
X84118571Y-148435771D02*
X84023333Y-148483390D01*
X84023333Y-148483390D02*
X83975714Y-148531009D01*
X83975714Y-148531009D02*
X83928095Y-148626247D01*
X83928095Y-148626247D02*
X83928095Y-148864342D01*
X83928095Y-148864342D02*
X83975714Y-148959580D01*
X83975714Y-148959580D02*
X84023333Y-149007200D01*
X84023333Y-149007200D02*
X84118571Y-149054819D01*
X84118571Y-149054819D02*
X84404285Y-149054819D01*
X84404285Y-149054819D02*
X84499523Y-149007200D01*
X84499523Y-149007200D02*
X84547142Y-148959580D01*
X89261904Y-149374819D02*
X89261904Y-148374819D01*
X88690476Y-149374819D02*
X89119047Y-148803390D01*
X88690476Y-148374819D02*
X89261904Y-148946247D01*
X146404285Y-189054819D02*
X146404285Y-188054819D01*
X146404285Y-188054819D02*
X146166190Y-188054819D01*
X146166190Y-188054819D02*
X146023333Y-188102438D01*
X146023333Y-188102438D02*
X145928095Y-188197676D01*
X145928095Y-188197676D02*
X145880476Y-188292914D01*
X145880476Y-188292914D02*
X145832857Y-188483390D01*
X145832857Y-188483390D02*
X145832857Y-188626247D01*
X145832857Y-188626247D02*
X145880476Y-188816723D01*
X145880476Y-188816723D02*
X145928095Y-188911961D01*
X145928095Y-188911961D02*
X146023333Y-189007200D01*
X146023333Y-189007200D02*
X146166190Y-189054819D01*
X146166190Y-189054819D02*
X146404285Y-189054819D01*
X145499523Y-188054819D02*
X144880476Y-188054819D01*
X144880476Y-188054819D02*
X145213809Y-188435771D01*
X145213809Y-188435771D02*
X145070952Y-188435771D01*
X145070952Y-188435771D02*
X144975714Y-188483390D01*
X144975714Y-188483390D02*
X144928095Y-188531009D01*
X144928095Y-188531009D02*
X144880476Y-188626247D01*
X144880476Y-188626247D02*
X144880476Y-188864342D01*
X144880476Y-188864342D02*
X144928095Y-188959580D01*
X144928095Y-188959580D02*
X144975714Y-189007200D01*
X144975714Y-189007200D02*
X145070952Y-189054819D01*
X145070952Y-189054819D02*
X145356666Y-189054819D01*
X145356666Y-189054819D02*
X145451904Y-189007200D01*
X145451904Y-189007200D02*
X145499523Y-188959580D01*
X144404285Y-189054819D02*
X144213809Y-189054819D01*
X144213809Y-189054819D02*
X144118571Y-189007200D01*
X144118571Y-189007200D02*
X144070952Y-188959580D01*
X144070952Y-188959580D02*
X143975714Y-188816723D01*
X143975714Y-188816723D02*
X143928095Y-188626247D01*
X143928095Y-188626247D02*
X143928095Y-188245295D01*
X143928095Y-188245295D02*
X143975714Y-188150057D01*
X143975714Y-188150057D02*
X144023333Y-188102438D01*
X144023333Y-188102438D02*
X144118571Y-188054819D01*
X144118571Y-188054819D02*
X144309047Y-188054819D01*
X144309047Y-188054819D02*
X144404285Y-188102438D01*
X144404285Y-188102438D02*
X144451904Y-188150057D01*
X144451904Y-188150057D02*
X144499523Y-188245295D01*
X144499523Y-188245295D02*
X144499523Y-188483390D01*
X144499523Y-188483390D02*
X144451904Y-188578628D01*
X144451904Y-188578628D02*
X144404285Y-188626247D01*
X144404285Y-188626247D02*
X144309047Y-188673866D01*
X144309047Y-188673866D02*
X144118571Y-188673866D01*
X144118571Y-188673866D02*
X144023333Y-188626247D01*
X144023333Y-188626247D02*
X143975714Y-188578628D01*
X143975714Y-188578628D02*
X143928095Y-188483390D01*
X149261904Y-189374819D02*
X149261904Y-188374819D01*
X148690476Y-189374819D02*
X149119047Y-188803390D01*
X148690476Y-188374819D02*
X149261904Y-188946247D01*
X106404285Y-169054819D02*
X106404285Y-168054819D01*
X106404285Y-168054819D02*
X106166190Y-168054819D01*
X106166190Y-168054819D02*
X106023333Y-168102438D01*
X106023333Y-168102438D02*
X105928095Y-168197676D01*
X105928095Y-168197676D02*
X105880476Y-168292914D01*
X105880476Y-168292914D02*
X105832857Y-168483390D01*
X105832857Y-168483390D02*
X105832857Y-168626247D01*
X105832857Y-168626247D02*
X105880476Y-168816723D01*
X105880476Y-168816723D02*
X105928095Y-168911961D01*
X105928095Y-168911961D02*
X106023333Y-169007200D01*
X106023333Y-169007200D02*
X106166190Y-169054819D01*
X106166190Y-169054819D02*
X106404285Y-169054819D01*
X105451904Y-168150057D02*
X105404285Y-168102438D01*
X105404285Y-168102438D02*
X105309047Y-168054819D01*
X105309047Y-168054819D02*
X105070952Y-168054819D01*
X105070952Y-168054819D02*
X104975714Y-168102438D01*
X104975714Y-168102438D02*
X104928095Y-168150057D01*
X104928095Y-168150057D02*
X104880476Y-168245295D01*
X104880476Y-168245295D02*
X104880476Y-168340533D01*
X104880476Y-168340533D02*
X104928095Y-168483390D01*
X104928095Y-168483390D02*
X105499523Y-169054819D01*
X105499523Y-169054819D02*
X104880476Y-169054819D01*
X104499523Y-168150057D02*
X104451904Y-168102438D01*
X104451904Y-168102438D02*
X104356666Y-168054819D01*
X104356666Y-168054819D02*
X104118571Y-168054819D01*
X104118571Y-168054819D02*
X104023333Y-168102438D01*
X104023333Y-168102438D02*
X103975714Y-168150057D01*
X103975714Y-168150057D02*
X103928095Y-168245295D01*
X103928095Y-168245295D02*
X103928095Y-168340533D01*
X103928095Y-168340533D02*
X103975714Y-168483390D01*
X103975714Y-168483390D02*
X104547142Y-169054819D01*
X104547142Y-169054819D02*
X103928095Y-169054819D01*
X109261904Y-169374819D02*
X109261904Y-168374819D01*
X108690476Y-169374819D02*
X109119047Y-168803390D01*
X108690476Y-168374819D02*
X109261904Y-168946247D01*
X186404285Y-129054819D02*
X186404285Y-128054819D01*
X186404285Y-128054819D02*
X186166190Y-128054819D01*
X186166190Y-128054819D02*
X186023333Y-128102438D01*
X186023333Y-128102438D02*
X185928095Y-128197676D01*
X185928095Y-128197676D02*
X185880476Y-128292914D01*
X185880476Y-128292914D02*
X185832857Y-128483390D01*
X185832857Y-128483390D02*
X185832857Y-128626247D01*
X185832857Y-128626247D02*
X185880476Y-128816723D01*
X185880476Y-128816723D02*
X185928095Y-128911961D01*
X185928095Y-128911961D02*
X186023333Y-129007200D01*
X186023333Y-129007200D02*
X186166190Y-129054819D01*
X186166190Y-129054819D02*
X186404285Y-129054819D01*
X184928095Y-128054819D02*
X185404285Y-128054819D01*
X185404285Y-128054819D02*
X185451904Y-128531009D01*
X185451904Y-128531009D02*
X185404285Y-128483390D01*
X185404285Y-128483390D02*
X185309047Y-128435771D01*
X185309047Y-128435771D02*
X185070952Y-128435771D01*
X185070952Y-128435771D02*
X184975714Y-128483390D01*
X184975714Y-128483390D02*
X184928095Y-128531009D01*
X184928095Y-128531009D02*
X184880476Y-128626247D01*
X184880476Y-128626247D02*
X184880476Y-128864342D01*
X184880476Y-128864342D02*
X184928095Y-128959580D01*
X184928095Y-128959580D02*
X184975714Y-129007200D01*
X184975714Y-129007200D02*
X185070952Y-129054819D01*
X185070952Y-129054819D02*
X185309047Y-129054819D01*
X185309047Y-129054819D02*
X185404285Y-129007200D01*
X185404285Y-129007200D02*
X185451904Y-128959580D01*
X184499523Y-128150057D02*
X184451904Y-128102438D01*
X184451904Y-128102438D02*
X184356666Y-128054819D01*
X184356666Y-128054819D02*
X184118571Y-128054819D01*
X184118571Y-128054819D02*
X184023333Y-128102438D01*
X184023333Y-128102438D02*
X183975714Y-128150057D01*
X183975714Y-128150057D02*
X183928095Y-128245295D01*
X183928095Y-128245295D02*
X183928095Y-128340533D01*
X183928095Y-128340533D02*
X183975714Y-128483390D01*
X183975714Y-128483390D02*
X184547142Y-129054819D01*
X184547142Y-129054819D02*
X183928095Y-129054819D01*
X189261904Y-129374819D02*
X189261904Y-128374819D01*
X188690476Y-129374819D02*
X189119047Y-128803390D01*
X188690476Y-128374819D02*
X189261904Y-128946247D01*
X65738094Y-69054819D02*
X65738094Y-68054819D01*
X65738094Y-68054819D02*
X65499999Y-68054819D01*
X65499999Y-68054819D02*
X65357142Y-68102438D01*
X65357142Y-68102438D02*
X65261904Y-68197676D01*
X65261904Y-68197676D02*
X65214285Y-68292914D01*
X65214285Y-68292914D02*
X65166666Y-68483390D01*
X65166666Y-68483390D02*
X65166666Y-68626247D01*
X65166666Y-68626247D02*
X65214285Y-68816723D01*
X65214285Y-68816723D02*
X65261904Y-68911961D01*
X65261904Y-68911961D02*
X65357142Y-69007200D01*
X65357142Y-69007200D02*
X65499999Y-69054819D01*
X65499999Y-69054819D02*
X65738094Y-69054819D01*
X64214285Y-69054819D02*
X64785713Y-69054819D01*
X64499999Y-69054819D02*
X64499999Y-68054819D01*
X64499999Y-68054819D02*
X64595237Y-68197676D01*
X64595237Y-68197676D02*
X64690475Y-68292914D01*
X64690475Y-68292914D02*
X64785713Y-68340533D01*
X69071904Y-69374819D02*
X69071904Y-68374819D01*
X68500476Y-69374819D02*
X68929047Y-68803390D01*
X68500476Y-68374819D02*
X69071904Y-68946247D01*
X146404285Y-129054819D02*
X146404285Y-128054819D01*
X146404285Y-128054819D02*
X146166190Y-128054819D01*
X146166190Y-128054819D02*
X146023333Y-128102438D01*
X146023333Y-128102438D02*
X145928095Y-128197676D01*
X145928095Y-128197676D02*
X145880476Y-128292914D01*
X145880476Y-128292914D02*
X145832857Y-128483390D01*
X145832857Y-128483390D02*
X145832857Y-128626247D01*
X145832857Y-128626247D02*
X145880476Y-128816723D01*
X145880476Y-128816723D02*
X145928095Y-128911961D01*
X145928095Y-128911961D02*
X146023333Y-129007200D01*
X146023333Y-129007200D02*
X146166190Y-129054819D01*
X146166190Y-129054819D02*
X146404285Y-129054819D01*
X145499523Y-128054819D02*
X144880476Y-128054819D01*
X144880476Y-128054819D02*
X145213809Y-128435771D01*
X145213809Y-128435771D02*
X145070952Y-128435771D01*
X145070952Y-128435771D02*
X144975714Y-128483390D01*
X144975714Y-128483390D02*
X144928095Y-128531009D01*
X144928095Y-128531009D02*
X144880476Y-128626247D01*
X144880476Y-128626247D02*
X144880476Y-128864342D01*
X144880476Y-128864342D02*
X144928095Y-128959580D01*
X144928095Y-128959580D02*
X144975714Y-129007200D01*
X144975714Y-129007200D02*
X145070952Y-129054819D01*
X145070952Y-129054819D02*
X145356666Y-129054819D01*
X145356666Y-129054819D02*
X145451904Y-129007200D01*
X145451904Y-129007200D02*
X145499523Y-128959580D01*
X144023333Y-128054819D02*
X144213809Y-128054819D01*
X144213809Y-128054819D02*
X144309047Y-128102438D01*
X144309047Y-128102438D02*
X144356666Y-128150057D01*
X144356666Y-128150057D02*
X144451904Y-128292914D01*
X144451904Y-128292914D02*
X144499523Y-128483390D01*
X144499523Y-128483390D02*
X144499523Y-128864342D01*
X144499523Y-128864342D02*
X144451904Y-128959580D01*
X144451904Y-128959580D02*
X144404285Y-129007200D01*
X144404285Y-129007200D02*
X144309047Y-129054819D01*
X144309047Y-129054819D02*
X144118571Y-129054819D01*
X144118571Y-129054819D02*
X144023333Y-129007200D01*
X144023333Y-129007200D02*
X143975714Y-128959580D01*
X143975714Y-128959580D02*
X143928095Y-128864342D01*
X143928095Y-128864342D02*
X143928095Y-128626247D01*
X143928095Y-128626247D02*
X143975714Y-128531009D01*
X143975714Y-128531009D02*
X144023333Y-128483390D01*
X144023333Y-128483390D02*
X144118571Y-128435771D01*
X144118571Y-128435771D02*
X144309047Y-128435771D01*
X144309047Y-128435771D02*
X144404285Y-128483390D01*
X144404285Y-128483390D02*
X144451904Y-128531009D01*
X144451904Y-128531009D02*
X144499523Y-128626247D01*
X149261904Y-129374819D02*
X149261904Y-128374819D01*
X148690476Y-129374819D02*
X149119047Y-128803390D01*
X148690476Y-128374819D02*
X149261904Y-128946247D01*
X186404285Y-149054819D02*
X186404285Y-148054819D01*
X186404285Y-148054819D02*
X186166190Y-148054819D01*
X186166190Y-148054819D02*
X186023333Y-148102438D01*
X186023333Y-148102438D02*
X185928095Y-148197676D01*
X185928095Y-148197676D02*
X185880476Y-148292914D01*
X185880476Y-148292914D02*
X185832857Y-148483390D01*
X185832857Y-148483390D02*
X185832857Y-148626247D01*
X185832857Y-148626247D02*
X185880476Y-148816723D01*
X185880476Y-148816723D02*
X185928095Y-148911961D01*
X185928095Y-148911961D02*
X186023333Y-149007200D01*
X186023333Y-149007200D02*
X186166190Y-149054819D01*
X186166190Y-149054819D02*
X186404285Y-149054819D01*
X184928095Y-148054819D02*
X185404285Y-148054819D01*
X185404285Y-148054819D02*
X185451904Y-148531009D01*
X185451904Y-148531009D02*
X185404285Y-148483390D01*
X185404285Y-148483390D02*
X185309047Y-148435771D01*
X185309047Y-148435771D02*
X185070952Y-148435771D01*
X185070952Y-148435771D02*
X184975714Y-148483390D01*
X184975714Y-148483390D02*
X184928095Y-148531009D01*
X184928095Y-148531009D02*
X184880476Y-148626247D01*
X184880476Y-148626247D02*
X184880476Y-148864342D01*
X184880476Y-148864342D02*
X184928095Y-148959580D01*
X184928095Y-148959580D02*
X184975714Y-149007200D01*
X184975714Y-149007200D02*
X185070952Y-149054819D01*
X185070952Y-149054819D02*
X185309047Y-149054819D01*
X185309047Y-149054819D02*
X185404285Y-149007200D01*
X185404285Y-149007200D02*
X185451904Y-148959580D01*
X184547142Y-148054819D02*
X183928095Y-148054819D01*
X183928095Y-148054819D02*
X184261428Y-148435771D01*
X184261428Y-148435771D02*
X184118571Y-148435771D01*
X184118571Y-148435771D02*
X184023333Y-148483390D01*
X184023333Y-148483390D02*
X183975714Y-148531009D01*
X183975714Y-148531009D02*
X183928095Y-148626247D01*
X183928095Y-148626247D02*
X183928095Y-148864342D01*
X183928095Y-148864342D02*
X183975714Y-148959580D01*
X183975714Y-148959580D02*
X184023333Y-149007200D01*
X184023333Y-149007200D02*
X184118571Y-149054819D01*
X184118571Y-149054819D02*
X184404285Y-149054819D01*
X184404285Y-149054819D02*
X184499523Y-149007200D01*
X184499523Y-149007200D02*
X184547142Y-148959580D01*
X189261904Y-149374819D02*
X189261904Y-148374819D01*
X188690476Y-149374819D02*
X189119047Y-148803390D01*
X188690476Y-148374819D02*
X189261904Y-148946247D01*
X126404285Y-149054819D02*
X126404285Y-148054819D01*
X126404285Y-148054819D02*
X126166190Y-148054819D01*
X126166190Y-148054819D02*
X126023333Y-148102438D01*
X126023333Y-148102438D02*
X125928095Y-148197676D01*
X125928095Y-148197676D02*
X125880476Y-148292914D01*
X125880476Y-148292914D02*
X125832857Y-148483390D01*
X125832857Y-148483390D02*
X125832857Y-148626247D01*
X125832857Y-148626247D02*
X125880476Y-148816723D01*
X125880476Y-148816723D02*
X125928095Y-148911961D01*
X125928095Y-148911961D02*
X126023333Y-149007200D01*
X126023333Y-149007200D02*
X126166190Y-149054819D01*
X126166190Y-149054819D02*
X126404285Y-149054819D01*
X125451904Y-148150057D02*
X125404285Y-148102438D01*
X125404285Y-148102438D02*
X125309047Y-148054819D01*
X125309047Y-148054819D02*
X125070952Y-148054819D01*
X125070952Y-148054819D02*
X124975714Y-148102438D01*
X124975714Y-148102438D02*
X124928095Y-148150057D01*
X124928095Y-148150057D02*
X124880476Y-148245295D01*
X124880476Y-148245295D02*
X124880476Y-148340533D01*
X124880476Y-148340533D02*
X124928095Y-148483390D01*
X124928095Y-148483390D02*
X125499523Y-149054819D01*
X125499523Y-149054819D02*
X124880476Y-149054819D01*
X124404285Y-149054819D02*
X124213809Y-149054819D01*
X124213809Y-149054819D02*
X124118571Y-149007200D01*
X124118571Y-149007200D02*
X124070952Y-148959580D01*
X124070952Y-148959580D02*
X123975714Y-148816723D01*
X123975714Y-148816723D02*
X123928095Y-148626247D01*
X123928095Y-148626247D02*
X123928095Y-148245295D01*
X123928095Y-148245295D02*
X123975714Y-148150057D01*
X123975714Y-148150057D02*
X124023333Y-148102438D01*
X124023333Y-148102438D02*
X124118571Y-148054819D01*
X124118571Y-148054819D02*
X124309047Y-148054819D01*
X124309047Y-148054819D02*
X124404285Y-148102438D01*
X124404285Y-148102438D02*
X124451904Y-148150057D01*
X124451904Y-148150057D02*
X124499523Y-148245295D01*
X124499523Y-148245295D02*
X124499523Y-148483390D01*
X124499523Y-148483390D02*
X124451904Y-148578628D01*
X124451904Y-148578628D02*
X124404285Y-148626247D01*
X124404285Y-148626247D02*
X124309047Y-148673866D01*
X124309047Y-148673866D02*
X124118571Y-148673866D01*
X124118571Y-148673866D02*
X124023333Y-148626247D01*
X124023333Y-148626247D02*
X123975714Y-148578628D01*
X123975714Y-148578628D02*
X123928095Y-148483390D01*
X129261904Y-149374819D02*
X129261904Y-148374819D01*
X128690476Y-149374819D02*
X129119047Y-148803390D01*
X128690476Y-148374819D02*
X129261904Y-148946247D01*
X206404285Y-189054819D02*
X206404285Y-188054819D01*
X206404285Y-188054819D02*
X206166190Y-188054819D01*
X206166190Y-188054819D02*
X206023333Y-188102438D01*
X206023333Y-188102438D02*
X205928095Y-188197676D01*
X205928095Y-188197676D02*
X205880476Y-188292914D01*
X205880476Y-188292914D02*
X205832857Y-188483390D01*
X205832857Y-188483390D02*
X205832857Y-188626247D01*
X205832857Y-188626247D02*
X205880476Y-188816723D01*
X205880476Y-188816723D02*
X205928095Y-188911961D01*
X205928095Y-188911961D02*
X206023333Y-189007200D01*
X206023333Y-189007200D02*
X206166190Y-189054819D01*
X206166190Y-189054819D02*
X206404285Y-189054819D01*
X204975714Y-188054819D02*
X205166190Y-188054819D01*
X205166190Y-188054819D02*
X205261428Y-188102438D01*
X205261428Y-188102438D02*
X205309047Y-188150057D01*
X205309047Y-188150057D02*
X205404285Y-188292914D01*
X205404285Y-188292914D02*
X205451904Y-188483390D01*
X205451904Y-188483390D02*
X205451904Y-188864342D01*
X205451904Y-188864342D02*
X205404285Y-188959580D01*
X205404285Y-188959580D02*
X205356666Y-189007200D01*
X205356666Y-189007200D02*
X205261428Y-189054819D01*
X205261428Y-189054819D02*
X205070952Y-189054819D01*
X205070952Y-189054819D02*
X204975714Y-189007200D01*
X204975714Y-189007200D02*
X204928095Y-188959580D01*
X204928095Y-188959580D02*
X204880476Y-188864342D01*
X204880476Y-188864342D02*
X204880476Y-188626247D01*
X204880476Y-188626247D02*
X204928095Y-188531009D01*
X204928095Y-188531009D02*
X204975714Y-188483390D01*
X204975714Y-188483390D02*
X205070952Y-188435771D01*
X205070952Y-188435771D02*
X205261428Y-188435771D01*
X205261428Y-188435771D02*
X205356666Y-188483390D01*
X205356666Y-188483390D02*
X205404285Y-188531009D01*
X205404285Y-188531009D02*
X205451904Y-188626247D01*
X204547142Y-188054819D02*
X203928095Y-188054819D01*
X203928095Y-188054819D02*
X204261428Y-188435771D01*
X204261428Y-188435771D02*
X204118571Y-188435771D01*
X204118571Y-188435771D02*
X204023333Y-188483390D01*
X204023333Y-188483390D02*
X203975714Y-188531009D01*
X203975714Y-188531009D02*
X203928095Y-188626247D01*
X203928095Y-188626247D02*
X203928095Y-188864342D01*
X203928095Y-188864342D02*
X203975714Y-188959580D01*
X203975714Y-188959580D02*
X204023333Y-189007200D01*
X204023333Y-189007200D02*
X204118571Y-189054819D01*
X204118571Y-189054819D02*
X204404285Y-189054819D01*
X204404285Y-189054819D02*
X204499523Y-189007200D01*
X204499523Y-189007200D02*
X204547142Y-188959580D01*
X209261904Y-189374819D02*
X209261904Y-188374819D01*
X208690476Y-189374819D02*
X209119047Y-188803390D01*
X208690476Y-188374819D02*
X209261904Y-188946247D01*
X166404285Y-209054819D02*
X166404285Y-208054819D01*
X166404285Y-208054819D02*
X166166190Y-208054819D01*
X166166190Y-208054819D02*
X166023333Y-208102438D01*
X166023333Y-208102438D02*
X165928095Y-208197676D01*
X165928095Y-208197676D02*
X165880476Y-208292914D01*
X165880476Y-208292914D02*
X165832857Y-208483390D01*
X165832857Y-208483390D02*
X165832857Y-208626247D01*
X165832857Y-208626247D02*
X165880476Y-208816723D01*
X165880476Y-208816723D02*
X165928095Y-208911961D01*
X165928095Y-208911961D02*
X166023333Y-209007200D01*
X166023333Y-209007200D02*
X166166190Y-209054819D01*
X166166190Y-209054819D02*
X166404285Y-209054819D01*
X164975714Y-208388152D02*
X164975714Y-209054819D01*
X165213809Y-208007200D02*
X165451904Y-208721485D01*
X165451904Y-208721485D02*
X164832857Y-208721485D01*
X164309047Y-208483390D02*
X164404285Y-208435771D01*
X164404285Y-208435771D02*
X164451904Y-208388152D01*
X164451904Y-208388152D02*
X164499523Y-208292914D01*
X164499523Y-208292914D02*
X164499523Y-208245295D01*
X164499523Y-208245295D02*
X164451904Y-208150057D01*
X164451904Y-208150057D02*
X164404285Y-208102438D01*
X164404285Y-208102438D02*
X164309047Y-208054819D01*
X164309047Y-208054819D02*
X164118571Y-208054819D01*
X164118571Y-208054819D02*
X164023333Y-208102438D01*
X164023333Y-208102438D02*
X163975714Y-208150057D01*
X163975714Y-208150057D02*
X163928095Y-208245295D01*
X163928095Y-208245295D02*
X163928095Y-208292914D01*
X163928095Y-208292914D02*
X163975714Y-208388152D01*
X163975714Y-208388152D02*
X164023333Y-208435771D01*
X164023333Y-208435771D02*
X164118571Y-208483390D01*
X164118571Y-208483390D02*
X164309047Y-208483390D01*
X164309047Y-208483390D02*
X164404285Y-208531009D01*
X164404285Y-208531009D02*
X164451904Y-208578628D01*
X164451904Y-208578628D02*
X164499523Y-208673866D01*
X164499523Y-208673866D02*
X164499523Y-208864342D01*
X164499523Y-208864342D02*
X164451904Y-208959580D01*
X164451904Y-208959580D02*
X164404285Y-209007200D01*
X164404285Y-209007200D02*
X164309047Y-209054819D01*
X164309047Y-209054819D02*
X164118571Y-209054819D01*
X164118571Y-209054819D02*
X164023333Y-209007200D01*
X164023333Y-209007200D02*
X163975714Y-208959580D01*
X163975714Y-208959580D02*
X163928095Y-208864342D01*
X163928095Y-208864342D02*
X163928095Y-208673866D01*
X163928095Y-208673866D02*
X163975714Y-208578628D01*
X163975714Y-208578628D02*
X164023333Y-208531009D01*
X164023333Y-208531009D02*
X164118571Y-208483390D01*
X169261904Y-209374819D02*
X169261904Y-208374819D01*
X168690476Y-209374819D02*
X169119047Y-208803390D01*
X168690476Y-208374819D02*
X169261904Y-208946247D01*
X86524285Y-129054819D02*
X86524285Y-128054819D01*
X86524285Y-128054819D02*
X86286190Y-128054819D01*
X86286190Y-128054819D02*
X86143333Y-128102438D01*
X86143333Y-128102438D02*
X86048095Y-128197676D01*
X86048095Y-128197676D02*
X86000476Y-128292914D01*
X86000476Y-128292914D02*
X85952857Y-128483390D01*
X85952857Y-128483390D02*
X85952857Y-128626247D01*
X85952857Y-128626247D02*
X86000476Y-128816723D01*
X86000476Y-128816723D02*
X86048095Y-128911961D01*
X86048095Y-128911961D02*
X86143333Y-129007200D01*
X86143333Y-129007200D02*
X86286190Y-129054819D01*
X86286190Y-129054819D02*
X86524285Y-129054819D01*
X85000476Y-129054819D02*
X85571904Y-129054819D01*
X85286190Y-129054819D02*
X85286190Y-128054819D01*
X85286190Y-128054819D02*
X85381428Y-128197676D01*
X85381428Y-128197676D02*
X85476666Y-128292914D01*
X85476666Y-128292914D02*
X85571904Y-128340533D01*
X84619523Y-128150057D02*
X84571904Y-128102438D01*
X84571904Y-128102438D02*
X84476666Y-128054819D01*
X84476666Y-128054819D02*
X84238571Y-128054819D01*
X84238571Y-128054819D02*
X84143333Y-128102438D01*
X84143333Y-128102438D02*
X84095714Y-128150057D01*
X84095714Y-128150057D02*
X84048095Y-128245295D01*
X84048095Y-128245295D02*
X84048095Y-128340533D01*
X84048095Y-128340533D02*
X84095714Y-128483390D01*
X84095714Y-128483390D02*
X84667142Y-129054819D01*
X84667142Y-129054819D02*
X84048095Y-129054819D01*
X89381904Y-129374819D02*
X89381904Y-128374819D01*
X88810476Y-129374819D02*
X89239047Y-128803390D01*
X88810476Y-128374819D02*
X89381904Y-128946247D01*
X126404285Y-209054819D02*
X126404285Y-208054819D01*
X126404285Y-208054819D02*
X126166190Y-208054819D01*
X126166190Y-208054819D02*
X126023333Y-208102438D01*
X126023333Y-208102438D02*
X125928095Y-208197676D01*
X125928095Y-208197676D02*
X125880476Y-208292914D01*
X125880476Y-208292914D02*
X125832857Y-208483390D01*
X125832857Y-208483390D02*
X125832857Y-208626247D01*
X125832857Y-208626247D02*
X125880476Y-208816723D01*
X125880476Y-208816723D02*
X125928095Y-208911961D01*
X125928095Y-208911961D02*
X126023333Y-209007200D01*
X126023333Y-209007200D02*
X126166190Y-209054819D01*
X126166190Y-209054819D02*
X126404285Y-209054819D01*
X125499523Y-208054819D02*
X124880476Y-208054819D01*
X124880476Y-208054819D02*
X125213809Y-208435771D01*
X125213809Y-208435771D02*
X125070952Y-208435771D01*
X125070952Y-208435771D02*
X124975714Y-208483390D01*
X124975714Y-208483390D02*
X124928095Y-208531009D01*
X124928095Y-208531009D02*
X124880476Y-208626247D01*
X124880476Y-208626247D02*
X124880476Y-208864342D01*
X124880476Y-208864342D02*
X124928095Y-208959580D01*
X124928095Y-208959580D02*
X124975714Y-209007200D01*
X124975714Y-209007200D02*
X125070952Y-209054819D01*
X125070952Y-209054819D02*
X125356666Y-209054819D01*
X125356666Y-209054819D02*
X125451904Y-209007200D01*
X125451904Y-209007200D02*
X125499523Y-208959580D01*
X124499523Y-208150057D02*
X124451904Y-208102438D01*
X124451904Y-208102438D02*
X124356666Y-208054819D01*
X124356666Y-208054819D02*
X124118571Y-208054819D01*
X124118571Y-208054819D02*
X124023333Y-208102438D01*
X124023333Y-208102438D02*
X123975714Y-208150057D01*
X123975714Y-208150057D02*
X123928095Y-208245295D01*
X123928095Y-208245295D02*
X123928095Y-208340533D01*
X123928095Y-208340533D02*
X123975714Y-208483390D01*
X123975714Y-208483390D02*
X124547142Y-209054819D01*
X124547142Y-209054819D02*
X123928095Y-209054819D01*
X129261904Y-209374819D02*
X129261904Y-208374819D01*
X128690476Y-209374819D02*
X129119047Y-208803390D01*
X128690476Y-208374819D02*
X129261904Y-208946247D01*
X86404285Y-189054819D02*
X86404285Y-188054819D01*
X86404285Y-188054819D02*
X86166190Y-188054819D01*
X86166190Y-188054819D02*
X86023333Y-188102438D01*
X86023333Y-188102438D02*
X85928095Y-188197676D01*
X85928095Y-188197676D02*
X85880476Y-188292914D01*
X85880476Y-188292914D02*
X85832857Y-188483390D01*
X85832857Y-188483390D02*
X85832857Y-188626247D01*
X85832857Y-188626247D02*
X85880476Y-188816723D01*
X85880476Y-188816723D02*
X85928095Y-188911961D01*
X85928095Y-188911961D02*
X86023333Y-189007200D01*
X86023333Y-189007200D02*
X86166190Y-189054819D01*
X86166190Y-189054819D02*
X86404285Y-189054819D01*
X84880476Y-189054819D02*
X85451904Y-189054819D01*
X85166190Y-189054819D02*
X85166190Y-188054819D01*
X85166190Y-188054819D02*
X85261428Y-188197676D01*
X85261428Y-188197676D02*
X85356666Y-188292914D01*
X85356666Y-188292914D02*
X85451904Y-188340533D01*
X83975714Y-188054819D02*
X84451904Y-188054819D01*
X84451904Y-188054819D02*
X84499523Y-188531009D01*
X84499523Y-188531009D02*
X84451904Y-188483390D01*
X84451904Y-188483390D02*
X84356666Y-188435771D01*
X84356666Y-188435771D02*
X84118571Y-188435771D01*
X84118571Y-188435771D02*
X84023333Y-188483390D01*
X84023333Y-188483390D02*
X83975714Y-188531009D01*
X83975714Y-188531009D02*
X83928095Y-188626247D01*
X83928095Y-188626247D02*
X83928095Y-188864342D01*
X83928095Y-188864342D02*
X83975714Y-188959580D01*
X83975714Y-188959580D02*
X84023333Y-189007200D01*
X84023333Y-189007200D02*
X84118571Y-189054819D01*
X84118571Y-189054819D02*
X84356666Y-189054819D01*
X84356666Y-189054819D02*
X84451904Y-189007200D01*
X84451904Y-189007200D02*
X84499523Y-188959580D01*
X89261904Y-189374819D02*
X89261904Y-188374819D01*
X88690476Y-189374819D02*
X89119047Y-188803390D01*
X88690476Y-188374819D02*
X89261904Y-188946247D01*
X186404285Y-109054819D02*
X186404285Y-108054819D01*
X186404285Y-108054819D02*
X186166190Y-108054819D01*
X186166190Y-108054819D02*
X186023333Y-108102438D01*
X186023333Y-108102438D02*
X185928095Y-108197676D01*
X185928095Y-108197676D02*
X185880476Y-108292914D01*
X185880476Y-108292914D02*
X185832857Y-108483390D01*
X185832857Y-108483390D02*
X185832857Y-108626247D01*
X185832857Y-108626247D02*
X185880476Y-108816723D01*
X185880476Y-108816723D02*
X185928095Y-108911961D01*
X185928095Y-108911961D02*
X186023333Y-109007200D01*
X186023333Y-109007200D02*
X186166190Y-109054819D01*
X186166190Y-109054819D02*
X186404285Y-109054819D01*
X184928095Y-108054819D02*
X185404285Y-108054819D01*
X185404285Y-108054819D02*
X185451904Y-108531009D01*
X185451904Y-108531009D02*
X185404285Y-108483390D01*
X185404285Y-108483390D02*
X185309047Y-108435771D01*
X185309047Y-108435771D02*
X185070952Y-108435771D01*
X185070952Y-108435771D02*
X184975714Y-108483390D01*
X184975714Y-108483390D02*
X184928095Y-108531009D01*
X184928095Y-108531009D02*
X184880476Y-108626247D01*
X184880476Y-108626247D02*
X184880476Y-108864342D01*
X184880476Y-108864342D02*
X184928095Y-108959580D01*
X184928095Y-108959580D02*
X184975714Y-109007200D01*
X184975714Y-109007200D02*
X185070952Y-109054819D01*
X185070952Y-109054819D02*
X185309047Y-109054819D01*
X185309047Y-109054819D02*
X185404285Y-109007200D01*
X185404285Y-109007200D02*
X185451904Y-108959580D01*
X183928095Y-109054819D02*
X184499523Y-109054819D01*
X184213809Y-109054819D02*
X184213809Y-108054819D01*
X184213809Y-108054819D02*
X184309047Y-108197676D01*
X184309047Y-108197676D02*
X184404285Y-108292914D01*
X184404285Y-108292914D02*
X184499523Y-108340533D01*
X189261904Y-109374819D02*
X189261904Y-108374819D01*
X188690476Y-109374819D02*
X189119047Y-108803390D01*
X188690476Y-108374819D02*
X189261904Y-108946247D01*
X166404285Y-69054819D02*
X166404285Y-68054819D01*
X166404285Y-68054819D02*
X166166190Y-68054819D01*
X166166190Y-68054819D02*
X166023333Y-68102438D01*
X166023333Y-68102438D02*
X165928095Y-68197676D01*
X165928095Y-68197676D02*
X165880476Y-68292914D01*
X165880476Y-68292914D02*
X165832857Y-68483390D01*
X165832857Y-68483390D02*
X165832857Y-68626247D01*
X165832857Y-68626247D02*
X165880476Y-68816723D01*
X165880476Y-68816723D02*
X165928095Y-68911961D01*
X165928095Y-68911961D02*
X166023333Y-69007200D01*
X166023333Y-69007200D02*
X166166190Y-69054819D01*
X166166190Y-69054819D02*
X166404285Y-69054819D01*
X164975714Y-68388152D02*
X164975714Y-69054819D01*
X165213809Y-68007200D02*
X165451904Y-68721485D01*
X165451904Y-68721485D02*
X164832857Y-68721485D01*
X163928095Y-69054819D02*
X164499523Y-69054819D01*
X164213809Y-69054819D02*
X164213809Y-68054819D01*
X164213809Y-68054819D02*
X164309047Y-68197676D01*
X164309047Y-68197676D02*
X164404285Y-68292914D01*
X164404285Y-68292914D02*
X164499523Y-68340533D01*
X169261904Y-69374819D02*
X169261904Y-68374819D01*
X168690476Y-69374819D02*
X169119047Y-68803390D01*
X168690476Y-68374819D02*
X169261904Y-68946247D01*
X166404285Y-149054819D02*
X166404285Y-148054819D01*
X166404285Y-148054819D02*
X166166190Y-148054819D01*
X166166190Y-148054819D02*
X166023333Y-148102438D01*
X166023333Y-148102438D02*
X165928095Y-148197676D01*
X165928095Y-148197676D02*
X165880476Y-148292914D01*
X165880476Y-148292914D02*
X165832857Y-148483390D01*
X165832857Y-148483390D02*
X165832857Y-148626247D01*
X165832857Y-148626247D02*
X165880476Y-148816723D01*
X165880476Y-148816723D02*
X165928095Y-148911961D01*
X165928095Y-148911961D02*
X166023333Y-149007200D01*
X166023333Y-149007200D02*
X166166190Y-149054819D01*
X166166190Y-149054819D02*
X166404285Y-149054819D01*
X164975714Y-148388152D02*
X164975714Y-149054819D01*
X165213809Y-148007200D02*
X165451904Y-148721485D01*
X165451904Y-148721485D02*
X164832857Y-148721485D01*
X163975714Y-148054819D02*
X164451904Y-148054819D01*
X164451904Y-148054819D02*
X164499523Y-148531009D01*
X164499523Y-148531009D02*
X164451904Y-148483390D01*
X164451904Y-148483390D02*
X164356666Y-148435771D01*
X164356666Y-148435771D02*
X164118571Y-148435771D01*
X164118571Y-148435771D02*
X164023333Y-148483390D01*
X164023333Y-148483390D02*
X163975714Y-148531009D01*
X163975714Y-148531009D02*
X163928095Y-148626247D01*
X163928095Y-148626247D02*
X163928095Y-148864342D01*
X163928095Y-148864342D02*
X163975714Y-148959580D01*
X163975714Y-148959580D02*
X164023333Y-149007200D01*
X164023333Y-149007200D02*
X164118571Y-149054819D01*
X164118571Y-149054819D02*
X164356666Y-149054819D01*
X164356666Y-149054819D02*
X164451904Y-149007200D01*
X164451904Y-149007200D02*
X164499523Y-148959580D01*
X169261904Y-149374819D02*
X169261904Y-148374819D01*
X168690476Y-149374819D02*
X169119047Y-148803390D01*
X168690476Y-148374819D02*
X169261904Y-148946247D01*
X65738094Y-149054819D02*
X65738094Y-148054819D01*
X65738094Y-148054819D02*
X65499999Y-148054819D01*
X65499999Y-148054819D02*
X65357142Y-148102438D01*
X65357142Y-148102438D02*
X65261904Y-148197676D01*
X65261904Y-148197676D02*
X65214285Y-148292914D01*
X65214285Y-148292914D02*
X65166666Y-148483390D01*
X65166666Y-148483390D02*
X65166666Y-148626247D01*
X65166666Y-148626247D02*
X65214285Y-148816723D01*
X65214285Y-148816723D02*
X65261904Y-148911961D01*
X65261904Y-148911961D02*
X65357142Y-149007200D01*
X65357142Y-149007200D02*
X65499999Y-149054819D01*
X65499999Y-149054819D02*
X65738094Y-149054819D01*
X64261904Y-148054819D02*
X64738094Y-148054819D01*
X64738094Y-148054819D02*
X64785713Y-148531009D01*
X64785713Y-148531009D02*
X64738094Y-148483390D01*
X64738094Y-148483390D02*
X64642856Y-148435771D01*
X64642856Y-148435771D02*
X64404761Y-148435771D01*
X64404761Y-148435771D02*
X64309523Y-148483390D01*
X64309523Y-148483390D02*
X64261904Y-148531009D01*
X64261904Y-148531009D02*
X64214285Y-148626247D01*
X64214285Y-148626247D02*
X64214285Y-148864342D01*
X64214285Y-148864342D02*
X64261904Y-148959580D01*
X64261904Y-148959580D02*
X64309523Y-149007200D01*
X64309523Y-149007200D02*
X64404761Y-149054819D01*
X64404761Y-149054819D02*
X64642856Y-149054819D01*
X64642856Y-149054819D02*
X64738094Y-149007200D01*
X64738094Y-149007200D02*
X64785713Y-148959580D01*
X69071904Y-149374819D02*
X69071904Y-148374819D01*
X68500476Y-149374819D02*
X68929047Y-148803390D01*
X68500476Y-148374819D02*
X69071904Y-148946247D01*
X106404285Y-129054819D02*
X106404285Y-128054819D01*
X106404285Y-128054819D02*
X106166190Y-128054819D01*
X106166190Y-128054819D02*
X106023333Y-128102438D01*
X106023333Y-128102438D02*
X105928095Y-128197676D01*
X105928095Y-128197676D02*
X105880476Y-128292914D01*
X105880476Y-128292914D02*
X105832857Y-128483390D01*
X105832857Y-128483390D02*
X105832857Y-128626247D01*
X105832857Y-128626247D02*
X105880476Y-128816723D01*
X105880476Y-128816723D02*
X105928095Y-128911961D01*
X105928095Y-128911961D02*
X106023333Y-129007200D01*
X106023333Y-129007200D02*
X106166190Y-129054819D01*
X106166190Y-129054819D02*
X106404285Y-129054819D01*
X105451904Y-128150057D02*
X105404285Y-128102438D01*
X105404285Y-128102438D02*
X105309047Y-128054819D01*
X105309047Y-128054819D02*
X105070952Y-128054819D01*
X105070952Y-128054819D02*
X104975714Y-128102438D01*
X104975714Y-128102438D02*
X104928095Y-128150057D01*
X104928095Y-128150057D02*
X104880476Y-128245295D01*
X104880476Y-128245295D02*
X104880476Y-128340533D01*
X104880476Y-128340533D02*
X104928095Y-128483390D01*
X104928095Y-128483390D02*
X105499523Y-129054819D01*
X105499523Y-129054819D02*
X104880476Y-129054819D01*
X104261428Y-128054819D02*
X104166190Y-128054819D01*
X104166190Y-128054819D02*
X104070952Y-128102438D01*
X104070952Y-128102438D02*
X104023333Y-128150057D01*
X104023333Y-128150057D02*
X103975714Y-128245295D01*
X103975714Y-128245295D02*
X103928095Y-128435771D01*
X103928095Y-128435771D02*
X103928095Y-128673866D01*
X103928095Y-128673866D02*
X103975714Y-128864342D01*
X103975714Y-128864342D02*
X104023333Y-128959580D01*
X104023333Y-128959580D02*
X104070952Y-129007200D01*
X104070952Y-129007200D02*
X104166190Y-129054819D01*
X104166190Y-129054819D02*
X104261428Y-129054819D01*
X104261428Y-129054819D02*
X104356666Y-129007200D01*
X104356666Y-129007200D02*
X104404285Y-128959580D01*
X104404285Y-128959580D02*
X104451904Y-128864342D01*
X104451904Y-128864342D02*
X104499523Y-128673866D01*
X104499523Y-128673866D02*
X104499523Y-128435771D01*
X104499523Y-128435771D02*
X104451904Y-128245295D01*
X104451904Y-128245295D02*
X104404285Y-128150057D01*
X104404285Y-128150057D02*
X104356666Y-128102438D01*
X104356666Y-128102438D02*
X104261428Y-128054819D01*
X109261904Y-129374819D02*
X109261904Y-128374819D01*
X108690476Y-129374819D02*
X109119047Y-128803390D01*
X108690476Y-128374819D02*
X109261904Y-128946247D01*
X186404285Y-189054819D02*
X186404285Y-188054819D01*
X186404285Y-188054819D02*
X186166190Y-188054819D01*
X186166190Y-188054819D02*
X186023333Y-188102438D01*
X186023333Y-188102438D02*
X185928095Y-188197676D01*
X185928095Y-188197676D02*
X185880476Y-188292914D01*
X185880476Y-188292914D02*
X185832857Y-188483390D01*
X185832857Y-188483390D02*
X185832857Y-188626247D01*
X185832857Y-188626247D02*
X185880476Y-188816723D01*
X185880476Y-188816723D02*
X185928095Y-188911961D01*
X185928095Y-188911961D02*
X186023333Y-189007200D01*
X186023333Y-189007200D02*
X186166190Y-189054819D01*
X186166190Y-189054819D02*
X186404285Y-189054819D01*
X184928095Y-188054819D02*
X185404285Y-188054819D01*
X185404285Y-188054819D02*
X185451904Y-188531009D01*
X185451904Y-188531009D02*
X185404285Y-188483390D01*
X185404285Y-188483390D02*
X185309047Y-188435771D01*
X185309047Y-188435771D02*
X185070952Y-188435771D01*
X185070952Y-188435771D02*
X184975714Y-188483390D01*
X184975714Y-188483390D02*
X184928095Y-188531009D01*
X184928095Y-188531009D02*
X184880476Y-188626247D01*
X184880476Y-188626247D02*
X184880476Y-188864342D01*
X184880476Y-188864342D02*
X184928095Y-188959580D01*
X184928095Y-188959580D02*
X184975714Y-189007200D01*
X184975714Y-189007200D02*
X185070952Y-189054819D01*
X185070952Y-189054819D02*
X185309047Y-189054819D01*
X185309047Y-189054819D02*
X185404285Y-189007200D01*
X185404285Y-189007200D02*
X185451904Y-188959580D01*
X183975714Y-188054819D02*
X184451904Y-188054819D01*
X184451904Y-188054819D02*
X184499523Y-188531009D01*
X184499523Y-188531009D02*
X184451904Y-188483390D01*
X184451904Y-188483390D02*
X184356666Y-188435771D01*
X184356666Y-188435771D02*
X184118571Y-188435771D01*
X184118571Y-188435771D02*
X184023333Y-188483390D01*
X184023333Y-188483390D02*
X183975714Y-188531009D01*
X183975714Y-188531009D02*
X183928095Y-188626247D01*
X183928095Y-188626247D02*
X183928095Y-188864342D01*
X183928095Y-188864342D02*
X183975714Y-188959580D01*
X183975714Y-188959580D02*
X184023333Y-189007200D01*
X184023333Y-189007200D02*
X184118571Y-189054819D01*
X184118571Y-189054819D02*
X184356666Y-189054819D01*
X184356666Y-189054819D02*
X184451904Y-189007200D01*
X184451904Y-189007200D02*
X184499523Y-188959580D01*
X189261904Y-189374819D02*
X189261904Y-188374819D01*
X188690476Y-189374819D02*
X189119047Y-188803390D01*
X188690476Y-188374819D02*
X189261904Y-188946247D01*
X206214285Y-89054819D02*
X206214285Y-88054819D01*
X206214285Y-88054819D02*
X205976190Y-88054819D01*
X205976190Y-88054819D02*
X205833333Y-88102438D01*
X205833333Y-88102438D02*
X205738095Y-88197676D01*
X205738095Y-88197676D02*
X205690476Y-88292914D01*
X205690476Y-88292914D02*
X205642857Y-88483390D01*
X205642857Y-88483390D02*
X205642857Y-88626247D01*
X205642857Y-88626247D02*
X205690476Y-88816723D01*
X205690476Y-88816723D02*
X205738095Y-88911961D01*
X205738095Y-88911961D02*
X205833333Y-89007200D01*
X205833333Y-89007200D02*
X205976190Y-89054819D01*
X205976190Y-89054819D02*
X206214285Y-89054819D01*
X204738095Y-88054819D02*
X205214285Y-88054819D01*
X205214285Y-88054819D02*
X205261904Y-88531009D01*
X205261904Y-88531009D02*
X205214285Y-88483390D01*
X205214285Y-88483390D02*
X205119047Y-88435771D01*
X205119047Y-88435771D02*
X204880952Y-88435771D01*
X204880952Y-88435771D02*
X204785714Y-88483390D01*
X204785714Y-88483390D02*
X204738095Y-88531009D01*
X204738095Y-88531009D02*
X204690476Y-88626247D01*
X204690476Y-88626247D02*
X204690476Y-88864342D01*
X204690476Y-88864342D02*
X204738095Y-88959580D01*
X204738095Y-88959580D02*
X204785714Y-89007200D01*
X204785714Y-89007200D02*
X204880952Y-89054819D01*
X204880952Y-89054819D02*
X205119047Y-89054819D01*
X205119047Y-89054819D02*
X205214285Y-89007200D01*
X205214285Y-89007200D02*
X205261904Y-88959580D01*
X204119047Y-88483390D02*
X204214285Y-88435771D01*
X204214285Y-88435771D02*
X204261904Y-88388152D01*
X204261904Y-88388152D02*
X204309523Y-88292914D01*
X204309523Y-88292914D02*
X204309523Y-88245295D01*
X204309523Y-88245295D02*
X204261904Y-88150057D01*
X204261904Y-88150057D02*
X204214285Y-88102438D01*
X204214285Y-88102438D02*
X204119047Y-88054819D01*
X204119047Y-88054819D02*
X203928571Y-88054819D01*
X203928571Y-88054819D02*
X203833333Y-88102438D01*
X203833333Y-88102438D02*
X203785714Y-88150057D01*
X203785714Y-88150057D02*
X203738095Y-88245295D01*
X203738095Y-88245295D02*
X203738095Y-88292914D01*
X203738095Y-88292914D02*
X203785714Y-88388152D01*
X203785714Y-88388152D02*
X203833333Y-88435771D01*
X203833333Y-88435771D02*
X203928571Y-88483390D01*
X203928571Y-88483390D02*
X204119047Y-88483390D01*
X204119047Y-88483390D02*
X204214285Y-88531009D01*
X204214285Y-88531009D02*
X204261904Y-88578628D01*
X204261904Y-88578628D02*
X204309523Y-88673866D01*
X204309523Y-88673866D02*
X204309523Y-88864342D01*
X204309523Y-88864342D02*
X204261904Y-88959580D01*
X204261904Y-88959580D02*
X204214285Y-89007200D01*
X204214285Y-89007200D02*
X204119047Y-89054819D01*
X204119047Y-89054819D02*
X203928571Y-89054819D01*
X203928571Y-89054819D02*
X203833333Y-89007200D01*
X203833333Y-89007200D02*
X203785714Y-88959580D01*
X203785714Y-88959580D02*
X203738095Y-88864342D01*
X203738095Y-88864342D02*
X203738095Y-88673866D01*
X203738095Y-88673866D02*
X203785714Y-88578628D01*
X203785714Y-88578628D02*
X203833333Y-88531009D01*
X203833333Y-88531009D02*
X203928571Y-88483390D01*
X209071904Y-89374819D02*
X209071904Y-88374819D01*
X208500476Y-89374819D02*
X208929047Y-88803390D01*
X208500476Y-88374819D02*
X209071904Y-88946247D01*
X186404285Y-169054819D02*
X186404285Y-168054819D01*
X186404285Y-168054819D02*
X186166190Y-168054819D01*
X186166190Y-168054819D02*
X186023333Y-168102438D01*
X186023333Y-168102438D02*
X185928095Y-168197676D01*
X185928095Y-168197676D02*
X185880476Y-168292914D01*
X185880476Y-168292914D02*
X185832857Y-168483390D01*
X185832857Y-168483390D02*
X185832857Y-168626247D01*
X185832857Y-168626247D02*
X185880476Y-168816723D01*
X185880476Y-168816723D02*
X185928095Y-168911961D01*
X185928095Y-168911961D02*
X186023333Y-169007200D01*
X186023333Y-169007200D02*
X186166190Y-169054819D01*
X186166190Y-169054819D02*
X186404285Y-169054819D01*
X184928095Y-168054819D02*
X185404285Y-168054819D01*
X185404285Y-168054819D02*
X185451904Y-168531009D01*
X185451904Y-168531009D02*
X185404285Y-168483390D01*
X185404285Y-168483390D02*
X185309047Y-168435771D01*
X185309047Y-168435771D02*
X185070952Y-168435771D01*
X185070952Y-168435771D02*
X184975714Y-168483390D01*
X184975714Y-168483390D02*
X184928095Y-168531009D01*
X184928095Y-168531009D02*
X184880476Y-168626247D01*
X184880476Y-168626247D02*
X184880476Y-168864342D01*
X184880476Y-168864342D02*
X184928095Y-168959580D01*
X184928095Y-168959580D02*
X184975714Y-169007200D01*
X184975714Y-169007200D02*
X185070952Y-169054819D01*
X185070952Y-169054819D02*
X185309047Y-169054819D01*
X185309047Y-169054819D02*
X185404285Y-169007200D01*
X185404285Y-169007200D02*
X185451904Y-168959580D01*
X184023333Y-168388152D02*
X184023333Y-169054819D01*
X184261428Y-168007200D02*
X184499523Y-168721485D01*
X184499523Y-168721485D02*
X183880476Y-168721485D01*
X189261904Y-169374819D02*
X189261904Y-168374819D01*
X188690476Y-169374819D02*
X189119047Y-168803390D01*
X188690476Y-168374819D02*
X189261904Y-168946247D01*
X86714285Y-209054819D02*
X86714285Y-208054819D01*
X86714285Y-208054819D02*
X86476190Y-208054819D01*
X86476190Y-208054819D02*
X86333333Y-208102438D01*
X86333333Y-208102438D02*
X86238095Y-208197676D01*
X86238095Y-208197676D02*
X86190476Y-208292914D01*
X86190476Y-208292914D02*
X86142857Y-208483390D01*
X86142857Y-208483390D02*
X86142857Y-208626247D01*
X86142857Y-208626247D02*
X86190476Y-208816723D01*
X86190476Y-208816723D02*
X86238095Y-208911961D01*
X86238095Y-208911961D02*
X86333333Y-209007200D01*
X86333333Y-209007200D02*
X86476190Y-209054819D01*
X86476190Y-209054819D02*
X86714285Y-209054819D01*
X85190476Y-209054819D02*
X85761904Y-209054819D01*
X85476190Y-209054819D02*
X85476190Y-208054819D01*
X85476190Y-208054819D02*
X85571428Y-208197676D01*
X85571428Y-208197676D02*
X85666666Y-208292914D01*
X85666666Y-208292914D02*
X85761904Y-208340533D01*
X84333333Y-208054819D02*
X84523809Y-208054819D01*
X84523809Y-208054819D02*
X84619047Y-208102438D01*
X84619047Y-208102438D02*
X84666666Y-208150057D01*
X84666666Y-208150057D02*
X84761904Y-208292914D01*
X84761904Y-208292914D02*
X84809523Y-208483390D01*
X84809523Y-208483390D02*
X84809523Y-208864342D01*
X84809523Y-208864342D02*
X84761904Y-208959580D01*
X84761904Y-208959580D02*
X84714285Y-209007200D01*
X84714285Y-209007200D02*
X84619047Y-209054819D01*
X84619047Y-209054819D02*
X84428571Y-209054819D01*
X84428571Y-209054819D02*
X84333333Y-209007200D01*
X84333333Y-209007200D02*
X84285714Y-208959580D01*
X84285714Y-208959580D02*
X84238095Y-208864342D01*
X84238095Y-208864342D02*
X84238095Y-208626247D01*
X84238095Y-208626247D02*
X84285714Y-208531009D01*
X84285714Y-208531009D02*
X84333333Y-208483390D01*
X84333333Y-208483390D02*
X84428571Y-208435771D01*
X84428571Y-208435771D02*
X84619047Y-208435771D01*
X84619047Y-208435771D02*
X84714285Y-208483390D01*
X84714285Y-208483390D02*
X84761904Y-208531009D01*
X84761904Y-208531009D02*
X84809523Y-208626247D01*
X89571904Y-209374819D02*
X89571904Y-208374819D01*
X89000476Y-209374819D02*
X89429047Y-208803390D01*
X89000476Y-208374819D02*
X89571904Y-208946247D01*
X86404285Y-169054819D02*
X86404285Y-168054819D01*
X86404285Y-168054819D02*
X86166190Y-168054819D01*
X86166190Y-168054819D02*
X86023333Y-168102438D01*
X86023333Y-168102438D02*
X85928095Y-168197676D01*
X85928095Y-168197676D02*
X85880476Y-168292914D01*
X85880476Y-168292914D02*
X85832857Y-168483390D01*
X85832857Y-168483390D02*
X85832857Y-168626247D01*
X85832857Y-168626247D02*
X85880476Y-168816723D01*
X85880476Y-168816723D02*
X85928095Y-168911961D01*
X85928095Y-168911961D02*
X86023333Y-169007200D01*
X86023333Y-169007200D02*
X86166190Y-169054819D01*
X86166190Y-169054819D02*
X86404285Y-169054819D01*
X84880476Y-169054819D02*
X85451904Y-169054819D01*
X85166190Y-169054819D02*
X85166190Y-168054819D01*
X85166190Y-168054819D02*
X85261428Y-168197676D01*
X85261428Y-168197676D02*
X85356666Y-168292914D01*
X85356666Y-168292914D02*
X85451904Y-168340533D01*
X84023333Y-168388152D02*
X84023333Y-169054819D01*
X84261428Y-168007200D02*
X84499523Y-168721485D01*
X84499523Y-168721485D02*
X83880476Y-168721485D01*
X89261904Y-169374819D02*
X89261904Y-168374819D01*
X88690476Y-169374819D02*
X89119047Y-168803390D01*
X88690476Y-168374819D02*
X89261904Y-168946247D01*
X186404285Y-209054819D02*
X186404285Y-208054819D01*
X186404285Y-208054819D02*
X186166190Y-208054819D01*
X186166190Y-208054819D02*
X186023333Y-208102438D01*
X186023333Y-208102438D02*
X185928095Y-208197676D01*
X185928095Y-208197676D02*
X185880476Y-208292914D01*
X185880476Y-208292914D02*
X185832857Y-208483390D01*
X185832857Y-208483390D02*
X185832857Y-208626247D01*
X185832857Y-208626247D02*
X185880476Y-208816723D01*
X185880476Y-208816723D02*
X185928095Y-208911961D01*
X185928095Y-208911961D02*
X186023333Y-209007200D01*
X186023333Y-209007200D02*
X186166190Y-209054819D01*
X186166190Y-209054819D02*
X186404285Y-209054819D01*
X184928095Y-208054819D02*
X185404285Y-208054819D01*
X185404285Y-208054819D02*
X185451904Y-208531009D01*
X185451904Y-208531009D02*
X185404285Y-208483390D01*
X185404285Y-208483390D02*
X185309047Y-208435771D01*
X185309047Y-208435771D02*
X185070952Y-208435771D01*
X185070952Y-208435771D02*
X184975714Y-208483390D01*
X184975714Y-208483390D02*
X184928095Y-208531009D01*
X184928095Y-208531009D02*
X184880476Y-208626247D01*
X184880476Y-208626247D02*
X184880476Y-208864342D01*
X184880476Y-208864342D02*
X184928095Y-208959580D01*
X184928095Y-208959580D02*
X184975714Y-209007200D01*
X184975714Y-209007200D02*
X185070952Y-209054819D01*
X185070952Y-209054819D02*
X185309047Y-209054819D01*
X185309047Y-209054819D02*
X185404285Y-209007200D01*
X185404285Y-209007200D02*
X185451904Y-208959580D01*
X184023333Y-208054819D02*
X184213809Y-208054819D01*
X184213809Y-208054819D02*
X184309047Y-208102438D01*
X184309047Y-208102438D02*
X184356666Y-208150057D01*
X184356666Y-208150057D02*
X184451904Y-208292914D01*
X184451904Y-208292914D02*
X184499523Y-208483390D01*
X184499523Y-208483390D02*
X184499523Y-208864342D01*
X184499523Y-208864342D02*
X184451904Y-208959580D01*
X184451904Y-208959580D02*
X184404285Y-209007200D01*
X184404285Y-209007200D02*
X184309047Y-209054819D01*
X184309047Y-209054819D02*
X184118571Y-209054819D01*
X184118571Y-209054819D02*
X184023333Y-209007200D01*
X184023333Y-209007200D02*
X183975714Y-208959580D01*
X183975714Y-208959580D02*
X183928095Y-208864342D01*
X183928095Y-208864342D02*
X183928095Y-208626247D01*
X183928095Y-208626247D02*
X183975714Y-208531009D01*
X183975714Y-208531009D02*
X184023333Y-208483390D01*
X184023333Y-208483390D02*
X184118571Y-208435771D01*
X184118571Y-208435771D02*
X184309047Y-208435771D01*
X184309047Y-208435771D02*
X184404285Y-208483390D01*
X184404285Y-208483390D02*
X184451904Y-208531009D01*
X184451904Y-208531009D02*
X184499523Y-208626247D01*
X189261904Y-209374819D02*
X189261904Y-208374819D01*
X188690476Y-209374819D02*
X189119047Y-208803390D01*
X188690476Y-208374819D02*
X189261904Y-208946247D01*
X206404285Y-149054819D02*
X206404285Y-148054819D01*
X206404285Y-148054819D02*
X206166190Y-148054819D01*
X206166190Y-148054819D02*
X206023333Y-148102438D01*
X206023333Y-148102438D02*
X205928095Y-148197676D01*
X205928095Y-148197676D02*
X205880476Y-148292914D01*
X205880476Y-148292914D02*
X205832857Y-148483390D01*
X205832857Y-148483390D02*
X205832857Y-148626247D01*
X205832857Y-148626247D02*
X205880476Y-148816723D01*
X205880476Y-148816723D02*
X205928095Y-148911961D01*
X205928095Y-148911961D02*
X206023333Y-149007200D01*
X206023333Y-149007200D02*
X206166190Y-149054819D01*
X206166190Y-149054819D02*
X206404285Y-149054819D01*
X204975714Y-148054819D02*
X205166190Y-148054819D01*
X205166190Y-148054819D02*
X205261428Y-148102438D01*
X205261428Y-148102438D02*
X205309047Y-148150057D01*
X205309047Y-148150057D02*
X205404285Y-148292914D01*
X205404285Y-148292914D02*
X205451904Y-148483390D01*
X205451904Y-148483390D02*
X205451904Y-148864342D01*
X205451904Y-148864342D02*
X205404285Y-148959580D01*
X205404285Y-148959580D02*
X205356666Y-149007200D01*
X205356666Y-149007200D02*
X205261428Y-149054819D01*
X205261428Y-149054819D02*
X205070952Y-149054819D01*
X205070952Y-149054819D02*
X204975714Y-149007200D01*
X204975714Y-149007200D02*
X204928095Y-148959580D01*
X204928095Y-148959580D02*
X204880476Y-148864342D01*
X204880476Y-148864342D02*
X204880476Y-148626247D01*
X204880476Y-148626247D02*
X204928095Y-148531009D01*
X204928095Y-148531009D02*
X204975714Y-148483390D01*
X204975714Y-148483390D02*
X205070952Y-148435771D01*
X205070952Y-148435771D02*
X205261428Y-148435771D01*
X205261428Y-148435771D02*
X205356666Y-148483390D01*
X205356666Y-148483390D02*
X205404285Y-148531009D01*
X205404285Y-148531009D02*
X205451904Y-148626247D01*
X203928095Y-149054819D02*
X204499523Y-149054819D01*
X204213809Y-149054819D02*
X204213809Y-148054819D01*
X204213809Y-148054819D02*
X204309047Y-148197676D01*
X204309047Y-148197676D02*
X204404285Y-148292914D01*
X204404285Y-148292914D02*
X204499523Y-148340533D01*
X209261904Y-149374819D02*
X209261904Y-148374819D01*
X208690476Y-149374819D02*
X209119047Y-148803390D01*
X208690476Y-148374819D02*
X209261904Y-148946247D01*
X106404285Y-149054819D02*
X106404285Y-148054819D01*
X106404285Y-148054819D02*
X106166190Y-148054819D01*
X106166190Y-148054819D02*
X106023333Y-148102438D01*
X106023333Y-148102438D02*
X105928095Y-148197676D01*
X105928095Y-148197676D02*
X105880476Y-148292914D01*
X105880476Y-148292914D02*
X105832857Y-148483390D01*
X105832857Y-148483390D02*
X105832857Y-148626247D01*
X105832857Y-148626247D02*
X105880476Y-148816723D01*
X105880476Y-148816723D02*
X105928095Y-148911961D01*
X105928095Y-148911961D02*
X106023333Y-149007200D01*
X106023333Y-149007200D02*
X106166190Y-149054819D01*
X106166190Y-149054819D02*
X106404285Y-149054819D01*
X105451904Y-148150057D02*
X105404285Y-148102438D01*
X105404285Y-148102438D02*
X105309047Y-148054819D01*
X105309047Y-148054819D02*
X105070952Y-148054819D01*
X105070952Y-148054819D02*
X104975714Y-148102438D01*
X104975714Y-148102438D02*
X104928095Y-148150057D01*
X104928095Y-148150057D02*
X104880476Y-148245295D01*
X104880476Y-148245295D02*
X104880476Y-148340533D01*
X104880476Y-148340533D02*
X104928095Y-148483390D01*
X104928095Y-148483390D02*
X105499523Y-149054819D01*
X105499523Y-149054819D02*
X104880476Y-149054819D01*
X103928095Y-149054819D02*
X104499523Y-149054819D01*
X104213809Y-149054819D02*
X104213809Y-148054819D01*
X104213809Y-148054819D02*
X104309047Y-148197676D01*
X104309047Y-148197676D02*
X104404285Y-148292914D01*
X104404285Y-148292914D02*
X104499523Y-148340533D01*
X109261904Y-149374819D02*
X109261904Y-148374819D01*
X108690476Y-149374819D02*
X109119047Y-148803390D01*
X108690476Y-148374819D02*
X109261904Y-148946247D01*
X126404285Y-189054819D02*
X126404285Y-188054819D01*
X126404285Y-188054819D02*
X126166190Y-188054819D01*
X126166190Y-188054819D02*
X126023333Y-188102438D01*
X126023333Y-188102438D02*
X125928095Y-188197676D01*
X125928095Y-188197676D02*
X125880476Y-188292914D01*
X125880476Y-188292914D02*
X125832857Y-188483390D01*
X125832857Y-188483390D02*
X125832857Y-188626247D01*
X125832857Y-188626247D02*
X125880476Y-188816723D01*
X125880476Y-188816723D02*
X125928095Y-188911961D01*
X125928095Y-188911961D02*
X126023333Y-189007200D01*
X126023333Y-189007200D02*
X126166190Y-189054819D01*
X126166190Y-189054819D02*
X126404285Y-189054819D01*
X125499523Y-188054819D02*
X124880476Y-188054819D01*
X124880476Y-188054819D02*
X125213809Y-188435771D01*
X125213809Y-188435771D02*
X125070952Y-188435771D01*
X125070952Y-188435771D02*
X124975714Y-188483390D01*
X124975714Y-188483390D02*
X124928095Y-188531009D01*
X124928095Y-188531009D02*
X124880476Y-188626247D01*
X124880476Y-188626247D02*
X124880476Y-188864342D01*
X124880476Y-188864342D02*
X124928095Y-188959580D01*
X124928095Y-188959580D02*
X124975714Y-189007200D01*
X124975714Y-189007200D02*
X125070952Y-189054819D01*
X125070952Y-189054819D02*
X125356666Y-189054819D01*
X125356666Y-189054819D02*
X125451904Y-189007200D01*
X125451904Y-189007200D02*
X125499523Y-188959580D01*
X123928095Y-189054819D02*
X124499523Y-189054819D01*
X124213809Y-189054819D02*
X124213809Y-188054819D01*
X124213809Y-188054819D02*
X124309047Y-188197676D01*
X124309047Y-188197676D02*
X124404285Y-188292914D01*
X124404285Y-188292914D02*
X124499523Y-188340533D01*
X129261904Y-189374819D02*
X129261904Y-188374819D01*
X128690476Y-189374819D02*
X129119047Y-188803390D01*
X128690476Y-188374819D02*
X129261904Y-188946247D01*
X126404285Y-169054819D02*
X126404285Y-168054819D01*
X126404285Y-168054819D02*
X126166190Y-168054819D01*
X126166190Y-168054819D02*
X126023333Y-168102438D01*
X126023333Y-168102438D02*
X125928095Y-168197676D01*
X125928095Y-168197676D02*
X125880476Y-168292914D01*
X125880476Y-168292914D02*
X125832857Y-168483390D01*
X125832857Y-168483390D02*
X125832857Y-168626247D01*
X125832857Y-168626247D02*
X125880476Y-168816723D01*
X125880476Y-168816723D02*
X125928095Y-168911961D01*
X125928095Y-168911961D02*
X126023333Y-169007200D01*
X126023333Y-169007200D02*
X126166190Y-169054819D01*
X126166190Y-169054819D02*
X126404285Y-169054819D01*
X125499523Y-168054819D02*
X124880476Y-168054819D01*
X124880476Y-168054819D02*
X125213809Y-168435771D01*
X125213809Y-168435771D02*
X125070952Y-168435771D01*
X125070952Y-168435771D02*
X124975714Y-168483390D01*
X124975714Y-168483390D02*
X124928095Y-168531009D01*
X124928095Y-168531009D02*
X124880476Y-168626247D01*
X124880476Y-168626247D02*
X124880476Y-168864342D01*
X124880476Y-168864342D02*
X124928095Y-168959580D01*
X124928095Y-168959580D02*
X124975714Y-169007200D01*
X124975714Y-169007200D02*
X125070952Y-169054819D01*
X125070952Y-169054819D02*
X125356666Y-169054819D01*
X125356666Y-169054819D02*
X125451904Y-169007200D01*
X125451904Y-169007200D02*
X125499523Y-168959580D01*
X124261428Y-168054819D02*
X124166190Y-168054819D01*
X124166190Y-168054819D02*
X124070952Y-168102438D01*
X124070952Y-168102438D02*
X124023333Y-168150057D01*
X124023333Y-168150057D02*
X123975714Y-168245295D01*
X123975714Y-168245295D02*
X123928095Y-168435771D01*
X123928095Y-168435771D02*
X123928095Y-168673866D01*
X123928095Y-168673866D02*
X123975714Y-168864342D01*
X123975714Y-168864342D02*
X124023333Y-168959580D01*
X124023333Y-168959580D02*
X124070952Y-169007200D01*
X124070952Y-169007200D02*
X124166190Y-169054819D01*
X124166190Y-169054819D02*
X124261428Y-169054819D01*
X124261428Y-169054819D02*
X124356666Y-169007200D01*
X124356666Y-169007200D02*
X124404285Y-168959580D01*
X124404285Y-168959580D02*
X124451904Y-168864342D01*
X124451904Y-168864342D02*
X124499523Y-168673866D01*
X124499523Y-168673866D02*
X124499523Y-168435771D01*
X124499523Y-168435771D02*
X124451904Y-168245295D01*
X124451904Y-168245295D02*
X124404285Y-168150057D01*
X124404285Y-168150057D02*
X124356666Y-168102438D01*
X124356666Y-168102438D02*
X124261428Y-168054819D01*
X129261904Y-169374819D02*
X129261904Y-168374819D01*
X128690476Y-169374819D02*
X129119047Y-168803390D01*
X128690476Y-168374819D02*
X129261904Y-168946247D01*
X65738094Y-129054819D02*
X65738094Y-128054819D01*
X65738094Y-128054819D02*
X65499999Y-128054819D01*
X65499999Y-128054819D02*
X65357142Y-128102438D01*
X65357142Y-128102438D02*
X65261904Y-128197676D01*
X65261904Y-128197676D02*
X65214285Y-128292914D01*
X65214285Y-128292914D02*
X65166666Y-128483390D01*
X65166666Y-128483390D02*
X65166666Y-128626247D01*
X65166666Y-128626247D02*
X65214285Y-128816723D01*
X65214285Y-128816723D02*
X65261904Y-128911961D01*
X65261904Y-128911961D02*
X65357142Y-129007200D01*
X65357142Y-129007200D02*
X65499999Y-129054819D01*
X65499999Y-129054819D02*
X65738094Y-129054819D01*
X64309523Y-128388152D02*
X64309523Y-129054819D01*
X64547618Y-128007200D02*
X64785713Y-128721485D01*
X64785713Y-128721485D02*
X64166666Y-128721485D01*
X69071904Y-129374819D02*
X69071904Y-128374819D01*
X68500476Y-129374819D02*
X68929047Y-128803390D01*
X68500476Y-128374819D02*
X69071904Y-128946247D01*
X106404285Y-109054819D02*
X106404285Y-108054819D01*
X106404285Y-108054819D02*
X106166190Y-108054819D01*
X106166190Y-108054819D02*
X106023333Y-108102438D01*
X106023333Y-108102438D02*
X105928095Y-108197676D01*
X105928095Y-108197676D02*
X105880476Y-108292914D01*
X105880476Y-108292914D02*
X105832857Y-108483390D01*
X105832857Y-108483390D02*
X105832857Y-108626247D01*
X105832857Y-108626247D02*
X105880476Y-108816723D01*
X105880476Y-108816723D02*
X105928095Y-108911961D01*
X105928095Y-108911961D02*
X106023333Y-109007200D01*
X106023333Y-109007200D02*
X106166190Y-109054819D01*
X106166190Y-109054819D02*
X106404285Y-109054819D01*
X104880476Y-109054819D02*
X105451904Y-109054819D01*
X105166190Y-109054819D02*
X105166190Y-108054819D01*
X105166190Y-108054819D02*
X105261428Y-108197676D01*
X105261428Y-108197676D02*
X105356666Y-108292914D01*
X105356666Y-108292914D02*
X105451904Y-108340533D01*
X104404285Y-109054819D02*
X104213809Y-109054819D01*
X104213809Y-109054819D02*
X104118571Y-109007200D01*
X104118571Y-109007200D02*
X104070952Y-108959580D01*
X104070952Y-108959580D02*
X103975714Y-108816723D01*
X103975714Y-108816723D02*
X103928095Y-108626247D01*
X103928095Y-108626247D02*
X103928095Y-108245295D01*
X103928095Y-108245295D02*
X103975714Y-108150057D01*
X103975714Y-108150057D02*
X104023333Y-108102438D01*
X104023333Y-108102438D02*
X104118571Y-108054819D01*
X104118571Y-108054819D02*
X104309047Y-108054819D01*
X104309047Y-108054819D02*
X104404285Y-108102438D01*
X104404285Y-108102438D02*
X104451904Y-108150057D01*
X104451904Y-108150057D02*
X104499523Y-108245295D01*
X104499523Y-108245295D02*
X104499523Y-108483390D01*
X104499523Y-108483390D02*
X104451904Y-108578628D01*
X104451904Y-108578628D02*
X104404285Y-108626247D01*
X104404285Y-108626247D02*
X104309047Y-108673866D01*
X104309047Y-108673866D02*
X104118571Y-108673866D01*
X104118571Y-108673866D02*
X104023333Y-108626247D01*
X104023333Y-108626247D02*
X103975714Y-108578628D01*
X103975714Y-108578628D02*
X103928095Y-108483390D01*
X109261904Y-109374819D02*
X109261904Y-108374819D01*
X108690476Y-109374819D02*
X109119047Y-108803390D01*
X108690476Y-108374819D02*
X109261904Y-108946247D01*
X86524285Y-89054819D02*
X86524285Y-88054819D01*
X86524285Y-88054819D02*
X86286190Y-88054819D01*
X86286190Y-88054819D02*
X86143333Y-88102438D01*
X86143333Y-88102438D02*
X86048095Y-88197676D01*
X86048095Y-88197676D02*
X86000476Y-88292914D01*
X86000476Y-88292914D02*
X85952857Y-88483390D01*
X85952857Y-88483390D02*
X85952857Y-88626247D01*
X85952857Y-88626247D02*
X86000476Y-88816723D01*
X86000476Y-88816723D02*
X86048095Y-88911961D01*
X86048095Y-88911961D02*
X86143333Y-89007200D01*
X86143333Y-89007200D02*
X86286190Y-89054819D01*
X86286190Y-89054819D02*
X86524285Y-89054819D01*
X85000476Y-89054819D02*
X85571904Y-89054819D01*
X85286190Y-89054819D02*
X85286190Y-88054819D01*
X85286190Y-88054819D02*
X85381428Y-88197676D01*
X85381428Y-88197676D02*
X85476666Y-88292914D01*
X85476666Y-88292914D02*
X85571904Y-88340533D01*
X84381428Y-88054819D02*
X84286190Y-88054819D01*
X84286190Y-88054819D02*
X84190952Y-88102438D01*
X84190952Y-88102438D02*
X84143333Y-88150057D01*
X84143333Y-88150057D02*
X84095714Y-88245295D01*
X84095714Y-88245295D02*
X84048095Y-88435771D01*
X84048095Y-88435771D02*
X84048095Y-88673866D01*
X84048095Y-88673866D02*
X84095714Y-88864342D01*
X84095714Y-88864342D02*
X84143333Y-88959580D01*
X84143333Y-88959580D02*
X84190952Y-89007200D01*
X84190952Y-89007200D02*
X84286190Y-89054819D01*
X84286190Y-89054819D02*
X84381428Y-89054819D01*
X84381428Y-89054819D02*
X84476666Y-89007200D01*
X84476666Y-89007200D02*
X84524285Y-88959580D01*
X84524285Y-88959580D02*
X84571904Y-88864342D01*
X84571904Y-88864342D02*
X84619523Y-88673866D01*
X84619523Y-88673866D02*
X84619523Y-88435771D01*
X84619523Y-88435771D02*
X84571904Y-88245295D01*
X84571904Y-88245295D02*
X84524285Y-88150057D01*
X84524285Y-88150057D02*
X84476666Y-88102438D01*
X84476666Y-88102438D02*
X84381428Y-88054819D01*
X89381904Y-89374819D02*
X89381904Y-88374819D01*
X88810476Y-89374819D02*
X89239047Y-88803390D01*
X88810476Y-88374819D02*
X89381904Y-88946247D01*
X206404285Y-69054819D02*
X206404285Y-68054819D01*
X206404285Y-68054819D02*
X206166190Y-68054819D01*
X206166190Y-68054819D02*
X206023333Y-68102438D01*
X206023333Y-68102438D02*
X205928095Y-68197676D01*
X205928095Y-68197676D02*
X205880476Y-68292914D01*
X205880476Y-68292914D02*
X205832857Y-68483390D01*
X205832857Y-68483390D02*
X205832857Y-68626247D01*
X205832857Y-68626247D02*
X205880476Y-68816723D01*
X205880476Y-68816723D02*
X205928095Y-68911961D01*
X205928095Y-68911961D02*
X206023333Y-69007200D01*
X206023333Y-69007200D02*
X206166190Y-69054819D01*
X206166190Y-69054819D02*
X206404285Y-69054819D01*
X204928095Y-68054819D02*
X205404285Y-68054819D01*
X205404285Y-68054819D02*
X205451904Y-68531009D01*
X205451904Y-68531009D02*
X205404285Y-68483390D01*
X205404285Y-68483390D02*
X205309047Y-68435771D01*
X205309047Y-68435771D02*
X205070952Y-68435771D01*
X205070952Y-68435771D02*
X204975714Y-68483390D01*
X204975714Y-68483390D02*
X204928095Y-68531009D01*
X204928095Y-68531009D02*
X204880476Y-68626247D01*
X204880476Y-68626247D02*
X204880476Y-68864342D01*
X204880476Y-68864342D02*
X204928095Y-68959580D01*
X204928095Y-68959580D02*
X204975714Y-69007200D01*
X204975714Y-69007200D02*
X205070952Y-69054819D01*
X205070952Y-69054819D02*
X205309047Y-69054819D01*
X205309047Y-69054819D02*
X205404285Y-69007200D01*
X205404285Y-69007200D02*
X205451904Y-68959580D01*
X204547142Y-68054819D02*
X203880476Y-68054819D01*
X203880476Y-68054819D02*
X204309047Y-69054819D01*
X209261904Y-69374819D02*
X209261904Y-68374819D01*
X208690476Y-69374819D02*
X209119047Y-68803390D01*
X208690476Y-68374819D02*
X209261904Y-68946247D01*
X65738094Y-189054819D02*
X65738094Y-188054819D01*
X65738094Y-188054819D02*
X65499999Y-188054819D01*
X65499999Y-188054819D02*
X65357142Y-188102438D01*
X65357142Y-188102438D02*
X65261904Y-188197676D01*
X65261904Y-188197676D02*
X65214285Y-188292914D01*
X65214285Y-188292914D02*
X65166666Y-188483390D01*
X65166666Y-188483390D02*
X65166666Y-188626247D01*
X65166666Y-188626247D02*
X65214285Y-188816723D01*
X65214285Y-188816723D02*
X65261904Y-188911961D01*
X65261904Y-188911961D02*
X65357142Y-189007200D01*
X65357142Y-189007200D02*
X65499999Y-189054819D01*
X65499999Y-189054819D02*
X65738094Y-189054819D01*
X64833332Y-188054819D02*
X64166666Y-188054819D01*
X64166666Y-188054819D02*
X64595237Y-189054819D01*
X69071904Y-189374819D02*
X69071904Y-188374819D01*
X68500476Y-189374819D02*
X68929047Y-188803390D01*
X68500476Y-188374819D02*
X69071904Y-188946247D01*
X166404285Y-129054819D02*
X166404285Y-128054819D01*
X166404285Y-128054819D02*
X166166190Y-128054819D01*
X166166190Y-128054819D02*
X166023333Y-128102438D01*
X166023333Y-128102438D02*
X165928095Y-128197676D01*
X165928095Y-128197676D02*
X165880476Y-128292914D01*
X165880476Y-128292914D02*
X165832857Y-128483390D01*
X165832857Y-128483390D02*
X165832857Y-128626247D01*
X165832857Y-128626247D02*
X165880476Y-128816723D01*
X165880476Y-128816723D02*
X165928095Y-128911961D01*
X165928095Y-128911961D02*
X166023333Y-129007200D01*
X166023333Y-129007200D02*
X166166190Y-129054819D01*
X166166190Y-129054819D02*
X166404285Y-129054819D01*
X164975714Y-128388152D02*
X164975714Y-129054819D01*
X165213809Y-128007200D02*
X165451904Y-128721485D01*
X165451904Y-128721485D02*
X164832857Y-128721485D01*
X164023333Y-128388152D02*
X164023333Y-129054819D01*
X164261428Y-128007200D02*
X164499523Y-128721485D01*
X164499523Y-128721485D02*
X163880476Y-128721485D01*
X169261904Y-129374819D02*
X169261904Y-128374819D01*
X168690476Y-129374819D02*
X169119047Y-128803390D01*
X168690476Y-128374819D02*
X169261904Y-128946247D01*
X65738094Y-109054819D02*
X65738094Y-108054819D01*
X65738094Y-108054819D02*
X65499999Y-108054819D01*
X65499999Y-108054819D02*
X65357142Y-108102438D01*
X65357142Y-108102438D02*
X65261904Y-108197676D01*
X65261904Y-108197676D02*
X65214285Y-108292914D01*
X65214285Y-108292914D02*
X65166666Y-108483390D01*
X65166666Y-108483390D02*
X65166666Y-108626247D01*
X65166666Y-108626247D02*
X65214285Y-108816723D01*
X65214285Y-108816723D02*
X65261904Y-108911961D01*
X65261904Y-108911961D02*
X65357142Y-109007200D01*
X65357142Y-109007200D02*
X65499999Y-109054819D01*
X65499999Y-109054819D02*
X65738094Y-109054819D01*
X64833332Y-108054819D02*
X64214285Y-108054819D01*
X64214285Y-108054819D02*
X64547618Y-108435771D01*
X64547618Y-108435771D02*
X64404761Y-108435771D01*
X64404761Y-108435771D02*
X64309523Y-108483390D01*
X64309523Y-108483390D02*
X64261904Y-108531009D01*
X64261904Y-108531009D02*
X64214285Y-108626247D01*
X64214285Y-108626247D02*
X64214285Y-108864342D01*
X64214285Y-108864342D02*
X64261904Y-108959580D01*
X64261904Y-108959580D02*
X64309523Y-109007200D01*
X64309523Y-109007200D02*
X64404761Y-109054819D01*
X64404761Y-109054819D02*
X64690475Y-109054819D01*
X64690475Y-109054819D02*
X64785713Y-109007200D01*
X64785713Y-109007200D02*
X64833332Y-108959580D01*
X69071904Y-109374819D02*
X69071904Y-108374819D01*
X68500476Y-109374819D02*
X68929047Y-108803390D01*
X68500476Y-108374819D02*
X69071904Y-108946247D01*
D11*
%TO.C,D62*%
X203070000Y-169600000D02*
X203070000Y-171840000D01*
X203070000Y-170720000D02*
X202420000Y-170720000D01*
X203070000Y-171840000D02*
X207310000Y-171840000D01*
X206470000Y-171840000D02*
X206470000Y-169600000D01*
X206590000Y-171840000D02*
X206590000Y-169600000D01*
X206710000Y-171840000D02*
X206710000Y-169600000D01*
X207310000Y-169600000D02*
X203070000Y-169600000D01*
X207310000Y-170720000D02*
X207960000Y-170720000D01*
X207310000Y-171840000D02*
X207310000Y-169600000D01*
%TO.C,D60*%
X203070000Y-129600000D02*
X203070000Y-131840000D01*
X203070000Y-130720000D02*
X202420000Y-130720000D01*
X203070000Y-131840000D02*
X207310000Y-131840000D01*
X206470000Y-131840000D02*
X206470000Y-129600000D01*
X206590000Y-131840000D02*
X206590000Y-129600000D01*
X206710000Y-131840000D02*
X206710000Y-129600000D01*
X207310000Y-129600000D02*
X203070000Y-129600000D01*
X207310000Y-130720000D02*
X207960000Y-130720000D01*
X207310000Y-131840000D02*
X207310000Y-129600000D01*
%TO.C,D35*%
X143070000Y-109600000D02*
X143070000Y-111840000D01*
X143070000Y-110720000D02*
X142420000Y-110720000D01*
X143070000Y-111840000D02*
X147310000Y-111840000D01*
X146470000Y-111840000D02*
X146470000Y-109600000D01*
X146590000Y-111840000D02*
X146590000Y-109600000D01*
X146710000Y-111840000D02*
X146710000Y-109600000D01*
X147310000Y-109600000D02*
X143070000Y-109600000D01*
X147310000Y-110720000D02*
X147960000Y-110720000D01*
X147310000Y-111840000D02*
X147310000Y-109600000D01*
%TO.C,D11*%
X83190000Y-109600000D02*
X83190000Y-111840000D01*
X83190000Y-110720000D02*
X82540000Y-110720000D01*
X83190000Y-111840000D02*
X87430000Y-111840000D01*
X86590000Y-111840000D02*
X86590000Y-109600000D01*
X86710000Y-111840000D02*
X86710000Y-109600000D01*
X86830000Y-111840000D02*
X86830000Y-109600000D01*
X87430000Y-109600000D02*
X83190000Y-109600000D01*
X87430000Y-110720000D02*
X88080000Y-110720000D01*
X87430000Y-111840000D02*
X87430000Y-109600000D01*
%TO.C,D26*%
X123070000Y-89600000D02*
X123070000Y-91840000D01*
X123070000Y-90720000D02*
X122420000Y-90720000D01*
X123070000Y-91840000D02*
X127310000Y-91840000D01*
X126470000Y-91840000D02*
X126470000Y-89600000D01*
X126590000Y-91840000D02*
X126590000Y-89600000D01*
X126710000Y-91840000D02*
X126710000Y-89600000D01*
X127310000Y-89600000D02*
X123070000Y-89600000D01*
X127310000Y-90720000D02*
X127960000Y-90720000D01*
X127310000Y-91840000D02*
X127310000Y-89600000D01*
%TO.C,D33*%
X143070000Y-69600000D02*
X143070000Y-71840000D01*
X143070000Y-70720000D02*
X142420000Y-70720000D01*
X143070000Y-71840000D02*
X147310000Y-71840000D01*
X146470000Y-71840000D02*
X146470000Y-69600000D01*
X146590000Y-71840000D02*
X146590000Y-69600000D01*
X146710000Y-71840000D02*
X146710000Y-69600000D01*
X147310000Y-69600000D02*
X143070000Y-69600000D01*
X147310000Y-70720000D02*
X147960000Y-70720000D01*
X147310000Y-71840000D02*
X147310000Y-69600000D01*
%TO.C,D23*%
X103070000Y-189600000D02*
X103070000Y-191840000D01*
X103070000Y-190720000D02*
X102420000Y-190720000D01*
X103070000Y-191840000D02*
X107310000Y-191840000D01*
X106470000Y-191840000D02*
X106470000Y-189600000D01*
X106590000Y-191840000D02*
X106590000Y-189600000D01*
X106710000Y-191840000D02*
X106710000Y-189600000D01*
X107310000Y-189600000D02*
X103070000Y-189600000D01*
X107310000Y-190720000D02*
X107960000Y-190720000D01*
X107310000Y-191840000D02*
X107310000Y-189600000D01*
%TO.C,R1*%
X294380000Y-154780000D02*
X294380000Y-158220000D01*
X294380000Y-156500000D02*
X293690000Y-156500000D01*
X294380000Y-158220000D02*
X303620000Y-158220000D01*
X303620000Y-154780000D02*
X294380000Y-154780000D01*
X303620000Y-156500000D02*
X304310000Y-156500000D01*
X303620000Y-158220000D02*
X303620000Y-154780000D01*
%TO.C,D6*%
X62880000Y-169600000D02*
X62880000Y-171840000D01*
X62880000Y-170720000D02*
X62230000Y-170720000D01*
X62880000Y-171840000D02*
X67120000Y-171840000D01*
X66280000Y-171840000D02*
X66280000Y-169600000D01*
X66400000Y-171840000D02*
X66400000Y-169600000D01*
X66520000Y-171840000D02*
X66520000Y-169600000D01*
X67120000Y-169600000D02*
X62880000Y-169600000D01*
X67120000Y-170720000D02*
X67770000Y-170720000D01*
X67120000Y-171840000D02*
X67120000Y-169600000D01*
%TO.C,D50*%
X183070000Y-89600000D02*
X183070000Y-91840000D01*
X183070000Y-90720000D02*
X182420000Y-90720000D01*
X183070000Y-91840000D02*
X187310000Y-91840000D01*
X186470000Y-91840000D02*
X186470000Y-89600000D01*
X186590000Y-91840000D02*
X186590000Y-89600000D01*
X186710000Y-91840000D02*
X186710000Y-89600000D01*
X187310000Y-89600000D02*
X183070000Y-89600000D01*
X187310000Y-90720000D02*
X187960000Y-90720000D01*
X187310000Y-91840000D02*
X187310000Y-89600000D01*
%TO.C,D27*%
X122880000Y-109600000D02*
X122880000Y-111840000D01*
X122880000Y-110720000D02*
X122230000Y-110720000D01*
X122880000Y-111840000D02*
X127120000Y-111840000D01*
X126280000Y-111840000D02*
X126280000Y-109600000D01*
X126400000Y-111840000D02*
X126400000Y-109600000D01*
X126520000Y-111840000D02*
X126520000Y-109600000D01*
X127120000Y-109600000D02*
X122880000Y-109600000D01*
X127120000Y-110720000D02*
X127770000Y-110720000D01*
X127120000Y-111840000D02*
X127120000Y-109600000D01*
%TO.C,D47*%
X163070000Y-189600000D02*
X163070000Y-191840000D01*
X163070000Y-190720000D02*
X162420000Y-190720000D01*
X163070000Y-191840000D02*
X167310000Y-191840000D01*
X166470000Y-191840000D02*
X166470000Y-189600000D01*
X166590000Y-191840000D02*
X166590000Y-189600000D01*
X166710000Y-191840000D02*
X166710000Y-189600000D01*
X167310000Y-189600000D02*
X163070000Y-189600000D01*
X167310000Y-190720000D02*
X167960000Y-190720000D01*
X167310000Y-191840000D02*
X167310000Y-189600000D01*
%TO.C,D24*%
X103070000Y-209600000D02*
X103070000Y-211840000D01*
X103070000Y-210720000D02*
X102420000Y-210720000D01*
X103070000Y-211840000D02*
X107310000Y-211840000D01*
X106470000Y-211840000D02*
X106470000Y-209600000D01*
X106590000Y-211840000D02*
X106590000Y-209600000D01*
X106710000Y-211840000D02*
X106710000Y-209600000D01*
X107310000Y-209600000D02*
X103070000Y-209600000D01*
X107310000Y-210720000D02*
X107960000Y-210720000D01*
X107310000Y-211840000D02*
X107310000Y-209600000D01*
D10*
%TO.C,U65*%
X249609200Y-90540800D02*
X310569200Y-90540800D01*
X249609200Y-104510800D02*
X250879200Y-104510800D01*
X249609200Y-105780800D02*
X262309200Y-105780800D01*
X249609200Y-108320800D02*
X249609200Y-90540800D01*
X250879200Y-94350800D02*
X249609200Y-94350800D01*
X250879200Y-104510800D02*
X250879200Y-94350800D01*
X262309200Y-93080800D02*
X249609200Y-93080800D01*
X262309200Y-105780800D02*
X262309200Y-93080800D01*
X266119200Y-98160800D02*
X269929200Y-98160800D01*
X266119200Y-100700800D02*
X266119200Y-98160800D01*
X269929200Y-98160800D02*
X269929200Y-100700800D01*
X269929200Y-100700800D02*
X266119200Y-100700800D01*
X275009200Y-93080800D02*
X275009200Y-105780800D01*
X275009200Y-105780800D02*
X287709200Y-105780800D01*
X287709200Y-93080800D02*
X275009200Y-93080800D01*
X287709200Y-105780800D02*
X287709200Y-93080800D01*
X291570000Y-102730000D02*
X304270000Y-102730000D01*
X291570000Y-105270000D02*
X291570000Y-102730000D01*
X293339200Y-93079200D02*
X293339200Y-99329200D01*
X293339200Y-99329200D02*
X297339200Y-99329200D01*
X297339200Y-93079200D02*
X293339200Y-93079200D01*
X297339200Y-93329200D02*
X297339200Y-93079200D01*
X297339200Y-99329200D02*
X297339200Y-93329200D01*
X301730000Y-102730000D02*
X304270000Y-102730000D01*
X301730000Y-105270000D02*
X301730000Y-102730000D01*
X304270000Y-102730000D02*
X304270000Y-105270000D01*
X304270000Y-105270000D02*
X291570000Y-105270000D01*
X305489200Y-95620800D02*
X305489200Y-103240800D01*
X310569200Y-90540800D02*
X310569200Y-108320800D01*
X310569200Y-95620800D02*
X305489200Y-95620800D01*
X310569200Y-95620800D02*
X311839200Y-95620800D01*
X310569200Y-103240800D02*
X305489200Y-103240800D01*
X310569200Y-108320800D02*
X249609200Y-108320800D01*
X311839200Y-95620800D02*
X311839200Y-103240800D01*
X311839200Y-103240800D02*
X310569200Y-103240800D01*
X268922226Y-99430800D02*
G75*
G02*
X267126174Y-99430800I-898026J0D01*
G01*
X267126174Y-99430800D02*
G75*
G02*
X268922226Y-99430800I898026J0D01*
G01*
D12*
X277400200Y-98996800D02*
X277146200Y-99377800D01*
X276892200Y-99123800D01*
X277146200Y-98742800D01*
X277400200Y-98996800D01*
G36*
X277400200Y-98996800D02*
G01*
X277146200Y-99377800D01*
X276892200Y-99123800D01*
X277146200Y-98742800D01*
X277400200Y-98996800D01*
G37*
X277781200Y-99377800D02*
X277527200Y-99758800D01*
X277273200Y-99504800D01*
X277527200Y-99123800D01*
X277781200Y-99377800D01*
G36*
X277781200Y-99377800D02*
G01*
X277527200Y-99758800D01*
X277273200Y-99504800D01*
X277527200Y-99123800D01*
X277781200Y-99377800D01*
G37*
X278162200Y-99758800D02*
X277908200Y-100139800D01*
X277654200Y-99885800D01*
X277908200Y-99504800D01*
X278162200Y-99758800D01*
G36*
X278162200Y-99758800D02*
G01*
X277908200Y-100139800D01*
X277654200Y-99885800D01*
X277908200Y-99504800D01*
X278162200Y-99758800D01*
G37*
X278543200Y-99250800D02*
X278289200Y-99631800D01*
X278035200Y-99377800D01*
X278289200Y-98996800D01*
X278543200Y-99250800D01*
G36*
X278543200Y-99250800D02*
G01*
X278289200Y-99631800D01*
X278035200Y-99377800D01*
X278289200Y-98996800D01*
X278543200Y-99250800D01*
G37*
X278924200Y-98742800D02*
X278670200Y-99123800D01*
X278416200Y-98869800D01*
X278670200Y-98488800D01*
X278924200Y-98742800D01*
G36*
X278924200Y-98742800D02*
G01*
X278670200Y-99123800D01*
X278416200Y-98869800D01*
X278670200Y-98488800D01*
X278924200Y-98742800D01*
G37*
X278924200Y-99631800D02*
X278670200Y-100012800D01*
X278416200Y-99758800D01*
X278670200Y-99377800D01*
X278924200Y-99631800D01*
G36*
X278924200Y-99631800D02*
G01*
X278670200Y-100012800D01*
X278416200Y-99758800D01*
X278670200Y-99377800D01*
X278924200Y-99631800D01*
G37*
X279305200Y-99123800D02*
X279051200Y-99504800D01*
X278797200Y-99250800D01*
X279051200Y-98869800D01*
X279305200Y-99123800D01*
G36*
X279305200Y-99123800D02*
G01*
X279051200Y-99504800D01*
X278797200Y-99250800D01*
X279051200Y-98869800D01*
X279305200Y-99123800D01*
G37*
X279686200Y-98615800D02*
X279432200Y-98996800D01*
X279178200Y-98742800D01*
X279432200Y-98361800D01*
X279686200Y-98615800D01*
G36*
X279686200Y-98615800D02*
G01*
X279432200Y-98996800D01*
X279178200Y-98742800D01*
X279432200Y-98361800D01*
X279686200Y-98615800D01*
G37*
D11*
%TO.C,D43*%
X163070000Y-109600000D02*
X163070000Y-111840000D01*
X163070000Y-110720000D02*
X162420000Y-110720000D01*
X163070000Y-111840000D02*
X167310000Y-111840000D01*
X166470000Y-111840000D02*
X166470000Y-109600000D01*
X166590000Y-111840000D02*
X166590000Y-109600000D01*
X166710000Y-111840000D02*
X166710000Y-109600000D01*
X167310000Y-109600000D02*
X163070000Y-109600000D01*
X167310000Y-110720000D02*
X167960000Y-110720000D01*
X167310000Y-111840000D02*
X167310000Y-109600000D01*
%TO.C,D8*%
X62880000Y-209600000D02*
X62880000Y-211840000D01*
X62880000Y-210720000D02*
X62230000Y-210720000D01*
X62880000Y-211840000D02*
X67120000Y-211840000D01*
X66280000Y-211840000D02*
X66280000Y-209600000D01*
X66400000Y-211840000D02*
X66400000Y-209600000D01*
X66520000Y-211840000D02*
X66520000Y-209600000D01*
X67120000Y-209600000D02*
X62880000Y-209600000D01*
X67120000Y-210720000D02*
X67770000Y-210720000D01*
X67120000Y-211840000D02*
X67120000Y-209600000D01*
%TO.C,D40*%
X143070000Y-209600000D02*
X143070000Y-211840000D01*
X143070000Y-210720000D02*
X142420000Y-210720000D01*
X143070000Y-211840000D02*
X147310000Y-211840000D01*
X146470000Y-211840000D02*
X146470000Y-209600000D01*
X146590000Y-211840000D02*
X146590000Y-209600000D01*
X146710000Y-211840000D02*
X146710000Y-209600000D01*
X147310000Y-209600000D02*
X143070000Y-209600000D01*
X147310000Y-210720000D02*
X147960000Y-210720000D01*
X147310000Y-211840000D02*
X147310000Y-209600000D01*
%TO.C,D38*%
X143070000Y-169600000D02*
X143070000Y-171840000D01*
X143070000Y-170720000D02*
X142420000Y-170720000D01*
X143070000Y-171840000D02*
X147310000Y-171840000D01*
X146470000Y-171840000D02*
X146470000Y-169600000D01*
X146590000Y-171840000D02*
X146590000Y-169600000D01*
X146710000Y-171840000D02*
X146710000Y-169600000D01*
X147310000Y-169600000D02*
X143070000Y-169600000D01*
X147310000Y-170720000D02*
X147960000Y-170720000D01*
X147310000Y-171840000D02*
X147310000Y-169600000D01*
%TO.C,D46*%
X163070000Y-169600000D02*
X163070000Y-171840000D01*
X163070000Y-170720000D02*
X162420000Y-170720000D01*
X163070000Y-171840000D02*
X167310000Y-171840000D01*
X166470000Y-171840000D02*
X166470000Y-169600000D01*
X166590000Y-171840000D02*
X166590000Y-169600000D01*
X166710000Y-171840000D02*
X166710000Y-169600000D01*
X167310000Y-169600000D02*
X163070000Y-169600000D01*
X167310000Y-170720000D02*
X167960000Y-170720000D01*
X167310000Y-171840000D02*
X167310000Y-169600000D01*
%TO.C,D34*%
X143070000Y-89600000D02*
X143070000Y-91840000D01*
X143070000Y-90720000D02*
X142420000Y-90720000D01*
X143070000Y-91840000D02*
X147310000Y-91840000D01*
X146470000Y-91840000D02*
X146470000Y-89600000D01*
X146590000Y-91840000D02*
X146590000Y-89600000D01*
X146710000Y-91840000D02*
X146710000Y-89600000D01*
X147310000Y-89600000D02*
X143070000Y-89600000D01*
X147310000Y-90720000D02*
X147960000Y-90720000D01*
X147310000Y-91840000D02*
X147310000Y-89600000D01*
%TO.C,D17*%
X103070000Y-69600000D02*
X103070000Y-71840000D01*
X103070000Y-70720000D02*
X102420000Y-70720000D01*
X103070000Y-71840000D02*
X107310000Y-71840000D01*
X106470000Y-71840000D02*
X106470000Y-69600000D01*
X106590000Y-71840000D02*
X106590000Y-69600000D01*
X106710000Y-71840000D02*
X106710000Y-69600000D01*
X107310000Y-69600000D02*
X103070000Y-69600000D01*
X107310000Y-70720000D02*
X107960000Y-70720000D01*
X107310000Y-71840000D02*
X107310000Y-69600000D01*
%TO.C,D42*%
X163070000Y-89600000D02*
X163070000Y-91840000D01*
X163070000Y-90720000D02*
X162420000Y-90720000D01*
X163070000Y-91840000D02*
X167310000Y-91840000D01*
X166470000Y-91840000D02*
X166470000Y-89600000D01*
X166590000Y-91840000D02*
X166590000Y-89600000D01*
X166710000Y-91840000D02*
X166710000Y-89600000D01*
X167310000Y-89600000D02*
X163070000Y-89600000D01*
X167310000Y-90720000D02*
X167960000Y-90720000D01*
X167310000Y-91840000D02*
X167310000Y-89600000D01*
%TO.C,D28*%
X123070000Y-129600000D02*
X123070000Y-131840000D01*
X123070000Y-130720000D02*
X122420000Y-130720000D01*
X123070000Y-131840000D02*
X127310000Y-131840000D01*
X126470000Y-131840000D02*
X126470000Y-129600000D01*
X126590000Y-131840000D02*
X126590000Y-129600000D01*
X126710000Y-131840000D02*
X126710000Y-129600000D01*
X127310000Y-129600000D02*
X123070000Y-129600000D01*
X127310000Y-130720000D02*
X127960000Y-130720000D01*
X127310000Y-131840000D02*
X127310000Y-129600000D01*
%TO.C,D64*%
X203070000Y-209600000D02*
X203070000Y-211840000D01*
X203070000Y-210720000D02*
X202420000Y-210720000D01*
X203070000Y-211840000D02*
X207310000Y-211840000D01*
X206470000Y-211840000D02*
X206470000Y-209600000D01*
X206590000Y-211840000D02*
X206590000Y-209600000D01*
X206710000Y-211840000D02*
X206710000Y-209600000D01*
X207310000Y-209600000D02*
X203070000Y-209600000D01*
X207310000Y-210720000D02*
X207960000Y-210720000D01*
X207310000Y-211840000D02*
X207310000Y-209600000D01*
%TO.C,D59*%
X203070000Y-109600000D02*
X203070000Y-111840000D01*
X203070000Y-110720000D02*
X202420000Y-110720000D01*
X203070000Y-111840000D02*
X207310000Y-111840000D01*
X206470000Y-111840000D02*
X206470000Y-109600000D01*
X206590000Y-111840000D02*
X206590000Y-109600000D01*
X206710000Y-111840000D02*
X206710000Y-109600000D01*
X207310000Y-109600000D02*
X203070000Y-109600000D01*
X207310000Y-110720000D02*
X207960000Y-110720000D01*
X207310000Y-111840000D02*
X207310000Y-109600000D01*
%TO.C,D25*%
X122880000Y-69600000D02*
X122880000Y-71840000D01*
X122880000Y-70720000D02*
X122230000Y-70720000D01*
X122880000Y-71840000D02*
X127120000Y-71840000D01*
X126280000Y-71840000D02*
X126280000Y-69600000D01*
X126400000Y-71840000D02*
X126400000Y-69600000D01*
X126520000Y-71840000D02*
X126520000Y-69600000D01*
X127120000Y-69600000D02*
X122880000Y-69600000D01*
X127120000Y-70720000D02*
X127770000Y-70720000D01*
X127120000Y-71840000D02*
X127120000Y-69600000D01*
%TO.C,D9*%
X82880000Y-69600000D02*
X82880000Y-71840000D01*
X82880000Y-70720000D02*
X82230000Y-70720000D01*
X82880000Y-71840000D02*
X87120000Y-71840000D01*
X86280000Y-71840000D02*
X86280000Y-69600000D01*
X86400000Y-71840000D02*
X86400000Y-69600000D01*
X86520000Y-71840000D02*
X86520000Y-69600000D01*
X87120000Y-69600000D02*
X82880000Y-69600000D01*
X87120000Y-70720000D02*
X87770000Y-70720000D01*
X87120000Y-71840000D02*
X87120000Y-69600000D01*
%TO.C,D37*%
X143070000Y-149600000D02*
X143070000Y-151840000D01*
X143070000Y-150720000D02*
X142420000Y-150720000D01*
X143070000Y-151840000D02*
X147310000Y-151840000D01*
X146470000Y-151840000D02*
X146470000Y-149600000D01*
X146590000Y-151840000D02*
X146590000Y-149600000D01*
X146710000Y-151840000D02*
X146710000Y-149600000D01*
X147310000Y-149600000D02*
X143070000Y-149600000D01*
X147310000Y-150720000D02*
X147960000Y-150720000D01*
X147310000Y-151840000D02*
X147310000Y-149600000D01*
%TO.C,D18*%
X103070000Y-89600000D02*
X103070000Y-91840000D01*
X103070000Y-90720000D02*
X102420000Y-90720000D01*
X103070000Y-91840000D02*
X107310000Y-91840000D01*
X106470000Y-91840000D02*
X106470000Y-89600000D01*
X106590000Y-91840000D02*
X106590000Y-89600000D01*
X106710000Y-91840000D02*
X106710000Y-89600000D01*
X107310000Y-89600000D02*
X103070000Y-89600000D01*
X107310000Y-90720000D02*
X107960000Y-90720000D01*
X107310000Y-91840000D02*
X107310000Y-89600000D01*
%TO.C,D49*%
X183070000Y-69600000D02*
X183070000Y-71840000D01*
X183070000Y-70720000D02*
X182420000Y-70720000D01*
X183070000Y-71840000D02*
X187310000Y-71840000D01*
X186470000Y-71840000D02*
X186470000Y-69600000D01*
X186590000Y-71840000D02*
X186590000Y-69600000D01*
X186710000Y-71840000D02*
X186710000Y-69600000D01*
X187310000Y-69600000D02*
X183070000Y-69600000D01*
X187310000Y-70720000D02*
X187960000Y-70720000D01*
X187310000Y-71840000D02*
X187310000Y-69600000D01*
%TO.C,D2*%
X63070000Y-89600000D02*
X63070000Y-91840000D01*
X63070000Y-90720000D02*
X62420000Y-90720000D01*
X63070000Y-91840000D02*
X67310000Y-91840000D01*
X66470000Y-91840000D02*
X66470000Y-89600000D01*
X66590000Y-91840000D02*
X66590000Y-89600000D01*
X66710000Y-91840000D02*
X66710000Y-89600000D01*
X67310000Y-89600000D02*
X63070000Y-89600000D01*
X67310000Y-90720000D02*
X67960000Y-90720000D01*
X67310000Y-91840000D02*
X67310000Y-89600000D01*
%TO.C,D13*%
X83070000Y-149600000D02*
X83070000Y-151840000D01*
X83070000Y-150720000D02*
X82420000Y-150720000D01*
X83070000Y-151840000D02*
X87310000Y-151840000D01*
X86470000Y-151840000D02*
X86470000Y-149600000D01*
X86590000Y-151840000D02*
X86590000Y-149600000D01*
X86710000Y-151840000D02*
X86710000Y-149600000D01*
X87310000Y-149600000D02*
X83070000Y-149600000D01*
X87310000Y-150720000D02*
X87960000Y-150720000D01*
X87310000Y-151840000D02*
X87310000Y-149600000D01*
%TO.C,D39*%
X143070000Y-189600000D02*
X143070000Y-191840000D01*
X143070000Y-190720000D02*
X142420000Y-190720000D01*
X143070000Y-191840000D02*
X147310000Y-191840000D01*
X146470000Y-191840000D02*
X146470000Y-189600000D01*
X146590000Y-191840000D02*
X146590000Y-189600000D01*
X146710000Y-191840000D02*
X146710000Y-189600000D01*
X147310000Y-189600000D02*
X143070000Y-189600000D01*
X147310000Y-190720000D02*
X147960000Y-190720000D01*
X147310000Y-191840000D02*
X147310000Y-189600000D01*
%TO.C,D22*%
X103070000Y-169600000D02*
X103070000Y-171840000D01*
X103070000Y-170720000D02*
X102420000Y-170720000D01*
X103070000Y-171840000D02*
X107310000Y-171840000D01*
X106470000Y-171840000D02*
X106470000Y-169600000D01*
X106590000Y-171840000D02*
X106590000Y-169600000D01*
X106710000Y-171840000D02*
X106710000Y-169600000D01*
X107310000Y-169600000D02*
X103070000Y-169600000D01*
X107310000Y-170720000D02*
X107960000Y-170720000D01*
X107310000Y-171840000D02*
X107310000Y-169600000D01*
%TO.C,D52*%
X183070000Y-129600000D02*
X183070000Y-131840000D01*
X183070000Y-130720000D02*
X182420000Y-130720000D01*
X183070000Y-131840000D02*
X187310000Y-131840000D01*
X186470000Y-131840000D02*
X186470000Y-129600000D01*
X186590000Y-131840000D02*
X186590000Y-129600000D01*
X186710000Y-131840000D02*
X186710000Y-129600000D01*
X187310000Y-129600000D02*
X183070000Y-129600000D01*
X187310000Y-130720000D02*
X187960000Y-130720000D01*
X187310000Y-131840000D02*
X187310000Y-129600000D01*
%TO.C,D1*%
X62880000Y-69600000D02*
X62880000Y-71840000D01*
X62880000Y-70720000D02*
X62230000Y-70720000D01*
X62880000Y-71840000D02*
X67120000Y-71840000D01*
X66280000Y-71840000D02*
X66280000Y-69600000D01*
X66400000Y-71840000D02*
X66400000Y-69600000D01*
X66520000Y-71840000D02*
X66520000Y-69600000D01*
X67120000Y-69600000D02*
X62880000Y-69600000D01*
X67120000Y-70720000D02*
X67770000Y-70720000D01*
X67120000Y-71840000D02*
X67120000Y-69600000D01*
%TO.C,D36*%
X143070000Y-129600000D02*
X143070000Y-131840000D01*
X143070000Y-130720000D02*
X142420000Y-130720000D01*
X143070000Y-131840000D02*
X147310000Y-131840000D01*
X146470000Y-131840000D02*
X146470000Y-129600000D01*
X146590000Y-131840000D02*
X146590000Y-129600000D01*
X146710000Y-131840000D02*
X146710000Y-129600000D01*
X147310000Y-129600000D02*
X143070000Y-129600000D01*
X147310000Y-130720000D02*
X147960000Y-130720000D01*
X147310000Y-131840000D02*
X147310000Y-129600000D01*
%TO.C,D53*%
X183070000Y-149600000D02*
X183070000Y-151840000D01*
X183070000Y-150720000D02*
X182420000Y-150720000D01*
X183070000Y-151840000D02*
X187310000Y-151840000D01*
X186470000Y-151840000D02*
X186470000Y-149600000D01*
X186590000Y-151840000D02*
X186590000Y-149600000D01*
X186710000Y-151840000D02*
X186710000Y-149600000D01*
X187310000Y-149600000D02*
X183070000Y-149600000D01*
X187310000Y-150720000D02*
X187960000Y-150720000D01*
X187310000Y-151840000D02*
X187310000Y-149600000D01*
%TO.C,D29*%
X123070000Y-149600000D02*
X123070000Y-151840000D01*
X123070000Y-150720000D02*
X122420000Y-150720000D01*
X123070000Y-151840000D02*
X127310000Y-151840000D01*
X126470000Y-151840000D02*
X126470000Y-149600000D01*
X126590000Y-151840000D02*
X126590000Y-149600000D01*
X126710000Y-151840000D02*
X126710000Y-149600000D01*
X127310000Y-149600000D02*
X123070000Y-149600000D01*
X127310000Y-150720000D02*
X127960000Y-150720000D01*
X127310000Y-151840000D02*
X127310000Y-149600000D01*
%TO.C,D63*%
X203070000Y-189600000D02*
X203070000Y-191840000D01*
X203070000Y-190720000D02*
X202420000Y-190720000D01*
X203070000Y-191840000D02*
X207310000Y-191840000D01*
X206470000Y-191840000D02*
X206470000Y-189600000D01*
X206590000Y-191840000D02*
X206590000Y-189600000D01*
X206710000Y-191840000D02*
X206710000Y-189600000D01*
X207310000Y-189600000D02*
X203070000Y-189600000D01*
X207310000Y-190720000D02*
X207960000Y-190720000D01*
X207310000Y-191840000D02*
X207310000Y-189600000D01*
%TO.C,D48*%
X163070000Y-209600000D02*
X163070000Y-211840000D01*
X163070000Y-210720000D02*
X162420000Y-210720000D01*
X163070000Y-211840000D02*
X167310000Y-211840000D01*
X166470000Y-211840000D02*
X166470000Y-209600000D01*
X166590000Y-211840000D02*
X166590000Y-209600000D01*
X166710000Y-211840000D02*
X166710000Y-209600000D01*
X167310000Y-209600000D02*
X163070000Y-209600000D01*
X167310000Y-210720000D02*
X167960000Y-210720000D01*
X167310000Y-211840000D02*
X167310000Y-209600000D01*
%TO.C,D12*%
X83190000Y-129600000D02*
X83190000Y-131840000D01*
X83190000Y-130720000D02*
X82540000Y-130720000D01*
X83190000Y-131840000D02*
X87430000Y-131840000D01*
X86590000Y-131840000D02*
X86590000Y-129600000D01*
X86710000Y-131840000D02*
X86710000Y-129600000D01*
X86830000Y-131840000D02*
X86830000Y-129600000D01*
X87430000Y-129600000D02*
X83190000Y-129600000D01*
X87430000Y-130720000D02*
X88080000Y-130720000D01*
X87430000Y-131840000D02*
X87430000Y-129600000D01*
%TO.C,D32*%
X123070000Y-209600000D02*
X123070000Y-211840000D01*
X123070000Y-210720000D02*
X122420000Y-210720000D01*
X123070000Y-211840000D02*
X127310000Y-211840000D01*
X126470000Y-211840000D02*
X126470000Y-209600000D01*
X126590000Y-211840000D02*
X126590000Y-209600000D01*
X126710000Y-211840000D02*
X126710000Y-209600000D01*
X127310000Y-209600000D02*
X123070000Y-209600000D01*
X127310000Y-210720000D02*
X127960000Y-210720000D01*
X127310000Y-211840000D02*
X127310000Y-209600000D01*
%TO.C,D15*%
X83070000Y-189600000D02*
X83070000Y-191840000D01*
X83070000Y-190720000D02*
X82420000Y-190720000D01*
X83070000Y-191840000D02*
X87310000Y-191840000D01*
X86470000Y-191840000D02*
X86470000Y-189600000D01*
X86590000Y-191840000D02*
X86590000Y-189600000D01*
X86710000Y-191840000D02*
X86710000Y-189600000D01*
X87310000Y-189600000D02*
X83070000Y-189600000D01*
X87310000Y-190720000D02*
X87960000Y-190720000D01*
X87310000Y-191840000D02*
X87310000Y-189600000D01*
%TO.C,D51*%
X183070000Y-109600000D02*
X183070000Y-111840000D01*
X183070000Y-110720000D02*
X182420000Y-110720000D01*
X183070000Y-111840000D02*
X187310000Y-111840000D01*
X186470000Y-111840000D02*
X186470000Y-109600000D01*
X186590000Y-111840000D02*
X186590000Y-109600000D01*
X186710000Y-111840000D02*
X186710000Y-109600000D01*
X187310000Y-109600000D02*
X183070000Y-109600000D01*
X187310000Y-110720000D02*
X187960000Y-110720000D01*
X187310000Y-111840000D02*
X187310000Y-109600000D01*
%TO.C,D41*%
X163070000Y-69600000D02*
X163070000Y-71840000D01*
X163070000Y-70720000D02*
X162420000Y-70720000D01*
X163070000Y-71840000D02*
X167310000Y-71840000D01*
X166470000Y-71840000D02*
X166470000Y-69600000D01*
X166590000Y-71840000D02*
X166590000Y-69600000D01*
X166710000Y-71840000D02*
X166710000Y-69600000D01*
X167310000Y-69600000D02*
X163070000Y-69600000D01*
X167310000Y-70720000D02*
X167960000Y-70720000D01*
X167310000Y-71840000D02*
X167310000Y-69600000D01*
%TO.C,D45*%
X163070000Y-149600000D02*
X163070000Y-151840000D01*
X163070000Y-150720000D02*
X162420000Y-150720000D01*
X163070000Y-151840000D02*
X167310000Y-151840000D01*
X166470000Y-151840000D02*
X166470000Y-149600000D01*
X166590000Y-151840000D02*
X166590000Y-149600000D01*
X166710000Y-151840000D02*
X166710000Y-149600000D01*
X167310000Y-149600000D02*
X163070000Y-149600000D01*
X167310000Y-150720000D02*
X167960000Y-150720000D01*
X167310000Y-151840000D02*
X167310000Y-149600000D01*
%TO.C,D5*%
X62880000Y-149600000D02*
X62880000Y-151840000D01*
X62880000Y-150720000D02*
X62230000Y-150720000D01*
X62880000Y-151840000D02*
X67120000Y-151840000D01*
X66280000Y-151840000D02*
X66280000Y-149600000D01*
X66400000Y-151840000D02*
X66400000Y-149600000D01*
X66520000Y-151840000D02*
X66520000Y-149600000D01*
X67120000Y-149600000D02*
X62880000Y-149600000D01*
X67120000Y-150720000D02*
X67770000Y-150720000D01*
X67120000Y-151840000D02*
X67120000Y-149600000D01*
%TO.C,D20*%
X103070000Y-129600000D02*
X103070000Y-131840000D01*
X103070000Y-130720000D02*
X102420000Y-130720000D01*
X103070000Y-131840000D02*
X107310000Y-131840000D01*
X106470000Y-131840000D02*
X106470000Y-129600000D01*
X106590000Y-131840000D02*
X106590000Y-129600000D01*
X106710000Y-131840000D02*
X106710000Y-129600000D01*
X107310000Y-129600000D02*
X103070000Y-129600000D01*
X107310000Y-130720000D02*
X107960000Y-130720000D01*
X107310000Y-131840000D02*
X107310000Y-129600000D01*
%TO.C,D55*%
X183070000Y-189600000D02*
X183070000Y-191840000D01*
X183070000Y-190720000D02*
X182420000Y-190720000D01*
X183070000Y-191840000D02*
X187310000Y-191840000D01*
X186470000Y-191840000D02*
X186470000Y-189600000D01*
X186590000Y-191840000D02*
X186590000Y-189600000D01*
X186710000Y-191840000D02*
X186710000Y-189600000D01*
X187310000Y-189600000D02*
X183070000Y-189600000D01*
X187310000Y-190720000D02*
X187960000Y-190720000D01*
X187310000Y-191840000D02*
X187310000Y-189600000D01*
%TO.C,D58*%
X202880000Y-89600000D02*
X202880000Y-91840000D01*
X202880000Y-90720000D02*
X202230000Y-90720000D01*
X202880000Y-91840000D02*
X207120000Y-91840000D01*
X206280000Y-91840000D02*
X206280000Y-89600000D01*
X206400000Y-91840000D02*
X206400000Y-89600000D01*
X206520000Y-91840000D02*
X206520000Y-89600000D01*
X207120000Y-89600000D02*
X202880000Y-89600000D01*
X207120000Y-90720000D02*
X207770000Y-90720000D01*
X207120000Y-91840000D02*
X207120000Y-89600000D01*
%TO.C,D54*%
X183070000Y-169600000D02*
X183070000Y-171840000D01*
X183070000Y-170720000D02*
X182420000Y-170720000D01*
X183070000Y-171840000D02*
X187310000Y-171840000D01*
X186470000Y-171840000D02*
X186470000Y-169600000D01*
X186590000Y-171840000D02*
X186590000Y-169600000D01*
X186710000Y-171840000D02*
X186710000Y-169600000D01*
X187310000Y-169600000D02*
X183070000Y-169600000D01*
X187310000Y-170720000D02*
X187960000Y-170720000D01*
X187310000Y-171840000D02*
X187310000Y-169600000D01*
%TO.C,D16*%
X83380000Y-209600000D02*
X83380000Y-211840000D01*
X83380000Y-210720000D02*
X82730000Y-210720000D01*
X83380000Y-211840000D02*
X87620000Y-211840000D01*
X86780000Y-211840000D02*
X86780000Y-209600000D01*
X86900000Y-211840000D02*
X86900000Y-209600000D01*
X87020000Y-211840000D02*
X87020000Y-209600000D01*
X87620000Y-209600000D02*
X83380000Y-209600000D01*
X87620000Y-210720000D02*
X88270000Y-210720000D01*
X87620000Y-211840000D02*
X87620000Y-209600000D01*
%TO.C,D14*%
X83070000Y-169600000D02*
X83070000Y-171840000D01*
X83070000Y-170720000D02*
X82420000Y-170720000D01*
X83070000Y-171840000D02*
X87310000Y-171840000D01*
X86470000Y-171840000D02*
X86470000Y-169600000D01*
X86590000Y-171840000D02*
X86590000Y-169600000D01*
X86710000Y-171840000D02*
X86710000Y-169600000D01*
X87310000Y-169600000D02*
X83070000Y-169600000D01*
X87310000Y-170720000D02*
X87960000Y-170720000D01*
X87310000Y-171840000D02*
X87310000Y-169600000D01*
%TO.C,D56*%
X183070000Y-209600000D02*
X183070000Y-211840000D01*
X183070000Y-210720000D02*
X182420000Y-210720000D01*
X183070000Y-211840000D02*
X187310000Y-211840000D01*
X186470000Y-211840000D02*
X186470000Y-209600000D01*
X186590000Y-211840000D02*
X186590000Y-209600000D01*
X186710000Y-211840000D02*
X186710000Y-209600000D01*
X187310000Y-209600000D02*
X183070000Y-209600000D01*
X187310000Y-210720000D02*
X187960000Y-210720000D01*
X187310000Y-211840000D02*
X187310000Y-209600000D01*
%TO.C,D61*%
X203070000Y-149600000D02*
X203070000Y-151840000D01*
X203070000Y-150720000D02*
X202420000Y-150720000D01*
X203070000Y-151840000D02*
X207310000Y-151840000D01*
X206470000Y-151840000D02*
X206470000Y-149600000D01*
X206590000Y-151840000D02*
X206590000Y-149600000D01*
X206710000Y-151840000D02*
X206710000Y-149600000D01*
X207310000Y-149600000D02*
X203070000Y-149600000D01*
X207310000Y-150720000D02*
X207960000Y-150720000D01*
X207310000Y-151840000D02*
X207310000Y-149600000D01*
%TO.C,D21*%
X103070000Y-149600000D02*
X103070000Y-151840000D01*
X103070000Y-150720000D02*
X102420000Y-150720000D01*
X103070000Y-151840000D02*
X107310000Y-151840000D01*
X106470000Y-151840000D02*
X106470000Y-149600000D01*
X106590000Y-151840000D02*
X106590000Y-149600000D01*
X106710000Y-151840000D02*
X106710000Y-149600000D01*
X107310000Y-149600000D02*
X103070000Y-149600000D01*
X107310000Y-150720000D02*
X107960000Y-150720000D01*
X107310000Y-151840000D02*
X107310000Y-149600000D01*
%TO.C,D31*%
X123070000Y-189600000D02*
X123070000Y-191840000D01*
X123070000Y-190720000D02*
X122420000Y-190720000D01*
X123070000Y-191840000D02*
X127310000Y-191840000D01*
X126470000Y-191840000D02*
X126470000Y-189600000D01*
X126590000Y-191840000D02*
X126590000Y-189600000D01*
X126710000Y-191840000D02*
X126710000Y-189600000D01*
X127310000Y-189600000D02*
X123070000Y-189600000D01*
X127310000Y-190720000D02*
X127960000Y-190720000D01*
X127310000Y-191840000D02*
X127310000Y-189600000D01*
%TO.C,D30*%
X123070000Y-169600000D02*
X123070000Y-171840000D01*
X123070000Y-170720000D02*
X122420000Y-170720000D01*
X123070000Y-171840000D02*
X127310000Y-171840000D01*
X126470000Y-171840000D02*
X126470000Y-169600000D01*
X126590000Y-171840000D02*
X126590000Y-169600000D01*
X126710000Y-171840000D02*
X126710000Y-169600000D01*
X127310000Y-169600000D02*
X123070000Y-169600000D01*
X127310000Y-170720000D02*
X127960000Y-170720000D01*
X127310000Y-171840000D02*
X127310000Y-169600000D01*
%TO.C,D4*%
X62880000Y-129600000D02*
X62880000Y-131840000D01*
X62880000Y-130720000D02*
X62230000Y-130720000D01*
X62880000Y-131840000D02*
X67120000Y-131840000D01*
X66280000Y-131840000D02*
X66280000Y-129600000D01*
X66400000Y-131840000D02*
X66400000Y-129600000D01*
X66520000Y-131840000D02*
X66520000Y-129600000D01*
X67120000Y-129600000D02*
X62880000Y-129600000D01*
X67120000Y-130720000D02*
X67770000Y-130720000D01*
X67120000Y-131840000D02*
X67120000Y-129600000D01*
%TO.C,D19*%
X103070000Y-109600000D02*
X103070000Y-111840000D01*
X103070000Y-110720000D02*
X102420000Y-110720000D01*
X103070000Y-111840000D02*
X107310000Y-111840000D01*
X106470000Y-111840000D02*
X106470000Y-109600000D01*
X106590000Y-111840000D02*
X106590000Y-109600000D01*
X106710000Y-111840000D02*
X106710000Y-109600000D01*
X107310000Y-109600000D02*
X103070000Y-109600000D01*
X107310000Y-110720000D02*
X107960000Y-110720000D01*
X107310000Y-111840000D02*
X107310000Y-109600000D01*
%TO.C,D10*%
X83190000Y-89600000D02*
X83190000Y-91840000D01*
X83190000Y-90720000D02*
X82540000Y-90720000D01*
X83190000Y-91840000D02*
X87430000Y-91840000D01*
X86590000Y-91840000D02*
X86590000Y-89600000D01*
X86710000Y-91840000D02*
X86710000Y-89600000D01*
X86830000Y-91840000D02*
X86830000Y-89600000D01*
X87430000Y-89600000D02*
X83190000Y-89600000D01*
X87430000Y-90720000D02*
X88080000Y-90720000D01*
X87430000Y-91840000D02*
X87430000Y-89600000D01*
%TO.C,D57*%
X203070000Y-69600000D02*
X203070000Y-71840000D01*
X203070000Y-70720000D02*
X202420000Y-70720000D01*
X203070000Y-71840000D02*
X207310000Y-71840000D01*
X206470000Y-71840000D02*
X206470000Y-69600000D01*
X206590000Y-71840000D02*
X206590000Y-69600000D01*
X206710000Y-71840000D02*
X206710000Y-69600000D01*
X207310000Y-69600000D02*
X203070000Y-69600000D01*
X207310000Y-70720000D02*
X207960000Y-70720000D01*
X207310000Y-71840000D02*
X207310000Y-69600000D01*
%TO.C,D7*%
X62880000Y-189600000D02*
X62880000Y-191840000D01*
X62880000Y-190720000D02*
X62230000Y-190720000D01*
X62880000Y-191840000D02*
X67120000Y-191840000D01*
X66280000Y-191840000D02*
X66280000Y-189600000D01*
X66400000Y-191840000D02*
X66400000Y-189600000D01*
X66520000Y-191840000D02*
X66520000Y-189600000D01*
X67120000Y-189600000D02*
X62880000Y-189600000D01*
X67120000Y-190720000D02*
X67770000Y-190720000D01*
X67120000Y-191840000D02*
X67120000Y-189600000D01*
%TO.C,D44*%
X163070000Y-129600000D02*
X163070000Y-131840000D01*
X163070000Y-130720000D02*
X162420000Y-130720000D01*
X163070000Y-131840000D02*
X167310000Y-131840000D01*
X166470000Y-131840000D02*
X166470000Y-129600000D01*
X166590000Y-131840000D02*
X166590000Y-129600000D01*
X166710000Y-131840000D02*
X166710000Y-129600000D01*
X167310000Y-129600000D02*
X163070000Y-129600000D01*
X167310000Y-130720000D02*
X167960000Y-130720000D01*
X167310000Y-131840000D02*
X167310000Y-129600000D01*
%TO.C,D3*%
X62880000Y-109600000D02*
X62880000Y-111840000D01*
X62880000Y-110720000D02*
X62230000Y-110720000D01*
X62880000Y-111840000D02*
X67120000Y-111840000D01*
X66280000Y-111840000D02*
X66280000Y-109600000D01*
X66400000Y-111840000D02*
X66400000Y-109600000D01*
X66520000Y-111840000D02*
X66520000Y-109600000D01*
X67120000Y-109600000D02*
X62880000Y-109600000D01*
X67120000Y-110720000D02*
X67770000Y-110720000D01*
X67120000Y-111840000D02*
X67120000Y-109600000D01*
%TD*%
M02*
