M48
; DRILL file {KiCad 8.0.4} date 2024-12-04T19:54:44+0900
; FORMAT={-:-/ absolute / inch / decimal}
; #@! TF.CreationDate,2024-12-04T19:54:44+09:00
; #@! TF.GenerationSoftware,Kicad,Pcbnew,8.0.4
; #@! TF.FileFunction,Plated,1,2,PTH
FMAT,2
INCH
; #@! TA.AperFunction,Plated,PTH,ViaDrill
T1C0.0118
; #@! TA.AperFunction,Plated,PTH,ComponentDrill
T2C0.0315
; #@! TA.AperFunction,Plated,PTH,ComponentDrill
T3C0.0354
; #@! TA.AperFunction,Plated,PTH,ComponentDrill
T4C0.0394
; #@! TA.AperFunction,Plated,PTH,ComponentDrill
T5C0.0433
; #@! TA.AperFunction,Plated,PTH,ComponentDrill
T6C0.0472
; #@! TA.AperFunction,Plated,PTH,ComponentDrill
T7C0.0591
; #@! TA.AperFunction,Plated,PTH,ComponentDrill
T8C0.0669
; #@! TA.AperFunction,Plated,PTH,ComponentDrill
T9C0.0984
%
G90
G05
T1
X9.4685Y-2.815
X9.6193Y-2.0674
X9.7972Y-2.3169
X10.1575Y-3.7795
X10.2382Y-4.313
X10.2894Y-4.3465
X10.3406Y-4.2835
X10.3563Y-4.4134
X10.3937Y-4.4882
X10.6299Y-4.4882
X10.7283Y-2.9724
X10.7283Y-3.878
X10.7677Y-2.9724
X10.8465Y-4.6024
X11.5551Y-5.8346
T2
X2.4091Y-2.7843
X2.4091Y-4.3591
X2.4091Y-5.1465
X2.4091Y-5.9339
X2.4091Y-6.7213
X2.4091Y-7.5087
X2.4091Y-8.2961
X2.4165Y-3.5717
X2.7091Y-2.7843
X2.7091Y-4.3591
X2.7091Y-5.1465
X2.7091Y-5.9339
X2.7091Y-6.7213
X2.7091Y-7.5087
X2.7091Y-8.2961
X2.7165Y-3.5717
X3.1965Y-2.7843
X3.2039Y-5.9339
X3.2039Y-6.7213
X3.2039Y-7.5087
X3.2087Y-3.5717
X3.2087Y-4.3591
X3.2087Y-5.1465
X3.2161Y-8.2961
X3.4965Y-2.7843
X3.5039Y-5.9339
X3.5039Y-6.7213
X3.5039Y-7.5087
X3.5087Y-3.5717
X3.5087Y-4.3591
X3.5087Y-5.1465
X3.5161Y-8.2961
X3.9913Y-2.7843
X3.9913Y-3.5717
X3.9913Y-4.3591
X3.9913Y-5.1465
X3.9913Y-5.9339
X3.9913Y-6.7213
X3.9913Y-7.5087
X3.9913Y-8.2961
X4.2913Y-2.7843
X4.2913Y-3.5717
X4.2913Y-4.3591
X4.2913Y-5.1465
X4.2913Y-5.9339
X4.2913Y-6.7213
X4.2913Y-7.5087
X4.2913Y-8.2961
X4.7713Y-2.7843
X4.7713Y-4.3591
X4.7787Y-3.5717
X4.7787Y-5.1465
X4.7787Y-5.9339
X4.7787Y-6.7213
X4.7787Y-7.5087
X4.7787Y-8.2961
X5.0713Y-2.7843
X5.0713Y-4.3591
X5.0787Y-3.5717
X5.0787Y-5.1465
X5.0787Y-5.9339
X5.0787Y-6.7213
X5.0787Y-7.5087
X5.0787Y-8.2961
X5.5661Y-2.7843
X5.5661Y-3.5717
X5.5661Y-4.3591
X5.5661Y-5.1465
X5.5661Y-5.9339
X5.5661Y-6.7213
X5.5661Y-7.5087
X5.5661Y-8.2961
X5.8661Y-2.7843
X5.8661Y-3.5717
X5.8661Y-4.3591
X5.8661Y-5.1465
X5.8661Y-5.9339
X5.8661Y-6.7213
X5.8661Y-7.5087
X5.8661Y-8.2961
X6.3535Y-2.7843
X6.3535Y-3.5717
X6.3535Y-4.3591
X6.3535Y-5.1465
X6.3535Y-5.9339
X6.3535Y-6.7213
X6.3535Y-7.5087
X6.3535Y-8.2961
X6.6535Y-2.7843
X6.6535Y-3.5717
X6.6535Y-4.3591
X6.6535Y-5.1465
X6.6535Y-5.9339
X6.6535Y-6.7213
X6.6535Y-7.5087
X6.6535Y-8.2961
X7.1409Y-2.7843
X7.1409Y-3.5717
X7.1409Y-4.3591
X7.1409Y-5.1465
X7.1409Y-5.9339
X7.1409Y-6.7213
X7.1409Y-7.5087
X7.1409Y-8.2961
X7.4409Y-2.7843
X7.4409Y-3.5717
X7.4409Y-4.3591
X7.4409Y-5.1465
X7.4409Y-5.9339
X7.4409Y-6.7213
X7.4409Y-7.5087
X7.4409Y-8.2961
X7.9209Y-3.5717
X7.9283Y-2.7843
X7.9283Y-4.3591
X7.9283Y-5.1465
X7.9283Y-5.9339
X7.9283Y-6.7213
X7.9283Y-7.5087
X7.9283Y-8.2961
X8.2209Y-3.5717
X8.2283Y-2.7843
X8.2283Y-4.3591
X8.2283Y-5.1465
X8.2283Y-5.9339
X8.2283Y-6.7213
X8.2283Y-7.5087
X8.2283Y-8.2961
X11.5217Y-6.1614
X11.5878Y-3.7106
X11.5878Y-3.7893
X11.5878Y-3.8681
X11.6665Y-3.7106
X11.6665Y-3.7893
X11.6665Y-3.8681
X12.0217Y-6.1614
X12.1484Y-3.8646
X12.1484Y-3.9646
T3
X11.3278Y-6.8602
X11.4278Y-6.8602
T4
X9.1555Y-5.1939
X9.2539Y-5.1939
X9.3524Y-5.1939
X9.9425Y-5.1939
X10.0409Y-5.1939
X10.1394Y-5.1939
X10.689Y-4.8228
X10.689Y-4.9213
X10.689Y-5.0197
X10.689Y-5.6102
X10.689Y-5.7087
X10.689Y-5.8071
X11.0817Y-7.185
X11.0817Y-7.2835
X11.0817Y-7.3819
X11.2598Y-4.8228
X11.2598Y-5.0197
X11.2598Y-5.6102
X11.2598Y-5.8071
X11.4764Y-4.8228
X11.4764Y-4.9213
X11.4764Y-5.0197
X11.4764Y-5.6102
X11.4764Y-5.7087
X11.4764Y-5.8071
X11.6526Y-7.185
X11.6526Y-7.3819
X12.0472Y-4.8228
X12.0472Y-5.0197
X12.0472Y-5.6102
X12.0472Y-5.8071
T5
X9.8771Y-3.6146
X9.8771Y-4.2146
X9.9771Y-3.6146
X9.9771Y-4.2146
X10.0771Y-3.6146
X10.0771Y-4.2146
X10.1771Y-3.6146
X10.1771Y-4.2146
X10.2771Y-3.6146
X10.2771Y-4.2146
X10.3771Y-3.6146
X10.3771Y-3.7146
X10.3771Y-3.8146
X10.3771Y-3.9146
X10.3771Y-4.0146
X10.3771Y-4.1146
X10.3771Y-4.2146
X10.4771Y-3.6146
X10.4771Y-4.2146
X10.5771Y-3.6146
X10.5771Y-4.2146
X10.6771Y-3.6146
X10.6771Y-4.2146
X10.7771Y-3.6146
X10.7771Y-4.2146
X10.8771Y-3.6146
X10.8771Y-4.2146
X10.9771Y-3.6146
X10.9771Y-4.2146
X11.0771Y-3.6146
X11.0771Y-4.2146
X11.1771Y-3.6146
X11.1771Y-4.2146
X11.2771Y-3.6146
X11.2771Y-4.2146
X11.3771Y-3.6146
X11.3771Y-4.2146
X11.4771Y-3.6146
X11.4771Y-4.2146
X11.5291Y-4.0945
X11.5771Y-3.6146
X11.5771Y-4.2146
X11.6291Y-4.0945
X11.6771Y-3.6146
X11.6771Y-4.2146
X11.7291Y-4.0945
X11.7771Y-3.6146
X11.7771Y-4.2146
X11.8291Y-4.0945
X11.8771Y-3.6146
X11.8771Y-4.2146
X11.9291Y-4.0945
X11.9771Y-3.6146
X11.9771Y-4.2146
X12.0771Y-3.6146
X12.0771Y-3.7146
X12.0771Y-4.2146
X12.1771Y-3.6146
X12.1771Y-4.2146
T6
X9.1811Y-5.4035
X9.1811Y-8.2972
X9.2693Y-2.1063
X9.3189Y-8.2972
X9.3693Y-2.1063
X9.4693Y-2.1063
X9.5693Y-2.1063
X9.6693Y-2.1063
X9.7693Y-2.1063
X9.8693Y-2.1063
X9.9685Y-5.4035
X9.9685Y-8.2972
X9.9693Y-2.1063
X10.0693Y-2.1063
X10.1063Y-8.2972
X10.1693Y-2.1063
X10.2693Y-2.1063
X10.3693Y-2.1063
X10.4693Y-2.1063
X10.5693Y-2.1063
X10.6693Y-2.1063
X10.7693Y-2.1063
T7
X2.3228Y-2.3425
X2.3228Y-3.1299
X2.3228Y-3.9173
X2.3228Y-4.7047
X2.3228Y-5.4921
X2.3228Y-6.2795
X2.3228Y-7.0669
X2.3228Y-7.8543
X2.5728Y-2.2425
X2.5728Y-3.0299
X2.5728Y-3.8173
X2.5728Y-4.6047
X2.5728Y-5.3921
X2.5728Y-6.1795
X2.5728Y-6.9669
X2.5728Y-7.7543
X3.1102Y-2.3425
X3.1102Y-3.1299
X3.1102Y-3.9173
X3.1102Y-4.7047
X3.1102Y-5.4921
X3.1102Y-6.2795
X3.1102Y-7.0669
X3.1102Y-7.8543
X3.3602Y-2.2425
X3.3602Y-3.0299
X3.3602Y-3.8173
X3.3602Y-4.6047
X3.3602Y-5.3921
X3.3602Y-6.1795
X3.3602Y-6.9669
X3.3602Y-7.7543
X3.8976Y-2.3425
X3.8976Y-3.1299
X3.8976Y-3.9173
X3.8976Y-4.7047
X3.8976Y-5.4921
X3.8976Y-6.2795
X3.8976Y-7.0669
X3.8976Y-7.8543
X4.1476Y-2.2425
X4.1476Y-3.0299
X4.1476Y-3.8173
X4.1476Y-4.6047
X4.1476Y-5.3921
X4.1476Y-6.1795
X4.1476Y-6.9669
X4.1476Y-7.7543
X4.685Y-2.3425
X4.685Y-3.1299
X4.685Y-3.9173
X4.685Y-4.7047
X4.685Y-5.4921
X4.685Y-6.2795
X4.685Y-7.0669
X4.685Y-7.8543
X4.935Y-2.2425
X4.935Y-3.0299
X4.935Y-3.8173
X4.935Y-4.6047
X4.935Y-5.3921
X4.935Y-6.1795
X4.935Y-6.9669
X4.935Y-7.7543
X5.4724Y-2.3425
X5.4724Y-3.1299
X5.4724Y-3.9173
X5.4724Y-4.7047
X5.4724Y-5.4921
X5.4724Y-6.2795
X5.4724Y-7.0669
X5.4724Y-7.8543
X5.7224Y-2.2425
X5.7224Y-3.0299
X5.7224Y-3.8173
X5.7224Y-4.6047
X5.7224Y-5.3921
X5.7224Y-6.1795
X5.7224Y-6.9669
X5.7224Y-7.7543
X6.2598Y-2.3425
X6.2598Y-3.1299
X6.2598Y-3.9173
X6.2598Y-4.7047
X6.2598Y-5.4921
X6.2598Y-6.2795
X6.2598Y-7.0669
X6.2598Y-7.8543
X6.5098Y-2.2425
X6.5098Y-3.0299
X6.5098Y-3.8173
X6.5098Y-4.6047
X6.5098Y-5.3921
X6.5098Y-6.1795
X6.5098Y-6.9669
X6.5098Y-7.7543
X7.0472Y-2.3425
X7.0472Y-3.1299
X7.0472Y-3.9173
X7.0472Y-4.7047
X7.0472Y-5.4921
X7.0472Y-6.2795
X7.0472Y-7.0669
X7.0472Y-7.8543
X7.2972Y-2.2425
X7.2972Y-3.0299
X7.2972Y-3.8173
X7.2972Y-4.6047
X7.2972Y-5.3921
X7.2972Y-6.1795
X7.2972Y-6.9669
X7.2972Y-7.7543
X7.8346Y-2.3425
X7.8346Y-3.1299
X7.8346Y-3.9173
X7.8346Y-4.7047
X7.8346Y-5.4921
X7.8346Y-6.2795
X7.8346Y-7.0669
X7.8346Y-7.8543
X8.0846Y-2.2425
X8.0846Y-3.0299
X8.0846Y-3.8173
X8.0846Y-4.6047
X8.0846Y-5.3921
X8.0846Y-6.1795
X8.0846Y-6.9669
X8.0846Y-7.7543
T8
X9.0846Y-5.6142
X9.0846Y-8.0866
X9.4154Y-5.5669
X9.4154Y-8.1339
X9.872Y-5.6142
X9.872Y-8.0866
X10.2028Y-5.5669
X10.2028Y-8.1339
T9
X9.0528Y-2.1063
X9.0528Y-3.3268
X12.0055Y-3.3268
X12.0055Y-2.1063
T5
G00X9.0571Y-4.936
M15
G01X9.0571Y-4.9006
M16
G05
G00X9.4508Y-4.936
M15
G01X9.4508Y-4.9006
M16
G05
G00X9.8441Y-4.936
M15
G01X9.8441Y-4.9006
M16
G05
G00X10.2378Y-4.936
M15
G01X10.2378Y-4.9006
M16
G05
T7
G00X10.9587Y-4.7008
M15
G01X11.0098Y-4.7008
M16
G05
G00X10.9587Y-5.1417
M15
G01X11.0098Y-5.1417
M16
G05
G00X10.9587Y-5.4882
M15
G01X11.0098Y-5.4882
M16
G05
G00X10.9587Y-5.9291
M15
G01X11.0098Y-5.9291
M16
G05
G00X11.3514Y-7.063
M15
G01X11.4026Y-7.063
M16
G05
G00X11.3514Y-7.5039
M15
G01X11.4026Y-7.5039
M16
G05
G00X11.7461Y-4.7008
M15
G01X11.7972Y-4.7008
M16
G05
G00X11.7461Y-5.1417
M15
G01X11.7972Y-5.1417
M16
G05
G00X11.7461Y-5.4882
M15
G01X11.7972Y-5.4882
M16
G05
G00X11.7461Y-5.9291
M15
G01X11.7972Y-5.9291
M16
G05
M30
