M48
; DRILL file {KiCad 8.0.4} date 2024-12-04T19:54:44+0900
; FORMAT={-:-/ absolute / inch / decimal}
; #@! TF.CreationDate,2024-12-04T19:54:44+09:00
; #@! TF.GenerationSoftware,Kicad,Pcbnew,8.0.4
; #@! TF.FileFunction,NonPlated,1,2,NPTH
FMAT,2
INCH
; #@! TA.AperFunction,NonPlated,NPTH,ComponentDrill
T1C0.0669
; #@! TA.AperFunction,NonPlated,NPTH,ComponentDrill
T2C0.1575
%
G90
G05
T1
X2.2728Y-2.4425
X2.2728Y-3.2299
X2.2728Y-4.0173
X2.2728Y-4.8047
X2.2728Y-5.5921
X2.2728Y-6.3795
X2.2728Y-7.1669
X2.2728Y-7.9543
X2.6728Y-2.4425
X2.6728Y-3.2299
X2.6728Y-4.0173
X2.6728Y-4.8047
X2.6728Y-5.5921
X2.6728Y-6.3795
X2.6728Y-7.1669
X2.6728Y-7.9543
X3.0602Y-2.4425
X3.0602Y-3.2299
X3.0602Y-4.0173
X3.0602Y-4.8047
X3.0602Y-5.5921
X3.0602Y-6.3795
X3.0602Y-7.1669
X3.0602Y-7.9543
X3.4602Y-2.4425
X3.4602Y-3.2299
X3.4602Y-4.0173
X3.4602Y-4.8047
X3.4602Y-5.5921
X3.4602Y-6.3795
X3.4602Y-7.1669
X3.4602Y-7.9543
X3.8476Y-2.4425
X3.8476Y-3.2299
X3.8476Y-4.0173
X3.8476Y-4.8047
X3.8476Y-5.5921
X3.8476Y-6.3795
X3.8476Y-7.1669
X3.8476Y-7.9543
X4.2476Y-2.4425
X4.2476Y-3.2299
X4.2476Y-4.0173
X4.2476Y-4.8047
X4.2476Y-5.5921
X4.2476Y-6.3795
X4.2476Y-7.1669
X4.2476Y-7.9543
X4.635Y-2.4425
X4.635Y-3.2299
X4.635Y-4.0173
X4.635Y-4.8047
X4.635Y-5.5921
X4.635Y-6.3795
X4.635Y-7.1669
X4.635Y-7.9543
X5.035Y-2.4425
X5.035Y-3.2299
X5.035Y-4.0173
X5.035Y-4.8047
X5.035Y-5.5921
X5.035Y-6.3795
X5.035Y-7.1669
X5.035Y-7.9543
X5.4224Y-2.4425
X5.4224Y-3.2299
X5.4224Y-4.0173
X5.4224Y-4.8047
X5.4224Y-5.5921
X5.4224Y-6.3795
X5.4224Y-7.1669
X5.4224Y-7.9543
X5.8224Y-2.4425
X5.8224Y-3.2299
X5.8224Y-4.0173
X5.8224Y-4.8047
X5.8224Y-5.5921
X5.8224Y-6.3795
X5.8224Y-7.1669
X5.8224Y-7.9543
X6.2098Y-2.4425
X6.2098Y-3.2299
X6.2098Y-4.0173
X6.2098Y-4.8047
X6.2098Y-5.5921
X6.2098Y-6.3795
X6.2098Y-7.1669
X6.2098Y-7.9543
X6.6098Y-2.4425
X6.6098Y-3.2299
X6.6098Y-4.0173
X6.6098Y-4.8047
X6.6098Y-5.5921
X6.6098Y-6.3795
X6.6098Y-7.1669
X6.6098Y-7.9543
X6.9972Y-2.4425
X6.9972Y-3.2299
X6.9972Y-4.0173
X6.9972Y-4.8047
X6.9972Y-5.5921
X6.9972Y-6.3795
X6.9972Y-7.1669
X6.9972Y-7.9543
X7.3972Y-2.4425
X7.3972Y-3.2299
X7.3972Y-4.0173
X7.3972Y-4.8047
X7.3972Y-5.5921
X7.3972Y-6.3795
X7.3972Y-7.1669
X7.3972Y-7.9543
X7.7846Y-2.4425
X7.7846Y-3.2299
X7.7846Y-4.0173
X7.7846Y-4.8047
X7.7846Y-5.5921
X7.7846Y-6.3795
X7.7846Y-7.1669
X7.7846Y-7.9543
X8.1846Y-2.4425
X8.1846Y-3.2299
X8.1846Y-4.0173
X8.1846Y-4.8047
X8.1846Y-5.5921
X8.1846Y-6.3795
X8.1846Y-7.1669
X8.1846Y-7.9543
T2
X2.4728Y-2.4425
X2.4728Y-3.2299
X2.4728Y-4.0173
X2.4728Y-4.8047
X2.4728Y-5.5921
X2.4728Y-6.3795
X2.4728Y-7.1669
X2.4728Y-7.9543
X3.2602Y-2.4425
X3.2602Y-3.2299
X3.2602Y-4.0173
X3.2602Y-4.8047
X3.2602Y-5.5921
X3.2602Y-6.3795
X3.2602Y-7.1669
X3.2602Y-7.9543
X4.0476Y-2.4425
X4.0476Y-3.2299
X4.0476Y-4.0173
X4.0476Y-4.8047
X4.0476Y-5.5921
X4.0476Y-6.3795
X4.0476Y-7.1669
X4.0476Y-7.9543
X4.835Y-2.4425
X4.835Y-3.2299
X4.835Y-4.0173
X4.835Y-4.8047
X4.835Y-5.5921
X4.835Y-6.3795
X4.835Y-7.1669
X4.835Y-7.9543
X5.6224Y-2.4425
X5.6224Y-3.2299
X5.6224Y-4.0173
X5.6224Y-4.8047
X5.6224Y-5.5921
X5.6224Y-6.3795
X5.6224Y-7.1669
X5.6224Y-7.9543
X6.4098Y-2.4425
X6.4098Y-3.2299
X6.4098Y-4.0173
X6.4098Y-4.8047
X6.4098Y-5.5921
X6.4098Y-6.3795
X6.4098Y-7.1669
X6.4098Y-7.9543
X7.1972Y-2.4425
X7.1972Y-3.2299
X7.1972Y-4.0173
X7.1972Y-4.8047
X7.1972Y-5.5921
X7.1972Y-6.3795
X7.1972Y-7.1669
X7.1972Y-7.9543
X7.9846Y-2.4425
X7.9846Y-3.2299
X7.9846Y-4.0173
X7.9846Y-4.8047
X7.9846Y-5.5921
X7.9846Y-6.3795
X7.9846Y-7.1669
X7.9846Y-7.9543
M30
